<svg width="641" height="330" viewBox="0 0 641 330" fill="none" xmlns="http://www.w3.org/2000/svg">
<path d="M641 327.701H0.640381V328.982H641V327.701Z" fill="#3F3D56"/>
<path d="M407.524 248.201C407.524 248.201 407.524 291.91 417.555 303.374C417.555 303.374 419.705 309.107 420.422 311.256C420.822 312.48 421.301 313.677 421.855 314.839V317.705C421.855 317.705 441.201 315.556 443.351 310.54L439.768 306.241C439.768 306.241 439.052 305.524 439.768 303.374C439.891 303.14 439.948 302.878 439.934 302.614C439.921 302.35 439.836 302.094 439.689 301.875C439.543 301.655 439.34 301.478 439.101 301.364C438.863 301.25 438.598 301.202 438.335 301.225L433.319 289.76L434.036 242.468L430.453 177.263L399.642 175.83L407.524 248.201Z" fill="#2F2E41"/>
<path d="M423.288 313.406C423.288 313.406 418.272 328.453 423.288 329.17C428.303 329.886 472.012 330.603 471.296 324.871C470.579 319.138 456.249 319.855 456.249 319.855L441.201 310.54L423.288 313.406Z" fill="#2F2E41"/>
<path d="M378.862 177.263C378.862 177.263 377.429 186.578 383.161 196.61C388.894 206.642 385.311 240.319 385.311 240.319L334.437 284.745C334.437 284.745 344.468 301.942 348.051 301.225C351.634 300.509 408.24 254.65 408.24 254.65L430.453 180.13L378.862 177.263Z" fill="#2F2E41"/>
<path d="M335.136 282.846C335.136 282.846 319.741 286.665 321.821 291.285C323.901 295.905 346.695 333.207 351.153 329.533C355.612 325.859 347.334 314.138 347.334 314.138L347.147 296.442L335.136 282.846Z" fill="#2F2E41"/>
<path d="M406.807 60.467C415.909 60.467 423.288 53.0885 423.288 43.9866C423.288 34.8846 415.909 27.5061 406.807 27.5061C397.705 27.5061 390.327 34.8846 390.327 43.9866C390.327 53.0885 397.705 60.467 406.807 60.467Z" fill="#FFB8B8"/>
<path d="M393.84 49.8013L394.569 71.0085L408.436 76.4876C408.436 76.4876 409.796 54.7727 411.716 53.5689C413.635 52.365 393.84 49.8013 393.84 49.8013Z" fill="#FFB8B8"/>
<path d="M411.823 79.0968C411.823 79.0968 392.476 59.7502 387.461 60.4667C382.445 61.1832 382.445 63.3329 382.445 64.7659C382.445 66.199 383.878 66.9156 382.445 67.6321C381.012 68.3486 379.579 67.6321 379.579 69.7817C379.579 71.9313 366.681 93.4276 370.98 117.073C375.279 140.719 380.295 152.184 378.146 165.082C375.996 177.979 377.429 180.846 377.429 180.846C377.429 180.846 431.17 185.145 431.886 180.129C432.603 175.113 429.737 177.979 433.319 174.397C436.902 170.814 435.469 170.814 435.469 168.664C435.469 166.515 419.705 79.0968 411.823 79.0968Z" fill="#00928F"/>
<path d="M401.791 176.547C401.791 176.547 410.39 197.326 416.839 192.311C423.288 187.295 413.973 170.098 413.973 170.098L401.791 176.547Z" fill="#FFB8B8"/>
<path d="M381.012 80.5304C381.012 80.5304 364.177 82.4577 370.444 113.38C376.712 144.303 401.075 180.13 401.075 180.13L417.555 172.248L396.059 129.972L401.075 103.46C401.075 103.46 403.941 78.3807 381.012 80.5304Z" fill="#00928F"/>
<path opacity="0.2" d="M395.701 130.33L419.347 169.739L417.197 171.889L395.701 130.33Z" fill="black"/>
<path opacity="0.2" d="M383.185 148.695L402.15 179.771H395.701L383.185 148.695Z" fill="black"/>
<path d="M399.348 53.8896C400.682 53.1841 402.232 53.0387 403.676 52.6002C408.843 51.0315 412.304 45.191 411.199 39.9057C410.995 39.2279 410.903 38.5211 410.927 37.8135C411.121 36.2482 412.722 35.2382 414.258 34.8796C415.794 34.5209 417.428 34.573 418.896 33.9963C421.163 33.1058 422.668 30.7765 422.995 28.3632C423.229 25.9201 422.685 23.4653 421.44 21.35L420.886 22.9464C420.04 22.2302 419.412 21.2909 419.073 20.2353C418.442 20.3413 417.85 20.6073 417.352 21.0079C416.853 21.4086 416.466 21.9304 416.228 22.5235C415.337 23.0486 415.209 20.8922 414.225 20.574C413.793 20.52 413.355 20.6279 412.997 20.8768C411.015 21.8013 408.713 21.0109 406.586 20.4985C402.905 19.6153 399.067 19.6108 395.383 20.4853C392.936 21.069 390.513 22.0855 388.762 23.892C387.392 25.4471 386.34 27.2551 385.665 29.2142C383.786 33.9413 382.546 39.0562 383.166 44.1048C383.682 48.2362 385.41 52.1221 388.133 55.2723C389.551 56.9063 394.178 62.6069 396.715 61.635C399.903 60.4138 395.592 55.8755 399.348 53.8896Z" fill="#2F2E41"/>
<path opacity="0.2" d="M426.025 205.168L407.169 254.606L408.122 254.97L426.977 205.531L426.025 205.168Z" fill="black"/>
<path d="M411.722 83.0313C412.284 83.0313 412.741 82.575 412.741 82.012C412.741 81.449 412.284 80.9927 411.722 80.9927C411.159 80.9927 410.702 81.449 410.702 82.012C410.702 82.575 411.159 83.0313 411.722 83.0313Z" fill="#D0CDE1"/>
<path d="M420.386 110.553C420.277 110.553 420.171 110.518 420.083 110.454C419.996 110.389 419.931 110.298 419.899 110.194L411.235 82.1625C411.215 82.0986 411.208 82.0314 411.214 81.9648C411.22 81.8982 411.24 81.8334 411.271 81.7742C411.302 81.7151 411.345 81.6626 411.396 81.6199C411.448 81.5771 411.507 81.545 411.571 81.5252C411.635 81.5054 411.702 81.4984 411.769 81.5046C411.835 81.5108 411.9 81.5301 411.959 81.5613C412.018 81.5925 412.071 81.6351 412.114 81.6866C412.156 81.7381 412.188 81.7975 412.208 81.8614L420.873 109.893C420.896 109.969 420.901 110.05 420.888 110.129C420.874 110.207 420.843 110.282 420.795 110.346C420.748 110.41 420.686 110.462 420.615 110.498C420.544 110.534 420.465 110.553 420.386 110.553Z" fill="#FEFEFE"/>
<path d="M162.211 284.305L159.539 316.896H169.691L175.033 284.305H162.211Z" fill="#FFB8B8"/>
<path d="M227.394 284.305L224.722 316.896H234.874L240.216 284.305H227.394Z" fill="#FFB8B8"/>
<path d="M232.067 105.202L231.039 120.745L225.251 167.709C225.251 167.709 217.965 189.836 228.443 187.48C238.92 185.124 235.558 166.536 235.558 166.536L242.357 122.614L245.075 107.072L232.067 105.202Z" fill="#FFB8B8"/>
<path d="M241.018 83.1461L245.826 113.066L229.263 111.463L234.072 82.0774L241.018 83.1461Z" fill="#00928F"/>
<path d="M218.311 56.1646C226.573 56.1646 233.271 49.4668 233.271 41.2046C233.271 32.9424 226.573 26.2446 218.311 26.2446C210.049 26.2446 203.351 32.9424 203.351 41.2046C203.351 49.4668 210.049 56.1646 218.311 56.1646Z" fill="#FFB8B8"/>
<path d="M228.195 46.2803C228.195 46.2803 233.004 56.966 235.675 62.8431C238.346 68.7203 237.812 69.7889 237.812 69.7889H215.906C215.906 69.7889 218.044 54.8289 215.906 53.226C213.769 51.6232 228.195 46.2803 228.195 46.2803Z" fill="#FFB8B8"/>
<path d="M224.455 123.752C224.455 123.752 254.375 86.8861 239.415 67.6518C240.242 67.1362 234.24 60.2065 230.332 61.7746C229.631 62.0561 214.838 64.9804 212.701 67.1175C210.564 69.2547 201.214 80.2075 201.214 80.2075C201.214 80.2075 195.871 86.6189 193.734 100.51C191.596 114.402 187.055 121.615 187.055 121.615" fill="#00928F"/>
<path d="M187.055 121.615L185.987 130.163L163.814 213.779L152.327 287.778C157.824 296.776 169.719 298.213 187.589 292.586L191.062 219.656L207.091 179.585L213.769 292.586C228.291 297.412 241.393 296.381 253.307 290.449L233.271 171.036C233.271 171.036 243.155 153.672 225.524 131.232L224.455 123.752" fill="#2F2E41"/>
<path d="M203.084 102.38L197.206 116.806L176.904 159.549C176.904 159.549 163.012 178.249 173.698 179.317C184.384 180.386 187.055 161.686 187.055 161.686L207.358 122.149L214.838 108.257L203.084 102.38Z" fill="#FFB8B8"/>
<path d="M171.828 304.608V313.232C171.828 313.232 177.989 327.402 173.676 328.634C169.364 329.866 157.659 328.634 155.811 328.634C153.962 328.634 134.249 330.482 134.865 324.938C135.481 319.393 148.418 315.697 148.418 315.697L160.123 304.608H171.828Z" fill="#2F2E41"/>
<path d="M237.545 304.608V313.232C237.545 313.232 243.705 327.402 239.393 328.634C235.081 329.866 223.376 328.634 221.527 328.634C219.679 328.634 199.965 330.482 200.581 324.938C201.198 319.393 214.135 315.697 214.135 315.697L225.84 304.608H237.545Z" fill="#2F2E41"/>
<path d="M221.249 65.5146C221.249 65.5146 210.564 68.1861 205.755 85.2832C200.946 102.38 199.878 105.052 199.878 105.052L215.906 112.532L227.661 89.0232C227.661 89.0232 234.606 68.7204 221.249 65.5146Z" fill="#00928F"/>
<path d="M202.328 36.6251C202.328 36.6251 199.405 13.8747 223.257 21.3351C223.257 21.3351 240.293 18.2094 245.879 39.5179L251.536 61.8546L248.779 60.354L247.494 63.1634L243.026 64.2948L241.115 60.5005L240.19 65.1082L203.6 68.7559C203.6 68.7559 219.988 59.0642 220.248 41.6944L217.126 44.9931L202.328 36.6251Z" fill="#2F2E41"/>
<path opacity="0.2" d="M224.722 87.6877L213.213 111.275L215.639 112.265L224.722 87.6877Z" fill="black"/>
<path opacity="0.2" d="M211.365 84.4819L200.145 105.319H198.007L211.365 84.4819Z" fill="black"/>
<path opacity="0.2" d="M240.925 94.8245L232.698 111.796H237.856L240.925 94.8245Z" fill="#00928F"/>
<path d="M528.619 6.83496H510.959V8.30659H528.619V6.83496Z" fill="#3F3D56"/>
<path d="M552.165 6.83496H534.505V8.30659H552.165V6.83496Z" fill="#3F3D56"/>
<path d="M586.38 20.4475H568.721V21.9191H586.38V20.4475Z" fill="#3F3D56"/>
<path d="M610.294 20.4475H592.635V21.9191H610.294V20.4475Z" fill="#3F3D56"/>
<path d="M610.294 6.83496H558.419V8.30659H610.294V6.83496Z" fill="#3F3D56"/>
<path d="M562.834 20.4475H510.959V21.9191H562.834V20.4475Z" fill="#3F3D56"/>
<path d="M562.834 34.0601H510.959V35.5317H562.834V34.0601Z" fill="#3F3D56"/>
<path d="M610.294 34.0601H574.24V35.5317H610.294V34.0601Z" fill="#3F3D56"/>
<path d="M505.996 13.0478L499.783 6.83499L505.996 0.621582L507.238 1.86452L502.269 6.83499L507.238 11.8048L505.996 13.0478Z" fill="#00928F"/>
<path d="M627.031 41.7448L625.788 40.5018L630.758 35.5314L625.788 30.5615L627.031 29.3186L633.244 35.5314L627.031 41.7448Z" fill="#00928F"/>
<path d="M620.49 29.0225L616.811 41.1631L618.494 41.673L622.173 29.5324L620.49 29.0225Z" fill="#D0CDE1"/>
<path d="M15.311 311.879C18.0855 322.135 27.5891 328.487 27.5891 328.487C27.5891 328.487 32.5941 318.21 29.8196 307.954C27.045 297.697 17.5415 291.345 17.5415 291.345C17.5415 291.345 12.5364 301.622 15.311 311.879Z" fill="#00928F"/>
<path d="M28.2924 328.83L27.9135 328.809C27.7981 328.803 16.2876 328.094 8.67313 320.681C1.05896 313.269 0.0402317 301.782 0.0308376 301.666L0 301.289L0.37885 301.309C0.49425 301.315 12.0047 302.025 19.6191 309.437C27.2334 316.85 28.2522 328.337 28.2615 328.452L28.2924 328.83ZM0.733122 302.002C0.98283 304.053 2.48611 313.735 9.13506 320.207C15.784 326.68 25.5024 327.922 27.5592 328.116C27.3095 326.065 25.8062 316.384 19.1571 309.912C12.5034 303.434 2.78901 302.196 0.733136 302.002L0.733122 302.002Z" fill="#3F3D56"/>
<path d="M593.596 310.447C590.692 321.182 580.744 327.831 580.744 327.831C580.744 327.831 575.506 317.074 578.41 306.338C581.314 295.603 591.261 288.954 591.261 288.954C591.261 288.954 596.5 299.711 593.596 310.447Z" fill="#00928F"/>
<path d="M580.041 327.794C580.05 327.674 581.117 315.65 589.087 307.891C597.057 300.133 609.105 299.39 609.226 299.384L609.622 299.362L609.59 299.758C609.58 299.878 608.514 311.902 600.544 319.661C592.574 327.419 580.526 328.162 580.405 328.168L580.008 328.19L580.041 327.794ZM589.57 308.388C582.611 315.163 581.037 325.296 580.776 327.443C582.929 327.239 593.101 325.939 600.06 319.164C607.02 312.39 608.594 302.255 608.855 300.109C606.703 300.311 596.535 301.608 589.57 308.388Z" fill="#3F3D56"/>
<path d="M62.1397 214.471H43.88C42.8757 214.47 41.9054 214.107 41.1472 213.448C40.3891 212.789 39.894 211.879 39.753 210.885C38.6255 202.588 38.6255 194.177 39.753 185.88C39.8924 184.898 40.3774 183.997 41.1209 183.34C41.8645 182.683 42.8179 182.313 43.81 182.295C49.5551 179.72 55.742 179.72 62.2025 182.295C62.8042 182.303 63.3968 182.443 63.9388 182.704C64.4808 182.965 64.959 183.342 65.3399 183.808C65.737 184.293 66.0212 184.86 66.1718 185.468C66.3223 186.076 66.3355 186.71 66.2104 187.324C64.7436 194.624 64.7436 202.142 66.2104 209.441C66.3355 210.055 66.3223 210.689 66.1718 211.297C66.0212 211.906 65.737 212.473 65.3399 212.957C64.9524 213.431 64.4641 213.813 63.9105 214.075C63.357 214.337 62.752 214.472 62.1397 214.471Z" fill="#00928F"/>
<path d="M568.178 134.033H549.919C548.914 134.033 547.944 133.67 547.186 133.011C546.428 132.352 545.933 131.442 545.792 130.448C544.664 122.151 544.664 113.74 545.792 105.443C545.931 104.461 546.416 103.56 547.16 102.903C547.903 102.246 548.857 101.876 549.849 101.858C555.594 99.2829 561.781 99.2832 568.241 101.858C568.843 101.866 569.435 102.005 569.977 102.267C570.519 102.528 570.998 102.905 571.379 103.371C571.776 103.855 572.06 104.422 572.21 105.031C572.361 105.639 572.374 106.273 572.249 106.887C570.782 114.186 570.782 121.705 572.249 129.004C572.374 129.618 572.361 130.252 572.21 130.86C572.06 131.468 571.776 132.035 571.379 132.52C570.991 132.994 570.503 133.376 569.949 133.638C569.396 133.899 568.791 134.035 568.178 134.033Z" fill="#00928F"/>
<path d="M60.2272 191.828H44.8585C44.6038 191.828 44.3595 191.727 44.1793 191.547C43.9992 191.367 43.898 191.123 43.898 190.868C43.898 190.613 43.9992 190.369 44.1793 190.189C44.3595 190.008 44.6038 189.907 44.8585 189.907H60.2272C60.4819 189.907 60.7263 190.008 60.9064 190.189C61.0865 190.369 61.1877 190.613 61.1877 190.868C61.1877 191.123 61.0865 191.367 60.9064 191.547C60.7263 191.727 60.4819 191.828 60.2272 191.828Z" fill="white"/>
<path d="M566.266 111.391H550.897C550.643 111.391 550.398 111.29 550.218 111.11C550.038 110.93 549.937 110.685 549.937 110.431C549.937 110.176 550.038 109.931 550.218 109.751C550.398 109.571 550.643 109.47 550.897 109.47H566.266C566.521 109.47 566.765 109.571 566.945 109.751C567.125 109.931 567.226 110.176 567.226 110.431C567.226 110.685 567.125 110.93 566.945 111.11C566.765 111.29 566.521 111.391 566.266 111.391Z" fill="white"/>
<path d="M60.2272 199.512H44.8585C44.6038 199.512 44.3595 199.411 44.1793 199.231C43.9992 199.051 43.898 198.807 43.898 198.552C43.898 198.297 43.9992 198.053 44.1793 197.873C44.3595 197.693 44.6038 197.591 44.8585 197.591H60.2272C60.4819 197.591 60.7263 197.693 60.9064 197.873C61.0865 198.053 61.1877 198.297 61.1877 198.552C61.1877 198.807 61.0865 199.051 60.9064 199.231C60.7263 199.411 60.4819 199.512 60.2272 199.512Z" fill="white"/>
<path d="M566.266 119.075H550.897C550.643 119.075 550.398 118.974 550.218 118.794C550.038 118.614 549.937 118.37 549.937 118.115C549.937 117.86 550.038 117.616 550.218 117.436C550.398 117.256 550.643 117.154 550.897 117.154H566.266C566.521 117.154 566.765 117.256 566.945 117.436C567.125 117.616 567.226 117.86 567.226 118.115C567.226 118.37 567.125 118.614 566.945 118.794C566.765 118.974 566.521 119.075 566.266 119.075Z" fill="white"/>
<path d="M60.2272 207.197H44.8585C44.6038 207.197 44.3595 207.096 44.1793 206.916C43.9992 206.735 43.898 206.491 43.898 206.236C43.898 205.982 43.9992 205.737 44.1793 205.557C44.3595 205.377 44.6038 205.276 44.8585 205.276H60.2272C60.4819 205.276 60.7263 205.377 60.9064 205.557C61.0865 205.737 61.1877 205.982 61.1877 206.236C61.1877 206.491 61.0865 206.735 60.9064 206.916C60.7263 207.096 60.4819 207.197 60.2272 207.197Z" fill="white"/>
<path d="M79.6908 76.2789C79.0602 76.2803 78.4545 76.0369 78.0057 75.6016L66.8349 64.766C66.6156 64.5532 66.4415 64.2998 66.3227 64.0205C66.2038 63.7412 66.1426 63.4414 66.1426 63.1387C66.1426 62.8359 66.2038 62.5362 66.3227 62.2568C66.4415 61.9775 66.6156 61.7241 66.8349 61.5114L77.9606 50.7194C78.4241 50.272 79.0485 50.0222 79.6983 50.0242C80.3482 50.0262 80.971 50.2799 81.4316 50.7301C81.8927 51.1841 82.1516 51.7991 82.1516 52.4403C82.1516 53.0815 81.8927 53.6966 81.4317 54.1505L73.1644 62.2716C72.9068 62.5252 72.7621 62.8688 72.7621 63.227C72.7621 63.5852 72.9068 63.9288 73.1644 64.1825L81.3868 72.2594C81.7226 72.5886 81.9513 73.0083 82.0441 73.4653C82.1368 73.9223 82.0893 74.396 81.9077 74.8265C81.726 75.257 81.4184 75.6248 81.0238 75.8833C80.6291 76.1419 80.1652 76.2796 79.6908 76.2789V76.2789Z" fill="#00928F"/>
<path d="M96.7803 76.2789C96.306 76.2796 95.8421 76.1419 95.4474 75.8833C95.0528 75.6248 94.7452 75.257 94.5636 74.8265C94.382 74.396 94.3345 73.9223 94.4272 73.4653C94.52 73.0083 94.7487 72.5886 95.0844 72.2594L103.306 64.1825C103.564 63.9289 103.708 63.5853 103.708 63.227C103.708 62.8688 103.564 62.5252 103.306 62.2716L95.0396 54.1505C94.811 53.9259 94.6296 53.6593 94.5059 53.3659C94.3821 53.0724 94.3185 52.7579 94.3185 52.4403C94.3185 52.1227 94.3822 51.8082 94.5059 51.5148C94.6296 51.2213 94.811 50.9547 95.0396 50.7301C95.5002 50.2799 96.123 50.0262 96.7728 50.0242C97.4226 50.0222 98.0469 50.272 98.5104 50.7194L109.635 61.5114C109.854 61.7241 110.029 61.9775 110.147 62.2568C110.266 62.5362 110.327 62.8359 110.327 63.1387C110.327 63.4414 110.266 63.7412 110.147 64.0205C110.029 64.2998 109.854 64.5532 109.635 64.766L98.4653 75.6016C98.0165 76.0368 97.4109 76.2803 96.7803 76.2789Z" fill="#00928F"/>
<path d="M571.942 235.043C571.311 235.044 570.705 234.801 570.257 234.365L559.086 223.53C558.867 223.317 558.692 223.064 558.574 222.784C558.455 222.505 558.394 222.205 558.394 221.902C558.394 221.6 558.455 221.3 558.574 221.02C558.692 220.741 558.867 220.488 559.086 220.275L570.211 209.483C570.675 209.036 571.299 208.786 571.949 208.788C572.599 208.79 573.222 209.044 573.683 209.494C574.144 209.948 574.403 210.563 574.403 211.204C574.403 211.845 574.144 212.46 573.683 212.914L565.415 221.035C565.158 221.289 565.013 221.632 565.013 221.991C565.013 222.349 565.158 222.693 565.415 222.946L573.638 231.023C573.974 231.352 574.202 231.772 574.295 232.229C574.388 232.686 574.34 233.16 574.159 233.59C573.977 234.021 573.669 234.388 573.275 234.647C572.88 234.906 572.416 235.043 571.942 235.043V235.043Z" fill="#00928F"/>
<path d="M589.031 235.043C588.557 235.043 588.093 234.906 587.698 234.647C587.304 234.388 586.996 234.021 586.814 233.59C586.633 233.16 586.585 232.686 586.678 232.229C586.771 231.772 587 231.352 587.335 231.023L595.557 222.946C595.815 222.693 595.959 222.349 595.959 221.991C595.959 221.632 595.815 221.289 595.557 221.035L587.29 212.914C587.062 212.69 586.88 212.423 586.757 212.13C586.633 211.836 586.569 211.522 586.569 211.204C586.569 210.886 586.633 210.572 586.757 210.278C586.88 209.985 587.062 209.718 587.29 209.494C587.751 209.044 588.374 208.79 589.024 208.788C589.673 208.786 590.298 209.036 590.761 209.483L601.886 220.275C602.105 220.488 602.279 220.741 602.398 221.02C602.517 221.3 602.578 221.6 602.578 221.902C602.578 222.205 602.517 222.505 602.398 222.784C602.279 223.064 602.105 223.317 601.886 223.53L590.716 234.365C590.267 234.801 589.662 235.044 589.031 235.043Z" fill="#00928F"/>
</svg>
