<svg width="595" height="464" viewBox="0 0 595 464" fill="none" xmlns="http://www.w3.org/2000/svg">
<g clip-path="url(#clip0_107_757)">
<path d="M494.783 200.106C494.783 200.106 480.794 207.885 484.821 216.742C488.847 225.599 546.026 218.353 546.026 218.353C546.026 218.353 542 206.275 534.752 203.859C527.504 201.444 494.783 200.106 494.783 200.106Z" fill="#00928F"/>
<path d="M489.329 202.18C492.141 200.353 495.266 199.061 498.548 198.369C509.493 195.717 520.951 196.074 531.709 199.403L531.512 199.243C536.096 201.662 540.12 205.016 543.323 209.089L489.329 202.18Z" fill="#B1B1B1"/>
<path d="M551.277 240.27C551.084 243.16 550.89 246.048 550.697 248.933C550.432 254.976 549.773 260.996 548.724 266.953C547.742 271.937 546.179 276.881 543.385 281.124C540.59 285.36 536.443 288.862 531.53 290.15C528.514 290.873 525.378 290.942 522.333 290.352C516.591 287.091 512.701 291.261 518.435 295.505C519.736 296.466 521.088 297.356 522.486 298.17L525.087 338.324L476.767 327.857L486.198 274.441C484.753 273.129 483.432 271.687 482.251 270.134C476.848 262.959 474.987 253.611 475.342 244.642C475.704 235.664 478.096 226.912 480.472 218.256C481.077 215.908 481.809 213.593 482.662 211.323C483.717 211.758 484.788 212.153 485.876 212.483C492.826 214.592 500.211 214.761 507.475 214.753C520.4 214.745 533.31 214.241 546.203 213.24C549.166 218.117 550.966 223.61 551.462 229.295C551.67 232.953 551.608 236.621 551.277 240.27Z" fill="#B1B1B1"/>
<path d="M344.612 349.27L419.001 355.873L419.799 355.945V38.5922C419.533 38.407 419.267 38.2218 419.001 38.0366C403.498 27.1946 386.727 18.2877 369.062 11.514L365.261 63.9311L364.915 68.73L361.154 120.712L359.994 136.703L344.749 347.418L344.612 349.27Z" fill="#B1B1B1"/>
<path d="M160.649 32.6822C160.117 33.0203 159.586 33.3585 159.054 33.7128V355.945L160.649 355.8L234.233 349.27L234.096 347.418L218.851 136.703L217.691 120.712L213.93 68.73L213.584 63.9311L209.597 8.96161C192.406 14.9194 175.977 22.8811 160.649 32.6822Z" fill="#B1B1B1"/>
<path d="M159.054 33.7128C157.983 34.4053 156.912 35.1138 155.857 35.8304V360.341C155.857 368.449 160.665 375.245 167.092 376.976C168.142 377.261 169.225 377.404 170.313 377.403H409.337C410.423 377.405 411.503 377.261 412.551 376.976C414.939 376.314 417.104 375.017 418.816 373.224C422.08 369.736 423.864 365.118 423.793 360.341V41.4747C422.472 40.5005 421.144 39.5343 419.799 38.5922C419.533 38.407 419.267 38.2218 419.001 38.0366V360.341C419.003 361.386 418.879 362.427 418.631 363.441C417.495 368.232 413.751 371.743 409.337 371.743H170.313C164.982 371.743 160.649 366.63 160.649 360.341V32.6822C160.117 33.0204 159.586 33.3585 159.054 33.7128Z" fill="#B1B1B1"/>
<path d="M421.397 63.9344H158.251V68.7325H421.397V63.9344Z" fill="#B1B1B1"/>
<path d="M340.803 2.72956C339.208 2.33502 337.614 1.96463 336.003 1.61841V131.904H340.803V2.72956Z" fill="#B1B1B1"/>
<path d="M243.647 0C242.044 0.297916 240.442 0.603874 238.847 0.933997V131.904H243.647V0Z" fill="#B1B1B1"/>
<path d="M106.659 369.005C106.658 371.758 107.186 374.486 108.213 377.041C108.608 378.031 109.079 378.99 109.623 379.907C110.324 381.104 111.139 382.231 112.055 383.273C114.078 385.578 116.57 387.425 119.364 388.69C122.159 389.955 125.191 390.609 128.258 390.608H443.395C449.124 390.608 454.617 388.333 458.668 384.283C462.719 380.233 464.994 374.74 464.994 369.013C464.994 363.286 462.719 357.793 458.668 353.743C454.617 349.693 449.124 347.418 443.395 347.418H128.258C122.533 347.424 117.044 349.7 112.994 353.747C108.945 357.793 106.667 363.281 106.659 369.005Z" fill="#B1B1B1"/>
<path d="M158.251 136.705L419.797 136.705V120.711L158.251 120.711V136.705Z" fill="#B1B1B1"/>
<path d="M300.222 124.71H277.827C277.827 123.555 278.054 122.411 278.496 121.344C278.938 120.276 279.586 119.307 280.403 118.49C281.22 117.673 282.19 117.025 283.258 116.583C284.325 116.141 285.469 115.913 286.625 115.913H291.424C293.757 115.913 295.995 116.84 297.645 118.49C299.295 120.139 300.222 122.377 300.222 124.71H300.222Z" fill="#B1B1B1"/>
<path d="M0 381.34C6.99618 389.628 14.5633 397.417 22.6461 404.65H572.354C580.437 397.417 588.004 389.628 595 381.34H0Z" fill="#3F3D56"/>
<path d="M149.116 303.391V385.97H206.98V303.391C206.981 302.797 206.791 302.219 206.439 301.74C206.087 301.262 205.591 300.909 205.023 300.734C204.756 300.646 204.475 300.602 204.194 300.605H151.911C151.544 300.605 151.181 300.676 150.843 300.816C150.504 300.955 150.196 301.16 149.936 301.419C149.677 301.678 149.471 301.985 149.33 302.324C149.189 302.662 149.117 303.025 149.116 303.391ZM171.698 331.766C171.713 330.138 172.371 328.581 173.527 327.436C174.684 326.29 176.247 325.647 177.875 325.647C179.503 325.647 181.066 326.29 182.223 327.436C183.379 328.581 184.037 330.138 184.052 331.766V341.347C184.044 342.98 183.389 344.542 182.232 345.694C181.074 346.845 179.508 347.491 177.875 347.491C176.242 347.491 174.676 346.845 173.518 345.694C172.361 344.542 171.706 342.98 171.698 341.347V331.766Z" fill="#2F2E41"/>
<path d="M148.939 383.329V391.292C148.941 391.705 149.104 392.1 149.395 392.393C149.686 392.685 150.081 392.851 150.494 392.855H205.603C206.016 392.852 206.411 392.687 206.702 392.394C206.994 392.102 207.157 391.705 207.157 391.292V383.329H148.939Z" fill="#3F3D56"/>
<path d="M58.0891 178.975V329.753C58.0906 331.674 58.8547 333.516 60.2136 334.875C61.5726 336.234 63.4153 336.998 65.3371 336.999H288.818C290.74 336.998 292.583 336.234 293.942 334.875C295.301 333.516 296.065 331.674 296.066 329.753V178.975C296.062 177.055 295.297 175.216 293.938 173.859C292.58 172.502 290.739 171.739 288.818 171.736H65.3371C63.4169 171.739 61.576 172.502 60.2175 173.859C58.859 175.216 58.0936 177.055 58.0891 178.975Z" fill="#3F3D56"/>
<path d="M63.3318 180.851V327.893C63.3336 328.919 63.7422 329.903 64.4683 330.629C65.1944 331.355 66.1786 331.764 67.2055 331.766H286.958C287.985 331.764 288.969 331.355 289.695 330.629C290.421 329.903 290.83 328.919 290.832 327.893V180.851C290.832 179.823 290.424 178.837 289.698 178.11C288.971 177.382 287.986 176.972 286.958 176.97H67.2055C66.1774 176.972 65.1922 177.382 64.466 178.11C63.7398 178.837 63.3319 179.823 63.3318 180.851Z" fill="#00928F"/>
<path d="M108.141 394.731C108.364 395.011 108.649 395.237 108.972 395.392C109.296 395.547 109.65 395.626 110.009 395.624H240.748C241.105 395.624 241.458 395.544 241.781 395.39C242.104 395.236 242.388 395.012 242.613 394.734C242.838 394.457 242.999 394.132 243.083 393.785C243.167 393.437 243.173 393.076 243.099 392.726L241.07 383.088C240.986 382.695 240.805 382.329 240.543 382.024C240.282 381.719 239.948 381.484 239.572 381.34C239.3 381.234 239.011 381.179 238.718 381.179H112.031C111.738 381.179 111.449 381.234 111.177 381.34C110.801 381.484 110.467 381.719 110.206 382.024C109.944 382.329 109.763 382.695 109.679 383.088L107.65 392.726C107.577 393.075 107.584 393.437 107.669 393.784C107.754 394.13 107.915 394.454 108.141 394.731Z" fill="#2F2E41"/>
<path d="M234.156 385.331H237.397C237.614 385.331 237.79 385.155 237.79 384.938V383.308C237.79 383.091 237.614 382.915 237.397 382.915H234.156C233.939 382.915 233.763 383.091 233.763 383.308V384.938C233.763 385.155 233.939 385.331 234.156 385.331Z" fill="#3F3D56"/>
<path d="M226.103 385.331H229.343C229.56 385.331 229.736 385.155 229.736 384.938V383.308C229.736 383.091 229.56 382.915 229.343 382.915H226.103C225.886 382.915 225.71 383.091 225.71 383.308V384.938C225.71 385.155 225.886 385.331 226.103 385.331Z" fill="#3F3D56"/>
<path d="M218.049 385.331H221.29C221.507 385.331 221.683 385.155 221.683 384.938V383.308C221.683 383.091 221.507 382.915 221.29 382.915H218.049C217.832 382.915 217.656 383.091 217.656 383.308V384.938C217.656 385.155 217.832 385.331 218.049 385.331Z" fill="#3F3D56"/>
<path d="M209.996 385.331H213.236C213.454 385.331 213.63 385.155 213.63 384.938V383.308C213.63 383.091 213.454 382.915 213.236 382.915H209.996C209.779 382.915 209.603 383.091 209.603 383.308V384.938C209.603 385.155 209.779 385.331 209.996 385.331Z" fill="#3F3D56"/>
<path d="M201.943 385.331H205.183C205.4 385.331 205.576 385.155 205.576 384.938V383.308C205.576 383.091 205.4 382.915 205.183 382.915H201.943C201.726 382.915 201.55 383.091 201.55 383.308V384.938C201.55 385.155 201.726 385.331 201.943 385.331Z" fill="#3F3D56"/>
<path d="M193.889 385.331H197.13C197.347 385.331 197.523 385.155 197.523 384.938V383.308C197.523 383.091 197.347 382.915 197.13 382.915H193.889C193.672 382.915 193.496 383.091 193.496 383.308V384.938C193.496 385.155 193.672 385.331 193.889 385.331Z" fill="#3F3D56"/>
<path d="M185.836 385.331H189.076C189.293 385.331 189.469 385.155 189.469 384.938V383.308C189.469 383.091 189.293 382.915 189.076 382.915H185.836C185.619 382.915 185.443 383.091 185.443 383.308V384.938C185.443 385.155 185.619 385.331 185.836 385.331Z" fill="#3F3D56"/>
<path d="M177.783 385.331H181.023C181.24 385.331 181.416 385.155 181.416 384.938V383.308C181.416 383.091 181.24 382.915 181.023 382.915H177.783C177.565 382.915 177.389 383.091 177.389 383.308V384.938C177.389 385.155 177.565 385.331 177.783 385.331Z" fill="#3F3D56"/>
<path d="M169.729 385.331H172.97C173.187 385.331 173.363 385.155 173.363 384.938V383.308C173.363 383.091 173.187 382.915 172.97 382.915H169.729C169.512 382.915 169.336 383.091 169.336 383.308V384.938C169.336 385.155 169.512 385.331 169.729 385.331Z" fill="#3F3D56"/>
<path d="M161.676 385.331H164.916C165.133 385.331 165.309 385.155 165.309 384.938V383.308C165.309 383.091 165.133 382.915 164.916 382.915H161.676C161.459 382.915 161.283 383.091 161.283 383.308V384.938C161.283 385.155 161.459 385.331 161.676 385.331Z" fill="#3F3D56"/>
<path d="M153.622 385.331H156.863C157.08 385.331 157.256 385.155 157.256 384.938V383.308C157.256 383.091 157.08 382.915 156.863 382.915H153.622C153.405 382.915 153.229 383.091 153.229 383.308V384.938C153.229 385.155 153.405 385.331 153.622 385.331Z" fill="#3F3D56"/>
<path d="M145.569 385.331H148.809C149.027 385.331 149.203 385.155 149.203 384.938V383.308C149.203 383.091 149.027 382.915 148.809 382.915H145.569C145.352 382.915 145.176 383.091 145.176 383.308V384.938C145.176 385.155 145.352 385.331 145.569 385.331Z" fill="#3F3D56"/>
<path d="M137.516 385.331H140.756C140.973 385.331 141.149 385.155 141.149 384.938V383.308C141.149 383.091 140.973 382.915 140.756 382.915H137.516C137.299 382.915 137.122 383.091 137.122 383.308V384.938C137.122 385.155 137.299 385.331 137.516 385.331Z" fill="#3F3D56"/>
<path d="M129.462 385.331H132.703C132.92 385.331 133.096 385.155 133.096 384.938V383.308C133.096 383.091 132.92 382.915 132.703 382.915H129.462C129.245 382.915 129.069 383.091 129.069 383.308V384.938C129.069 385.155 129.245 385.331 129.462 385.331Z" fill="#3F3D56"/>
<path d="M121.409 385.331H124.649C124.866 385.331 125.042 385.155 125.042 384.938V383.308C125.042 383.091 124.866 382.915 124.649 382.915H121.409C121.192 382.915 121.016 383.091 121.016 383.308V384.938C121.016 385.155 121.192 385.331 121.409 385.331Z" fill="#3F3D56"/>
<path d="M113.356 385.331H116.596C116.813 385.331 116.989 385.155 116.989 384.938V383.308C116.989 383.091 116.813 382.915 116.596 382.915H113.356C113.138 382.915 112.962 383.091 112.962 383.308V384.938C112.962 385.155 113.138 385.331 113.356 385.331Z" fill="#3F3D56"/>
<path d="M234.251 389.357H237.492C237.709 389.357 237.885 389.181 237.885 388.964V387.334C237.885 387.117 237.709 386.941 237.492 386.941H234.251C234.034 386.941 233.858 387.117 233.858 387.334V388.964C233.858 389.181 234.034 389.357 234.251 389.357Z" fill="#3F3D56"/>
<path d="M226.198 389.357H229.438C229.656 389.357 229.832 389.181 229.832 388.964V387.334C229.832 387.117 229.656 386.941 229.438 386.941H226.198C225.981 386.941 225.805 387.117 225.805 387.334V388.964C225.805 389.181 225.981 389.357 226.198 389.357Z" fill="#3F3D56"/>
<path d="M218.145 389.357H221.385C221.602 389.357 221.778 389.181 221.778 388.964V387.334C221.778 387.117 221.602 386.941 221.385 386.941H218.145C217.928 386.941 217.752 387.117 217.752 387.334V388.964C217.752 389.181 217.928 389.357 218.145 389.357Z" fill="#3F3D56"/>
<path d="M210.091 389.357H213.332C213.549 389.357 213.725 389.181 213.725 388.964V387.334C213.725 387.117 213.549 386.941 213.332 386.941H210.091C209.874 386.941 209.698 387.117 209.698 387.334V388.964C209.698 389.181 209.874 389.357 210.091 389.357Z" fill="#3F3D56"/>
<path d="M202.038 389.357H205.278C205.495 389.357 205.671 389.181 205.671 388.964V387.334C205.671 387.117 205.495 386.941 205.278 386.941H202.038C201.821 386.941 201.645 387.117 201.645 387.334V388.964C201.645 389.181 201.821 389.357 202.038 389.357Z" fill="#3F3D56"/>
<path d="M193.984 389.357H197.225C197.442 389.357 197.618 389.181 197.618 388.964V387.334C197.618 387.117 197.442 386.941 197.225 386.941H193.984C193.767 386.941 193.591 387.117 193.591 387.334V388.964C193.591 389.181 193.767 389.357 193.984 389.357Z" fill="#3F3D56"/>
<path d="M185.931 389.357H189.172C189.389 389.357 189.565 389.181 189.565 388.964V387.334C189.565 387.117 189.389 386.941 189.172 386.941H185.931C185.714 386.941 185.538 387.117 185.538 387.334V388.964C185.538 389.181 185.714 389.357 185.931 389.357Z" fill="#3F3D56"/>
<path d="M177.878 389.357H181.118C181.335 389.357 181.511 389.181 181.511 388.964V387.334C181.511 387.117 181.335 386.941 181.118 386.941H177.878C177.661 386.941 177.485 387.117 177.485 387.334V388.964C177.485 389.181 177.661 389.357 177.878 389.357Z" fill="#3F3D56"/>
<path d="M169.824 389.357H173.065C173.282 389.357 173.458 389.181 173.458 388.964V387.334C173.458 387.117 173.282 386.941 173.065 386.941H169.824C169.607 386.941 169.431 387.117 169.431 387.334V388.964C169.431 389.181 169.607 389.357 169.824 389.357Z" fill="#3F3D56"/>
<path d="M161.771 389.357H165.011C165.229 389.357 165.405 389.181 165.405 388.964V387.334C165.405 387.117 165.229 386.941 165.011 386.941H161.771C161.554 386.941 161.378 387.117 161.378 387.334V388.964C161.378 389.181 161.554 389.357 161.771 389.357Z" fill="#3F3D56"/>
<path d="M153.718 389.357H156.958C157.175 389.357 157.351 389.181 157.351 388.964V387.334C157.351 387.117 157.175 386.941 156.958 386.941H153.718C153.5 386.941 153.324 387.117 153.324 387.334V388.964C153.324 389.181 153.5 389.357 153.718 389.357Z" fill="#3F3D56"/>
<path d="M145.664 389.357H148.905C149.122 389.357 149.298 389.181 149.298 388.964V387.334C149.298 387.117 149.122 386.941 148.905 386.941H145.664C145.447 386.941 145.271 387.117 145.271 387.334V388.964C145.271 389.181 145.447 389.357 145.664 389.357Z" fill="#3F3D56"/>
<path d="M137.611 389.357H140.851C141.068 389.357 141.244 389.181 141.244 388.964V387.334C141.244 387.117 141.068 386.941 140.851 386.941H137.611C137.394 386.941 137.218 387.117 137.218 387.334V388.964C137.218 389.181 137.394 389.357 137.611 389.357Z" fill="#3F3D56"/>
<path d="M129.557 389.357H132.798C133.015 389.357 133.191 389.181 133.191 388.964V387.334C133.191 387.117 133.015 386.941 132.798 386.941H129.557C129.34 386.941 129.164 387.117 129.164 387.334V388.964C129.164 389.181 129.34 389.357 129.557 389.357Z" fill="#3F3D56"/>
<path d="M121.504 389.357H124.744C124.962 389.357 125.138 389.181 125.138 388.964V387.334C125.138 387.117 124.962 386.941 124.744 386.941H121.504C121.287 386.941 121.111 387.117 121.111 387.334V388.964C121.111 389.181 121.287 389.357 121.504 389.357Z" fill="#3F3D56"/>
<path d="M113.451 389.357H116.691C116.908 389.357 117.084 389.181 117.084 388.964V387.334C117.084 387.117 116.908 386.941 116.691 386.941H113.451C113.234 386.941 113.058 387.117 113.058 387.334V388.964C113.058 389.181 113.234 389.357 113.451 389.357Z" fill="#3F3D56"/>
<path d="M167.408 394.188H198.836C199.053 394.188 199.229 394.012 199.229 393.795V392.165C199.229 391.948 199.053 391.772 198.836 391.772H167.408C167.191 391.772 167.015 391.948 167.015 392.165V393.795C167.015 394.012 167.191 394.188 167.408 394.188Z" fill="#3F3D56"/>
<path d="M78.2482 197.226H283.87C284.084 197.221 284.287 197.133 284.437 196.98C284.586 196.827 284.67 196.622 284.67 196.408C284.67 196.194 284.586 195.989 284.437 195.836C284.287 195.684 284.084 195.595 283.87 195.591H78.2482C78.0344 195.595 77.831 195.684 77.6815 195.836C77.532 195.989 77.4482 196.194 77.4482 196.408C77.4482 196.622 77.532 196.827 77.6815 196.98C77.831 197.133 78.0344 197.221 78.2482 197.226Z" fill="#3F3D56"/>
<path d="M269.873 191.416C272.52 191.416 274.665 189.224 274.665 186.519C274.665 183.813 272.52 181.621 269.873 181.621C267.226 181.621 265.081 183.813 265.081 186.519C265.081 189.224 267.226 191.416 269.873 191.416Z" fill="#3F3D56"/>
<path d="M253.318 191.416C255.965 191.416 258.11 189.224 258.11 186.519C258.11 183.813 255.965 181.621 253.318 181.621C250.672 181.621 248.526 183.813 248.526 186.519C248.526 189.224 250.672 191.416 253.318 191.416Z" fill="#3F3D56"/>
<path d="M236.764 191.416C239.41 191.416 241.556 189.224 241.556 186.519C241.556 183.813 239.41 181.621 236.764 181.621C234.117 181.621 231.972 183.813 231.972 186.519C231.972 189.224 234.117 191.416 236.764 191.416Z" fill="#3F3D56"/>
<path d="M87.3389 183.726C87.3384 183.841 87.3606 183.956 87.4045 184.063C87.4483 184.17 87.5128 184.268 87.5943 184.35C87.6758 184.432 87.7728 184.498 87.8796 184.543C87.9864 184.587 88.1009 184.611 88.2168 184.611H99.9747C100.207 184.606 100.428 184.51 100.591 184.343C100.753 184.177 100.844 183.954 100.844 183.722C100.844 183.489 100.753 183.266 100.591 183.1C100.428 182.933 100.207 182.837 99.9747 182.832H88.2168C87.982 182.835 87.758 182.93 87.5935 183.098C87.429 183.265 87.3375 183.491 87.3389 183.726Z" fill="#3F3D56"/>
<path d="M87.3389 187.067C87.3384 187.183 87.3606 187.298 87.4045 187.405C87.4483 187.512 87.5128 187.61 87.5943 187.692C87.6758 187.774 87.7728 187.839 87.8796 187.884C87.9864 187.929 88.1009 187.952 88.2168 187.953H99.9747C100.207 187.948 100.429 187.852 100.591 187.685C100.754 187.519 100.845 187.296 100.845 187.063C100.845 186.83 100.754 186.607 100.591 186.441C100.429 186.274 100.207 186.178 99.9747 186.173H88.2168C87.982 186.176 87.758 186.272 87.5935 186.439C87.429 186.607 87.3375 186.832 87.3389 187.067Z" fill="#3F3D56"/>
<path d="M87.3389 190.4C87.3375 190.635 87.429 190.861 87.5935 191.028C87.758 191.196 87.982 191.291 88.2168 191.294H99.9747C100.207 191.289 100.428 191.193 100.591 191.026C100.753 190.86 100.844 190.637 100.844 190.405C100.844 190.172 100.753 189.949 100.591 189.783C100.428 189.616 100.207 189.52 99.9747 189.515H88.2168C88.1009 189.515 87.9864 189.539 87.8796 189.583C87.7728 189.628 87.6758 189.694 87.5943 189.776C87.5128 189.858 87.4483 189.956 87.4045 190.063C87.3606 190.17 87.3384 190.285 87.3389 190.4Z" fill="#3F3D56"/>
<path d="M90.9727 216.225H86.7477C85.4668 216.225 84.4284 217.263 84.4284 218.544C84.4284 219.825 85.4668 220.863 86.7477 220.863H90.9727C92.2536 220.863 93.292 219.825 93.292 218.544C93.292 217.263 92.2536 216.225 90.9727 216.225Z" fill="#FEFEFE"/>
<path d="M139.293 216.225H135.068C133.787 216.225 132.749 217.263 132.749 218.544C132.749 219.825 133.787 220.863 135.068 220.863H139.293C140.574 220.863 141.612 219.825 141.612 218.544C141.612 217.263 140.574 216.225 139.293 216.225Z" fill="#E6E6E6"/>
<path d="M152.984 216.225H148.759C147.478 216.225 146.439 217.263 146.439 218.544C146.439 219.825 147.478 220.863 148.759 220.863H152.984C154.265 220.863 155.303 219.825 155.303 218.544C155.303 217.263 154.265 216.225 152.984 216.225Z" fill="#E6E6E6"/>
<path d="M126.15 215.839H99.891C98.6101 215.839 97.5717 216.877 97.5717 218.158C97.5717 219.438 98.6101 220.476 99.891 220.476H126.15C127.431 220.476 128.469 219.438 128.469 218.158C128.469 216.877 127.431 215.839 126.15 215.839Z" fill="#FEFEFE"/>
<path d="M190.577 215.839H164.318C163.037 215.839 161.999 216.877 161.999 218.158C161.999 219.438 163.037 220.476 164.318 220.476H190.577C191.858 220.476 192.896 219.438 192.896 218.158C192.896 216.877 191.858 215.839 190.577 215.839Z" fill="#E6E6E6"/>
<path d="M103.858 226.693H99.6332C98.3522 226.693 97.3138 227.731 97.3138 229.011C97.3138 230.292 98.3522 231.33 99.6332 231.33H103.858C105.139 231.33 106.177 230.292 106.177 229.011C106.177 227.731 105.139 226.693 103.858 226.693Z" fill="#FEFEFE"/>
<path d="M152.178 226.693H147.954C146.673 226.693 145.634 227.731 145.634 229.011C145.634 230.292 146.673 231.33 147.954 231.33H152.178C153.459 231.33 154.498 230.292 154.498 229.011C154.498 227.731 153.459 226.693 152.178 226.693Z" fill="#E6E6E6"/>
<path d="M165.869 226.693H161.644C160.363 226.693 159.325 227.731 159.325 229.011C159.325 230.292 160.363 231.33 161.644 231.33H165.869C167.15 231.33 168.188 230.292 168.188 229.011C168.188 227.731 167.15 226.693 165.869 226.693Z" fill="#E6E6E6"/>
<path d="M139.035 226.306H112.776C111.496 226.306 110.457 227.344 110.457 228.625C110.457 229.905 111.496 230.944 112.776 230.944H139.035C140.316 230.944 141.354 229.905 141.354 228.625C141.354 227.344 140.316 226.306 139.035 226.306Z" fill="#FEFEFE"/>
<path d="M203.462 226.306H177.204C175.923 226.306 174.884 227.344 174.884 228.625C174.884 229.905 175.923 230.944 177.204 230.944H203.462C204.743 230.944 205.782 229.905 205.782 228.625C205.782 227.344 204.743 226.306 203.462 226.306Z" fill="#E6E6E6"/>
<path d="M116.744 237.16H112.519C111.238 237.16 110.199 238.198 110.199 239.479C110.199 240.759 111.238 241.798 112.519 241.798H116.744C118.024 241.798 119.063 240.759 119.063 239.479C119.063 238.198 118.024 237.16 116.744 237.16Z" fill="#FEFEFE"/>
<path d="M165.064 237.16H160.839C159.558 237.16 158.52 238.198 158.52 239.479C158.52 240.759 159.558 241.798 160.839 241.798H165.064C166.345 241.798 167.383 240.759 167.383 239.479C167.383 238.198 166.345 237.16 165.064 237.16Z" fill="#E6E6E6"/>
<path d="M178.755 237.16H174.53C173.249 237.16 172.21 238.198 172.21 239.479C172.21 240.759 173.249 241.798 174.53 241.798H178.755C180.035 241.798 181.074 240.759 181.074 239.479C181.074 238.198 180.035 237.16 178.755 237.16Z" fill="#E6E6E6"/>
<path d="M151.921 236.773H125.662C124.381 236.773 123.343 237.811 123.343 239.092C123.343 240.373 124.381 241.411 125.662 241.411H151.921C153.201 241.411 154.24 240.373 154.24 239.092C154.24 237.811 153.201 236.773 151.921 236.773Z" fill="#E6E6E6"/>
<path d="M216.348 236.773H190.089C188.808 236.773 187.77 237.811 187.77 239.092C187.77 240.373 188.808 241.411 190.089 241.411H216.348C217.629 241.411 218.667 240.373 218.667 239.092C218.667 237.811 217.629 236.773 216.348 236.773Z" fill="#E6E6E6"/>
<path d="M129.629 247.627H125.404C124.123 247.627 123.085 248.665 123.085 249.946C123.085 251.227 124.123 252.265 125.404 252.265H129.629C130.91 252.265 131.948 251.227 131.948 249.946C131.948 248.665 130.91 247.627 129.629 247.627Z" fill="#E6E6E6"/>
<path d="M177.949 247.627H173.724C172.443 247.627 171.405 248.665 171.405 249.946C171.405 251.227 172.443 252.265 173.724 252.265H177.949C179.23 252.265 180.269 251.227 180.269 249.946C180.269 248.665 179.23 247.627 177.949 247.627Z" fill="#E6E6E6"/>
<path d="M191.64 247.627H187.415C186.134 247.627 185.096 248.665 185.096 249.946C185.096 251.227 186.134 252.265 187.415 252.265H191.64C192.921 252.265 193.959 251.227 193.959 249.946C193.959 248.665 192.921 247.627 191.64 247.627Z" fill="#E6E6E6"/>
<path d="M164.806 247.24H138.547C137.266 247.24 136.228 248.279 136.228 249.559C136.228 250.84 137.266 251.878 138.547 251.878H164.806C166.087 251.878 167.125 250.84 167.125 249.559C167.125 248.279 166.087 247.24 164.806 247.24Z" fill="#E6E6E6"/>
<path d="M139.293 289.25H135.068C133.787 289.25 132.749 290.288 132.749 291.569C132.749 292.849 133.787 293.887 135.068 293.887H139.293C140.574 293.887 141.612 292.849 141.612 291.569C141.612 290.288 140.574 289.25 139.293 289.25Z" fill="#FEFEFE"/>
<path d="M152.984 289.25H148.759C147.478 289.25 146.439 290.288 146.439 291.569C146.439 292.849 147.478 293.887 148.759 293.887H152.984C154.265 293.887 155.303 292.849 155.303 291.569C155.303 290.288 154.265 289.25 152.984 289.25Z" fill="#FEFEFE"/>
<path d="M190.577 289.636H164.318C163.037 289.636 161.999 290.674 161.999 291.955C161.999 293.236 163.037 294.274 164.318 294.274H190.577C191.858 294.274 192.896 293.236 192.896 291.955C192.896 290.674 191.858 289.636 190.577 289.636Z" fill="#E6E6E6"/>
<path d="M90.9727 289.25H86.7477C85.4668 289.25 84.4284 290.288 84.4284 291.569C84.4284 292.849 85.4668 293.887 86.7477 293.887H90.9727C92.2536 293.887 93.292 292.849 93.292 291.569C93.292 290.288 92.2536 289.25 90.9727 289.25Z" fill="#FEFEFE"/>
<path d="M126.15 289.636H99.891C98.6101 289.636 97.5717 290.674 97.5717 291.955C97.5717 293.236 98.6101 294.274 99.891 294.274H126.15C127.431 294.274 128.469 293.236 128.469 291.955C128.469 290.674 127.431 289.636 126.15 289.636Z" fill="#FEFEFE"/>
<path d="M103.858 278.782H99.6332C98.3522 278.782 97.3138 279.821 97.3138 281.101C97.3138 282.382 98.3522 283.42 99.6332 283.42H103.858C105.139 283.42 106.177 282.382 106.177 281.101C106.177 279.821 105.139 278.782 103.858 278.782Z" fill="#FEFEFE"/>
<path d="M152.178 278.782H147.954C146.673 278.782 145.634 279.821 145.634 281.101C145.634 282.382 146.673 283.42 147.954 283.42H152.178C153.459 283.42 154.498 282.382 154.498 281.101C154.498 279.821 153.459 278.782 152.178 278.782Z" fill="#FEFEFE"/>
<path d="M165.869 278.782H161.644C160.363 278.782 159.325 279.821 159.325 281.101C159.325 282.382 160.363 283.42 161.644 283.42H165.869C167.15 283.42 168.188 282.382 168.188 281.101C168.188 279.821 167.15 278.782 165.869 278.782Z" fill="#FEFEFE"/>
<path d="M139.035 279.169H112.776C111.496 279.169 110.457 280.207 110.457 281.488C110.457 282.769 111.496 283.807 112.776 283.807H139.035C140.316 283.807 141.354 282.769 141.354 281.488C141.354 280.207 140.316 279.169 139.035 279.169Z" fill="#FEFEFE"/>
<path d="M116.744 268.315H112.519C111.238 268.315 110.199 269.353 110.199 270.634C110.199 271.915 111.238 272.953 112.519 272.953H116.744C118.024 272.953 119.063 271.915 119.063 270.634C119.063 269.353 118.024 268.315 116.744 268.315Z" fill="#FEFEFE"/>
<path d="M165.064 268.315H160.839C159.558 268.315 158.52 269.353 158.52 270.634C158.52 271.915 159.558 272.953 160.839 272.953H165.064C166.345 272.953 167.383 271.915 167.383 270.634C167.383 269.353 166.345 268.315 165.064 268.315Z" fill="#E6E6E6"/>
<path d="M178.755 268.315H174.53C173.249 268.315 172.21 269.353 172.21 270.634C172.21 271.915 173.249 272.953 174.53 272.953H178.755C180.035 272.953 181.074 271.915 181.074 270.634C181.074 269.353 180.035 268.315 178.755 268.315Z" fill="#E6E6E6"/>
<path d="M151.921 268.702H125.662C124.381 268.702 123.343 269.74 123.343 271.021C123.343 272.301 124.381 273.339 125.662 273.339H151.921C153.201 273.339 154.24 272.301 154.24 271.021C154.24 269.74 153.201 268.702 151.921 268.702Z" fill="#FEFEFE"/>
<path d="M129.629 257.848H125.404C124.123 257.848 123.085 258.886 123.085 260.167C123.085 261.447 124.123 262.485 125.404 262.485H129.629C130.91 262.485 131.948 261.447 131.948 260.167C131.948 258.886 130.91 257.848 129.629 257.848Z" fill="#FEFEFE"/>
<path d="M177.949 257.848H173.724C172.443 257.848 171.405 258.886 171.405 260.167C171.405 261.447 172.443 262.485 173.724 262.485H177.949C179.23 262.485 180.269 261.447 180.269 260.167C180.269 258.886 179.23 257.848 177.949 257.848Z" fill="#E6E6E6"/>
<path d="M191.64 257.848H187.415C186.134 257.848 185.096 258.886 185.096 260.167C185.096 261.447 186.134 262.485 187.415 262.485H191.64C192.921 262.485 193.959 261.447 193.959 260.167C193.959 258.886 192.921 257.848 191.64 257.848Z" fill="#E6E6E6"/>
<path d="M164.806 258.234H138.547C137.266 258.234 136.228 259.272 136.228 260.553C136.228 261.834 137.266 262.872 138.547 262.872H164.806C166.087 262.872 167.125 261.834 167.125 260.553C167.125 259.272 166.087 258.234 164.806 258.234Z" fill="#E6E6E6"/>
<path d="M75.7823 440.465C76.2735 440.714 76.7729 440.964 77.2641 441.205C89.9885 447.566 100.168 451.182 114.092 455.143C115.268 442.019 116.404 418.95 117.507 404.65C117.797 400.938 118.087 397.822 118.369 395.624C118.44 394.456 118.678 393.303 119.077 392.202L119.029 395.624L118.908 404.65L118.208 456.27C135.528 460.852 153.321 463.416 171.231 463.911C172.165 463.936 173.083 463.952 173.969 463.968C174.283 463.976 174.589 463.984 174.895 463.984C175.902 463.992 176.901 464 177.907 464C196.781 464.014 215.587 461.735 233.91 457.212C233.516 444.225 233.121 421.414 232.743 404.65C232.662 401.373 232.59 398.322 232.509 395.624C232.356 389.859 232.195 385.704 232.042 384.311C232.178 384.558 232.283 384.82 232.356 385.092C233.102 388.564 233.611 392.083 233.878 395.624C234.16 398.322 234.442 401.373 234.724 404.65C236.222 422.066 237.784 445.747 239.395 455.787C248.982 453.17 258.389 449.935 267.557 446.101C272.39 444.088 277.136 441.917 281.796 439.587C280.91 433.79 279.984 427.292 279.034 420.552C278.293 415.327 277.528 409.956 276.746 404.65C275.538 396.454 257.587 339.173 256.452 336.999C255.477 335.139 254.551 333.384 253.674 331.766C251.547 327.836 249.743 324.704 248.407 322.723C242.817 314.247 234.497 307.937 224.826 304.84L224.585 304.776L224.416 304.848L207.946 299.792L205.538 299.051L203.92 298.552L198.218 294.212L195.117 291.853L192.21 289.639L186.524 285.315L151.323 287.481L144.47 303.979L129.12 309.591L128.854 309.47L128.621 309.374L128.379 309.438C118.71 312.537 110.39 318.847 104.799 327.321C104.042 328.456 103.124 329.954 102.085 331.766C101.199 333.303 100.232 335.059 99.1855 336.999C97.6956 339.761 96.0688 342.877 94.3454 346.251C93.9669 346.991 93.5803 347.748 93.1938 348.513C92.477 349.93 91.7495 351.377 91.0113 352.853C89.2959 356.275 87.5242 359.85 85.7525 363.481C84.2143 366.63 82.66 373.103 81.1298 381.34C79.8654 388.184 78.6091 396.252 77.393 404.65C75.7985 415.536 77.4977 428.572 76.0562 438.588C75.9675 439.225 75.8709 439.845 75.7823 440.465Z" fill="#3F3D56"/>
<path opacity="0.2" d="M244.493 381.305L237.65 354.902L231.607 377.685L244.493 381.305Z" fill="black"/>
<path d="M62.3976 364.101C64.8458 397.822 62.309 412.67 75.8226 440.473C88.118 446.489 100.925 451.399 114.092 455.143C115.461 455.529 116.833 455.905 118.208 456.27C135.528 460.852 153.321 463.416 171.231 463.911C172.165 463.936 173.083 463.952 173.969 463.968C174.283 463.976 174.589 463.984 174.895 463.984C175.902 463.992 176.901 464 177.907 464C196.781 464.014 215.587 461.735 233.91 457.212C235.747 456.761 237.575 456.286 239.395 455.787C248.982 453.17 258.389 449.935 267.558 446.101C272.39 444.088 277.136 441.917 281.796 439.587C282.851 439.055 283.906 438.524 284.945 437.977C290.284 428.588 293.32 417.171 293.385 403.45C289.688 379.81 70.5637 343.714 62.3976 364.101Z" fill="#2F2E41"/>
<path opacity="0.2" d="M62.404 369.876C62.2789 367.789 62.1391 365.632 61.9761 363.387C70.1422 343 289.267 379.096 292.963 402.736C292.953 404.903 292.86 407.007 292.704 409.06C283.753 385.727 75.5814 351.42 62.404 369.876Z" fill="black"/>
<path d="M12.7479 380.999C13.1027 382.032 13.7758 382.926 14.6704 383.552C15.5651 384.179 16.6353 384.506 17.7274 384.486L39.0623 383.937C40.1624 383.916 41.2261 383.539 42.0942 382.863C42.9624 382.187 43.5885 381.249 43.8789 380.187L46.898 347.91C47.9692 348.395 49.1353 348.635 50.311 348.611C52.373 348.558 54.3294 347.689 55.7504 346.194C57.1714 344.699 57.9405 342.701 57.8887 340.639C57.837 338.578 56.9685 336.621 55.4744 335.2C53.9802 333.778 51.9825 333.008 49.9205 333.058C49.4505 333.056 48.9818 333.105 48.5222 333.203C48.0225 332.663 47.415 332.233 46.7389 331.941C46.0629 331.649 45.3332 331.503 44.597 331.51L11.779 332.357C11.5068 332.367 11.2359 332.401 10.9695 332.458C10.2498 332.592 9.5672 332.879 8.96763 333.299C8.36806 333.719 7.86543 334.262 7.49359 334.893C7.12174 335.523 6.88931 336.226 6.81192 336.954C6.73453 337.682 6.81399 338.418 7.04495 339.112L12.7479 380.999ZM47.5172 345.718L49.6655 338.027C49.9099 337.138 49.9156 336.201 49.6819 335.31C49.7862 335.309 49.8781 335.26 49.9823 335.26C51.4554 335.229 52.8804 335.784 53.945 336.803C55.0095 337.821 55.6267 339.22 55.6612 340.692C55.6957 342.165 55.1447 343.591 54.129 344.659C53.1133 345.726 51.7158 346.346 50.2429 346.385C49.2906 346.415 48.3482 346.184 47.5172 345.718Z" fill="#2F2E41"/>
<path d="M10.9695 332.458C11.6687 336.455 19.5296 339.265 28.9816 338.776C37.6734 338.376 44.7803 335.324 46.0823 331.708C45.6005 331.565 45.0994 331.499 44.597 331.51L11.7791 332.357C11.5068 332.367 11.236 332.401 10.9695 332.458Z" fill="#3F3D56"/>
<path d="M30.7139 363.262C30.7571 363.251 30.7982 363.233 30.8355 363.209L35.4687 360.177C35.5247 360.14 35.5707 360.09 35.6026 360.032C35.6345 359.973 35.6512 359.907 35.6512 359.84C35.6512 359.773 35.6346 359.707 35.6027 359.649C35.5709 359.59 35.5249 359.54 35.469 359.503L30.6532 356.35C30.609 356.321 30.5595 356.3 30.5074 356.29C30.4554 356.28 30.4019 356.281 30.35 356.291C30.2981 356.302 30.2488 356.323 30.205 356.352C30.1611 356.382 30.1236 356.42 30.0945 356.465C30.0655 356.509 30.0455 356.559 30.0357 356.611C30.0258 356.663 30.0264 356.716 30.0373 356.768C30.0482 356.82 30.0692 356.869 30.0992 356.913C30.1292 356.957 30.1675 356.994 30.212 357.023L34.5132 359.839L30.3947 362.535C30.315 362.587 30.2563 362.666 30.2291 362.757C30.202 362.849 30.2081 362.947 30.2464 363.034C30.2847 363.121 30.3527 363.192 30.4383 363.234C30.5239 363.275 30.6216 363.286 30.7139 363.262H30.7139Z" fill="#00928F"/>
<path d="M23.396 363.6C23.4738 363.58 23.5439 363.537 23.5974 363.478C23.6508 363.418 23.6852 363.343 23.6961 363.264C23.707 363.185 23.694 363.104 23.6586 363.032C23.6232 362.96 23.5671 362.9 23.4976 362.86L19.2268 360.412L23.3547 357.347C23.3971 357.315 23.4329 357.275 23.46 357.23C23.4871 357.185 23.505 357.135 23.5127 357.082C23.5204 357.03 23.5178 356.977 23.5049 356.926C23.492 356.874 23.4692 356.826 23.4376 356.784C23.4061 356.741 23.3666 356.705 23.3212 356.678C23.2759 356.651 23.2256 356.633 23.1733 356.626C23.1211 356.618 23.0678 356.621 23.0165 356.633C22.9653 356.646 22.9171 356.669 22.8747 356.701L18.2531 360.133C18.1994 360.173 18.1565 360.225 18.1282 360.286C18.0999 360.346 18.0872 360.413 18.0911 360.48C18.095 360.546 18.1155 360.611 18.1507 360.668C18.1859 360.725 18.2347 360.772 18.2927 360.805L23.0968 363.559C23.1874 363.611 23.2947 363.625 23.396 363.6Z" fill="#00928F"/>
<path d="M30.2531 365.919C30.292 365.91 30.3292 365.894 30.3634 365.873C30.4086 365.845 30.448 365.809 30.4792 365.766C30.5105 365.724 30.533 365.675 30.5456 365.624C30.5581 365.573 30.5604 365.519 30.5523 365.467C30.5441 365.415 30.5258 365.365 30.4983 365.319L23.9304 354.523C23.8745 354.433 23.785 354.368 23.6814 354.343C23.5779 354.318 23.4686 354.335 23.3776 354.39C23.2867 354.446 23.2213 354.535 23.196 354.639C23.1706 354.742 23.1873 354.851 23.2423 354.942L29.8102 365.739C29.855 365.812 29.9222 365.869 30.0019 365.902C30.0816 365.934 30.1696 365.94 30.2531 365.919Z" fill="#00928F"/>
<path d="M540.389 320.61H468.714V383.414H540.389V320.61Z" fill="#3F3D56"/>
<path d="M551.013 232.886C549.684 240.76 550.851 248.852 554.35 256.029C555.646 258.669 557.25 261.849 555.673 264.331C555.23 264.951 554.654 265.465 553.988 265.834C553.321 266.204 552.58 266.419 551.82 266.466C550.298 266.546 548.774 266.349 547.323 265.884" fill="#B1B1B1"/>
<path d="M488.042 208.69C489.376 208.69 490.458 207.789 490.458 206.677C490.458 205.566 489.376 204.665 488.042 204.665C486.708 204.665 485.626 205.566 485.626 206.677C485.626 207.789 486.708 208.69 488.042 208.69Z" fill="#3F3D56"/>
<path d="M496.901 209.496C498.235 209.496 499.317 208.594 499.317 207.483C499.317 206.371 498.235 205.47 496.901 205.47C495.566 205.47 494.485 206.371 494.485 207.483C494.485 208.594 495.566 209.496 496.901 209.496Z" fill="#3F3D56"/>
<path d="M505.759 213.522C507.094 213.522 508.175 212.62 508.175 211.509C508.175 210.397 507.094 209.496 505.759 209.496C504.425 209.496 503.343 210.397 503.343 211.509C503.343 212.62 504.425 213.522 505.759 213.522Z" fill="#3F3D56"/>
<path d="M516.229 211.106C517.563 211.106 518.645 210.205 518.645 209.093C518.645 207.981 517.563 207.08 516.229 207.08C514.894 207.08 513.813 207.981 513.813 209.093C513.813 210.205 514.894 211.106 516.229 211.106Z" fill="#3F3D56"/>
<path d="M296.311 249.258C308.045 246.001 321.115 249.491 330.183 257.487C335.075 261.83 338.666 267.446 340.554 273.709C342.869 281.164 343.252 289.028 343.495 296.778C343.763 305.346 343.996 313.916 344.245 322.485C344.483 330.655 344.511 338.863 345.057 347.02C345.514 353.865 346.61 360.97 350.274 366.906C353.67 372.41 359.037 376.126 365.101 378.174C371.248 380.251 377.874 380.734 384.323 380.692C391.827 380.668 399.319 380.075 406.733 378.918C420.816 376.662 434.727 370.909 443.328 359.039C447.288 353.649 449.514 347.182 449.708 340.497C449.89 332.707 447.4 325.162 444.674 317.967C442.021 310.965 439.15 304.066 437.471 296.746C435.911 289.895 435.167 282.883 435.256 275.857C435.4 261.801 438.77 247.966 445.105 235.417C448.312 228.972 452.379 222.993 457.196 217.643C462.164 212.239 468.315 207.777 475.63 206.315C479.2 205.575 482.897 205.724 486.396 206.747C487.888 207.194 488.526 204.864 487.038 204.418C479.792 202.249 471.919 203.898 465.494 207.664C459.177 211.366 454.185 216.92 449.948 222.808C441.807 234.354 436.388 247.593 434.096 261.532C431.805 275.471 432.701 289.747 436.717 303.29C441.017 317.372 450.368 332.03 446.35 347.27C442.834 360.609 430.653 369.674 418.07 373.769C410.435 376.253 402.432 377.304 394.448 377.848C387.701 378.308 380.863 378.6 374.135 377.733C367.956 376.937 361.6 375.048 356.81 370.901C351.558 366.356 349.158 359.824 348.113 353.12C346.931 345.536 347.105 337.715 346.882 330.062L346.121 303.94C345.691 289.186 346.062 272.835 336.461 260.61C332.622 255.846 327.748 252.021 322.208 249.424C316.668 246.828 310.609 245.528 304.491 245.626C301.508 245.694 298.545 246.132 295.669 246.929C295.37 247.022 295.119 247.228 294.969 247.504C294.819 247.779 294.782 248.101 294.865 248.403C294.948 248.705 295.146 248.963 295.416 249.123C295.685 249.282 296.007 249.331 296.311 249.258H296.311Z" fill="#3F3D56"/>
<path d="M124.8 233.977C126.511 246.143 132.982 257.133 142.792 264.532C152.602 271.931 164.949 275.133 177.119 273.435C189.29 271.738 200.289 265.279 207.699 255.478C215.109 245.677 218.325 233.336 216.639 221.167L216.547 220.509C214.586 208.503 207.983 197.749 198.163 190.567C188.343 183.385 176.092 180.35 164.054 182.117C152.016 183.885 141.155 190.312 133.814 200.013C126.474 209.715 123.241 221.912 124.815 233.975L124.8 233.977Z" fill="#FFB6B6"/>
<path d="M165.673 272.306C163.276 267.479 160.812 262.295 161.463 256.945C162.115 251.595 167.343 246.465 172.5 248.038C175.583 248.978 177.921 252.011 181.142 252.156C185.573 252.355 188.096 247.277 189.461 243.058L195.019 225.873C205.741 234.295 192.162 225.466 205.444 222.383C210.654 221.174 215.914 218.832 218.958 214.435C222.002 210.037 221.961 203.232 217.755 199.928C215.692 198.309 212.952 197.7 210.98 195.971C209.757 194.898 208.912 193.46 208.57 191.87C208.228 190.279 208.407 188.621 209.08 187.14C209.754 185.66 210.886 184.435 212.31 183.648C213.734 182.861 215.373 182.553 216.986 182.769L202.839 181.05L207.027 173.417C203.999 175.82 199.775 176.156 195.968 175.484C192.161 174.811 188.573 173.257 184.847 172.225C166.963 167.271 146.227 176.059 137.351 192.353C133.867 191.203 130.116 191.138 126.595 192.168C123.073 193.197 119.948 195.272 117.633 198.117C113.863 202.933 112.855 209.347 112.729 215.462C112.494 227.517 115.163 239.452 120.511 250.26C122.177 253.619 124.147 256.914 126.98 259.371C129.813 261.828 161.828 275.438 165.523 274.796" fill="#2F2E41"/>
<path d="M500.122 240.495C500.128 242.585 499.86 244.667 499.325 246.687V246.695C499.317 246.735 499.301 246.775 499.292 246.816C497.666 252.798 493.784 257.001 489.25 257.001C484.74 257.001 480.874 252.83 479.223 246.896C479.111 246.486 479.014 246.075 478.925 245.648C478.813 245.173 478.724 244.682 478.652 244.175C478.587 243.772 478.539 243.361 478.499 242.943C478.442 242.363 478.402 241.783 478.394 241.179V241.171C478.378 240.946 478.378 240.72 478.378 240.495V240.294L478.386 240.286C478.387 239.265 478.454 238.246 478.587 237.234C478.644 236.807 478.708 236.397 478.789 235.986C478.885 235.487 478.99 234.996 479.119 234.513C479.223 234.086 479.344 233.675 479.473 233.265C479.65 232.717 479.844 232.186 480.061 231.678C480.198 231.348 480.343 231.026 480.488 230.712C482.469 226.638 485.658 223.989 489.25 223.989C494.219 223.989 498.407 229.053 499.703 235.962C499.719 236.067 499.743 236.171 499.752 236.276V236.284C500 237.674 500.124 239.083 500.122 240.495Z" fill="#B1B1B1"/>
<path d="M480.593 231.066C480.588 231.214 480.533 231.356 480.436 231.467C480.339 231.579 480.207 231.653 480.061 231.678C480.198 231.348 480.343 231.026 480.488 230.712C480.555 230.818 480.591 230.941 480.593 231.066Z" fill="#00928F"/>
<path d="M490.114 230.333H483.027C482.681 230.333 482.401 230.613 482.401 230.959C482.401 231.304 482.681 231.585 483.027 231.585H490.114C490.46 231.585 490.74 231.304 490.74 230.959C490.74 230.613 490.46 230.333 490.114 230.333Z" fill="#00928F"/>
<path d="M480.375 233.885C480.375 234.051 480.309 234.211 480.191 234.328C480.073 234.446 479.913 234.512 479.747 234.513H479.119C479.223 234.086 479.344 233.675 479.473 233.265H479.747C479.912 233.264 480.071 233.329 480.189 233.445C480.306 233.561 480.373 233.719 480.375 233.885Z" fill="#00928F"/>
<path d="M483.446 233.262H482.305C481.96 233.262 481.679 233.543 481.679 233.888C481.679 234.234 481.96 234.514 482.305 234.514H483.446C483.791 234.514 484.072 234.234 484.072 233.888C484.072 233.543 483.791 233.262 483.446 233.262Z" fill="#00928F"/>
<path d="M493.592 233.158H486.505C486.159 233.158 485.879 233.438 485.879 233.784C485.879 234.13 486.159 234.41 486.505 234.41H493.592C493.937 234.41 494.218 234.13 494.218 233.784C494.218 233.438 493.937 233.158 493.592 233.158Z" fill="#00928F"/>
<path d="M483.228 236.087H482.088C481.742 236.087 481.462 236.368 481.462 236.713C481.462 237.059 481.742 237.339 482.088 237.339H483.228C483.574 237.339 483.854 237.059 483.854 236.713C483.854 236.368 483.574 236.087 483.228 236.087Z" fill="#00928F"/>
<path d="M486.923 236.087H485.783C485.437 236.087 485.157 236.368 485.157 236.713C485.157 237.059 485.437 237.339 485.783 237.339H486.923C487.269 237.339 487.549 237.059 487.549 236.713C487.549 236.368 487.269 236.087 486.923 236.087Z" fill="#00928F"/>
<path d="M480.311 236.606C480.31 236.772 480.244 236.932 480.126 237.05C480.009 237.168 479.849 237.234 479.683 237.234H478.587C478.644 236.807 478.708 236.397 478.789 235.986H479.683C479.765 235.985 479.846 236.001 479.922 236.031C479.998 236.062 480.067 236.108 480.126 236.165C480.184 236.223 480.23 236.292 480.262 236.367C480.294 236.443 480.31 236.524 480.311 236.606Z" fill="#00928F"/>
<path d="M497.069 235.983H489.982C489.637 235.983 489.356 236.263 489.356 236.609C489.356 236.955 489.637 237.235 489.982 237.235H497.069C497.415 237.235 497.695 236.955 497.695 236.609C497.695 236.263 497.415 235.983 497.069 235.983Z" fill="#00928F"/>
<path d="M480.592 240.728C480.592 240.811 480.576 240.892 480.544 240.967C480.512 241.043 480.466 241.112 480.407 241.169C480.349 241.227 480.28 241.272 480.204 241.303C480.128 241.334 480.046 241.349 479.964 241.348H478.829C478.668 241.349 478.512 241.289 478.394 241.179V241.171C478.378 240.946 478.378 240.72 478.378 240.495V240.294L478.386 240.286C478.444 240.227 478.513 240.18 478.589 240.148C478.665 240.117 478.746 240.1 478.829 240.1H479.964C480.131 240.101 480.291 240.167 480.408 240.285C480.526 240.402 480.592 240.562 480.592 240.728Z" fill="#FEFEFE"/>
<path d="M490.114 239.995H483.027C482.681 239.995 482.401 240.275 482.401 240.621C482.401 240.967 482.681 241.247 483.027 241.247H490.114C490.46 241.247 490.74 240.967 490.74 240.621C490.74 240.275 490.46 239.995 490.114 239.995Z" fill="#FEFEFE"/>
<path d="M480.375 243.547C480.375 243.713 480.309 243.873 480.191 243.991C480.073 244.108 479.913 244.175 479.747 244.175H478.652C478.587 243.772 478.539 243.361 478.499 242.943C478.535 242.93 478.573 242.924 478.611 242.927H479.747C479.912 242.926 480.071 242.991 480.189 243.108C480.306 243.224 480.373 243.381 480.375 243.547Z" fill="#FEFEFE"/>
<path d="M483.446 242.925H482.305C481.96 242.925 481.679 243.205 481.679 243.55C481.679 243.896 481.96 244.176 482.305 244.176H483.446C483.791 244.176 484.072 243.896 484.072 243.55C484.072 243.205 483.791 242.925 483.446 242.925Z" fill="#FEFEFE"/>
<path d="M493.592 242.82H486.505C486.159 242.82 485.879 243.1 485.879 243.446C485.879 243.792 486.159 244.072 486.505 244.072H493.592C493.937 244.072 494.218 243.792 494.218 243.446C494.218 243.1 493.937 242.82 493.592 242.82Z" fill="#FEFEFE"/>
<path d="M483.228 245.75H482.088C481.742 245.75 481.462 246.03 481.462 246.375C481.462 246.721 481.742 247.001 482.088 247.001H483.228C483.574 247.001 483.854 246.721 483.854 246.375C483.854 246.03 483.574 245.75 483.228 245.75Z" fill="#FEFEFE"/>
<path d="M486.923 245.75H485.783C485.437 245.75 485.157 246.03 485.157 246.375C485.157 246.721 485.437 247.001 485.783 247.001H486.923C487.269 247.001 487.549 246.721 487.549 246.375C487.549 246.03 487.269 245.75 486.923 245.75Z" fill="#FEFEFE"/>
<path d="M480.311 246.268C480.31 246.435 480.244 246.594 480.126 246.712C480.009 246.83 479.849 246.896 479.683 246.896H479.224C479.111 246.486 479.014 246.075 478.926 245.648H479.683C479.765 245.647 479.846 245.663 479.922 245.694C479.998 245.724 480.067 245.77 480.126 245.828C480.184 245.885 480.23 245.954 480.262 246.029C480.294 246.105 480.31 246.186 480.311 246.268Z" fill="#FEFEFE"/>
<path d="M497.069 245.645H489.982C489.637 245.645 489.356 245.925 489.356 246.271C489.356 246.617 489.637 246.897 489.982 246.897H497.069C497.415 246.897 497.695 246.617 497.695 246.271C497.695 245.925 497.415 245.645 497.069 245.645Z" fill="#FEFEFE"/>
</g>
<defs>
<clipPath id="clip0_107_757">
<rect width="595" height="464" fill="white"/>
</clipPath>
</defs>
</svg>
