<svg width="575" height="246" viewBox="0 0 575 246" fill="none" xmlns="http://www.w3.org/2000/svg">
<g clip-path="url(#clip0_107_723)">
<path d="M126.209 137.238C126.214 136.483 126.063 135.735 125.766 135.04C125.469 134.346 125.032 133.72 124.482 133.202C123.932 132.685 123.281 132.285 122.569 132.03C121.858 131.775 121.101 131.669 120.347 131.718C119.593 131.768 118.857 131.973 118.185 132.319C117.513 132.666 116.921 133.147 116.444 133.733C115.966 134.319 115.615 134.996 115.412 135.723C115.209 136.451 115.158 137.212 115.263 137.96L99.4625 158.627C98.7882 159.973 98.5268 161.489 98.711 162.983C98.8951 164.478 99.5167 165.885 100.498 167.028L101.737 168.472L107.424 167.336L113.87 161.656L113.111 155.218L121.073 142.722L121.063 142.713C122.457 142.624 123.764 142.009 124.72 140.992C125.676 139.975 126.208 138.633 126.209 137.238Z" fill="#FFB9B9"/>
<path d="M16.9435 238.275L14.3643 228.707L50.0842 214.219L53.8907 228.339L16.9435 238.275Z" fill="#FFB8B8"/>
<path d="M8.31583 243.212L0 212.362L0.390658 212.257C3.57899 211.4 6.97771 211.843 9.83922 213.488C12.7007 215.133 14.7907 217.847 15.6494 221.031L15.6496 221.032L20.7286 239.874L8.31583 243.212Z" fill="#2F2E41"/>
<path d="M66.146 236.746L58.1235 230.919L76.8098 197.237L88.6506 205.838L66.146 236.746Z" fill="#FFB8B8"/>
<path d="M62.5368 246L36.6678 227.21L36.9058 226.883C38.8479 224.216 41.7711 222.428 45.0325 221.914C48.2939 221.399 51.6264 222.2 54.2969 224.139L54.2976 224.14L70.0974 235.616L62.5368 246Z" fill="#2F2E41"/>
<path d="M134.343 189.679L114.154 170.09C112.392 168.38 110.072 167.364 107.619 167.227C105.166 167.09 102.747 167.842 100.805 169.345L62.6857 211.643L66.098 216.944L102.495 192.33L127.139 224.518L150.646 212.779L134.343 189.679Z" fill="#2F2E41"/>
<path d="M125.623 193.845L110.836 192.708L100.128 190.116C99.5233 189.173 98.6446 188.438 97.6098 188.008C96.5749 187.578 95.4332 187.474 94.3376 187.71C93.2419 187.946 92.2446 188.511 91.4792 189.328C90.7137 190.146 90.2167 191.178 90.0546 192.286C89.8924 193.393 90.073 194.524 90.572 195.527C91.0711 196.529 91.8648 197.355 92.847 197.895C93.8291 198.434 94.9528 198.661 96.0676 198.545C97.1824 198.429 98.2351 197.975 99.0847 197.245L99.0832 197.253L105.529 199.904L133.206 209.371L136.618 206.72L125.623 193.845Z" fill="#FFB9B9"/>
<path d="M161.262 234.743L152.921 240.045H143.063L97.1875 223.004L30.0798 235.122L28.1842 220.731L89.605 193.845L143.443 211.643L161.262 234.743Z" fill="#2F2E41"/>
<path d="M143.442 142.722C151.609 142.722 158.229 136.109 158.229 127.953C158.229 119.796 151.609 113.184 143.442 113.184C135.276 113.184 128.656 119.796 128.656 127.953C128.656 136.109 135.276 142.722 143.442 142.722Z" fill="#FFB9B9"/>
<path d="M181.701 186.918C181.701 195.832 180.295 204.689 177.535 213.165L176.428 216.566L171.12 240.802L165.433 242.317L161.262 237.015L152.921 230.956L146.855 221.11L141.653 212.453L140.03 209.75L134.343 181.348L112.732 169.23L105.529 168.094L107.045 163.928L113.49 155.218L119.936 154.461L121.832 152.946L123.348 153.704L131.708 156.92L158.813 145.482L162.779 146.13L176.428 157.491C179.917 166.91 181.703 176.875 181.701 186.918Z" fill="#CCCCCC"/>
<path opacity="0.1" d="M177.565 183.62L163.158 193.087L141.653 212.453L140.03 209.749L135.48 187.028H136.618L148.371 165.443L177.565 183.62Z" fill="black"/>
<path d="M148.371 163.171L136.618 184.756L129.793 192.33L123.728 193.845L140.03 211.643L163.158 190.815L177.565 181.348L148.371 163.171Z" fill="#CCCCCC"/>
<path d="M131.942 116.971L130.34 117.587C130.096 117.423 129.888 117.212 129.726 116.967C129.565 116.722 129.453 116.448 129.397 116.16C129.342 115.872 129.344 115.576 129.403 115.288C129.462 115.001 129.577 114.728 129.742 114.485C129.75 114.472 129.759 114.46 129.768 114.447L126.807 114.309C128.708 111.78 131.124 109.684 133.896 108.159C136.669 106.633 139.734 105.713 142.889 105.459C146.044 105.205 149.217 105.623 152.198 106.685C155.179 107.748 157.9 109.43 160.182 111.622C160.316 111.158 161.786 112.06 162.386 112.975C162.587 112.22 163.965 115.868 164.452 118.446C164.678 117.588 165.545 118.973 164.785 120.303C165.267 120.233 165.484 121.463 165.112 122.149C165.638 121.902 165.55 123.371 164.978 124.352C165.73 124.285 164.914 139.749 153.634 138.622C152.849 135.018 153.07 135.242 152.145 130.608C151.715 130.152 151.244 129.736 150.773 129.321L148.228 127.077C145.268 124.468 142.576 121.248 138.634 120.272C135.924 119.602 134.211 119.451 135.687 116.401C134.353 116.957 133.108 117.784 131.762 118.301C131.78 117.875 131.968 117.398 131.942 116.971Z" fill="#2F2E41"/>
<path d="M150.836 132.308C152.301 132.308 153.49 131.121 153.49 129.657C153.49 128.193 152.301 127.006 150.836 127.006C149.37 127.006 148.182 128.193 148.182 129.657C148.182 131.121 149.37 132.308 150.836 132.308Z" fill="#FFB9B9"/>
<path d="M27.0711 67.0501L26.2612 79.197L38.4226 80.006L39.2325 67.859L27.0711 67.0501Z" fill="#E6E6E6"/>
<path d="M19.2247 73.5001L33.9921 74.4824L33.0086 89.2322L18.2412 88.2499L19.2247 73.5001ZM33.3072 75.081L19.824 74.1841L18.926 87.6513L32.4093 88.5482L33.3072 75.081Z" fill="#CCCCCC"/>
<path d="M95.7972 31.0308L83.8809 33.5883L86.4413 45.4904L98.3577 42.933L95.7972 31.0308Z" fill="#E6E6E6"/>
<path d="M87.4332 25.2659L90.5424 39.7185L76.0725 42.8239L72.9634 28.3713L87.4332 25.2659ZM89.7781 39.2251L86.9393 26.0293L73.7277 28.8647L76.5665 42.0606L89.7781 39.2251Z" fill="#CCCCCC"/>
<path d="M83.2759 88.1893L74.3804 96.5116L82.7126 105.397L91.6081 97.0743L83.2759 88.1893Z" fill="#E6E6E6"/>
<path d="M92.2477 86.9444L81.446 97.05L71.3284 86.2611L82.13 76.1555L92.2477 86.9444ZM81.4757 96.1415L91.3381 86.9146L82.1003 77.064L72.2379 86.2908L81.4757 96.1415Z" fill="#CCCCCC"/>
<path d="M543.299 0H182.68C181.376 -1.47957e-06 180.086 0.256429 178.881 0.75465C177.677 1.25287 176.583 1.98312 175.661 2.90372C174.74 3.82431 174.009 4.91722 173.51 6.12003C173.011 7.32284 172.754 8.61201 172.754 9.91393V210.605C172.754 211.907 173.011 213.196 173.51 214.399C174.009 215.602 174.74 216.695 175.661 217.615C176.583 218.536 177.677 219.266 178.881 219.764C180.086 220.263 181.376 220.519 182.68 220.519H543.299C545.931 220.519 548.456 219.475 550.317 217.615C552.179 215.756 553.224 213.234 553.224 210.605V9.91393C553.224 7.28459 552.179 4.76295 550.317 2.90372C548.456 1.0445 545.931 1.49407e-06 543.299 0Z" fill="#3F3D56"/>
<path d="M539.917 17.5206H186.062V216.894H539.917V17.5206Z" fill="white"/>
<path d="M362.687 12.0832C364.691 12.0832 366.316 10.4602 366.316 8.45822C366.316 6.4562 364.691 4.83325 362.687 4.83325C360.682 4.83325 359.057 6.4562 359.057 8.45822C359.057 10.4602 360.682 12.0832 362.687 12.0832Z" fill="white"/>
<path d="M438.72 216.894H186.062V17.521L438.72 216.894Z" fill="#F2F2F2"/>
<path d="M241.429 201.975C260.215 201.975 275.443 186.765 275.443 168.002C275.443 149.239 260.215 134.028 241.429 134.028C222.644 134.028 207.416 149.239 207.416 168.002C207.416 186.765 222.644 201.975 241.429 201.975Z" fill="#00928F"/>
<path d="M249.001 193.536C240.633 193.536 232.453 191.057 225.495 186.414C218.537 181.77 213.114 175.17 209.912 167.448C206.71 159.726 205.872 151.229 207.504 143.032C209.137 134.834 213.167 127.305 219.084 121.394C225.001 115.484 232.54 111.46 240.747 109.829C248.954 108.198 257.461 109.035 265.192 112.234C272.923 115.432 279.531 120.849 284.18 127.798C288.829 134.748 291.311 142.918 291.311 151.276C291.311 156.826 290.216 162.321 288.09 167.448C285.964 172.575 282.847 177.234 278.919 181.158C274.99 185.082 270.326 188.195 265.192 190.319C260.059 192.443 254.557 193.536 249.001 193.536ZM249.001 109.569C240.742 109.569 232.669 112.015 225.802 116.598C218.936 121.181 213.583 127.695 210.423 135.316C207.263 142.937 206.436 151.323 208.047 159.413C209.658 167.503 213.635 174.935 219.475 180.768C225.314 186.6 232.755 190.573 240.855 192.182C248.955 193.791 257.351 192.965 264.981 189.809C272.611 186.652 279.132 181.306 283.72 174.448C288.309 167.589 290.758 159.525 290.758 151.276C290.758 145.799 289.678 140.376 287.579 135.316C285.481 130.256 282.405 125.658 278.528 121.785C274.65 117.912 270.047 114.84 264.981 112.744C259.915 110.648 254.485 109.569 249.001 109.569L249.001 109.569Z" fill="#3F3D56"/>
<path d="M458 121.101H424.947V128H458V121.101Z" fill="#3F3D56"/>
<path d="M489.273 83.7274H393.674V86.684H489.273V83.7274Z" fill="#3F3D56"/>
<path d="M489.273 95.3431H393.674V98.2997H489.273V95.3431Z" fill="#3F3D56"/>
<path d="M489.273 106.959H393.674V109.915H489.273V106.959Z" fill="#3F3D56"/>
<path d="M514.882 29.4524H501.068V43.2496H514.882V29.4524Z" fill="#00928F"/>
<path d="M521.295 49.6553H504.521V32.9016H521.295V49.6553ZM505.251 48.9269H520.566V33.6301H505.251L505.251 48.9269Z" fill="#CCCCCC"/>
<path d="M563.16 213.269H528.626V210.784C528.626 210.719 528.613 210.655 528.588 210.595C528.563 210.536 528.527 210.481 528.481 210.435C528.435 210.39 528.381 210.353 528.321 210.329C528.261 210.304 528.197 210.291 528.132 210.291H516.292C516.227 210.291 516.163 210.304 516.103 210.329C516.044 210.353 515.989 210.39 515.943 210.435C515.897 210.481 515.861 210.536 515.836 210.595C515.812 210.655 515.799 210.719 515.799 210.784V213.269H508.399V210.784C508.399 210.719 508.386 210.655 508.361 210.595C508.336 210.536 508.3 210.481 508.254 210.435C508.208 210.39 508.154 210.353 508.094 210.329C508.034 210.304 507.97 210.291 507.905 210.291H496.065C496 210.291 495.936 210.304 495.876 210.329C495.817 210.353 495.762 210.39 495.716 210.435C495.671 210.481 495.634 210.536 495.609 210.595C495.585 210.655 495.572 210.719 495.572 210.784V213.269H488.172V210.784C488.172 210.719 488.159 210.655 488.134 210.595C488.109 210.536 488.073 210.481 488.027 210.435C487.981 210.39 487.927 210.353 487.867 210.329C487.807 210.304 487.743 210.291 487.678 210.291H475.838C475.773 210.291 475.709 210.304 475.649 210.329C475.589 210.353 475.535 210.39 475.489 210.435C475.443 210.481 475.407 210.536 475.382 210.595C475.358 210.655 475.345 210.719 475.345 210.784V213.269H467.945V210.784C467.945 210.719 467.932 210.655 467.907 210.595C467.882 210.536 467.846 210.481 467.8 210.435C467.754 210.39 467.7 210.353 467.64 210.329C467.58 210.304 467.516 210.291 467.451 210.291H455.611C455.546 210.291 455.482 210.304 455.422 210.329C455.362 210.353 455.308 210.39 455.262 210.435C455.216 210.481 455.18 210.536 455.155 210.595C455.131 210.655 455.118 210.719 455.118 210.784V213.269H447.718V210.784C447.718 210.719 447.705 210.655 447.68 210.595C447.655 210.536 447.619 210.481 447.573 210.435C447.527 210.39 447.473 210.353 447.413 210.329C447.353 210.304 447.289 210.291 447.224 210.291H435.384C435.319 210.291 435.255 210.304 435.195 210.329C435.135 210.353 435.081 210.39 435.035 210.435C434.989 210.481 434.953 210.536 434.928 210.595C434.903 210.655 434.891 210.719 434.891 210.784V213.269H427.491V210.784C427.491 210.719 427.478 210.655 427.453 210.595C427.428 210.536 427.392 210.481 427.346 210.435C427.3 210.39 427.246 210.353 427.186 210.329C427.126 210.304 427.062 210.291 426.997 210.291H415.157C415.092 210.291 415.028 210.304 414.968 210.329C414.908 210.353 414.854 210.39 414.808 210.435C414.762 210.481 414.726 210.536 414.701 210.595C414.676 210.655 414.664 210.719 414.664 210.784V213.269H407.264V210.784C407.264 210.719 407.251 210.655 407.226 210.595C407.201 210.536 407.165 210.481 407.119 210.435C407.073 210.39 407.019 210.353 406.959 210.329C406.899 210.304 406.835 210.291 406.77 210.291H314.022C313.957 210.291 313.893 210.304 313.833 210.329C313.773 210.353 313.719 210.39 313.673 210.435C313.627 210.481 313.591 210.536 313.566 210.595C313.541 210.655 313.528 210.719 313.528 210.784V213.269H306.128V210.784C306.128 210.719 306.115 210.655 306.091 210.595C306.066 210.536 306.03 210.481 305.984 210.435C305.938 210.39 305.884 210.353 305.824 210.329C305.764 210.304 305.7 210.291 305.635 210.291H293.795C293.73 210.291 293.666 210.304 293.606 210.329C293.546 210.353 293.492 210.39 293.446 210.435C293.4 210.481 293.364 210.536 293.339 210.595C293.314 210.655 293.301 210.719 293.301 210.784V213.269H285.901V210.784C285.901 210.719 285.888 210.655 285.864 210.595C285.839 210.536 285.803 210.481 285.757 210.435C285.711 210.39 285.657 210.353 285.597 210.329C285.537 210.304 285.473 210.291 285.408 210.291H273.568C273.503 210.291 273.439 210.304 273.379 210.329C273.319 210.353 273.265 210.39 273.219 210.435C273.173 210.481 273.137 210.536 273.112 210.595C273.087 210.655 273.074 210.719 273.074 210.784V213.269H265.674V210.784C265.674 210.719 265.661 210.655 265.637 210.595C265.612 210.536 265.575 210.481 265.53 210.435C265.484 210.39 265.429 210.353 265.37 210.329C265.31 210.304 265.246 210.291 265.181 210.291H253.341C253.276 210.291 253.212 210.304 253.152 210.329C253.092 210.353 253.038 210.39 252.992 210.435C252.946 210.481 252.91 210.536 252.885 210.595C252.86 210.655 252.847 210.719 252.847 210.784V213.269H245.447V210.784C245.447 210.719 245.434 210.655 245.41 210.595C245.385 210.536 245.348 210.481 245.303 210.435C245.257 210.39 245.202 210.353 245.143 210.329C245.083 210.304 245.019 210.291 244.954 210.291H233.114C233.049 210.291 232.985 210.304 232.925 210.329C232.865 210.353 232.81 210.39 232.765 210.435C232.719 210.481 232.683 210.536 232.658 210.595C232.633 210.655 232.62 210.719 232.62 210.784V213.269H225.22V210.784C225.22 210.719 225.207 210.655 225.182 210.595C225.158 210.536 225.121 210.481 225.076 210.435C225.03 210.39 224.975 210.353 224.915 210.329C224.856 210.304 224.791 210.291 224.727 210.291H212.886C212.756 210.291 212.63 210.343 212.538 210.435C212.445 210.528 212.393 210.653 212.393 210.784V213.269H204.993V210.784C204.993 210.719 204.98 210.655 204.955 210.595C204.931 210.536 204.894 210.481 204.848 210.435C204.803 210.39 204.748 210.353 204.688 210.329C204.629 210.304 204.564 210.291 204.5 210.291H192.659C192.529 210.291 192.403 210.343 192.311 210.435C192.218 210.528 192.166 210.653 192.166 210.784V213.269H169.472C166.332 213.269 163.32 214.515 161.1 216.733C158.88 218.951 157.632 221.959 157.632 225.095V230.443C157.632 233.579 158.88 236.587 161.1 238.805C163.32 241.023 166.332 242.269 169.472 242.269H563.16C566.3 242.269 569.312 241.023 571.532 238.805C573.753 236.587 575 233.579 575 230.443V225.095C575 223.542 574.694 222.004 574.099 220.57C573.504 219.135 572.632 217.831 571.532 216.733C570.433 215.635 569.127 214.764 567.691 214.169C566.254 213.575 564.715 213.269 563.16 213.269Z" fill="#3F3D56"/>
</g>
<defs>
<clipPath id="clip0_107_723">
<rect width="575" height="246" fill="white"/>
</clipPath>
</defs>
</svg>
