<svg width="24" height="19" viewBox="0 0 24 19" fill="none" xmlns="http://www.w3.org/2000/svg">
<path d="M23.121 4.62739C22.9156 4.45814 22.6671 4.34948 22.4034 4.3136C22.1397 4.27772 21.8712 4.31604 21.6281 4.42426L16.4992 6.69926C16.4766 6.71159 16.4517 6.71927 16.4261 6.72185C16.4005 6.72444 16.3746 6.72187 16.35 6.71429C16.3254 6.70672 16.3026 6.6943 16.2828 6.67777C16.2631 6.66123 16.2469 6.64091 16.2351 6.61801L13.239 1.2352C13.1175 1.01269 12.9384 0.827001 12.7203 0.697635C12.5023 0.568268 12.2535 0.5 11.9999 0.5C11.7464 0.5 11.4976 0.568268 11.2796 0.697635C11.0615 0.827001 10.8824 1.01269 10.7609 1.2352L7.76479 6.61801C7.75303 6.64091 7.73681 6.66123 7.71707 6.67777C7.69734 6.6943 7.67449 6.70672 7.64989 6.71429C7.62528 6.72187 7.59941 6.72444 7.57379 6.72185C7.54817 6.71927 7.52333 6.71159 7.50073 6.69926L2.37183 4.42426C2.12952 4.31437 1.86124 4.27467 1.5975 4.30967C1.33375 4.34467 1.08511 4.45297 0.879857 4.62225C0.6746 4.79154 0.520957 5.01502 0.436397 5.26728C0.351836 5.51954 0.33975 5.79047 0.401513 6.04926L2.99136 17.0485C3.03522 17.2344 3.11634 17.4094 3.22981 17.563C3.34328 17.7167 3.48674 17.8457 3.65151 17.9422C3.86858 18.0751 4.11812 18.1454 4.37261 18.1454C4.50284 18.1441 4.63244 18.1271 4.75854 18.0946C9.49338 16.7847 14.4945 16.7812 19.2312 18.0844C19.416 18.1377 19.6096 18.153 19.8005 18.1294C19.9913 18.1057 20.1754 18.0436 20.3415 17.9468C20.5077 17.8499 20.6525 17.7204 20.7671 17.566C20.8817 17.4116 20.9639 17.2355 21.0085 17.0485L23.5882 6.04926C23.6527 5.79233 23.643 5.5224 23.5603 5.27075C23.4776 5.01909 23.3253 4.79602 23.121 4.62739ZM22.4101 5.76489L19.8203 16.7641C19.8063 16.8175 19.774 16.8643 19.7289 16.8961C19.6784 16.9207 19.6213 16.9278 19.5664 16.9164C14.6148 15.5487 9.38509 15.5487 4.43354 16.9164C4.40685 16.924 4.37889 16.926 4.35139 16.9224C4.32389 16.9187 4.29742 16.9095 4.27363 16.8952C4.24984 16.8809 4.22923 16.8619 4.21306 16.8394C4.1969 16.8168 4.18552 16.7912 4.17964 16.7641L1.58979 5.76489C1.58389 5.73452 1.58466 5.70324 1.59205 5.6732C1.59945 5.64316 1.61328 5.61509 1.63261 5.59094C1.65193 5.56678 1.67628 5.54712 1.70396 5.53331C1.73164 5.51951 1.762 5.51189 1.79292 5.51098L1.87417 5.53129L7.01323 7.81645C7.33732 7.96239 7.70453 7.9807 8.04154 7.86774C8.37854 7.75478 8.66053 7.51885 8.8312 7.20708L11.8273 1.82426C11.8433 1.79218 11.8679 1.76519 11.8984 1.74633C11.9289 1.72747 11.9641 1.71747 11.9999 1.71747C12.0358 1.71747 12.071 1.72747 12.1015 1.74633C12.132 1.76519 12.1566 1.79218 12.1726 1.82426L15.1687 7.20708C15.3394 7.51885 15.6214 7.75478 15.9584 7.86774C16.2954 7.9807 16.6626 7.96239 16.9867 7.81645L22.1257 5.53129C22.1606 5.51586 22.199 5.51053 22.2367 5.51592C22.2745 5.52131 22.3099 5.5372 22.339 5.56176C22.3687 5.58556 22.3911 5.61722 22.4037 5.65314C22.4162 5.68905 22.4185 5.72777 22.4101 5.76489Z" fill="#004948"/>
</svg>
