<svg width="20" height="20" viewBox="0 0 20 20" fill="none" xmlns="http://www.w3.org/2000/svg">
<path d="M8.74882 0C7.42292 0 6.15132 0.495785 5.21376 1.37829C4.27621 2.26079 3.7495 3.45772 3.7495 4.70577C3.7495 5.95381 4.27621 7.15075 5.21376 8.03325C6.15132 8.91575 7.42292 9.41154 8.74882 9.41154C10.0747 9.41154 11.3463 8.91575 12.2839 8.03325C13.2214 7.15075 13.7482 5.95381 13.7482 4.70577C13.7482 3.45772 13.2214 2.26079 12.2839 1.37829C11.3463 0.495785 10.0747 0 8.74882 0ZM2.51091 10.588C2.18175 10.5867 1.85557 10.6467 1.55107 10.7643C1.24657 10.882 0.96975 11.0551 0.736475 11.2737C0.5032 11.4923 0.318063 11.7521 0.191682 12.0382C0.0653011 12.3243 0.000161868 12.631 0 12.9409C0 14.9302 1.04111 16.4302 2.66839 17.4078C3.98071 18.1949 5.66549 18.6419 7.50524 18.7784C7.51774 18.6584 7.53774 18.5372 7.57023 18.4148L8.03892 16.6525C8.21387 15.9913 8.57681 15.3873 9.08878 14.9055L13.6757 10.588H2.51216H2.51091ZM9.97241 15.7373L16.0091 10.055C16.4476 9.64241 17.0424 9.41066 17.6624 9.41077C18.2825 9.41088 18.8771 9.64285 19.3155 10.0556C19.7539 10.4684 20.0001 11.0282 20 11.6119C19.9999 12.1956 19.7534 12.7553 19.3149 13.1679L13.2782 18.849C12.9266 19.1801 12.4859 19.4152 12.0034 19.5289L10.1311 19.9689C9.94497 20.0126 9.74997 20.0102 9.56508 19.962C9.38019 19.9137 9.2117 19.8213 9.07597 19.6937C8.94024 19.566 8.8419 19.4075 8.79049 19.2335C8.73908 19.0595 8.73635 18.876 8.78257 18.7007L9.25126 16.9384C9.37113 16.4838 9.62097 16.0688 9.97366 15.7384L9.97241 15.7373Z" fill="#004948"/>
</svg>
