<svg width="580" height="580" viewBox="0 0 580 580" fill="none" xmlns="http://www.w3.org/2000/svg">
<path d="M480.078 287.68C374.413 226.676 203.661 226.676 98.6812 287.68C-6.29879 348.684 -5.71879 447.586 99.9224 508.59C205.564 569.595 376.339 569.606 481.319 508.59C586.299 447.574 585.8 348.673 480.078 287.68Z" fill="#F5F5F5"/>
<path d="M265.976 516.606L288.19 537.788L350.204 516.038L327.99 494.856L265.976 516.606Z" fill="#E0E0E0"/>
<path d="M154.999 441.751L164.047 446.971L194.149 429.478L142.645 399.736L112.531 417.24L125.744 424.861L104.817 427.924L122.832 468.698L164.221 462.643L154.999 441.751Z" fill="#E0E0E0"/>
<path d="M426.671 403.192L485.553 378.693L460.52 358.579L413.586 378.16L412.658 367.337L414.363 367.731L430.36 344.752L370.863 330.832L413.969 305.938L383.809 288.434L332.305 318.176L359.484 333.964L347.002 351.909L370.121 357.28L340.112 358.08L353.394 331.62L312.376 324.66L330.449 348.823L312.376 324.66L299.373 350.552L228.926 352.431L230.689 373.09L212.28 368.74L196.226 391.65L247.335 403.749L190.495 406.765L194.52 431.404L261.487 427.924L262.172 429.617L223.892 433.596L228.416 447.934L192.096 459.847L194.567 462.364L184.44 458.896L148.283 495.32L185.403 507.697L212.431 480.437L228.102 496.398L262.612 485.077L259.736 487.977L296.856 500.354L322.167 474.834L325.647 476.841L373.207 449.36L408.749 436.809L383.519 412.96L384.122 413.192L407.972 392.706L380.132 381.779L406.417 381.071L401.708 383.032L426.671 403.192ZM192.142 484.88L186.215 465.067L192.142 484.88ZM333.152 371.988L339.335 359.681L340.657 375.225L335.043 380.05L320.647 369.866L333.152 371.988ZM303.549 375.213L302.841 366.826L316.599 369.146L277.484 387.706L279.595 384.69L246.117 376.768L303.549 375.213ZM297.749 457.979L297.667 457.678L297.749 457.979ZM304.094 454.314L295.8 451.553L278.516 468.953L271.278 446.031L332.583 437.818L304.094 454.314ZM254.33 473.129L276.764 470.809L264.341 483.337L254.33 473.129ZM303.595 477.49L298.723 461.25L303.595 477.49ZM338.662 434.362L329.939 412.797L265.826 421.37L263.575 407.577L269.12 399.666L289.42 414.12L333.268 393.356L361.108 404.283L334.231 413.772L357.5 435.812L346.852 429.629L338.662 434.362Z" fill="#E0E0E0"/>
<path d="M345.077 507.395L386.976 512.302L401.151 471.087L359.252 466.169L345.077 507.395Z" fill="#E0E0E0"/>
<path d="M398.054 422.333C418.934 410.28 452.643 410.28 473.373 422.333C494.102 434.385 493.986 453.908 473.129 465.949C452.272 477.99 418.539 478.001 397.81 465.949C377.081 453.896 377.197 434.374 398.054 422.333Z" fill="#E0E0E0"/>
<path d="M306.692 319L183.28 390.781C181.824 391.624 180.171 392.068 178.489 392.068C176.806 392.068 175.154 391.624 173.698 390.781L110.71 354.403C110.346 354.193 110.044 353.892 109.834 353.528C109.624 353.165 109.513 352.752 109.513 352.332C109.513 351.913 109.624 351.5 109.834 351.137C110.044 350.773 110.346 350.471 110.71 350.262L234.122 278.516C235.578 277.673 237.231 277.229 238.913 277.229C240.596 277.229 242.248 277.673 243.704 278.516L306.692 314.893C307.048 315.105 307.342 315.406 307.547 315.766C307.751 316.126 307.859 316.533 307.859 316.947C307.859 317.361 307.751 317.768 307.547 318.127C307.342 318.487 307.048 318.788 306.692 319Z" fill="#E0E0E0"/>
<path d="M178.547 362.848L178.466 389.11L302.992 316.738L303.073 290.476L178.547 362.848Z" fill="#004948"/>
<path d="M157.111 325.717L113.68 300.661L113.541 351.631L178.431 389.111L178.513 362.848L157.111 325.717Z" fill="#004948"/>
<path opacity="0.3" d="M157.111 325.717L113.68 300.661L113.541 351.631L178.431 389.111L178.513 362.848L157.111 325.717Z" fill="black"/>
<path d="M178.548 362.848L303.074 290.475L281.648 253.355L157.111 325.716L178.548 362.848Z" fill="#004948"/>
<path opacity="0.1" d="M178.548 362.848L303.074 290.475L281.648 253.355L157.111 325.716L178.548 362.848Z" fill="black"/>
<g opacity="0.5">
<path opacity="0.5" d="M281.126 270.512L288.423 285.87C288.54 286.076 288.577 286.317 288.528 286.548C288.479 286.779 288.346 286.984 288.156 287.123L267.601 298.99C267.499 299.037 267.389 299.062 267.278 299.063C267.166 299.065 267.055 299.043 266.953 298.999C266.85 298.956 266.758 298.891 266.681 298.81C266.605 298.728 266.547 298.631 266.51 298.526L259.249 283.226C259.249 283.11 259.179 283.028 259.156 282.959C259.147 282.855 259.147 282.75 259.156 282.646C259.169 282.555 259.188 282.466 259.214 282.379C259.249 282.301 259.291 282.227 259.341 282.158C259.395 282.084 259.462 282.021 259.539 281.973L280.105 270.106C280.166 270.071 280.233 270.047 280.303 270.036C280.386 270.013 280.474 270.013 280.558 270.036C280.633 270.047 280.704 270.075 280.767 270.118C280.854 270.161 280.933 270.22 280.999 270.292C281.047 270.361 281.09 270.435 281.126 270.512ZM286.671 285.801L280.72 273.168L276.301 287.471C276.247 287.655 276.127 287.811 275.964 287.912C275.89 287.956 275.807 287.984 275.721 287.994C275.635 288.004 275.548 287.996 275.465 287.97L261.429 284.2L267.461 296.96L286.671 285.87V285.801ZM279.015 272.971L262.323 282.611L274.978 286.091L279.015 273.018" fill="white"/>
</g>
<path d="M281.636 253.356L238.241 228.3L113.715 300.661L157.11 325.717L281.636 253.356Z" fill="#004948"/>
<path opacity="0.2" d="M281.636 253.356L238.241 228.3L113.715 300.661L157.11 325.717L281.636 253.356Z" fill="black"/>
<path opacity="0.2" d="M238.241 228.3L113.715 300.661L140.267 315.996L264.793 243.623L238.241 228.3Z" fill="black"/>
<path d="M208.707 304.024L166.901 328.326L181.157 353.034L222.975 328.732L208.707 304.024Z" fill="#455A64"/>
<g opacity="0.5">
<path opacity="0.5" d="M199.312 328.675L197.595 329.661L194.115 323.478L196.69 321.981L199.312 328.675Z" fill="white"/>
<path opacity="0.5" d="M198.848 329.974C199.024 329.872 199.22 329.81 199.423 329.793C199.626 329.776 199.829 329.804 200.02 329.875C200.211 329.946 200.383 330.058 200.526 330.203C200.668 330.349 200.776 330.524 200.843 330.716C201.065 331.101 201.13 331.558 201.024 331.99C200.918 332.422 200.65 332.797 200.274 333.036C200.094 333.135 199.894 333.194 199.688 333.209C199.482 333.224 199.276 333.194 199.083 333.121C198.89 333.048 198.715 332.934 198.57 332.788C198.426 332.641 198.314 332.464 198.244 332.27C198.024 331.885 197.963 331.428 198.076 330.999C198.189 330.569 198.466 330.201 198.848 329.974Z" fill="white"/>
<path opacity="0.5" d="M207.095 326.83C207.582 327.228 207.974 327.729 208.245 328.296C208.516 328.864 208.658 329.484 208.661 330.113C208.699 330.691 208.583 331.268 208.324 331.786C208.065 332.304 207.673 332.743 207.188 333.059L196.377 339.3C195.896 339.564 195.346 339.672 194.802 339.61C194.257 339.548 193.746 339.318 193.337 338.952C192.853 338.553 192.462 338.052 192.194 337.484C191.925 336.917 191.785 336.297 191.783 335.669L191.563 320.705C191.521 320.127 191.635 319.548 191.895 319.03C192.154 318.511 192.548 318.072 193.036 317.759C193.513 317.494 194.061 317.385 194.603 317.445C195.146 317.505 195.656 317.732 196.063 318.095L207.095 326.83ZM207.443 329.974C207.441 329.596 207.356 329.223 207.194 328.883C207.031 328.542 206.796 328.241 206.503 328.002L195.483 319.278C195.238 319.061 194.931 318.925 194.606 318.888C194.28 318.85 193.951 318.914 193.662 319.07C193.367 319.257 193.128 319.521 192.971 319.834C192.814 320.146 192.744 320.496 192.769 320.844L192.989 335.808C192.994 336.186 193.08 336.557 193.242 336.898C193.404 337.239 193.639 337.54 193.929 337.78C194.175 337.998 194.481 338.134 194.807 338.171C195.133 338.209 195.462 338.145 195.75 337.989L206.561 331.748C206.852 331.557 207.087 331.292 207.241 330.98C207.396 330.668 207.466 330.321 207.443 329.974Z" fill="white"/>
</g>
<path d="M226.212 326.842L211.956 302.146L208.708 304.025L222.976 328.733L226.212 326.842Z" fill="#004948"/>
<path opacity="0.3" d="M226.212 326.842L211.956 302.146L208.708 304.025L222.976 328.733L226.212 326.842Z" fill="black"/>
<path opacity="0.1" d="M181.157 353.034L222.975 328.732L221.653 326.528L183.373 348.777L170.23 326.389L166.901 328.326L181.157 353.034Z" fill="black"/>
<path d="M297.366 307.087L292.993 309.604L297.39 312.144L297.366 307.087Z" fill="#455A64"/>
<path d="M292.993 309.604L184.707 372.093L184.719 377.151L297.389 312.144L292.993 309.604Z" fill="#37474F"/>
<path d="M138.458 119.144C138.458 119.271 138.458 119.399 138.539 119.515C138.539 119.654 138.62 119.805 138.667 119.944C138.71 120.067 138.76 120.187 138.818 120.304L139.038 120.768L139.235 121.092C139.344 121.263 139.46 121.437 139.583 121.614L139.792 121.881L139.989 122.125L140.082 122.229C140.221 122.38 140.372 122.519 140.523 122.67L140.732 122.867C140.871 122.995 141.033 123.122 141.196 123.25L141.462 123.459L141.625 123.598L142.17 123.958C142.356 124.085 142.541 124.213 142.75 124.329L156.774 132.449L208.151 102.788L194.126 94.6676C188.199 91.1876 178.571 91.1876 172.597 94.6676L142.854 111.963C139.664 113.808 138.214 116.267 138.4 118.68C138.407 118.836 138.427 118.991 138.458 119.144Z" fill="#455A64"/>
<path opacity="0.5" d="M138.458 119.144C138.458 119.271 138.458 119.399 138.539 119.515C138.539 119.654 138.62 119.805 138.667 119.944C138.71 120.067 138.76 120.187 138.818 120.304L139.038 120.768L139.235 121.092C139.344 121.263 139.46 121.437 139.583 121.614L139.792 121.881L139.989 122.125L140.082 122.229C140.221 122.38 140.372 122.519 140.523 122.67L140.732 122.867C140.871 122.995 141.033 123.122 141.196 123.25L141.462 123.459L141.625 123.598L142.17 123.958C142.356 124.085 142.541 124.213 142.75 124.329L156.774 132.449L208.151 102.788L194.126 94.6676C188.199 91.1876 178.571 91.1876 172.597 94.6676L142.854 111.963C139.664 113.808 138.214 116.267 138.4 118.68C138.407 118.836 138.427 118.991 138.458 119.144Z" fill="white"/>
<path d="M142.785 124.433C142.588 124.317 142.402 124.19 142.216 124.062L141.671 123.703L141.509 123.563L141.254 123.366C141.091 123.239 140.929 123.111 140.79 122.983L140.581 122.786C140.429 122.652 140.286 122.509 140.152 122.357L140.059 122.253L139.862 122.009L139.664 121.754C139.533 121.576 139.417 121.402 139.316 121.232C139.247 121.127 139.177 121.023 139.119 120.919L138.899 120.455C138.899 120.339 138.794 120.234 138.748 120.118C138.748 119.979 138.667 119.828 138.62 119.689C138.62 119.573 138.562 119.457 138.539 119.341C138.528 119.19 138.528 119.039 138.539 118.889C138.539 118.738 138.539 118.599 138.539 118.448L138.678 166.425V166.565C138.673 166.665 138.673 166.766 138.678 166.866C138.667 167.028 138.667 167.191 138.678 167.353V167.435C138.678 167.539 138.748 167.632 138.771 167.736C138.794 167.841 138.852 168.049 138.899 168.2V168.293C138.937 168.384 138.979 168.473 139.026 168.56C139.096 168.722 139.166 168.885 139.247 169.035V169.151C139.247 169.233 139.351 169.302 139.398 169.372C139.444 169.441 139.63 169.731 139.757 169.905C139.796 169.957 139.831 170.011 139.862 170.068L140.163 170.416L140.268 170.532C140.438 170.725 140.62 170.907 140.813 171.077L140.906 171.158C141.045 171.286 141.219 171.413 141.37 171.541C141.52 171.669 141.648 171.773 141.799 171.877L142.344 172.249L142.738 172.504L142.924 172.62L156.948 180.74L156.809 132.774L142.785 124.433Z" fill="#37474F"/>
<path opacity="0.3" d="M142.785 124.433C142.588 124.317 142.402 124.19 142.216 124.062L141.671 123.703L141.509 123.563L141.254 123.366C141.091 123.239 140.929 123.111 140.79 122.983L140.581 122.786C140.429 122.652 140.286 122.509 140.152 122.357L140.059 122.253L139.862 122.009L139.664 121.754C139.533 121.576 139.417 121.402 139.316 121.232C139.247 121.127 139.177 121.023 139.119 120.919L138.899 120.455C138.899 120.339 138.794 120.234 138.748 120.118C138.748 119.979 138.667 119.828 138.62 119.689C138.62 119.573 138.562 119.457 138.539 119.341C138.528 119.19 138.528 119.039 138.539 118.889C138.539 118.738 138.539 118.599 138.539 118.448L138.678 166.425V166.565C138.673 166.665 138.673 166.766 138.678 166.866C138.667 167.028 138.667 167.191 138.678 167.353V167.435C138.678 167.539 138.748 167.632 138.771 167.736C138.794 167.841 138.852 168.049 138.899 168.2V168.293C138.937 168.384 138.979 168.473 139.026 168.56C139.096 168.722 139.166 168.885 139.247 169.035V169.151C139.247 169.233 139.351 169.302 139.398 169.372C139.444 169.441 139.63 169.731 139.757 169.905C139.796 169.957 139.831 170.011 139.862 170.068L140.163 170.416L140.268 170.532C140.438 170.725 140.62 170.907 140.813 171.077L140.906 171.158C141.045 171.286 141.219 171.413 141.37 171.541C141.52 171.669 141.648 171.773 141.799 171.877L142.344 172.249L142.738 172.504L142.924 172.62L156.948 180.74L156.809 132.774L142.785 124.433Z" fill="white"/>
<path d="M208.185 102.927L156.809 132.588L156.948 180.554L208.325 150.904L208.185 102.927Z" fill="#263238"/>
<path d="M101.349 319.452L101.036 178.976C101.151 176.801 101.779 174.684 102.867 172.797C103.956 170.91 105.475 169.307 107.3 168.119L281.88 67.57C282.514 67.1116 283.256 66.8274 284.034 66.746C284.811 66.6646 285.597 66.7887 286.311 67.106L279.734 63.3012C278.574 62.5704 276.962 62.6284 275.175 63.6724L100.584 164.233C98.7598 165.42 97.2418 167.021 96.1534 168.906C95.0649 170.791 94.4367 172.906 94.3198 175.079L94.633 315.52C94.5561 316.264 94.6666 317.016 94.9542 317.707C95.2419 318.398 95.6977 319.006 96.2802 319.476L96.6282 319.673L103.113 323.454C102.498 322.997 102.012 322.388 101.703 321.686C101.394 320.985 101.272 320.215 101.349 319.452Z" fill="#004948"/>
<path opacity="0.3" d="M279.769 63.3012C278.609 62.5704 276.997 62.6284 275.21 63.6724L100.584 164.233C98.5219 165.537 96.8631 167.388 95.793 169.58L102.509 173.466C103.58 171.274 105.238 169.423 107.3 168.119L281.88 67.57C282.514 67.1116 283.256 66.8274 284.034 66.746C284.811 66.6646 285.597 66.7887 286.311 67.106L279.769 63.3012Z" fill="white"/>
<path opacity="0.2" d="M94.3198 175.079L94.633 315.52C94.5561 316.264 94.6666 317.016 94.9542 317.707C95.2419 318.398 95.6977 319.006 96.2802 319.476L96.6282 319.673L103.113 323.454C102.49 323 101.996 322.39 101.681 321.686C101.365 320.983 101.239 320.208 101.315 319.441L101.001 178.965C101.048 177.037 101.553 175.149 102.475 173.455L95.7582 169.569C94.8538 171.267 94.3611 173.155 94.3198 175.079Z" fill="black"/>
<path d="M288.225 71.1544C288.302 70.3871 288.175 69.6131 287.858 68.9105C287.54 68.2079 287.043 67.6014 286.416 67.1524C285.701 66.8351 284.916 66.7109 284.138 66.7924C283.361 66.8738 282.618 67.1579 281.985 67.6164L107.3 168.119C105.475 169.307 103.956 170.91 102.867 172.797C101.779 174.684 101.151 176.801 101.036 178.976L101.349 319.452C101.274 320.22 101.4 320.994 101.715 321.698C102.031 322.402 102.524 323.011 103.147 323.466H103.252C103.961 323.76 104.734 323.868 105.497 323.781C106.26 323.694 106.988 323.414 107.613 322.967L282.275 222.488C284.1 221.302 285.619 219.701 286.707 217.816C287.796 215.931 288.424 213.816 288.539 211.642L288.225 71.1544ZM279.166 217.117L107.544 315.949L107.242 178.965C107.355 177.884 107.694 176.838 108.238 175.897C108.781 174.955 109.517 174.139 110.397 173.501L282.077 74.6692L282.379 211.654C282.258 212.739 281.909 213.787 281.356 214.728C280.802 215.67 280.056 216.484 279.166 217.117Z" fill="#004948"/>
<path d="M282.031 74.6694L277.588 77.2214L277.878 209.461C277.763 210.542 277.422 211.586 276.879 212.527C276.336 213.468 275.601 214.285 274.723 214.925L107.532 311.205V315.938L279.212 217.106C280.094 216.468 280.831 215.652 281.377 214.711C281.922 213.769 282.264 212.724 282.379 211.642L282.031 74.6694Z" fill="#004948"/>
<path opacity="0.3" d="M282.031 74.6694L277.588 77.2214L277.878 209.461C277.763 210.542 277.422 211.586 276.879 212.527C276.336 213.468 275.601 214.285 274.723 214.925L107.532 311.205V315.938L279.212 217.106C280.094 216.468 280.831 215.652 281.377 214.711C281.922 213.769 282.264 212.724 282.379 211.642L282.031 74.6694Z" fill="black"/>
<path d="M277.878 209.485L277.588 77.2446L110.397 173.525C109.517 174.163 108.781 174.979 108.238 175.92C107.694 176.862 107.355 177.907 107.242 178.988L107.532 311.228L274.723 214.948C275.601 214.308 276.336 213.491 276.879 212.55C277.422 211.609 277.763 210.565 277.878 209.485Z" fill="#455A64"/>
<g opacity="0.5">
<path opacity="0.5" d="M226.594 217.431L226.606 222.407L175.682 251.801L175.67 246.825L226.594 217.431Z" fill="white"/>
<path opacity="0.5" d="M180.566 202.443L183.64 204.195L176.517 216.526L183.675 220.609L180.635 225.875L173.467 221.804L166.356 234.123L163.282 232.383L170.404 220.052L163.235 215.969L166.286 210.691L173.455 214.763L180.566 202.443Z" fill="white"/>
<path opacity="0.5" d="M235.735 170.59L238.798 172.341L231.687 184.672L238.844 188.755L235.793 194.033L228.636 189.95L221.525 202.269L218.451 200.529L225.562 188.21L218.405 184.127L221.456 178.837L228.613 182.921L235.735 170.59Z" fill="white"/>
</g>
<path d="M164.296 161.842L164.307 164.266L154.772 169.776L154.784 175.739L163.286 170.832L163.298 173.198L154.795 178.105L154.807 184.404L164.69 178.697L164.702 181.098L152.406 188.197L152.348 168.744L164.296 161.842Z" fill="white"/>
<path d="M178.552 166.551L182.589 170.773L179.955 172.293L176.267 168.442C175.942 168.651 175.582 168.906 175.211 169.115L171 171.527V177.443L168.587 178.835V159.382L175.199 155.566C179.596 153.025 182.275 154.035 182.287 158.269C182.25 159.829 181.901 161.366 181.259 162.789C180.618 164.211 179.697 165.491 178.552 166.551ZM175.141 166.771C178.227 164.985 179.851 162.445 179.851 159.661C179.851 156.877 178.204 156.25 175.107 158.025L171 160.403V169.149L175.13 166.771" fill="white"/>
<path d="M196.161 156.39L200.186 160.612L197.553 162.12L193.887 158.257C193.539 158.478 193.18 158.733 192.82 158.942L188.644 161.354V167.259L186.208 168.662L186.15 149.209L192.762 145.393C197.181 142.841 199.838 143.862 199.849 148.096C199.824 149.655 199.484 151.193 198.85 152.618C198.216 154.043 197.302 155.326 196.161 156.39ZM192.739 156.61C195.848 154.824 197.46 152.283 197.448 149.499C197.437 146.715 195.813 146.019 192.716 147.864L188.609 150.184V158.918L192.716 156.598" fill="white"/>
<path d="M211.426 134.408C216.588 131.427 220.416 133.457 220.428 139.175C220.296 142.239 219.411 145.224 217.851 147.864C216.291 150.505 214.104 152.72 211.484 154.313C206.276 157.329 202.448 155.264 202.436 149.569C202.424 143.873 206.218 137.412 211.426 134.408ZM211.484 151.808C213.407 150.606 215.007 148.953 216.145 146.992C217.283 145.031 217.925 142.821 218.015 140.556C218.015 136.229 215.184 134.756 211.438 136.867C209.499 138.065 207.885 139.721 206.736 141.689C205.588 143.657 204.939 145.877 204.849 148.154C204.849 152.469 207.679 153.954 211.484 151.808Z" fill="white"/>
<path d="M234.104 134.489L238.153 138.688L235.496 140.219L231.831 136.357C231.506 136.565 231.123 136.832 230.775 137.029L226.588 139.454V145.358L224.175 146.75V127.309L230.787 123.481C235.183 120.952 237.863 121.949 237.874 126.195C237.832 127.759 237.476 129.299 236.829 130.723C236.181 132.148 235.255 133.428 234.104 134.489ZM230.694 134.698C233.791 132.911 235.404 130.371 235.334 127.599C235.264 124.826 233.71 124.119 230.613 125.951L226.495 128.329V137.076L230.613 134.756" fill="white"/>
<path d="M168.966 91.6401L164.001 82.1397V82.0005L165.625 71.2705C165.766 70.3612 165.628 69.4305 165.228 68.6017C164.828 67.773 164.186 67.0855 163.386 66.6305L141.01 53.8241C140.513 53.538 139.923 53.4609 139.369 53.6099C138.815 53.759 138.344 54.1218 138.057 54.6187C137.771 55.1155 137.694 55.7057 137.843 56.2593C137.992 56.813 138.355 57.2847 138.852 57.5709L161.24 70.4237L161.344 70.6557L159.732 81.3973C159.588 82.351 159.75 83.326 160.196 84.1813L165.161 93.6817V93.8673L158.038 110.919C157.808 111.474 157.689 112.07 157.69 112.671V115.93C157.683 116.136 157.738 116.339 157.847 116.513C157.957 116.687 158.117 116.823 158.305 116.905C158.782 117.145 159.308 117.271 159.842 117.271C160.376 117.271 160.903 117.145 161.379 116.905C161.556 116.827 161.708 116.703 161.82 116.545C161.933 116.388 162.001 116.204 162.017 116.012V112.532L169.128 95.4797C169.383 94.8666 169.5 94.2052 169.472 93.5419C169.444 92.8785 169.271 92.2294 168.966 91.6401Z" fill="#004948"/>
<path d="M175.16 80.7243V80.5735L177.921 72.5579C178.185 71.7894 178.237 70.9639 178.072 70.1683L174.081 50.4483C173.967 49.8838 173.634 49.3876 173.154 49.0689C172.675 48.7502 172.088 48.6351 171.523 48.7489C170.959 48.8627 170.463 49.1962 170.144 49.6758C169.825 50.1555 169.71 50.7422 169.824 51.3067L173.826 71.1659L171.065 79.1931C170.721 80.181 170.721 81.256 171.065 82.2439L173.861 89.8303V89.9695L169.522 104.029C169.394 104.466 169.327 104.919 169.325 105.374V108.437C169.343 108.626 169.41 108.807 169.52 108.962C169.63 109.116 169.779 109.239 169.952 109.318C170.427 109.564 170.954 109.693 171.489 109.693C172.024 109.693 172.551 109.564 173.026 109.318C173.216 109.238 173.379 109.103 173.49 108.929C173.602 108.755 173.659 108.551 173.652 108.344V105.282L177.99 91.2223C178.283 90.2691 178.255 89.2461 177.909 88.3107L175.16 80.7243Z" fill="#455A64"/>
<path d="M214.09 61.5728H206.585C205.837 61.5703 205.1 61.7534 204.44 62.1057C203.78 62.4579 203.217 62.9683 202.803 63.5912L198.604 69.8668L198.465 69.9596L192.966 71.2588C192.276 71.4221 191.634 71.7441 191.09 72.1992C190.546 72.6543 190.116 73.2299 189.834 73.8804C189.409 74.8794 189.347 75.9959 189.66 77.0356L190.275 79.3556C190.298 79.4114 190.298 79.4738 190.275 79.5296C190.239 79.5768 190.191 79.613 190.136 79.634L188.442 80.0516C187.676 80.242 186.972 80.6289 186.4 81.174C185.829 81.7191 185.409 82.4037 185.183 83.1604L179.951 100.642C179.835 101.072 179.784 101.518 179.8 101.964V104.655C179.813 104.847 179.879 105.032 179.989 105.189C180.099 105.346 180.251 105.471 180.427 105.548C180.903 105.789 181.43 105.914 181.964 105.914C182.498 105.914 183.024 105.789 183.501 105.548C183.699 105.467 183.866 105.324 183.977 105.14C184.088 104.956 184.136 104.741 184.115 104.528V101.894L189.347 84.4132L189.498 84.2624L191.191 83.8448C191.871 83.6686 192.5 83.3384 193.031 82.8798C193.562 82.4211 193.981 81.8463 194.254 81.2C194.655 80.2032 194.712 79.1009 194.416 78.068L193.79 75.748C193.778 75.7205 193.772 75.6909 193.772 75.661C193.772 75.6311 193.778 75.6015 193.79 75.574C193.801 75.5452 193.82 75.52 193.844 75.5016C193.869 75.4831 193.898 75.472 193.929 75.4696L199.52 74.24C200.641 73.9695 201.621 73.2913 202.269 72.3376L206.457 66.062L206.643 65.9576H214.148C214.445 65.9794 214.744 65.9396 215.025 65.8408C215.307 65.7419 215.565 65.5861 215.783 65.3831C216.002 65.1801 216.176 64.9342 216.295 64.6608C216.414 64.3874 216.476 64.0924 216.476 63.7942C216.476 63.496 216.414 63.2009 216.295 62.9276C216.176 62.6542 216.002 62.4083 215.783 62.2053C215.565 62.0022 215.307 61.8464 215.025 61.7476C214.744 61.6487 214.445 61.609 214.148 61.6308L214.09 61.5728Z" fill="#004948"/>
<g opacity="0.1">
<path opacity="0.1" d="M168.966 91.6401L164.001 82.1397V82.0005L165.625 71.2705C165.766 70.3612 165.628 69.4305 165.228 68.6017C164.828 67.773 164.186 67.0855 163.386 66.6305L141.01 53.8241C140.513 53.538 139.923 53.4609 139.369 53.6099C138.815 53.759 138.344 54.1218 138.057 54.6187C137.771 55.1155 137.694 55.7057 137.843 56.2593C137.992 56.813 138.355 57.2847 138.852 57.5709L161.24 70.4237L161.344 70.6557L159.732 81.3973C159.588 82.351 159.75 83.326 160.196 84.1813L165.161 93.6817V93.8673L158.038 110.919C157.808 111.474 157.689 112.07 157.69 112.671V115.93C157.683 116.136 157.738 116.339 157.847 116.513C157.957 116.687 158.117 116.823 158.305 116.905C158.782 117.145 159.308 117.271 159.842 117.271C160.376 117.271 160.903 117.145 161.379 116.905C161.556 116.827 161.708 116.703 161.82 116.545C161.933 116.388 162.001 116.204 162.017 116.012V112.532L169.128 95.4797C169.383 94.8666 169.5 94.2052 169.472 93.5419C169.444 92.8785 169.271 92.2294 168.966 91.6401Z" fill="white"/>
<path opacity="0.1" d="M175.16 80.7243V80.5735L177.921 72.5579C178.185 71.7894 178.237 70.9639 178.072 70.1683L174.081 50.4483C173.967 49.8838 173.634 49.3876 173.154 49.0689C172.675 48.7502 172.088 48.6351 171.523 48.7489C170.959 48.8627 170.463 49.1962 170.144 49.6758C169.825 50.1555 169.71 50.7422 169.824 51.3067L173.826 71.1659L171.065 79.1931C170.721 80.181 170.721 81.256 171.065 82.2439L173.861 89.8303V89.9695L169.522 104.029C169.394 104.466 169.327 104.919 169.325 105.374V108.437C169.343 108.626 169.41 108.807 169.52 108.962C169.63 109.116 169.779 109.239 169.952 109.318C170.427 109.564 170.954 109.693 171.489 109.693C172.024 109.693 172.551 109.564 173.026 109.318C173.216 109.238 173.379 109.103 173.49 108.929C173.602 108.755 173.659 108.551 173.652 108.344V105.282L177.99 91.2223C178.283 90.2691 178.255 89.2461 177.909 88.3107L175.16 80.7243Z" fill="white"/>
<path opacity="0.1" d="M214.09 61.5728H206.585C205.837 61.5703 205.1 61.7534 204.44 62.1057C203.78 62.4579 203.217 62.9683 202.803 63.5912L198.604 69.8668L198.465 69.9596L192.966 71.2588C192.276 71.4221 191.634 71.7441 191.09 72.1992C190.546 72.6543 190.116 73.2299 189.834 73.8804C189.409 74.8794 189.347 75.9959 189.66 77.0356L190.275 79.3556C190.298 79.4114 190.298 79.4738 190.275 79.5296C190.239 79.5768 190.191 79.613 190.136 79.634L188.442 80.0516C187.676 80.242 186.972 80.6289 186.4 81.174C185.829 81.7191 185.409 82.4037 185.183 83.1604L179.951 100.642C179.835 101.072 179.784 101.518 179.8 101.964V104.655C179.813 104.847 179.879 105.032 179.989 105.189C180.099 105.346 180.251 105.471 180.427 105.548C180.903 105.789 181.43 105.914 181.964 105.914C182.498 105.914 183.024 105.789 183.501 105.548C183.699 105.467 183.866 105.324 183.977 105.14C184.088 104.956 184.136 104.741 184.115 104.528V101.894L189.347 84.4132L189.498 84.2624L191.191 83.8448C191.871 83.6686 192.5 83.3384 193.031 82.8798C193.562 82.4211 193.981 81.8463 194.254 81.2C194.655 80.2032 194.712 79.1009 194.416 78.068L193.79 75.748C193.778 75.7205 193.772 75.6909 193.772 75.661C193.772 75.6311 193.778 75.6015 193.79 75.574C193.801 75.5452 193.82 75.52 193.844 75.5016C193.869 75.4831 193.898 75.472 193.929 75.4696L199.52 74.24C200.641 73.9695 201.621 73.2913 202.269 72.3376L206.457 66.062L206.643 65.9576H214.148C214.445 65.9794 214.744 65.9396 215.025 65.8408C215.307 65.7419 215.565 65.5861 215.783 65.3831C216.002 65.1801 216.176 64.9342 216.295 64.6608C216.414 64.3874 216.476 64.0924 216.476 63.7942C216.476 63.496 216.414 63.2009 216.295 62.9276C216.176 62.6542 216.002 62.4083 215.783 62.2053C215.565 62.0022 215.307 61.8464 215.025 61.7476C214.744 61.6487 214.445 61.609 214.148 61.6308L214.09 61.5728Z" fill="white"/>
</g>
<path d="M101.373 34.7305L113.912 49.1377L122.624 44.0105L132.843 68.3589L120.988 51.0981L111.72 57.3157L101.373 34.7305Z" fill="#004948"/>
<path d="M160.927 29.9629L155.104 41.6209L160.927 42.5141L156.148 54.3113L166.159 40.7161L158.236 39.3705L160.927 29.9629Z" fill="#004948"/>
<path d="M212.013 33.8838L209.624 47.7458L204.845 45.9478L202.351 59.9954L206.237 49.2306L211.619 51.5274L212.013 33.8838Z" fill="#004948"/>
<path d="M219.681 58.4991L229.298 50.0775V54.2883L236.223 49.4395L226.908 59.4503L227.152 53.5343L219.681 58.4991Z" fill="#004948"/>
<path d="M216.259 71.1546L224.669 79.1818L226.258 74.6694L235.318 81.699L225.794 69.751L224.066 75.725L216.259 71.1546Z" fill="#004948"/>
<path d="M149.501 88.2759L136.718 93.0551L141.23 96.5003L131.347 102.196L147.483 97.8343L142.646 93.9483L149.501 88.2759Z" fill="#004948"/>
<g opacity="0.5">
<path opacity="0.5" d="M101.373 34.7305L113.912 49.1377L122.624 44.0105L132.843 68.3589L120.988 51.0981L111.72 57.3157L101.373 34.7305Z" fill="white"/>
<path opacity="0.5" d="M160.927 29.9629L155.104 41.6209L160.927 42.5141L156.148 54.3113L166.159 40.7161L158.236 39.3705L160.927 29.9629Z" fill="white"/>
<path opacity="0.5" d="M212.013 33.8838L209.624 47.7458L204.845 45.9478L202.351 59.9954L206.237 49.2306L211.619 51.5274L212.013 33.8838Z" fill="white"/>
<path opacity="0.5" d="M219.681 58.4991L229.298 50.0775V54.2883L236.223 49.4395L226.908 59.4503L227.152 53.5343L219.681 58.4991Z" fill="white"/>
<path opacity="0.5" d="M216.259 71.1546L224.669 79.1818L226.258 74.6694L235.318 81.699L225.794 69.751L224.066 75.725L216.259 71.1546Z" fill="white"/>
<path opacity="0.5" d="M149.501 88.2759L136.718 93.0551L141.23 96.5003L131.347 102.196L147.483 97.8343L142.646 93.9483L149.501 88.2759Z" fill="white"/>
</g>
<path d="M329.892 408.946L259.213 418.4L268.957 442.517L339.648 433.051L329.892 408.946Z" fill="#004948"/>
<path opacity="0.2" d="M329.892 408.946L302.47 429.849L259.213 418.4L329.892 408.946Z" fill="white"/>
<path opacity="0.1" d="M329.892 408.946L339.648 433.051L268.957 442.517L259.213 418.4L302.47 429.849L329.892 408.946Z" fill="white"/>
<path d="M362.94 325.09L347.002 348.023L414.363 363.834L430.313 340.901L362.94 325.09Z" fill="#004948"/>
<path opacity="0.3" d="M430.313 340.901L387.057 348.847L362.94 325.09L430.313 340.901Z" fill="white"/>
<path opacity="0.1" d="M430.313 340.901L414.363 363.834L347.002 348.023L362.94 325.09L387.057 348.847L430.313 340.901Z" fill="white"/>
<path d="M210.099 365.284L194.149 388.217L261.51 404.028L277.46 381.094L210.099 365.284Z" fill="#004948"/>
<path opacity="0.3" d="M277.46 381.094L234.204 389.041L210.099 365.284L277.46 381.094Z" fill="white"/>
<path opacity="0.1" d="M277.46 381.094L261.51 404.028L194.149 388.217L210.099 365.284L234.204 389.041L277.46 381.094Z" fill="white"/>
<path d="M460.566 354.728L401.673 379.216L426.671 399.33L485.552 374.842L460.566 354.728Z" fill="#004948"/>
<path opacity="0.5" d="M460.566 354.728L449.163 380.155L401.673 379.216L460.566 354.728Z" fill="white"/>
<path opacity="0.3" d="M460.566 354.728L485.552 374.842L426.671 399.33L401.673 379.216L449.163 380.155L460.566 354.728Z" fill="white"/>
<path d="M347.756 365.284L323.895 385.769L384.122 409.364L407.972 388.89L347.756 365.284Z" fill="#004948"/>
<path opacity="0.2" d="M407.972 388.89L362.802 391.418L347.756 365.284L407.972 388.89Z" fill="white"/>
<path opacity="0.1" d="M407.972 388.89L384.122 409.364L323.895 385.769L347.756 365.284L362.801 391.418L407.972 388.89Z" fill="white"/>
<path d="M401.151 467.225L359.252 462.318L345.077 503.533L386.976 508.451L401.151 467.225Z" fill="#004948"/>
<path opacity="0.5" d="M359.252 462.318L380.851 485.495L345.077 503.533L359.252 462.318Z" fill="white"/>
<path opacity="0.3" d="M386.976 508.451L345.077 503.533L380.851 485.495L359.252 462.318L401.151 467.225L386.976 508.451Z" fill="white"/>
<path d="M327.99 490.993L265.976 512.743L288.19 533.936L350.204 512.186L327.99 490.993Z" fill="#004948"/>
<path opacity="0.5" d="M327.99 490.993L313.2 515.84L265.976 512.743L327.99 490.993Z" fill="white"/>
<path opacity="0.3" d="M327.99 490.993L350.204 512.186L288.19 533.936L265.976 512.743L313.2 515.84L327.99 490.993Z" fill="white"/>
<path d="M383.809 284.548L332.305 314.29L362.419 331.783L413.923 302.052L383.809 284.548Z" fill="#004948"/>
<path opacity="0.5" d="M332.305 314.29L377.522 311.843L383.809 284.548L332.305 314.29Z" fill="white"/>
<path opacity="0.3" d="M332.305 314.29L362.419 331.783L413.923 302.052L383.809 284.548L377.522 311.843L332.305 314.29Z" fill="white"/>
<path d="M315.821 364.75L261.881 389.795L290.325 409.898L344.265 384.853L315.821 364.75Z" fill="#004948"/>
<path opacity="0.6" d="M261.881 389.795L307.145 391.373L315.821 364.75L261.881 389.795Z" fill="white"/>
<path opacity="0.4" d="M261.881 389.795L290.325 409.898L344.265 384.853L315.821 364.75L307.145 391.373L261.881 389.795Z" fill="white"/>
<path d="M411.719 352.338L339.195 354.276L341.307 378.995L413.83 377.058L411.719 352.338Z" fill="#004948"/>
<path opacity="0.5" d="M411.718 352.338L378.229 370.04L339.195 354.276L411.718 352.338Z" fill="white"/>
<path opacity="0.3" d="M411.719 352.338L413.83 377.058L341.307 378.995L339.195 354.276L378.229 370.04L411.719 352.338Z" fill="white"/>
<path d="M301.449 346.643L228.926 348.58L231.037 373.299L303.549 371.362L301.449 346.643Z" fill="#004948"/>
<path opacity="0.5" d="M301.449 346.643L267.96 364.344L228.926 348.58L301.449 346.643Z" fill="white"/>
<path opacity="0.3" d="M301.449 346.643L303.549 371.362L231.037 373.299L228.926 348.58L267.96 364.344L301.449 346.643Z" fill="white"/>
<path d="M332.85 460.079L295.8 447.76L259.689 484.172L296.809 496.561L332.85 460.079ZM298.12 455.601L303.514 473.639L298.12 455.601Z" fill="#004948"/>
<path opacity="0.2" d="M295.788 447.702L303.548 473.639L259.677 484.114L295.788 447.702Z" fill="white"/>
<path opacity="0.1" d="M296.739 496.491L259.677 484.114L303.548 473.639L295.788 447.702L332.85 460.079L296.739 496.491Z" fill="white"/>
<path d="M312.376 320.81L292.111 361.154L333.152 368.138L353.394 327.781L312.376 320.81Z" fill="#004948"/>
<path opacity="0.5" d="M312.376 320.81L330.449 344.972L292.111 361.154L312.376 320.81Z" fill="white"/>
<path opacity="0.3" d="M333.152 368.138L292.111 361.154L330.449 344.972L312.376 320.81L353.394 327.781L333.152 368.138Z" fill="white"/>
<path d="M370.712 396.998L334.277 409.862L372.209 445.799L408.633 432.935L370.712 396.998Z" fill="#004948"/>
<path opacity="0.5" d="M370.712 396.998L408.633 432.935L365.667 424.362L370.712 396.998Z" fill="white"/>
<path opacity="0.3" d="M370.712 396.998L365.666 424.362L408.633 432.935L372.209 445.799L334.277 409.862L370.712 396.998Z" fill="white"/>
<path d="M346.898 425.72L295.394 455.462L325.507 472.967L377.011 443.224L346.898 425.72Z" fill="#004948"/>
<path opacity="0.6" d="M295.394 455.462L340.61 453.015L346.898 425.72L295.394 455.462Z" fill="white"/>
<path opacity="0.4" d="M295.394 455.462L325.507 472.967L377.011 443.224L346.898 425.72L340.61 453.015L295.394 455.462Z" fill="white"/>
<path d="M229.227 443.758L192.107 455.938L228.044 492.547L265.176 480.367L229.227 443.758Z" fill="#004948"/>
<path opacity="0.5" d="M234.598 465.299L228.044 492.548L192.107 455.938L234.598 465.299Z" fill="white"/>
<path opacity="0.3" d="M229.227 443.758L265.176 480.367L228.044 492.547L192.107 455.938L228.044 492.547L234.598 465.299L192.107 455.938L229.227 443.758Z" fill="white"/>
<path d="M265.93 425.302L223.903 429.687L236.964 471.076L278.991 466.703L265.93 425.302Z" fill="#004948"/>
<path opacity="0.6" d="M265.93 425.302L278.992 466.703L244.203 449.732L265.93 425.302Z" fill="white"/>
<path opacity="0.4" d="M265.93 425.302L244.203 449.732L278.991 466.703L236.964 471.076L223.903 429.687L265.93 425.302Z" fill="white"/>
<path d="M221.456 467.422L184.382 455.044L192.142 480.982L184.382 455.044L148.283 491.457L185.345 503.846L221.456 467.422Z" fill="#004948"/>
<path opacity="0.6" d="M184.382 455.044L192.142 480.982L148.283 491.457L184.382 455.044Z" fill="white"/>
<path opacity="0.4" d="M185.345 503.846L148.283 491.457L192.142 480.982L184.382 455.044L221.456 467.422L185.345 503.846Z" fill="white"/>
<path d="M142.645 395.885L112.531 413.378L164.047 443.12L194.149 425.616L142.645 395.885Z" fill="#004948"/>
<path opacity="0.2" d="M194.149 425.616L148.932 423.168L142.645 395.885L194.149 425.616Z" fill="white"/>
<path opacity="0.1" d="M194.149 425.616L164.047 443.12L112.531 413.378L142.645 395.885L148.932 423.168L194.149 425.616Z" fill="white"/>
<path d="M146.206 418.018L104.817 424.073L122.832 464.847L164.221 458.792L146.206 418.018Z" fill="#004948"/>
<path opacity="0.5" d="M146.206 418.018L164.221 458.792L127.472 443.271L146.206 418.018Z" fill="white"/>
<path opacity="0.3" d="M146.206 418.018L127.472 443.271L164.221 458.792L122.832 464.847L104.817 424.073L146.206 418.018Z" fill="white"/>
<path d="M262.775 399.086L190.495 402.903L194.509 427.553L266.788 423.736L262.775 399.086Z" fill="#004948"/>
<path opacity="0.6" d="M262.775 399.086L230.689 417.646L190.495 402.903L262.775 399.086Z" fill="white"/>
<path opacity="0.3" d="M262.775 399.086L266.788 423.736L194.509 427.553L190.495 402.903L230.689 417.646L262.775 399.086Z" fill="white"/>
<path opacity="0.1" d="M259.341 328.999L248.681 335.159L228.555 346.77L280.964 367.291L304.813 346.805L259.341 328.999Z" fill="black"/>
<path d="M262.948 326.946L252.276 333.094L232.15 344.705L280.963 363.834L304.813 343.348L262.948 326.946Z" fill="#004948"/>
<path opacity="0.6" d="M259.642 345.877L304.813 343.348L262.948 326.946L252.276 333.094L259.642 345.877Z" fill="white"/>
<path opacity="0.4" d="M304.813 343.348L259.642 345.877L252.276 333.094L232.15 344.705L280.963 363.834L304.813 343.348Z" fill="white"/>
<path d="M482.85 255.524L484.393 229.39C484.609 225.828 483.939 222.269 482.443 219.03C480.947 215.792 478.672 212.974 475.82 210.83L466.436 203.765L467.805 259.84L482.85 255.524Z" fill="#004948"/>
<path opacity="0.1" d="M482.85 255.524L484.393 229.39C484.609 225.828 483.939 222.269 482.443 219.03C480.947 215.792 478.672 212.974 475.82 210.83L466.436 203.765L467.805 259.84L482.85 255.524Z" fill="black"/>
<path opacity="0.1" d="M468.257 226.931C472.768 228.471 477.437 229.499 482.177 229.993C481.08 230.829 479.824 231.431 478.485 231.762C477.146 232.093 475.754 232.147 474.394 231.919C473.082 231.556 471.859 230.926 470.803 230.068C469.747 229.209 468.88 228.141 468.257 226.931Z" fill="black"/>
<path d="M450.892 457.539C450.127 459.94 447.482 461.32 444.965 461.517C442.441 461.518 439.927 461.198 437.483 460.566C431.915 459.557 426.544 460.566 420.999 460.427C419.177 460.44 417.359 460.241 415.582 459.835C413.79 459.423 412.17 458.467 410.942 457.098C410.25 456.265 409.79 455.265 409.608 454.198C409.499 455.005 409.562 455.826 409.792 456.608C410.022 457.389 410.414 458.113 410.942 458.733C412.174 460.095 413.793 461.046 415.582 461.459C417.359 461.865 419.177 462.064 420.999 462.051C426.544 462.179 431.915 461.181 437.483 462.19C439.925 462.832 442.44 463.155 444.965 463.153C447.482 462.944 450.127 461.575 450.892 459.163C451.132 458.33 451.199 457.458 451.09 456.599C451.046 456.916 450.98 457.23 450.892 457.539Z" fill="#263238"/>
<path d="M450.753 452.922L449.72 447.864C449.595 446.964 449.304 446.095 448.862 445.3C448.641 444.9 448.314 444.568 447.917 444.341C447.52 444.114 447.069 444 446.612 444.013C443.572 443.607 439.28 442.505 436.752 444.245C432.747 446.985 427.971 448.372 423.122 448.2C420.604 448.108 418.087 447.586 415.582 447.899C413.076 448.212 410.489 449.592 409.782 452.005C409.577 452.717 409.533 453.466 409.654 454.198C409.836 455.265 410.296 456.265 410.988 457.098C412.215 458.467 413.836 459.423 415.628 459.835C417.405 460.241 419.223 460.44 421.045 460.427C426.59 460.554 431.961 459.557 437.529 460.566C439.972 461.198 442.487 461.518 445.011 461.517C447.528 461.32 450.173 459.94 450.938 457.538C451.026 457.23 451.092 456.916 451.136 456.599C451.199 455.361 451.07 454.12 450.753 452.922Z" fill="#37474F"/>
<path d="M436.01 438.944L435.801 445.533C435.775 446.207 436.012 446.864 436.463 447.367C436.913 447.869 437.541 448.176 438.214 448.224C440.422 448.398 442.64 448.398 444.849 448.224C445.736 448.141 446.565 447.745 447.187 447.108C447.81 446.47 448.185 445.633 448.248 444.744L448.514 439.872L436.01 438.944Z" fill="#FFA8A7"/>
<path d="M479.08 435.441C479.049 436.414 478.743 437.359 478.199 438.167C477.412 439.112 476.306 439.735 475.09 439.918C473.635 440.165 472.141 439.998 470.777 439.436C469.413 438.874 468.234 437.94 467.376 436.74C466.541 435.58 466.065 434.13 465.288 432.9C464.099 431.257 462.636 429.833 460.961 428.689C459.285 427.55 457.811 426.138 456.599 424.513C456.03 423.717 455.658 422.797 455.514 421.829C455.371 420.861 455.461 419.872 455.776 418.945C455.612 419.166 455.472 419.403 455.358 419.653C454.992 420.63 454.873 421.682 455.011 422.715C455.148 423.749 455.538 424.733 456.147 425.581C457.378 427.252 458.88 428.707 460.59 429.884C462.304 431.062 463.8 432.53 465.009 434.222C465.81 435.487 466.285 436.937 467.132 438.178C467.998 439.413 469.198 440.375 470.59 440.955C471.982 441.534 473.511 441.705 474.997 441.449C476.243 441.266 477.376 440.625 478.175 439.651C478.887 438.521 479.209 437.189 479.092 435.858C479.08 435.719 479.08 435.58 479.08 435.441Z" fill="#263238"/>
<path d="M477.015 427.181C475.02 423.701 470.891 421.115 467.735 418.632C465.994 417.117 463.85 416.142 461.564 415.825C460.415 415.679 459.248 415.881 458.214 416.404C457.181 416.927 456.327 417.747 455.764 418.76C455.764 418.818 455.764 418.887 455.706 418.945C455.391 419.872 455.301 420.861 455.445 421.829C455.588 422.797 455.96 423.718 456.53 424.513C457.741 426.138 459.215 427.55 460.891 428.689C462.566 429.833 464.03 431.257 465.218 432.9C465.995 434.13 466.471 435.545 467.306 436.74C468.164 437.94 469.343 438.874 470.707 439.436C472.071 439.998 473.566 440.165 475.02 439.918C476.236 439.736 477.343 439.112 478.129 438.167C478.674 437.359 478.979 436.414 479.011 435.441C479.011 435.127 479.011 434.814 479.011 434.489C478.97 431.925 478.284 429.411 477.015 427.181Z" fill="#37474F"/>
<path d="M468.338 424.13V430.116C469.803 430.801 471.412 431.122 473.028 431.051C474.644 430.981 476.219 430.521 477.618 429.71L478.175 424.316L468.338 424.13Z" fill="#FFA8A7"/>
<path d="M479.788 315.52C481.574 320.914 479.37 346.492 478.326 371.037C482.212 380.317 482.328 406.893 480.078 425.557C480.078 425.557 472.468 427.877 465.439 425.453L459.175 373.694L457.945 344.52C457.945 344.52 455.729 370.399 453.189 387.01C455.579 399.77 455.834 402.404 449.929 441.53C449.929 441.53 440.348 444.419 433.168 440.892C429.827 385.932 433.713 336.191 434.328 318.176L479.788 315.52Z" fill="#455A64"/>
<path opacity="0.3" d="M458.688 362.337L457.69 338.534C463.838 338.534 469.557 333.894 473.93 329.579C469.754 337.003 461.68 340.297 461.68 340.297L458.688 362.337Z" fill="black"/>
<path d="M433.597 267.647L433.411 319.684C460.845 331.18 478.651 320.844 481.052 315.392C479.788 296.426 484.266 274.235 483.918 264.805C483.57 255.374 482.421 244.748 467.805 246.883L452.261 248.402L444.373 250.316L433.597 267.647Z" fill="#004948"/>
<path d="M467.805 239.435C468.915 239.507 470.008 239.136 470.844 238.403C471.159 238.054 471.388 237.636 471.513 237.183C471.638 236.73 471.655 236.254 471.564 235.793C472.024 235.705 472.456 235.504 472.82 235.209C473.185 234.913 473.47 234.532 473.652 234.099C473.794 233.62 473.824 233.114 473.739 232.622C473.655 232.129 473.458 231.662 473.164 231.257C473.83 231.085 474.45 230.771 474.983 230.336C475.515 229.902 475.947 229.357 476.25 228.74C476.561 228.106 476.734 227.413 476.758 226.708C476.782 226.002 476.656 225.299 476.389 224.645C477.122 224.451 477.793 224.071 478.337 223.543C478.881 223.015 479.281 222.356 479.498 221.629C479.726 220.875 479.765 220.076 479.611 219.304C479.457 218.531 479.116 217.808 478.616 217.198C479.246 216.353 479.642 215.357 479.764 214.31C479.886 213.264 479.73 212.203 479.312 211.236C478.832 210.264 478.109 209.433 477.212 208.823C476.316 208.213 475.277 207.846 474.197 207.756C474.349 206.743 474.245 205.708 473.894 204.746C473.544 203.783 472.958 202.924 472.19 202.246C471.42 201.596 470.497 201.154 469.508 200.961C468.52 200.769 467.498 200.831 466.541 201.144C466.19 200.297 465.63 199.553 464.914 198.981C464.198 198.409 463.348 198.028 462.445 197.873C461.542 197.718 460.614 197.794 459.748 198.094C458.882 198.394 458.106 198.908 457.493 199.589C457.039 199.08 456.468 198.691 455.829 198.454C455.19 198.217 454.503 198.141 453.827 198.232C453.14 198.305 452.481 198.542 451.906 198.924C451.33 199.305 450.855 199.82 450.521 200.425C449.655 200.03 448.702 199.865 447.754 199.944C446.805 200.024 445.893 200.346 445.105 200.879C444.317 201.412 443.679 202.139 443.252 202.99C442.825 203.841 442.624 204.787 442.668 205.737C441.979 205.946 441.378 206.377 440.959 206.962C440.539 207.547 440.325 208.254 440.348 208.974C440.406 209.714 440.7 210.417 441.187 210.978C441.673 211.539 442.326 211.931 443.051 212.094C444.426 219.529 446.88 226.724 450.336 233.45C451.878 236.454 453.816 239.493 456.762 241.048C459.964 242.765 465.033 241.802 467.805 239.435Z" fill="#455A64"/>
<path d="M441.914 221.873L438.701 227.476L442.227 228.775L441.914 221.873Z" fill="#F28F8F"/>
<path d="M443.027 212.129C440.891 219.878 440.574 228.017 442.099 235.909C442.268 237.271 442.779 238.568 443.584 239.679C444.647 240.815 446.113 241.49 447.667 241.558C449.227 241.618 450.787 241.47 452.307 241.117V248.402C457.829 249.701 463.513 250.212 467.851 246.883V239.435C464.733 240.43 461.416 240.634 458.2 240.027C454.384 237.974 453.618 231.002 454.152 229.158C454.492 229.605 454.955 229.942 455.485 230.128C456.016 230.313 456.588 230.339 457.133 230.202C457.659 230.063 458.151 229.818 458.579 229.48C459.006 229.143 459.359 228.721 459.615 228.241C460.125 227.28 460.441 226.228 460.543 225.144C460.812 223.837 460.611 222.477 459.975 221.305C459.487 220.651 458.812 220.162 458.039 219.901C457.266 219.64 456.432 219.62 455.648 219.843C454.079 220.334 452.77 221.427 452.006 222.882C451.76 223.33 451.547 223.796 451.368 224.274C451.305 224.462 451.179 224.623 451.011 224.729C450.843 224.835 450.644 224.879 450.447 224.854C450.25 224.83 450.068 224.738 449.931 224.594C449.794 224.45 449.712 224.263 449.697 224.065C449.497 221.974 449.875 219.868 450.788 217.975C450.158 217.909 449.551 217.703 449.011 217.372C448.471 217.041 448.012 216.593 447.667 216.061C447.308 215.566 447.067 214.994 446.962 214.391C446.858 213.788 446.893 213.169 447.064 212.581C445.702 212.671 444.336 212.518 443.027 212.129Z" fill="#FFA8A7"/>
<path d="M447.435 222.534C449.971 222.614 452.496 222.155 454.841 221.187C457.187 220.22 459.3 218.765 461.042 216.92C461.29 216.661 461.447 216.329 461.489 215.973C461.53 215.617 461.455 215.257 461.274 214.948C461.159 214.757 461.006 214.592 460.824 214.464C460.642 214.336 460.435 214.247 460.216 214.204C459.998 214.16 459.773 214.162 459.556 214.211C459.338 214.259 459.133 214.352 458.954 214.484C457.466 215.648 455.698 216.4 453.827 216.665C453.954 213.962 457.701 208.695 459.627 206.793C460.238 206.345 460.686 205.709 460.903 204.983C460.933 204.745 460.906 204.502 460.823 204.276C460.74 204.05 460.604 203.847 460.427 203.684C460.26 203.517 460.054 203.393 459.827 203.324C459.6 203.255 459.36 203.243 459.128 203.29C459.355 203.197 459.547 203.035 459.676 202.827C459.806 202.618 459.865 202.374 459.847 202.13C459.803 201.879 459.693 201.644 459.528 201.451C459.362 201.257 459.148 201.111 458.908 201.028C458.675 200.927 458.424 200.875 458.171 200.875C457.918 200.875 457.667 200.927 457.434 201.028C457.398 200.815 457.303 200.616 457.159 200.454C457.016 200.292 456.83 200.173 456.622 200.111C456.208 199.973 455.76 199.973 455.346 200.111C454.922 200.258 454.514 200.449 454.128 200.68C453.895 200.35 453.556 200.11 453.168 200.001C452.78 199.891 452.365 199.918 451.994 200.077C447.11 202.559 441.252 210.517 441.206 215.992C441.265 217.655 441.932 219.239 443.08 220.445C444.227 221.65 445.777 222.393 447.435 222.534Z" fill="#FFA8A7"/>
<path d="M459.07 203.197C456.328 204.519 454.128 206.748 452.841 209.507C453.293 205.32 457.411 203.382 459.07 203.197Z" fill="#F28F8F"/>
<path d="M457.377 200.9C453.247 202.861 451.426 204.914 450.301 206.7C450.899 205.218 451.861 203.91 453.098 202.896C454.334 201.883 455.806 201.196 457.377 200.9Z" fill="#F28F8F"/>
<path d="M454.07 200.599C451.704 201.599 449.672 203.253 448.212 205.366C448.665 204.115 449.45 203.011 450.481 202.172C451.513 201.332 452.754 200.788 454.07 200.599Z" fill="#F28F8F"/>
<path d="M455.636 219.796C452.94 221.09 449.917 221.543 446.96 221.096C446.522 219.406 445.565 217.896 444.222 216.78C443.336 216.046 442.304 215.508 441.194 215.203C441.194 215.435 441.194 215.678 441.194 215.91C441.235 217.597 441.901 219.209 443.063 220.432C444.225 221.656 445.799 222.405 447.482 222.534C450.01 222.607 452.525 222.145 454.862 221.178C457.199 220.21 459.305 218.759 461.042 216.92C461.28 216.673 461.433 216.356 461.479 216.016C461.525 215.676 461.461 215.33 461.297 215.029C459.838 217.066 457.892 218.705 455.636 219.796Z" fill="#F28F8F"/>
<path opacity="0.2" d="M448.572 265.64C443.932 265.721 439.292 265.953 434.571 266.127L433.597 267.704V277.448C436.827 276.749 439.854 275.321 442.449 273.275C445.044 271.229 447.139 268.617 448.572 265.64Z" fill="black"/>
<path d="M449.025 249.18L418.029 240.398L445.324 227.36C449.291 220.098 442.018 213.916 435.847 214.809L404.283 230.399C401.966 231.463 400.003 233.17 398.628 235.317C397.252 237.463 396.521 239.96 396.523 242.51C396.522 245.092 397.272 247.619 398.68 249.783C400.089 251.948 402.096 253.656 404.457 254.701L440.417 270.64C451.24 274.27 458.803 251.952 449.025 249.18Z" fill="#004948"/>
<path opacity="0.2" d="M418.03 240.398L409.179 237.881C413.758 236.95 418.452 236.727 423.099 237.22L424.398 237.359L418.03 240.398Z" fill="black"/>
<path d="M317.468 102.08L392.207 145.209C393.514 145.958 394.592 147.049 395.328 148.364C396.03 149.615 396.401 151.024 396.406 152.459V198.36C396.406 203.974 391.639 207.779 385.363 204.16L379.401 200.761L378.183 200.065L377.916 199.914L337.966 176.714L310.624 161.089C309.347 160.358 308.284 159.303 307.545 158.03C306.806 156.757 306.415 155.311 306.414 153.839V107.88C306.414 101.894 313.722 99.9339 317.468 102.08Z" fill="#004948"/>
<path opacity="0.4" d="M388.6 152.134C388.059 151.055 387.296 150.102 386.361 149.338C386.043 149.08 385.706 148.847 385.352 148.642L310.59 105.56C310.166 105.316 309.686 105.187 309.197 105.187C308.708 105.187 308.228 105.316 307.805 105.56C307.382 105.805 307.03 106.157 306.786 106.58C306.542 107.004 306.413 107.484 306.414 107.973C306.414 101.941 313.722 99.9804 317.468 102.173L392.207 145.302C393.514 146.051 394.592 147.142 395.328 148.457L388.6 152.134Z" fill="white"/>
<path opacity="0.2" d="M389.528 201.759V155.892C389.528 155.559 389.505 155.225 389.458 154.895C389.321 153.933 389.027 153.001 388.588 152.134L395.328 148.375C396.03 149.626 396.402 151.036 396.407 152.47V198.36C396.407 203.974 391.639 207.779 385.363 204.16C385.785 204.401 386.263 204.527 386.75 204.526C387.236 204.525 387.713 204.397 388.134 204.154C388.556 203.911 388.906 203.562 389.15 203.142C389.395 202.722 389.525 202.245 389.528 201.759Z" fill="white"/>
<path d="M379.401 200.773L378.183 200.077L379.401 200.773Z" fill="#004948"/>
<path d="M300.88 133.098L306.414 129.885V131.509L300.88 133.098Z" fill="#004948"/>
<path opacity="0.4" d="M300.88 133.098L306.414 129.885V131.509L300.88 133.098Z" fill="white"/>
<path d="M307.4 131.23L301.194 132.959C300.958 133.022 300.743 133.148 300.573 133.323C300.402 133.498 300.282 133.716 300.225 133.953C300.168 134.191 300.176 134.439 300.249 134.673C300.321 134.906 300.455 135.115 300.637 135.279L307.087 141.253L307.4 131.23Z" fill="#004948"/>
<path d="M337.185 151.926L340 158L336.03 155.809L333.684 150.632L331.609 149.579V153.393L328 151.357V137L333.973 140.296C335.627 141.11 337.029 142.324 338.042 143.816C339.055 145.308 339.643 147.027 339.747 148.803C339.747 150.925 338.827 151.961 337.185 151.926ZM333.72 147.578C335.254 148.423 336.03 148.078 336.03 146.749C336.022 146.027 335.803 145.322 335.398 144.712C334.993 144.102 334.418 143.613 333.738 143.298L331.681 142.177V146.37L333.738 147.509" fill="white"/>
<path d="M350.42 159.215L353 165L349.361 162.913L347.211 157.983L345.308 156.98V160.612L342 158.673V145L347.475 148.139C348.991 148.915 350.277 150.07 351.205 151.491C352.134 152.912 352.673 154.549 352.768 156.241C352.768 158.262 351.925 159.248 350.42 159.215ZM347.244 155.074C348.65 155.879 349.361 155.551 349.361 154.285C349.353 153.597 349.152 152.925 348.781 152.345C348.41 151.764 347.883 151.298 347.26 150.998L345.374 149.93V153.924L347.26 155.008" fill="white"/>
<path d="M379.42 175.215L382 181L378.361 178.913L376.211 173.983L374.308 172.98V176.612L371 174.673V161L376.475 164.139C377.991 164.915 379.277 166.07 380.205 167.491C381.134 168.912 381.673 170.549 381.768 172.241C381.768 174.262 380.925 175.248 379.42 175.215ZM376.244 171.074C377.65 171.879 378.361 171.551 378.361 170.285C378.353 169.597 378.152 168.925 377.781 168.345C377.41 167.764 376.883 167.298 376.26 166.998L374.374 165.93V169.924L376.26 171.008" fill="white"/>
<path d="M362 156.087C364.035 157.273 365.738 158.934 366.96 160.922C368.181 162.91 368.882 165.163 369 167.481C369 171.771 365.99 173.212 362 170.913C359.971 169.721 358.271 168.059 357.05 166.072C355.83 164.086 355.126 161.835 355 159.519C355 155.229 358.01 153.788 362 156.087ZM362 167.584C363.908 168.665 365.5 167.893 365.5 165.439C365.487 164.24 365.169 163.064 364.577 162.015C363.984 160.967 363.135 160.08 362.105 159.433C360.18 158.335 358.605 159.107 358.605 161.561C358.612 162.765 358.929 163.948 359.525 165C360.122 166.053 360.979 166.941 362.018 167.584" fill="white"/>
<path d="M325.794 135.621L325.777 138.723L319.522 135.124L319.505 137.524L325.021 140.694V143.728L319.505 140.54L319.488 143.145L326 146.898L325.983 150L316 144.259L316.034 130L325.794 135.621Z" fill="white"/>
</svg>
