<svg width="20" height="20" viewBox="0 0 20 20" fill="none" xmlns="http://www.w3.org/2000/svg">
<path d="M10 0C4.47768 0 0 4.47768 0 10C0 15.5223 4.47768 20 10 20C15.5223 20 20 15.5223 20 10C20 4.47768 15.5223 0 10 0ZM10 18.3036C5.41518 18.3036 1.69643 14.5848 1.69643 10C1.69643 5.41518 5.41518 1.69643 10 1.69643C14.5848 1.69643 18.3036 5.41518 18.3036 10C18.3036 14.5848 14.5848 18.3036 10 18.3036Z" fill="#004948"/>
<path d="M8.92847 6.07143C8.92847 6.35559 9.04135 6.62811 9.24228 6.82904C9.44321 7.02997 9.71573 7.14286 9.9999 7.14286C10.2841 7.14286 10.5566 7.02997 10.7575 6.82904C10.9584 6.62811 11.0713 6.35559 11.0713 6.07143C11.0713 5.78727 10.9584 5.51475 10.7575 5.31381C10.5566 5.11288 10.2841 5 9.9999 5C9.71573 5 9.44321 5.11288 9.24228 5.31381C9.04135 5.51475 8.92847 5.78727 8.92847 6.07143ZM10.5356 8.57143H9.46418C9.36597 8.57143 9.28561 8.65179 9.28561 8.75V14.8214C9.28561 14.9196 9.36597 15 9.46418 15H10.5356C10.6338 15 10.7142 14.9196 10.7142 14.8214V8.75C10.7142 8.65179 10.6338 8.57143 10.5356 8.57143Z" fill="#004948"/>
</svg>
