<svg width="65" height="26" viewBox="0 0 65 26" fill="none" xmlns="http://www.w3.org/2000/svg">
<path d="M2.60449 11.2095C2.44954 11.3447 2.30827 11.4777 2.18066 11.6086C2.05306 11.7395 1.94368 11.8659 1.85254 11.988C1.76139 12.1058 1.68392 12.2214 1.62012 12.3348C1.56087 12.4481 1.5153 12.5572 1.4834 12.6618C1.45605 12.7622 1.44238 12.8603 1.44238 12.9563C1.44238 13.2834 1.54264 13.5255 1.74316 13.6825C1.94368 13.8395 2.26042 13.918 2.69336 13.918C3.13542 13.918 3.45671 13.8395 3.65723 13.6825C3.8623 13.5255 3.96256 13.2812 3.95801 12.9497C3.95801 12.8974 3.95117 12.8429 3.9375 12.7862C3.92383 12.7251 3.90332 12.664 3.87598 12.603C3.84863 12.5376 3.81445 12.4722 3.77344 12.4067C3.73242 12.3369 3.68457 12.265 3.62988 12.1909C3.5752 12.1167 3.51139 12.0403 3.43848 11.9619C3.37012 11.8834 3.29264 11.8048 3.20605 11.7263C3.12402 11.6435 3.03288 11.5585 2.93262 11.4712C2.83236 11.384 2.72298 11.2967 2.60449 11.2095ZM2.14648 8.94588C4.31575 10.468 5.40039 11.8157 5.40039 12.989C5.40039 13.8613 5.00391 14.5329 4.21094 15.004C4.07878 15.0825 3.93522 15.1479 3.78027 15.2003C3.62533 15.2526 3.45671 15.2919 3.27441 15.318C3.09668 15.3442 2.90527 15.3573 2.7002 15.3573C2.12598 15.3573 1.63607 15.2591 1.23047 15.0628C0.41016 14.6704 0 13.9791 0 12.989C0 12.0818 0.49902 11.1485 1.49707 10.189L1.29883 10.0254L1.20312 9.94684L1.27832 9.84874L1.96191 8.97861L2.03711 8.87391L2.14648 8.94588ZM6.55566 17.4115C7.47168 17.2501 8.20312 16.9928 8.75 16.6396C9.30143 16.2906 9.67282 15.8523 9.86422 15.3246C9.71842 15.3376 9.59082 15.3507 9.48142 15.3638C9.37662 15.3725 9.28548 15.3791 9.20801 15.3835C9.13053 15.3922 9.06673 15.3966 9.0166 15.3966C8.15983 15.4009 7.50586 15.2264 7.05469 14.8732C6.60807 14.5199 6.38477 13.9965 6.38477 13.3031C6.38477 12.7535 6.50781 12.2344 6.75391 11.746C6.97721 11.2967 7.26204 10.9587 7.6084 10.7319C7.95475 10.5008 8.35807 10.3852 8.81836 10.3852C8.98698 10.3852 9.14648 10.4005 9.29687 10.431C9.44722 10.4615 9.58852 10.5073 9.72072 10.5684C9.85742 10.6251 9.98502 10.6993 10.1035 10.7908C10.2265 10.878 10.3382 10.9805 10.4385 11.0983C10.5433 11.2161 10.6367 11.3469 10.7187 11.4908C10.8053 11.6348 10.8851 11.7939 10.958 11.9684C11.2269 12.6313 11.3613 13.3597 11.3613 14.1535C11.3613 15.4053 10.9967 16.4127 10.2676 17.176C9.54292 17.9393 8.46517 18.4496 7.03418 18.7069L6.91797 18.7266L6.87695 18.6219L6.45312 17.5882L6.3916 17.4442L6.55566 17.4115ZM9.91892 13.8395C9.80962 12.5354 9.41532 11.8834 8.73633 11.8834C8.36263 11.8834 8.09375 12.1167 7.92969 12.5834C7.89323 12.6925 7.86361 12.7993 7.84082 12.904C7.82259 13.0087 7.81348 13.109 7.81348 13.2049C7.81348 13.4666 7.9069 13.6607 8.09375 13.7871C8.28516 13.9092 8.59505 13.9703 9.02344 13.9703C9.31055 13.966 9.60902 13.9224 9.91892 13.8395ZM16.5019 15.161C16.1465 17.0627 14.6904 18.2446 12.1338 18.7069L12.0176 18.7266L11.9765 18.6219L11.5527 17.5882L11.4912 17.4442L11.6553 17.4115C12.4391 17.272 13.0885 17.0627 13.6035 16.7835C14.1185 16.5 14.5036 16.1489 14.7588 15.7302C15.014 15.3115 15.1416 14.8208 15.1416 14.2582C15.1461 13.6825 14.973 13.0021 14.622 12.217L14.5605 12.0862L14.6972 12.0403L15.832 11.6544L15.9687 11.6086L16.0097 11.7329L16.4336 13.0021C16.5065 13.2115 16.5976 13.3837 16.707 13.519C16.8164 13.6541 16.944 13.7545 17.0898 13.8199C17.2357 13.8853 17.402 13.918 17.5888 13.918H17.8623V15.3835H17.664C17.1354 15.3835 16.748 15.3093 16.5019 15.161ZM21.9228 10.8497C22.5426 11.4865 22.8457 12.1909 22.832 12.9628C22.8183 13.7741 22.456 14.3803 21.7451 14.7816C21.0342 15.1829 20.0019 15.3835 18.6484 15.3835H17.5752V13.918H18.6416C20.4326 13.918 21.3304 13.5451 21.3349 12.7993C21.3349 12.4111 21.1139 12.0164 20.6719 11.6151C19.9746 10.9958 19.3548 10.4834 18.8125 10.0778C18.539 9.87277 18.3317 9.65906 18.1904 9.43655C18.0491 9.21414 17.9785 8.98521 17.9785 8.74969C17.9785 8.12596 18.3271 7.68545 19.0244 7.42812L23.7617 5.70752L23.9463 5.6421V5.83182V7.01596V7.10101L23.8574 7.13372L19.4824 8.69734C19.8515 8.99823 20.1865 9.27739 20.4873 9.53474C20.7926 9.78768 21.0638 10.0254 21.3008 10.2478C21.5423 10.4659 21.7497 10.6665 21.9228 10.8497ZM23.789 5.0075L18.4433 6.97671L18.3408 7.00942V6.91128V6.07388V6.02154L18.3887 6.00192L23.7275 4.03925L23.8301 4V4.10467V4.94207V4.99441L23.789 5.0075ZM27.3984 15.161C27.0429 17.0627 25.5869 18.2446 23.0303 18.7069L22.914 18.7266L22.873 18.6219L22.4492 17.5882L22.3877 17.4442L22.5517 17.4115C23.3356 17.272 23.985 17.0627 24.5 16.7835C25.015 16.5 25.4 16.1489 25.6553 15.7302C25.9105 15.3115 26.0381 14.8208 26.0381 14.2582C26.0426 13.6825 25.8694 13.0021 25.5185 12.217L25.457 12.0862L25.5937 12.0403L26.7285 11.6544L26.8652 11.6086L26.9062 11.7329L27.3301 13.0021C27.403 13.2115 27.4941 13.3837 27.6035 13.519C27.7129 13.6541 27.8405 13.7545 27.9863 13.8199C28.1321 13.8853 28.2985 13.918 28.4853 13.918H28.7588V15.3835H28.5605C28.0319 15.3835 27.6445 15.3093 27.3984 15.161ZM34.0703 13.0609C34.0931 12.9432 34.1045 12.7993 34.1045 12.6292C34.1045 12.4372 34.0954 12.2388 34.0771 12.0338L34.0361 11.6348L34.0293 11.5104L34.1592 11.4974L35.2871 11.3665L35.4306 11.3535L35.4375 11.4908L35.5469 13.0021C35.5696 13.3205 35.6562 13.5516 35.8066 13.6955C35.9661 13.8439 36.1917 13.9158 36.4834 13.9114C36.6657 13.9114 36.8138 13.87 36.9277 13.7871C37.0462 13.7042 37.1373 13.5669 37.2012 13.375C37.265 13.1874 37.2969 12.9432 37.2969 12.6422C37.2969 12.2061 37.1989 11.661 37.0029 11.0068L36.9619 10.8824L37.0986 10.8432L38.2676 10.5487L38.3906 10.5161L38.4316 10.6338C38.664 11.336 38.778 11.9902 38.7734 12.5965C38.7734 12.6096 38.7734 12.6226 38.7734 12.6357C38.7689 13.665 38.4772 14.4239 37.8984 14.9124C37.5293 15.2221 37.0667 15.3769 36.5107 15.3769C35.7041 15.3769 35.139 15.1087 34.8154 14.5722C34.3415 15.113 33.7239 15.3835 32.9629 15.3835C32.0879 15.3791 31.4818 15.113 31.1445 14.5853C30.7207 15.1174 29.9892 15.3835 28.9502 15.3835H28.4717V13.918H28.9638C29.5517 13.918 29.9665 13.7893 30.208 13.532C30.3219 13.4099 30.3994 13.2529 30.4404 13.0609C30.4678 12.9432 30.4814 12.7993 30.4814 12.6292C30.4814 12.446 30.4723 12.2475 30.4541 12.0338L30.4131 11.6348L30.4062 11.5104L30.5361 11.4974L31.664 11.3665L31.8008 11.3535L31.8144 11.4908L31.9238 13.0021C31.9466 13.3161 32.0423 13.5473 32.2109 13.6955C32.3795 13.8439 32.6347 13.918 32.9765 13.918C33.1862 13.918 33.3639 13.8874 33.5097 13.8264C33.6556 13.7653 33.7741 13.6716 33.8652 13.5451C33.9609 13.4186 34.0293 13.2572 34.0703 13.0609Z" fill="#004948"/>
<path d="M63.121 7.62739C62.9156 7.45814 62.6671 7.34948 62.4034 7.3136C62.1397 7.27772 61.8712 7.31604 61.6281 7.42426L56.4992 9.69926C56.4766 9.71159 56.4517 9.71927 56.4261 9.72185C56.4005 9.72444 56.3746 9.72187 56.35 9.71429C56.3254 9.70672 56.3026 9.6943 56.2828 9.67777C56.2631 9.66123 56.2469 9.64091 56.2351 9.61801L53.239 4.2352C53.1175 4.01269 52.9384 3.827 52.7203 3.69763C52.5023 3.56827 52.2535 3.5 51.9999 3.5C51.7464 3.5 51.4976 3.56827 51.2796 3.69763C51.0615 3.827 50.8824 4.01269 50.7609 4.2352L47.7648 9.61801C47.753 9.64091 47.7368 9.66123 47.7171 9.67777C47.6973 9.6943 47.6745 9.70672 47.6499 9.71429C47.6253 9.72187 47.5994 9.72444 47.5738 9.72185C47.5482 9.71927 47.5233 9.71159 47.5007 9.69926L42.3718 7.42426C42.1295 7.31437 41.8612 7.27467 41.5975 7.30967C41.3338 7.34467 41.0851 7.45297 40.8799 7.62225C40.6746 7.79154 40.521 8.01502 40.4364 8.26728C40.3518 8.51954 40.3398 8.79047 40.4015 9.04926L42.9914 20.0485C43.0352 20.2344 43.1163 20.4094 43.2298 20.563C43.3433 20.7167 43.4867 20.8457 43.6515 20.9422C43.8686 21.0751 44.1181 21.1454 44.3726 21.1454C44.5028 21.1441 44.6324 21.1271 44.7585 21.0946C49.4934 19.7847 54.4945 19.7812 59.2312 21.0844C59.416 21.1377 59.6096 21.153 59.8005 21.1294C59.9913 21.1057 60.1754 21.0436 60.3415 20.9468C60.5077 20.8499 60.6525 20.7204 60.7671 20.566C60.8817 20.4116 60.9639 20.2355 61.0085 20.0485L63.5882 9.04926C63.6527 8.79233 63.643 8.5224 63.5603 8.27075C63.4776 8.01909 63.3253 7.79602 63.121 7.62739V7.62739ZM62.4101 8.76489L59.8203 19.7641C59.8063 19.8175 59.774 19.8643 59.7289 19.8961C59.6784 19.9207 59.6213 19.9278 59.5664 19.9164C54.6148 18.5487 49.3851 18.5487 44.4335 19.9164C44.4069 19.924 44.3789 19.926 44.3514 19.9224C44.3239 19.9187 44.2974 19.9095 44.2736 19.8952C44.2498 19.8809 44.2292 19.8619 44.2131 19.8394C44.1969 19.8168 44.1855 19.7912 44.1796 19.7641L41.5898 8.76489C41.5839 8.73452 41.5847 8.70324 41.5921 8.6732C41.5994 8.64316 41.6133 8.61509 41.6326 8.59094C41.6519 8.56678 41.6763 8.54712 41.704 8.53331C41.7316 8.51951 41.762 8.51189 41.7929 8.51098L41.8742 8.53129L47.0132 10.8164C47.3373 10.9624 47.7045 10.9807 48.0415 10.8677C48.3785 10.7548 48.6605 10.5189 48.8312 10.2071L51.8273 4.82426C51.8433 4.79218 51.8679 4.76519 51.8984 4.74633C51.9289 4.72747 51.9641 4.71747 51.9999 4.71747C52.0358 4.71747 52.071 4.72747 52.1015 4.74633C52.132 4.76519 52.1566 4.79218 52.1726 4.82426L55.1687 10.2071C55.3394 10.5189 55.6214 10.7548 55.9584 10.8677C56.2954 10.9807 56.6626 10.9624 56.9867 10.8164L62.1257 8.53129C62.1606 8.51586 62.199 8.51053 62.2367 8.51592C62.2745 8.52131 62.3099 8.5372 62.339 8.56176C62.3687 8.58556 62.3911 8.61722 62.4037 8.65314C62.4162 8.68905 62.4185 8.72777 62.4101 8.76489V8.76489Z" fill="#004948"/>
</svg>
