<svg width="113" height="38" viewBox="0 0 113 38" fill="none" xmlns="http://www.w3.org/2000/svg">
<rect x="1" y="1" width="111" height="36" rx="14" fill="#004948" stroke="#004948" stroke-width="2"/>
<path d="M47.7285 20.3322L52.5844 26.0472H48.75L44.4285 20.7986V26.0472H41.2856V11.0079H44.4285V19.8511L48.42 15.5197H52.4271L47.7285 20.3322ZM35.1571 15.219C34.469 15.2288 33.7936 15.3982 33.1888 15.7124C32.584 16.0267 32.0678 16.4766 31.6844 17.0236V15.5197H28.7144V26.0472H31.8571V21.1294C31.8158 20.7724 31.8518 20.4112 31.9627 20.0681C32.0736 19.725 32.2571 19.4074 32.5018 19.1351C32.7465 18.8629 33.0471 18.6417 33.385 18.4854C33.7228 18.3291 34.0907 18.2411 34.4656 18.2267C36.2885 18.2267 36.5715 19.9412 36.5715 21.1294V26.0472H39.7144V20.4676C39.7144 17.159 38.5671 15.219 35.22 15.219H35.1571ZM63.2856 21.0241C63.2977 21.2445 63.2977 21.4654 63.2856 21.6859H55.0356V21.7911C55.1696 22.4183 55.5326 22.9793 56.0597 23.3734C56.5867 23.7675 57.2432 23.969 57.9115 23.9417C58.4416 23.9638 58.9709 23.8833 59.4677 23.705C59.9645 23.5267 60.4186 23.2543 60.8029 22.9041L62.8929 24.4081C62.2305 25.055 61.4338 25.5619 60.5541 25.896C59.6744 26.2302 58.7313 26.3842 57.7856 26.3481C57.0025 26.3955 56.2178 26.2814 55.4846 26.0137C54.7515 25.746 54.0869 25.3308 53.5357 24.7962C52.9846 24.2616 52.5597 23.62 52.2899 22.9148C52.02 22.2095 51.9114 21.4571 51.9715 20.7083C51.9554 19.9691 52.0985 19.2346 52.392 18.5506C52.6856 17.8667 53.1231 17.2479 53.6774 16.7329C54.2318 16.2179 54.891 15.8177 55.614 15.5572C56.3371 15.2968 57.1084 15.1816 57.88 15.219C60.8344 15.219 63.2856 17.2192 63.2856 21.0241ZM60.3629 19.7307C60.3514 19.4328 60.2765 19.1403 60.143 18.8709C60.0095 18.6016 59.8201 18.3611 59.5863 18.1641C59.3526 17.9671 59.0793 17.8178 58.7833 17.7251C58.4872 17.6324 58.1746 17.5984 57.8644 17.6252C56.4825 17.4822 55.2311 18.4138 55.0356 19.7307H60.3629ZM16.1429 11.0079H13V26.0472H22.4285V23.0396H16.1429V11.0079ZM72.7144 11.0079H75.8571V26.0472H72.8871V24.9945C72.51 25.4392 72.0293 25.7932 71.4836 26.0283C70.9379 26.2633 70.3422 26.3728 69.7444 26.3481C69.0139 26.3302 68.295 26.1694 67.6319 25.8758C66.9687 25.5822 66.3753 25.1618 65.8882 24.6407C65.401 24.1195 65.0304 23.5084 64.799 22.8451C64.5677 22.1818 64.4805 21.4802 64.5429 20.7835C64.4687 20.0857 64.5471 19.3808 64.773 18.7137C64.999 18.0465 65.3676 17.4317 65.8553 16.9083C66.3431 16.3849 66.9394 15.9644 67.6062 15.6735C68.273 15.3827 68.9958 15.2279 69.7285 15.219C70.2743 15.1961 70.8194 15.2774 71.332 15.4581C71.8446 15.6389 72.3145 15.9154 72.7144 16.2717V11.0079ZM72.95 20.7835C72.9994 20.4362 72.9705 20.0828 72.8651 19.7471C72.7597 19.4115 72.5803 19.1013 72.339 18.8377C72.0978 18.574 71.8002 18.3629 71.4665 18.2186C71.1328 18.0743 70.7706 18.0002 70.4044 18.0012C68.901 18.1057 67.7618 19.343 67.8429 20.7835C67.7618 22.2239 68.901 23.4614 70.4044 23.5659C70.7706 23.5669 71.1328 23.4928 71.4665 23.3485C71.8003 23.2042 72.0978 22.9931 72.3391 22.7294C72.5804 22.4657 72.7597 22.1555 72.8651 21.8198C72.9705 21.4841 72.9994 21.1307 72.95 20.7835ZM25.5715 10.7071C25.0661 10.7139 24.5822 10.9041 24.2176 11.2391C23.853 11.5741 23.6348 12.029 23.6071 12.5121C23.6071 13.5502 24.4866 14.3919 25.5715 14.3919C26.6563 14.3919 27.5355 13.55 27.5355 12.5121C27.5077 12.0291 27.2895 11.5742 26.925 11.2392C26.5604 10.9043 26.0768 10.714 25.5715 10.7071ZM24 26.0472H27.1429V15.5197H24V26.0472ZM101 9.50396V27.5512C101 27.9501 100.834 28.3326 100.54 28.6147C100.245 28.8967 99.8453 29.0552 99.4285 29.0552H80.5715C80.1547 29.0552 79.755 28.8967 79.4603 28.6147C79.1656 28.3326 79 27.9501 79 27.5512V9.50396C79 9.10509 79.1656 8.72255 79.4603 8.4405C79.755 8.15845 80.1547 8 80.5715 8H99.4285C99.8453 8 100.245 8.15845 100.54 8.4405C100.834 8.72255 101 9.10509 101 9.50396ZM85.2856 15.5197H82.1429V26.0472H85.2856V15.5197ZM85.6785 12.5119C85.6785 11.4736 84.7991 10.6319 83.7144 10.6319C82.6295 10.6319 81.75 11.4736 81.75 12.5119C81.75 13.55 82.6295 14.3917 83.7144 14.3917C84.7991 14.3917 85.6785 13.55 85.6785 12.5119ZM97.8571 20.4676C97.8571 17.159 96.71 15.219 93.3629 15.219C92.6641 15.219 91.976 15.3837 91.3594 15.6984C90.7427 16.0131 90.2165 16.4682 89.8271 17.0236V15.5197H86.8571V26.0472H90V21.1294C89.9587 20.7724 89.9947 20.4112 90.1056 20.0681C90.2165 19.725 90.4 19.4074 90.6447 19.1351C90.8894 18.8629 91.19 18.6417 91.5279 18.4854C91.8657 18.3291 92.2336 18.2411 92.6086 18.2267C94.4315 18.2267 94.7144 19.9412 94.7144 21.1294V26.0472H97.8571V20.4676Z" fill="#FEFEFE"/>
</svg>
