<svg width="557" height="625" viewBox="0 0 557 625" fill="none" xmlns="http://www.w3.org/2000/svg">
<path d="M310.341 536.533H551.284L556.3 437.671H305.338L310.341 536.533Z" fill="#EBEBEB"/>
<path d="M539.868 482.92H439.132L437.244 448.608H542.066L539.868 482.92ZM440.321 481.704H538.756L540.799 449.81H438.537L440.321 481.704Z" fill="#DBDBDB"/>
<path d="M538.007 522.402H443.088L441.537 491.375H539.946L538.007 522.402ZM444.239 521.187H536.869L538.653 492.641H442.817L444.239 521.187Z" fill="#DBDBDB"/>
<path d="M499.222 469.487H482.273L481.213 461.2H500.27L499.222 469.487ZM483.372 468.259H498.162L498.912 462.415H482.623L483.372 468.259Z" fill="#DBDBDB"/>
<path d="M499.222 511.051H482.273L481.213 502.777H500.27L499.222 511.051ZM483.372 509.836H498.162L498.912 503.993H482.623L483.372 509.836Z" fill="#DBDBDB"/>
<path d="M421.381 482.92H320.658L318.77 448.608H423.592L421.381 482.92ZM321.834 481.704H420.269L422.312 449.81H320.05L321.834 481.704Z" fill="#DBDBDB"/>
<path d="M419.52 522.402H324.601L323.063 491.375H421.459L419.52 522.402ZM325.752 521.187H418.382L420.166 492.641H324.33L325.752 521.187Z" fill="#DBDBDB"/>
<path d="M380.722 469.487H363.786L362.726 461.2H381.782L380.722 469.487ZM364.859 468.259H379.649L380.399 462.415H364.109L364.859 468.259Z" fill="#DBDBDB"/>
<path d="M380.722 511.051H363.786L362.726 502.777H381.782L380.722 511.051ZM364.859 509.836H379.649L380.399 503.993H364.109L364.859 509.836Z" fill="#DBDBDB"/>
<path d="M331.957 536.533L330.445 547.302L327.394 568.944H321.447V536.533H331.957Z" fill="#EBEBEB"/>
<path d="M331.957 536.533L330.445 547.302H321.447V536.533H331.957Z" fill="#DBDBDB"/>
<path d="M529.681 536.533L531.193 547.302L534.231 568.944H540.178V536.533H529.681Z" fill="#EBEBEB"/>
<path d="M529.681 536.533L531.193 547.302H540.178V536.533H529.681Z" fill="#DBDBDB"/>
<path d="M288.634 472.021L271.673 472.383L263.062 472.525C260.179 472.59 257.284 472.525 254.401 472.603H253.832V472.021L253.754 457.554V456.908H254.401L271.517 456.986C277.219 456.986 282.933 457.141 288.634 457.205H288.996V457.554C288.996 460.011 288.893 462.454 288.828 464.859L288.634 472.021ZM288.634 472.021L288.453 464.717C288.389 462.299 288.311 459.92 288.285 457.554L288.634 457.904C282.933 457.968 277.219 458.11 271.517 458.123L254.401 458.201L255.047 457.554V472.021L254.465 471.439C257.284 471.439 260.102 471.439 262.933 471.517L271.44 471.659L288.634 472.021Z" fill="#EBEBEB"/>
<path d="M269.539 490.263L252.565 490.625L243.955 490.767C241.085 490.832 238.189 490.767 235.306 490.845H234.737V490.263V475.796V475.15H235.383L252.5 475.227C258.201 475.227 263.916 475.383 269.617 475.447H269.979V475.757C269.979 478.214 269.876 480.657 269.811 483.062L269.539 490.263ZM269.539 490.263L269.359 482.958C269.359 480.541 269.216 478.162 269.19 475.796L269.539 476.145C263.838 476.21 258.124 476.352 252.423 476.365L235.306 476.443L235.952 475.796L235.875 490.263L235.306 489.681C238.124 489.681 240.942 489.681 243.761 489.759L252.267 489.901L269.539 490.263Z" fill="#EBEBEB"/>
<path d="M250.523 472.021L233.548 472.383L224.938 472.525C222.055 472.59 219.172 472.525 216.289 472.603H215.707V472.021V457.554V456.908H216.366L233.483 456.986C239.185 456.986 244.886 457.141 250.6 457.205H250.949V457.554C250.949 460.011 250.833 462.454 250.781 464.859L250.523 472.021ZM250.523 472.021L250.329 464.717C250.329 462.299 250.187 459.92 250.161 457.554L250.523 457.904C244.808 457.968 239.107 458.11 233.406 458.123L216.289 458.201L216.922 457.554V472.021L216.353 471.439C219.172 471.439 221.977 471.439 224.808 471.517L233.315 471.659L250.523 472.021Z" fill="#EBEBEB"/>
<path d="M528.814 73.5872L511.84 73.9363L503.23 74.0914C500.36 74.0914 497.464 74.0914 494.581 74.0914H494.051V73.5226V59.0559V58.3966H494.71L511.827 58.4742C517.528 58.4742 523.229 58.6164 528.944 58.681H529.293V59.0301C529.293 61.4735 529.176 63.9169 529.125 66.3345L528.814 73.5872ZM528.814 73.5872L528.633 66.2699C528.569 63.8652 528.478 61.4864 528.452 59.1206L528.814 59.4696C523.1 59.4696 517.399 59.6765 511.698 59.6765L494.581 59.767L495.227 59.1206L495.149 73.5872L494.581 73.0055C497.399 73.0055 500.204 73.0055 503.036 73.0701L511.542 73.2252L528.814 73.5872Z" fill="#EBEBEB"/>
<path d="M547.91 91.7901L530.935 92.1392L522.325 92.2943C519.455 92.2943 516.559 92.2943 513.676 92.2943H513.094V91.7901L513.029 77.3235V76.6641H513.676L530.793 76.7417C536.494 76.7417 542.208 76.8839 547.91 76.9486H548.259V77.2976C548.259 79.7411 548.155 82.1845 548.091 84.6021L547.91 91.7901ZM547.91 91.7901L547.729 84.4728C547.729 82.0681 547.573 79.6893 547.561 77.3235L547.91 77.6725C542.208 77.6725 536.494 77.8794 530.793 77.8794L513.676 77.957L514.322 77.3235L514.245 91.7901L513.676 91.2084C516.494 91.2084 519.312 91.2084 522.131 91.2084L530.637 91.3635L547.91 91.7901Z" fill="#EBEBEB"/>
<path d="M515.124 113.303V0" stroke="#C7C7C7" stroke-miterlimit="10"/>
<path d="M475.783 151.234L478.951 158.189H551.31L554.477 151.234L523.656 129.902H506.591L475.783 151.234Z" fill="#EBEBEB"/>
<path d="M504.458 109.36L506.591 129.902H523.657L525.803 109.36H504.458Z" fill="#DBDBDB"/>
<path d="M475.783 151.234L478.951 158.189H551.323L554.477 151.234H475.783Z" fill="#DBDBDB"/>
<path d="M430.651 90.8593V0" stroke="#C7C7C7" stroke-miterlimit="10"/>
<path d="M391.311 128.791L394.478 135.746H466.837L469.992 128.791L439.184 107.459H422.118L391.311 128.791Z" fill="#EBEBEB"/>
<path d="M419.985 86.9162L422.118 107.459H439.183L441.329 86.9162H419.985Z" fill="#DBDBDB"/>
<path d="M391.311 128.791L394.478 135.746H466.837L470.004 128.791H391.311Z" fill="#DBDBDB"/>
<path d="M0 568.944C178.202 568.142 378.098 568.142 556.3 568.944C378.098 569.732 178.202 569.732 0 568.944Z" fill="#263238"/>
<path d="M476.404 454.878C500.075 478.046 504.044 513.896 499.067 545.298C498.938 546.009 497.774 545.815 497.774 545.143C497.774 537.994 497.994 530.922 497.968 523.85C497.839 523.527 497.735 523.23 497.606 522.906C491.426 518.407 485.751 513.34 482.234 506.384C478.278 498.627 476.727 489.849 473.702 481.717C473.417 480.942 474.245 481.174 474.788 481.575C489.19 492.189 493.779 503.618 497.903 518.886C497.836 510.915 497.018 502.967 495.46 495.15C492.344 480.657 486.19 466.294 475.783 455.551C475.395 455.072 475.951 454.465 476.404 454.878Z" fill="#263238"/>
<path d="M471.956 457.58C467.884 457.723 465.337 464.225 462.157 466.126C461.824 466.396 461.438 466.593 461.025 466.704C460.611 466.816 460.178 466.839 459.755 466.771C459.332 466.704 458.927 466.549 458.568 466.315C458.209 466.081 457.903 465.775 457.671 465.415C454.529 461.032 458.834 455.615 462.842 452.59C459.946 453.779 457.541 455.874 454.413 456.469C454.013 456.601 453.589 456.646 453.17 456.6C452.751 456.555 452.347 456.419 451.985 456.203C451.624 455.987 451.312 455.696 451.073 455.349C450.834 455.002 450.672 454.608 450.599 454.193C449.216 448.207 456.727 445.544 461.872 445.415C459.377 443.683 452.228 438.951 456.029 436.65C459.83 434.348 468.272 441.058 471.013 443.282C475.033 446.553 479.843 451.427 480.062 456.533C480.308 462.506 475.098 458.834 471.956 457.58Z" fill="#00928F"/>
<path opacity="0.1" d="M471.956 457.58C467.884 457.723 465.337 464.225 462.157 466.126C461.824 466.396 461.438 466.593 461.025 466.704C460.611 466.816 460.178 466.839 459.755 466.771C459.332 466.704 458.927 466.549 458.568 466.315C458.209 466.081 457.903 465.775 457.671 465.415C454.529 461.032 458.834 455.615 462.842 452.59C459.946 453.779 457.541 455.874 454.413 456.469C454.013 456.601 453.589 456.646 453.17 456.6C452.751 456.555 452.347 456.419 451.985 456.203C451.624 455.987 451.312 455.696 451.073 455.349C450.834 455.002 450.672 454.608 450.599 454.193C449.216 448.207 456.727 445.544 461.872 445.415C459.377 443.683 452.228 438.951 456.029 436.65C459.83 434.348 468.272 441.058 471.013 443.282C475.033 446.553 479.843 451.427 480.062 456.533C480.308 462.506 475.098 458.834 471.956 457.58Z" fill="black"/>
<path d="M473.133 458.589C467.962 456.223 457.929 459.623 457.076 457.658C455.357 453.65 463.346 450.896 467.664 450.366C463.695 449.28 456.029 447.574 456.313 443.734C456.598 439.054 467.949 443.088 473.753 447.509C481.019 453.068 480.967 458.447 479.765 459.52C478.123 460.993 473.999 458.951 473.133 458.589Z" fill="#00928F"/>
<path d="M530.314 452.59C505.751 474.839 500.45 510.508 504.238 542.079C504.342 542.79 505.44 542.648 505.466 541.976C505.738 534.826 505.802 527.754 506.087 520.683C506.229 520.372 506.345 520.075 506.488 519.752C512.835 515.499 518.705 510.702 522.48 503.824C526.72 496.21 528.608 487.509 531.943 479.506C532.254 478.744 531.413 478.938 530.857 479.326C516.067 489.384 511.051 500.631 506.294 515.731C506.68 507.751 507.818 499.826 509.694 492.06C513.353 477.709 520.036 463.618 530.857 453.275C531.31 452.836 530.741 452.189 530.314 452.59Z" fill="#263238"/>
<path d="M534.658 455.46C538.717 455.745 541.018 462.351 544.121 464.368C544.443 464.651 544.82 464.864 545.229 464.992C545.638 465.12 546.07 465.16 546.496 465.11C546.921 465.06 547.332 464.921 547.7 464.701C548.068 464.482 548.386 464.188 548.633 463.838C551.943 459.571 547.845 453.986 543.901 450.806C546.759 452.099 549.073 454.297 552.175 455.008C552.569 455.15 552.989 455.207 553.407 455.174C553.824 455.141 554.23 455.02 554.597 454.818C554.964 454.616 555.284 454.338 555.535 454.003C555.786 453.668 555.963 453.283 556.054 452.874C557.657 446.953 550.249 444.006 545.117 443.683C547.702 442.041 555.007 437.606 551.296 435.137C547.586 432.668 538.885 439.093 536.067 441.2C531.917 444.316 526.94 448.957 526.565 454.129C526.125 460.05 531.542 456.585 534.658 455.46Z" fill="#00928F"/>
<path opacity="0.1" d="M534.658 455.46C538.717 455.745 541.018 462.351 544.121 464.368C544.443 464.651 544.82 464.864 545.229 464.992C545.638 465.12 546.07 465.16 546.496 465.11C546.921 465.06 547.332 464.921 547.7 464.701C548.068 464.482 548.386 464.188 548.633 463.838C551.943 459.571 547.845 453.986 543.901 450.806C546.759 452.099 549.073 454.297 552.175 455.008C552.569 455.15 552.989 455.207 553.407 455.174C553.824 455.141 554.23 455.02 554.597 454.818C554.964 454.616 555.284 454.338 555.535 454.003C555.786 453.668 555.963 453.283 556.054 452.874C557.657 446.953 550.249 444.006 545.117 443.683C547.702 442.041 555.007 437.606 551.296 435.137C547.586 432.668 538.885 439.093 536.067 441.2C531.917 444.316 526.94 448.957 526.565 454.129C526.125 460.05 531.542 456.585 534.658 455.46Z" fill="black"/>
<path d="M533.443 456.365C538.73 454.193 548.595 457.981 549.513 456.042C551.387 452.099 543.514 449.048 539.17 448.285C543.178 447.367 550.805 445.932 550.805 442.105C550.689 437.412 539.17 441.006 533.236 445.195C525.763 450.496 525.608 455.861 526.772 456.986C528.362 458.64 532.564 456.766 533.443 456.365Z" fill="#00928F"/>
<path d="M505.221 511.362C503.56 523.265 501.015 535.027 497.606 546.552C497.548 546.768 497.409 546.953 497.219 547.07C497.029 547.187 496.802 547.228 496.583 547.183C496.364 547.139 496.17 547.013 496.041 546.831C495.912 546.649 495.857 546.424 495.887 546.203C497.503 535.356 500.437 524.716 502.053 513.883C503.813 502.914 504.445 491.794 503.941 480.696C502.907 462.415 497.942 442.984 486.022 428.686C485.751 428.35 486.307 427.871 486.578 428.182C510.457 456.016 506.656 490.146 506.63 493.197C510.017 481.678 513.495 468.466 526.281 456.74C526.837 456.236 527.263 456.468 527.173 457.335C524.885 478.705 518.938 489.862 506.552 501.29C506.203 504.665 505.764 508.078 505.221 511.362Z" fill="#263238"/>
<path d="M485.803 431.879C481.511 429.966 475.59 435.434 471.336 435.758C469.087 435.964 467.458 435.072 467.031 432.758C465.971 426.63 473.172 423.178 478.912 422.08C475.305 421.86 471.75 422.816 468.208 421.86C466.061 421.265 464.885 419.804 465.402 417.581C466.979 410.677 476.107 411.698 481.511 414.155C479.804 411.103 474.749 402.597 479.856 402.105C484.962 401.614 490.341 412.849 492.073 416.533C494.659 421.95 497.128 429.462 494.736 434.827C491.982 441.174 488.427 434.749 485.803 431.879Z" fill="#00928F"/>
<path opacity="0.1" d="M485.803 431.879C481.511 429.966 475.59 435.434 471.336 435.758C469.087 435.964 467.458 435.072 467.031 432.758C465.971 426.63 473.172 423.178 478.912 422.08C475.305 421.86 471.75 422.816 468.208 421.86C466.061 421.265 464.885 419.804 465.402 417.581C466.979 410.677 476.107 411.698 481.511 414.155C479.804 411.103 474.749 402.597 479.856 402.105C484.962 401.614 490.341 412.849 492.073 416.533C494.659 421.95 497.128 429.462 494.736 434.827C491.982 441.174 488.427 434.749 485.803 431.879Z" fill="black"/>
<path d="M486.513 433.508C482.312 428.44 470.224 426.941 470.327 424.458C470.56 419.429 480.23 420.58 484.975 422.222C481.394 419.106 474.361 413.495 476.533 409.63C479.183 404.924 488.983 414.801 492.732 422.325C497.464 431.75 494.71 437.309 492.926 437.839C490.469 438.524 487.212 434.387 486.513 433.508Z" fill="#00928F"/>
<path d="M477.916 568.84L467.393 512.745H531.452C530.159 517.709 518.213 568.905 518.213 568.905L477.916 568.84Z" fill="#455A64"/>
<path d="M387.406 73.8329H168.842C162.925 73.8909 157.273 76.2954 153.128 80.5182C148.983 84.741 146.683 90.4366 146.735 96.3538V546.255C146.703 549.19 147.249 552.102 148.342 554.826C149.436 557.549 151.056 560.031 153.109 562.128C155.162 564.226 157.608 565.898 160.308 567.05C163.007 568.201 165.907 568.81 168.842 568.84H387.406C393.327 568.782 398.983 566.379 403.134 562.157C407.285 557.936 409.594 552.24 409.552 546.319V96.4184C409.585 93.4803 409.037 90.5647 407.941 87.8385C406.845 85.1124 405.222 82.6292 403.165 80.5312C401.108 78.4332 398.657 76.7617 395.953 75.6123C393.249 74.4629 390.344 73.8582 387.406 73.8329ZM395.706 532.357C395.706 544.199 386.85 553.779 375.9 553.779H180.387C169.424 553.779 160.542 544.199 160.542 532.357V113.406C160.542 89.282 169.424 88.1056 180.387 88.1056H219.559C221.835 88.1056 223.697 90.6912 223.697 93.8974V95.2807C223.697 102.792 227.808 102.818 232.837 102.818H323.399C328.492 102.818 332.578 102.818 332.578 95.2807V93.8974C332.578 90.6912 334.414 88.1056 336.741 88.1056H375.887C386.837 88.1056 395.693 91.3118 395.693 113.406L395.706 532.357Z" fill="#263238"/>
<path d="M396.151 113.3V532.251C396.151 544.094 387.282 553.673 376.345 553.673H180.832C169.856 553.673 161 544.094 161 532.251V113.3C161 89.1765 169.856 88 180.832 88H220.004C222.267 88 224.141 90.5856 224.141 93.7918V95.1751C224.141 102.686 228.24 102.712 233.294 102.712H323.792C328.963 102.712 332.971 102.712 332.971 95.1751V93.7918C332.971 90.5856 334.819 88 337.121 88H376.28C387.282 88 396.151 91.2062 396.151 113.3Z" fill="#C6C6C6"/>
<path d="M290.497 93.4449H265.791C265.591 93.4449 265.392 93.4055 265.207 93.3288C265.022 93.2521 264.854 93.1398 264.712 92.9981C264.571 92.8564 264.458 92.6883 264.382 92.5032C264.305 92.3181 264.265 92.1197 264.265 91.9194C264.265 91.7191 264.305 91.5207 264.382 91.3356C264.458 91.1505 264.571 90.9823 264.712 90.8407C264.854 90.699 265.022 90.5866 265.207 90.51C265.392 90.4333 265.591 90.3939 265.791 90.3939H290.497C290.697 90.3939 290.895 90.4333 291.08 90.51C291.266 90.5866 291.434 90.699 291.575 90.8407C291.717 90.9823 291.829 91.1505 291.906 91.3356C291.983 91.5207 292.022 91.7191 292.022 91.9194C292.022 92.1197 291.983 92.3181 291.906 92.5032C291.829 92.6883 291.717 92.8564 291.575 92.9981C291.434 93.1398 291.266 93.2521 291.08 93.3288C290.895 93.4055 290.697 93.4449 290.497 93.4449Z" fill="#37474F"/>
<path d="M212.798 97.5173L212.423 97.8922L212.203 98.112C211.727 97.63 211.159 97.248 210.533 96.9882C209.907 96.7285 209.235 96.5963 208.557 96.5994C207.879 96.5934 207.207 96.7242 206.58 96.9841C205.954 97.244 205.386 97.6276 204.912 98.112C204.834 98.112 204.769 97.9698 204.705 97.9052L204.33 97.5302L204.808 97.1036C205.147 96.8208 205.521 96.5819 205.92 96.3926C206.386 96.1711 206.876 96.0062 207.381 95.9013L208.118 95.8108H208.764H209.255C209.698 95.863 210.133 95.9716 210.548 96.134C210.866 96.2497 211.173 96.3925 211.466 96.5606C211.776 96.7318 212.066 96.9355 212.332 97.1683L212.733 97.5173H212.798Z" fill="white"/>
<path d="M206.101 99.3014L205.506 98.7067C206.157 98.0395 207.013 97.6113 207.937 97.4914C208.598 97.3899 209.274 97.4459 209.91 97.6548C210.546 97.8637 211.123 98.2197 211.596 98.6938L211.001 99.3014C210.683 98.9758 210.303 98.7175 209.883 98.542C209.463 98.3665 209.012 98.2774 208.557 98.2801C208.101 98.2786 207.648 98.3682 207.226 98.5436C206.805 98.7189 206.422 98.9765 206.101 99.3014Z" fill="white"/>
<path d="M210.406 99.8961L209.812 100.491C209.478 100.161 209.027 99.9757 208.558 99.9757C208.088 99.9757 207.638 100.161 207.304 100.491C207.097 100.297 206.903 100.103 206.709 99.8961C206.95 99.6498 207.237 99.4542 207.555 99.3206C207.872 99.187 208.213 99.1181 208.558 99.1181C208.902 99.1181 209.243 99.187 209.561 99.3206C209.878 99.4542 210.166 99.6498 210.406 99.8961Z" fill="white"/>
<path d="M209.087 101.034C209.087 101.174 209.032 101.309 208.932 101.409C208.833 101.508 208.698 101.564 208.557 101.564C208.487 101.566 208.416 101.553 208.351 101.527C208.285 101.501 208.225 101.463 208.174 101.413C208.124 101.364 208.083 101.305 208.056 101.24C208.029 101.174 208.014 101.104 208.014 101.034C208.014 100.89 208.072 100.752 208.173 100.65C208.275 100.548 208.413 100.491 208.557 100.491C208.628 100.491 208.698 100.505 208.763 100.532C208.828 100.56 208.887 100.6 208.937 100.651C208.986 100.701 209.025 100.761 209.051 100.827C209.077 100.893 209.089 100.963 209.087 101.034Z" fill="white"/>
<path d="M175.888 98.6679C175.886 98.358 175.975 98.0543 176.146 97.7953C176.316 97.5364 176.559 97.3339 176.845 97.2135C177.131 97.0931 177.445 97.0603 177.75 97.1192C178.054 97.1781 178.334 97.326 178.554 97.5443C178.774 97.7625 178.924 98.0412 178.986 98.345C179.047 98.6488 179.017 98.964 178.899 99.2506C178.781 99.5372 178.58 99.7823 178.323 99.9547C178.065 100.127 177.762 100.219 177.453 100.219C177.04 100.219 176.644 100.056 176.351 99.7657C176.058 99.4751 175.892 99.0805 175.888 98.6679Z" fill="white"/>
<path d="M180.801 98.6679C180.798 98.358 180.888 98.0543 181.058 97.7953C181.228 97.5364 181.472 97.3339 181.757 97.2135C182.043 97.0931 182.358 97.0603 182.662 97.1192C182.966 97.1781 183.246 97.326 183.466 97.5443C183.686 97.7625 183.837 98.0412 183.898 98.345C183.96 98.6488 183.929 98.964 183.811 99.2506C183.693 99.5372 183.493 99.7823 183.235 99.9547C182.978 100.127 182.675 100.219 182.365 100.219C181.952 100.219 181.556 100.056 181.263 99.7657C180.97 99.4751 180.804 99.0805 180.801 98.6679Z" fill="white"/>
<path d="M185.713 98.6679C185.711 98.3574 185.801 98.0532 185.972 97.794C186.143 97.5348 186.387 97.3323 186.673 97.2123C186.959 97.0923 187.275 97.0602 187.58 97.1202C187.884 97.1801 188.164 97.3294 188.384 97.5489C188.603 97.7685 188.753 98.0484 188.813 98.353C188.873 98.6577 188.84 98.9733 188.72 99.2596C188.6 99.546 188.398 99.7902 188.139 99.9611C187.88 100.132 187.575 100.222 187.265 100.219C186.854 100.216 186.462 100.051 186.172 99.7612C185.881 99.471 185.717 99.0783 185.713 98.6679Z" fill="white"/>
<path d="M190.626 98.6679C190.623 98.3574 190.713 98.0532 190.884 97.794C191.055 97.5348 191.299 97.3323 191.586 97.2123C191.872 97.0923 192.188 97.0602 192.492 97.1202C192.797 97.1801 193.077 97.3294 193.296 97.5489C193.516 97.7685 193.665 98.0484 193.725 98.353C193.785 98.6577 193.753 98.9733 193.633 99.2596C193.513 99.546 193.311 99.7902 193.051 99.9611C192.792 100.132 192.488 100.222 192.177 100.219C191.767 100.216 191.374 100.051 191.084 99.7612C190.794 99.471 190.629 99.0783 190.626 98.6679Z" fill="white"/>
<path d="M195.526 98.6679C195.523 98.358 195.613 98.0543 195.783 97.7953C195.954 97.5364 196.197 97.3339 196.483 97.2135C196.768 97.0931 197.083 97.0603 197.387 97.1192C197.692 97.1781 197.972 97.326 198.192 97.5443C198.412 97.7625 198.562 98.0412 198.623 98.345C198.685 98.6488 198.655 98.964 198.537 99.2506C198.419 99.5372 198.218 99.7823 197.961 99.9547C197.703 100.127 197.4 100.219 197.09 100.219C196.678 100.219 196.282 100.056 195.989 99.7657C195.696 99.4751 195.529 99.0805 195.526 98.6679Z" fill="white"/>
<path d="M378.085 102.133H365.389V96.1857H378.085V102.133ZM366.036 101.486H377.438V96.8321H366.061L366.036 101.486Z" fill="white"/>
<path d="M374.633 97.1812H366.45V101.06H374.633V97.1812Z" fill="white"/>
<path d="M379.21 97.5561H378.085V100.698H379.21V97.5561Z" fill="white"/>
<path d="M226.657 198.655V265.338H237.685V198.655H226.657ZM229.89 262.52H229.023V201.473H229.89V262.52ZM232.604 262.52H231.725V201.473H232.604V262.52ZM235.319 262.52H234.44V201.473H235.319V262.52Z" fill="white"/>
<path d="M240.503 195.616H223.839V198.667H240.503V195.616Z" fill="white"/>
<path d="M240.503 265.325H223.839V268.376H240.503V265.325Z" fill="white"/>
<path d="M250.561 198.655V265.338H261.589V198.655H250.561ZM253.806 262.52H252.927V201.473H253.806V262.52ZM256.521 262.52H255.642V201.473H256.521V262.52ZM259.223 262.52H258.357V201.473H259.223V262.52Z" fill="white"/>
<path d="M264.407 195.616H247.743V198.667H264.407V195.616Z" fill="white"/>
<path d="M264.407 265.325H247.743V268.376H264.407V265.325Z" fill="white"/>
<path d="M294.685 198.655V265.338H305.726V198.655H294.685ZM297.93 262.52H297.051V201.473H297.93V262.52ZM300.645 262.52H299.766V201.473H300.645V262.52ZM303.347 262.52H302.481V201.473H303.347V262.52Z" fill="white"/>
<path d="M308.531 195.616H291.866V198.667H308.531V195.616Z" fill="white"/>
<path d="M308.531 265.325H291.866V268.376H308.531V265.325Z" fill="white"/>
<path d="M318.602 198.655V265.338H329.63V198.655H318.602ZM321.834 262.52H320.968V201.473H321.834V262.52ZM324.549 262.52H323.683V201.473H324.549V262.52ZM327.264 262.52H326.385V201.473H327.277L327.264 262.52Z" fill="white"/>
<path d="M332.448 195.616H315.784V198.667H332.448V195.616Z" fill="white"/>
<path d="M332.448 265.325H315.784V268.376H332.448V265.325Z" fill="white"/>
<path d="M337.051 191.311H219.224V195.616H337.051V191.311Z" fill="white"/>
<path d="M219.224 191.311H337.051V192.203L219.224 192.733V191.311Z" fill="#C7C7C7"/>
<path d="M337.051 268.376H219.224V272.681H337.051V268.376Z" fill="white"/>
<path d="M219.224 271.414L337.051 272.048V272.694H219.224V271.414Z" fill="#C7C7C7"/>
<path d="M340.296 272.681H215.992V276.986H340.296V272.681Z" fill="white"/>
<path d="M343.89 187.678V191.311H212.397V187.678L278.137 153.341L343.89 187.678Z" fill="white"/>
<path d="M334.362 187.704C296.806 187.898 256.366 188.454 218.9 188.454L221.589 187.045C235.759 179.702 263.929 165.002 278.15 157.724C294.621 166.515 318.15 179.198 334.375 187.769L334.362 187.704ZM334.362 187.704C317.969 179.172 294.479 167.446 277.853 158.887H278.422L250.355 173.638L222.275 188.351L221.926 186.967C258.125 186.967 297.982 187.523 334.401 187.704H334.362Z" fill="#C7C7C7"/>
<path d="M346 321H210V340H346V321Z" fill="white"/>
<path d="M346 321H327V340H346V321Z" fill="#00928F"/>
<path d="M339.145 328.888C339.145 329.261 339.034 329.626 338.827 329.936C338.619 330.247 338.324 330.489 337.979 330.631C337.635 330.774 337.255 330.812 336.889 330.739C336.523 330.666 336.186 330.486 335.922 330.222C335.658 329.958 335.479 329.622 335.406 329.256C335.333 328.89 335.37 328.51 335.513 328.165C335.656 327.82 335.898 327.526 336.208 327.318C336.519 327.111 336.884 327 337.257 327C337.506 326.998 337.752 327.046 337.981 327.14C338.211 327.234 338.42 327.373 338.596 327.549C338.771 327.725 338.91 327.933 339.004 328.163C339.099 328.393 339.146 328.639 339.145 328.888Z" fill="white"/>
<path d="M340.529 334.059H334C334.052 333.229 334.419 332.449 335.025 331.88C335.632 331.311 336.432 330.994 337.264 330.994C338.096 330.994 338.897 331.311 339.503 331.88C340.11 332.449 340.476 333.229 340.529 334.059Z" fill="white"/>
<path d="M346.069 353H210V372.715H346.069V353Z" fill="white"/>
<path d="M283.624 360.97C282.397 362.819 280.81 364.402 278.957 365.624C280.187 363.777 281.774 362.195 283.624 360.97Z" fill="#A6A6A6"/>
<path d="M278.957 360.97C280.807 362.195 282.394 363.777 283.624 365.624C281.768 364.406 280.18 362.822 278.957 360.97Z" fill="#A6A6A6"/>
<path d="M284.58 363.323C282.409 363.762 280.171 363.762 278 363.323C280.171 362.883 282.409 362.883 284.58 363.323Z" fill="#A6A6A6"/>
<path d="M281.33 360C281.776 362.175 281.776 364.418 281.33 366.593C280.89 364.418 280.89 362.176 281.33 360Z" fill="#A6A6A6"/>
<path d="M294.975 360.97C293.753 362.819 292.17 364.402 290.321 365.624C291.547 363.778 293.129 362.195 294.975 360.97Z" fill="#A6A6A6"/>
<path d="M290.321 360.97C292.17 362.192 293.753 363.775 294.975 365.624C293.126 364.402 291.543 362.819 290.321 360.97Z" fill="#A6A6A6"/>
<path d="M295.944 363.323C293.769 363.762 291.527 363.762 289.351 363.323C291.527 362.883 293.769 362.883 295.944 363.323Z" fill="#A6A6A6"/>
<path d="M292.648 360C293.087 362.176 293.087 364.418 292.648 366.593C292.208 364.418 292.208 362.176 292.648 360Z" fill="#A6A6A6"/>
<path d="M306.338 360.97C305.116 362.819 303.533 364.402 301.684 365.624C302.906 363.775 304.489 362.192 306.338 360.97Z" fill="#A6A6A6"/>
<path d="M301.684 360.97C303.53 362.195 305.113 363.778 306.338 365.624C304.489 364.402 302.906 362.819 301.684 360.97Z" fill="#A6A6A6"/>
<path d="M307.308 363.323C305.132 363.762 302.89 363.762 300.714 363.323C302.89 362.883 305.132 362.883 307.308 363.323Z" fill="#A6A6A6"/>
<path d="M304.012 360C304.451 362.176 304.451 364.418 304.012 366.593C303.572 364.418 303.572 362.176 304.012 360Z" fill="#A6A6A6"/>
<path d="M317.703 360.97C316.48 362.822 314.892 364.406 313.036 365.624C314.266 363.777 315.853 362.195 317.703 360.97Z" fill="#A6A6A6"/>
<path d="M313.036 360.97C314.886 362.195 316.472 363.777 317.703 365.624C315.85 364.402 314.262 362.819 313.036 360.97Z" fill="#A6A6A6"/>
<path d="M318.672 363.323C316.501 363.762 314.263 363.762 312.092 363.323C314.263 362.883 316.501 362.883 318.672 363.323Z" fill="#A6A6A6"/>
<path d="M315.376 360C315.815 362.176 315.815 364.418 315.376 366.593C314.929 364.418 314.929 362.175 315.376 360Z" fill="#A6A6A6"/>
<path d="M346.715 353H327V372.715H346.715V353Z" fill="#00928F"/>
<path d="M339.274 360.38V362.758H338.602V360.38C338.622 360.167 338.597 359.952 338.529 359.749C338.46 359.546 338.351 359.36 338.207 359.202C338.063 359.044 337.887 358.918 337.691 358.831C337.496 358.745 337.284 358.7 337.07 358.7C336.856 358.7 336.645 358.745 336.449 358.831C336.253 358.918 336.078 359.044 335.934 359.202C335.789 359.36 335.68 359.546 335.612 359.749C335.544 359.952 335.519 360.167 335.538 360.38V362.758H334.866V360.38C334.843 360.076 334.882 359.771 334.983 359.483C335.083 359.196 335.241 358.932 335.448 358.708C335.655 358.485 335.906 358.307 336.185 358.185C336.464 358.063 336.766 358 337.07 358C337.375 358 337.676 358.063 337.955 358.185C338.234 358.307 338.485 358.485 338.692 358.708C338.899 358.932 339.057 359.196 339.158 359.483C339.258 359.771 339.298 360.076 339.274 360.38Z" fill="white"/>
<path d="M334 361.879V366.973H340.141V361.879H334ZM337.581 365.616H336.495L336.754 364.4C336.675 364.351 336.61 364.282 336.565 364.201C336.52 364.119 336.496 364.028 336.495 363.935C336.495 363.791 336.552 363.653 336.654 363.551C336.756 363.449 336.894 363.392 337.038 363.392C337.182 363.392 337.32 363.449 337.422 363.551C337.524 363.653 337.581 363.791 337.581 363.935C337.58 364.028 337.556 364.119 337.511 364.201C337.466 364.282 337.401 364.351 337.323 364.4L337.581 365.616Z" fill="white"/>
<path d="M342 393H214C211.239 393 209 395.239 209 398V408C209 410.761 211.239 413 214 413H342C344.761 413 347 410.761 347 408V398C347 395.239 344.761 393 342 393Z" fill="#00928F"/>
<path d="M36.8192 568.284C36.8192 568.284 81.3827 589.319 139.818 589.319C201.938 589.319 232.061 569.086 232.061 569.086C277.426 533.469 282.106 480.683 249.746 448.699C230.16 429.306 215.849 433.249 192.164 430.173H192.087C183.721 429.29 175.583 426.903 168.066 423.127C143.684 410.263 129.928 379.908 109.424 354.388C106.838 351.181 104.158 348.074 101.383 345.066C84.576 327.057 50.9627 326.476 33.3674 351.802C-11.2219 416.133 -9.96787 511.956 36.8192 568.284Z" fill="#00928F"/>
<path opacity="0.1" d="M36.8192 568.284C36.8192 568.284 81.3827 589.319 139.818 589.319C201.938 589.319 232.061 569.086 232.061 569.086C277.426 533.469 282.106 480.683 249.746 448.699C230.16 429.306 215.849 433.249 192.164 430.173H192.087C183.721 429.29 175.583 426.903 168.066 423.127C143.684 410.263 129.928 379.908 109.424 354.388C106.838 351.181 104.158 348.074 101.383 345.066C84.576 327.057 50.9627 326.476 33.3674 351.802C-11.2219 416.133 -9.96787 511.956 36.8192 568.284Z" fill="#00928F"/>
<path opacity="0.1" d="M161.46 516.391C101.926 531.025 47.4722 497.619 42.5983 421.045C39.0042 364.976 78.8877 338.499 109.45 354.375C129.98 379.895 143.723 410.25 168.105 423.114C175.625 426.886 183.761 429.277 192.126 430.173H192.203L194.724 430.483C221.861 447.47 207.691 505.027 161.46 516.391Z" fill="black"/>
<path d="M214.233 621.846C211.273 621.135 141.344 577.037 139.741 573.675C139.133 572.383 144.912 561.833 152.359 549.28C153.962 546.565 155.63 543.773 157.336 540.954C168.416 522.596 180.607 503.385 180.607 503.385L227.446 532.641L202.882 569.396L197.504 577.476C197.504 577.476 216.754 606.332 218.112 610.211C219.469 614.089 217.194 622.505 214.233 621.846Z" fill="#F7A9A0"/>
<path d="M214.233 621.846C211.273 621.135 141.357 577.037 139.741 573.675C139.198 572.551 143.619 564.212 149.812 553.637C152.462 557.955 192.708 595.007 206.308 598.808C211.867 600.372 203.593 586.81 203.231 586.242C209.01 595.084 217.219 607.819 218.086 610.301C219.456 614.089 217.194 622.505 214.233 621.846Z" fill="#263238"/>
<path d="M204.007 587.289C204.007 587.289 197.957 581.613 185.907 586.074L204.007 587.289Z" fill="#263238"/>
<path d="M260.749 474.568C255.577 496.675 206.903 569.487 206.903 569.487L156.91 537.166L192.824 484.872C192.824 484.872 122.792 491.129 96.5349 479.132C68.5066 466.346 73.6649 432.461 73.6649 432.461L143.038 426.333C143.038 426.333 144.667 432.9 152.462 432.525C179.288 431.233 215.81 433.392 229.773 435.331C247.782 437.865 265.48 454.297 260.749 474.568Z" fill="#37474F"/>
<path d="M209.113 466.708C207.453 468.238 205.894 469.875 204.446 471.607C202.843 473.327 201.214 475.033 199.611 476.779C199.908 476.249 200.206 475.731 200.529 475.214C201.602 473.443 202.507 471.594 203.735 469.927C203.751 469.906 203.757 469.88 203.754 469.855C203.75 469.829 203.736 469.806 203.716 469.791C203.695 469.776 203.669 469.769 203.644 469.773C203.618 469.776 203.596 469.79 203.58 469.81C202.287 471.465 200.891 473.017 199.779 474.775C199.262 475.602 198.758 476.443 198.28 477.36C198.021 477.826 197.749 478.291 197.517 478.783C197.413 479.002 197.271 479.235 197.181 479.468C196.47 480.269 195.746 481.084 195.047 481.898C193.509 483.734 192.113 485.686 190.548 487.496C190.471 487.587 190.626 487.703 190.704 487.613C192.268 485.919 194 484.368 195.578 482.687C197.155 481.006 198.745 479.222 200.283 477.438C201.822 475.654 203.244 473.947 204.731 472.202C206.354 470.509 207.865 468.713 209.256 466.824C209.256 466.708 209.178 466.708 209.113 466.708Z" fill="#263238"/>
<path d="M210.536 557.632C209.243 556.584 207.846 555.615 206.489 554.632L202.455 551.749C199.689 549.784 196.883 547.871 194.091 545.957C188.48 542.079 182.818 538.343 177.155 534.568C173.975 532.447 170.756 530.392 167.575 528.297C167.511 528.297 167.433 528.362 167.485 528.401C172.897 532.374 178.349 536.296 183.839 540.166C189.411 544.044 195.022 547.922 200.723 551.672C202.3 552.706 203.89 553.727 205.494 554.736C207.123 555.757 208.739 556.83 210.432 557.761C210.497 557.8 210.6 557.696 210.536 557.632Z" fill="#263238"/>
<path d="M83.0378 434.878C82.0675 443.922 84.5878 452.996 90.0836 460.244C92.8585 463.762 96.2869 466.712 100.181 468.931C104.107 471.082 108.348 472.601 112.747 473.43C121.556 475.195 130.492 476.258 139.469 476.611C148.519 477.05 157.452 477.037 166.425 476.611C175.406 476.278 184.357 475.38 193.225 473.922C195.435 473.534 197.633 473.094 199.805 472.551C200.891 472.28 201.964 471.995 203.037 471.659C204.116 471.257 205.234 470.967 206.373 470.793C206.993 470.711 207.624 470.764 208.221 470.948C208.557 471.052 208.859 471.242 209.099 471.498C209.34 471.754 209.509 472.068 209.592 472.409C209.673 472.721 209.703 473.044 209.682 473.366C209.652 473.693 209.565 474.012 209.424 474.309C209.191 474.852 208.92 475.357 208.648 475.861C207.549 477.839 206.334 479.739 205.119 481.653C195.293 496.753 184.808 511.387 174.311 526.022C179.482 518.627 184.571 511.202 189.579 503.747C194.634 496.3 199.689 488.854 204.498 481.252C205.687 479.338 206.877 477.373 207.937 475.473C208.204 474.995 208.446 474.503 208.661 473.999C208.772 473.791 208.838 473.562 208.855 473.327C208.895 473.092 208.895 472.851 208.855 472.616C208.674 471.698 207.562 471.504 206.515 471.633C205.429 471.804 204.363 472.086 203.335 472.474C202.249 472.81 201.163 473.107 200.064 473.379C197.866 473.934 195.655 474.387 193.432 474.788C184.532 476.288 175.546 477.216 166.528 477.567C157.478 477.942 148.429 477.929 139.482 477.464C130.458 477.099 121.48 475.979 112.643 474.115C108.186 473.233 103.896 471.649 99.9349 469.423C95.9998 467.138 92.5482 464.108 89.7734 460.502C87.0488 456.872 85.0834 452.73 83.9944 448.324C82.8483 443.939 82.5239 439.381 83.0378 434.878Z" fill="#263238"/>
<path d="M148.079 624.768C145.339 623.475 86.1275 565.75 85.2613 562.13C84.9252 560.76 92.8243 551.646 102.676 540.902C104.809 538.575 107.019 536.197 109.282 533.792C123.93 518.149 139.844 501.885 139.844 501.885L179.56 540.398L147.911 571.245L140.969 578.019C140.969 578.019 153.755 610.249 154.285 614.322C154.815 618.394 150.833 626.086 148.079 624.768Z" fill="#F7A9A0"/>
<path d="M148.079 624.755C145.339 623.462 86.1276 565.763 85.2614 562.131C84.964 560.915 91.0661 553.688 99.2755 544.626C100.956 549.396 132.617 593.999 145.119 600.566C150.226 603.255 144.951 588.271 144.731 587.638C148.532 597.489 153.91 611.646 154.233 614.257C154.789 618.355 150.833 626.086 148.079 624.755Z" fill="#263238"/>
<path d="M145.261 588.892C145.261 588.892 140.529 582.079 127.782 583.927L145.261 588.892Z" fill="#263238"/>
<path d="M229.566 478.821C224.394 500.916 162.882 560.114 155.772 566.901L154.156 568.44L111.971 528.879L112.566 528.259L146.541 493.055C146.541 493.055 95.397 508.647 74.6602 476.701C66.412 463.993 73.6001 432.461 73.6001 432.461L129.321 427.768C129.321 427.768 129.98 437.309 137.763 436.934C164.602 435.641 185.713 434.348 199.715 436.288C217.788 438.809 234.297 458.537 229.566 478.821Z" fill="#37474F"/>
<path d="M139.275 436.869C156.547 435.745 173.858 434.84 191.195 435.396C193.354 435.486 195.526 435.602 197.659 435.796C199.837 435.971 201.998 436.313 204.123 436.818C205.187 437.122 206.224 437.511 207.226 437.981C208.221 438.421 209.204 438.899 210.161 439.416C212.09 440.449 213.94 441.624 215.694 442.933C219.236 445.522 222.325 448.681 224.834 452.28C228.65 457.705 230.728 464.161 230.794 470.793C230.794 471.336 230.794 471.892 230.794 472.435C230.794 472.978 230.794 473.534 230.704 474.09C230.583 475.188 230.384 476.277 230.109 477.348C228.905 481.543 227.167 485.567 224.938 489.319C220.503 496.786 215.471 503.881 209.889 510.534C204.408 517.244 198.629 523.695 192.708 530.017C186.786 536.339 180.646 542.441 174.453 548.478C180.529 542.325 186.528 536.08 192.359 529.694C198.189 523.307 203.903 516.766 209.32 510.069C214.803 503.398 219.769 496.319 224.175 488.892C226.364 485.198 228.076 481.24 229.269 477.115C229.531 476.092 229.717 475.05 229.824 473.999C229.909 472.937 229.935 471.871 229.902 470.806C229.861 468.672 229.619 466.547 229.178 464.458C228.272 460.286 226.554 456.333 224.123 452.823C221.679 449.298 218.669 446.201 215.216 443.657C213.505 442.37 211.698 441.216 209.812 440.205C208.868 439.688 207.911 439.209 206.929 438.783C205.972 438.323 204.977 437.947 203.955 437.658C201.877 437.155 199.763 436.81 197.633 436.624C195.487 436.417 193.328 436.262 191.169 436.158C182.546 435.758 173.884 435.835 165.235 436.003C156.586 436.171 147.924 436.43 139.275 436.869Z" fill="#263238"/>
<path d="M165.067 472.176C163.41 473.715 161.852 475.355 160.4 477.089C158.797 478.808 157.168 480.515 155.565 482.26L156.483 480.696C157.556 478.938 158.461 477.089 159.702 475.421C159.767 475.318 159.612 475.201 159.547 475.305C158.254 476.96 156.858 478.498 155.733 480.269C155.216 481.097 154.712 481.937 154.233 482.79C153.975 483.256 153.716 483.734 153.471 484.212C153.367 484.432 153.225 484.665 153.135 484.898C152.423 485.712 151.712 486.514 151.014 487.341C149.463 489.164 148.067 491.116 146.502 492.926C146.425 493.029 146.58 493.133 146.657 493.042C148.222 491.349 149.954 489.797 151.544 488.13C153.135 486.462 154.699 484.652 156.237 482.881C157.776 481.11 159.198 479.377 160.685 477.709C162.305 476.009 163.816 474.209 165.209 472.318C165.219 472.309 165.226 472.298 165.231 472.286C165.236 472.274 165.239 472.261 165.239 472.247C165.239 472.234 165.236 472.221 165.231 472.209C165.226 472.197 165.219 472.186 165.209 472.176C165.2 472.167 165.189 472.159 165.177 472.154C165.165 472.149 165.152 472.147 165.138 472.147C165.125 472.147 165.112 472.149 165.1 472.154C165.088 472.159 165.077 472.167 165.067 472.176Z" fill="#263238"/>
<path d="M159.999 558.498C158.9 557.205 157.685 556.054 156.509 554.852C155.332 553.65 154.195 552.499 153.018 551.323C150.626 548.931 148.183 546.578 145.752 544.225C140.866 539.48 135.914 534.813 130.976 530.133C128.209 527.548 125.378 524.962 122.585 522.376C122.585 522.376 122.43 522.376 122.482 522.467C127.162 527.289 131.855 532.085 136.625 536.817C141.396 541.549 146.347 546.345 151.325 551.038C152.708 552.331 154.117 553.624 155.526 554.917C156.935 556.209 158.37 557.502 159.87 558.73C159.935 558.692 160.051 558.601 159.999 558.498Z" fill="#263238"/>
<path d="M81.0468 435.745C79.8929 440.569 79.3843 445.525 79.5342 450.483C79.6227 455.425 80.6402 460.306 82.5335 464.872C84.4732 469.407 87.6552 473.302 91.7126 476.106C95.8303 478.801 100.517 480.505 105.403 481.084C110.289 481.762 115.23 481.957 120.155 481.666C125.092 481.414 130.011 480.896 134.893 480.114C144.673 478.585 154.336 476.382 163.813 473.521L164.175 473.417L164.317 473.728C164.873 474.95 165.193 476.265 165.261 477.606C165.345 478.909 165.227 480.217 164.912 481.485C164.583 482.745 164.092 483.957 163.451 485.091C162.756 486.173 161.988 487.206 161.15 488.181C157.879 492.06 154.363 495.693 150.807 499.325C147.252 502.958 143.71 506.526 140.103 510.056C136.496 513.585 132.876 517.115 129.217 520.605C132.803 517.037 136.354 513.447 139.87 509.836C143.399 506.216 146.916 502.596 150.394 498.938C153.871 495.279 157.31 491.581 160.516 487.703C161.311 486.749 162.041 485.743 162.701 484.691C163.27 483.615 163.704 482.473 163.994 481.291C164.604 478.921 164.413 476.417 163.451 474.167L163.955 474.374C154.451 477.296 144.753 479.543 134.931 481.097C130.011 481.865 125.052 482.37 120.077 482.609C115.095 482.879 110.098 482.662 105.158 481.963C100.157 481.365 95.3679 479.593 91.1825 476.792C87.057 473.865 83.8435 469.831 81.913 465.156C80.038 460.515 79.0851 455.553 79.1076 450.547C79.098 445.549 79.7501 440.572 81.0468 435.745Z" fill="#263238"/>
<path d="M104.912 435.77C104.318 438.356 103.619 440.942 102.766 443.463C102.172 445.798 101.127 447.993 99.6893 449.927C98.1785 451.604 96.2971 452.905 94.1948 453.728C92.9917 454.256 91.7568 454.71 90.4974 455.085C89.2069 455.43 87.9413 455.862 86.7094 456.378C86.6605 456.406 86.6214 456.448 86.5975 456.499C86.5736 456.55 86.5661 456.607 86.576 456.662C86.586 456.717 86.6129 456.768 86.653 456.808C86.6931 456.847 86.7444 456.873 86.7999 456.882C88.21 456.901 89.617 456.744 90.9886 456.417C92.3081 456.158 93.605 455.795 94.8671 455.331C97.192 454.471 99.2574 453.028 100.866 451.142C102.396 449.073 103.443 446.688 103.93 444.161C104.631 441.456 105.064 438.689 105.223 435.9C105.24 435.859 105.24 435.812 105.223 435.771C105.206 435.73 105.173 435.697 105.132 435.68C105.091 435.663 105.045 435.663 105.003 435.68C104.962 435.697 104.929 435.729 104.912 435.77Z" fill="#263238"/>
<path d="M124.757 296.87C124.757 296.87 113.936 289.682 103.348 295.112C92.7597 300.542 86.7093 315.59 87.3687 328.725C88.028 341.86 76.7675 349.514 74.8283 359.042C72.8891 368.57 78.849 373.547 80.5555 378.77C82.5077 384.756 71.0921 404.484 95.4488 411.284C125.921 419.791 139.327 401.731 137.465 385.725C136.547 377.891 132.669 372.047 133.251 365.816C133.833 359.585 138.668 354.982 137.013 346.876C135.358 338.77 132.229 339.611 131.997 327.083C131.764 314.556 135.539 299.934 124.757 296.87Z" fill="#263238"/>
<path d="M105.52 294.995C98.5948 298.687 92.9681 304.413 89.3984 311.401C87.614 314.865 86.4129 318.6 85.8431 322.455C85.1062 327.484 85.4941 332.293 83.2575 337.051C79.5988 344.665 73.0184 350.742 72.5917 359.52C72.3898 363.617 73.3536 367.687 75.3713 371.259C77.7242 375.435 81.2795 378.874 83.1282 383.295C83.2058 383.489 83.4902 383.295 83.4126 383.179C81.8613 379.3 79.0688 376.12 76.8322 372.539C74.1127 368.352 72.8999 363.363 73.3933 358.395C74.3112 350.082 80.7882 344.174 84.1883 336.805C85.5538 333.555 86.2612 330.066 86.2698 326.54C86.4305 322.292 87.3046 318.101 88.8554 314.142C92.2424 306.186 98.0806 299.519 105.52 295.112C105.52 295.112 105.584 294.957 105.52 294.995Z" fill="#263238"/>
<path d="M137.53 383.45C137.065 379.662 135.397 376.12 134.945 372.345C134.376 367.807 135.875 363.45 137.091 359.132C138.81 352.965 139.159 347.044 136.884 340.929C135.41 336.973 133.535 333.172 132.527 329.113C131.44 324.648 131.004 320.05 131.234 315.461C131.234 315.357 131.079 315.344 131.079 315.461C130.414 322.085 131.299 328.772 133.665 334.995C135.061 338.654 136.884 342.132 137.543 346.01C138.345 350.664 137.543 355.06 136.354 359.559C135.439 362.545 134.799 365.609 134.44 368.712C134.35 371.872 134.837 375.022 135.875 378.007C138.213 385.854 137.468 394.297 133.794 401.614C133.729 401.743 133.962 401.86 134.04 401.73C137.069 396.146 138.288 389.758 137.53 383.45Z" fill="#263238"/>
<path d="M74.0915 357.826C74.9318 350.987 80.0902 346.721 83.4773 341.02C86.063 336.715 87.9246 332.035 87.6144 327.019C87.6144 326.941 87.4592 326.954 87.4592 327.019C87.2395 334.22 83.6971 340.464 79.2369 346.139C76.2763 349.914 73.7683 353.573 73.3546 358.369C72.9409 363.166 74.4923 367.186 76.8581 371.298C78.5388 374.232 80.2065 376.973 80.7366 380.347C81.0964 383.71 80.9658 387.106 80.3487 390.431C80.3487 390.599 80.6073 390.612 80.6331 390.431C81.5123 385.338 81.926 380.36 79.7928 375.448C77.1296 369.371 73.2382 364.769 74.0915 357.826Z" fill="#263238"/>
<path d="M139.12 378.68C138.208 376.255 137.069 373.922 135.72 371.711C133.419 367.639 133.238 364.471 134.427 359.96C134.427 359.856 134.298 359.804 134.259 359.895C132.682 363.567 132.126 366.682 134.078 370.341C136.806 375.512 139.495 380.115 139.663 385.958C139.961 396.301 133.367 405.428 123.529 409.862C123.4 409.862 123.529 410.108 123.632 410.056C127.604 408.614 131.158 406.215 133.982 403.072C136.805 399.928 138.81 396.137 139.818 392.034C140.825 387.604 140.584 382.981 139.12 378.68Z" fill="#263238"/>
<path d="M129.269 357.49C157.53 380.334 183.955 405.583 186.644 419.054C190.367 437.71 179.081 443.54 173.91 443.876C159.805 444.768 131.092 388.996 121.008 367.6C111.208 346.928 123.012 352.474 129.269 357.49Z" fill="#EBEBEB"/>
<path d="M128.299 356.727L117.349 357.115C117.349 356.896 117.349 356.689 117.284 356.482L127.459 356.12L128.299 356.727ZM133.057 360.606L118.306 361.123C118.383 361.33 118.448 361.537 118.526 361.757L133.82 361.227L133.057 360.606ZM138.448 365.079L120.103 365.713C120.206 365.919 120.297 366.139 120.4 366.359L139.185 365.7L138.448 365.079ZM143.684 369.552L122.262 370.289L122.559 370.936L144.395 370.173C144.162 369.927 143.929 369.746 143.697 369.526L143.684 369.552ZM148.855 374.025L124.524 374.879L124.847 375.512L149.553 374.646L148.855 374.025ZM153.832 378.512L126.813 379.455L127.123 380.089L154.505 379.132L153.832 378.512ZM158.655 382.998L129.14 384.032C129.256 384.239 129.359 384.446 129.463 384.665L159.314 383.618L158.655 382.998ZM163.309 387.497L131.531 388.608C131.635 388.828 131.751 389.035 131.867 389.242L163.942 388.117L163.309 387.497ZM167.756 391.996L133.962 393.172L134.298 393.806L168.364 392.616L167.756 391.996ZM171.984 396.508L136.457 397.8L136.806 398.434L172.539 397.141L171.984 396.508ZM175.927 401.032L139.017 402.325C139.133 402.532 139.249 402.752 139.379 402.959L176.444 401.666L175.927 401.032ZM179.508 405.557L141.641 406.85L142.003 407.484L179.973 406.191C179.792 405.945 179.637 405.751 179.469 405.531L179.508 405.557ZM182.662 410.108L144.356 411.401L144.731 412.034L183.05 410.741L182.662 410.108ZM185.17 414.672L147.161 415.964C147.291 416.184 147.433 416.391 147.562 416.598L185.442 415.305C185.35 415.08 185.247 414.86 185.132 414.646L185.17 414.672ZM186.722 419.274L150.083 420.567C150.225 420.774 150.368 420.981 150.497 421.2L186.838 419.908C186.773 419.688 186.722 419.468 186.683 419.248L186.722 419.274ZM187.342 423.915L153.186 425.105C153.328 425.324 153.483 425.531 153.626 425.738L187.381 424.549L187.342 423.915ZM156.483 429.642C156.638 429.862 156.806 430.069 156.961 430.276L187.226 429.216C187.226 429.009 187.226 428.789 187.303 428.569L156.483 429.642ZM160.116 434.18L160.646 434.801L186.114 433.909L186.347 433.262L160.116 434.18ZM164.343 438.692C164.563 438.912 164.796 439.119 165.015 439.313L183.412 438.666L183.929 438.007L164.343 438.692ZM170.445 443.14C170.977 443.385 171.531 443.579 172.1 443.721L175.797 443.592C176.496 443.409 177.179 443.171 177.84 442.881L170.445 443.14Z" fill="#DBDBDB"/>
<path d="M151.156 432.112L146.282 408.414C146.282 408.414 155.332 398.227 149.993 388.195C147.304 383.114 129.437 358.46 120.258 352.552C111.596 346.941 101.835 352.332 98.3834 358.938C89.6569 375.629 81.4992 394.736 77.7888 435.279L151.156 432.112Z" fill="#EBEBEB"/>
<path d="M119.935 352.371L103.917 352.927C104.279 352.678 104.655 352.45 105.041 352.241L118.862 351.763C119.234 351.938 119.593 352.141 119.935 352.371ZM124.744 356.249L99.5211 357.141C99.353 357.361 99.2108 357.581 99.0686 357.801L125.403 356.87L124.744 356.249ZM129.165 360.748L96.845 361.886L96.5088 362.545L129.708 361.382L129.165 360.748ZM133.134 365.273L94.5696 366.592L94.2593 367.238L133.69 365.868L133.134 365.273ZM136.858 369.798L92.3847 371.349L92.0874 372.009L137.336 370.431L136.858 369.798ZM140.4 374.336L90.4067 376.081L90.1482 376.74L140.878 374.917L140.4 374.336ZM143.787 378.873L88.6356 380.8L88.3899 381.459L144.24 379.507L143.787 378.873ZM146.98 383.411L87.0325 385.519C86.9549 385.738 86.8903 385.945 86.8256 386.165L147.42 383.967L146.98 383.411ZM150.044 388.233L149.902 387.975L85.5974 390.224C85.5974 390.444 85.4811 390.664 85.4164 390.884L150.238 388.608L150.044 388.233ZM151.531 392.577L84.3046 394.917C84.3046 395.137 84.1883 395.344 84.1365 395.577L151.596 393.211C151.596 393.017 151.557 392.745 151.531 392.539V392.577ZM83.1928 399.584C83.1928 399.804 83.0894 400.024 83.0377 400.231L151.454 397.839C151.454 397.632 151.531 397.413 151.557 397.193L83.1928 399.584ZM82.1715 404.277C82.1715 404.497 82.081 404.704 82.0422 404.924L149.98 402.545L150.251 401.899L82.1715 404.277ZM81.2665 408.957C81.2665 409.177 81.1889 409.397 81.1372 409.617L147.213 407.303L147.679 406.643L81.2665 408.957ZM146.929 411.323L80.4649 413.702C80.4649 413.922 80.3874 414.129 80.3615 414.348L147.058 412.021L146.929 411.323ZM147.873 415.952L79.741 418.33C79.741 418.55 79.741 418.757 79.6505 418.977L148.002 416.585L147.873 415.952ZM148.803 420.58L79.0558 423.01L78.9782 423.657L148.894 421.213L148.803 420.58ZM149.747 425.195L78.5516 427.69L78.474 428.337L149.876 425.842L149.747 425.195ZM150.691 429.823L78.0603 432.409C78.0603 432.629 78.0603 432.849 78.0603 433.068L150.885 430.483L150.691 429.823Z" fill="#DBDBDB"/>
<path d="M135.009 405.816C131.209 406.394 127.458 407.258 123.788 408.401C121.978 408.983 120.206 409.694 118.435 410.367C117.543 410.716 116.651 411.039 115.759 411.362C114.83 411.718 113.862 411.965 112.876 412.099C112.786 412.099 112.799 412.228 112.876 412.228C113.815 412.22 114.753 412.146 115.682 412.008C116.557 411.835 117.421 411.606 118.267 411.323C120.116 410.754 121.939 410.03 123.775 409.487C127.485 408.272 131.208 407.07 134.996 406.139C135.255 406.074 135.19 405.777 135.009 405.816Z" fill="#263238"/>
<path d="M144.654 408.595C141.49 408.468 138.322 408.516 135.164 408.738C133.574 408.854 132.01 409.061 130.446 409.319C129.696 409.436 128.959 409.565 128.209 409.707C127.459 409.849 126.593 410.134 125.778 410.276C125.688 410.276 125.701 410.431 125.778 410.418C126.554 410.302 127.356 410.315 128.131 410.25L130.497 410.043C132.062 409.901 133.639 409.785 135.216 409.63C138.371 409.332 141.499 409.061 144.667 408.854C144.848 408.854 144.822 408.608 144.654 408.595Z" fill="#263238"/>
<path d="M148.222 417.71C147.459 414.594 146.709 411.465 146.024 408.324C156.367 397.193 149.903 387.846 142.559 377.529C140.284 374.392 137.94 371.293 135.526 368.234C138.19 371.078 140.698 374.051 143.089 377.141C146.567 381.834 150.265 386.643 151.906 392.358C152.495 395.302 152.309 398.349 151.366 401.2C150.424 404.051 148.756 406.608 146.528 408.621L146.619 408.363C147.188 411.465 147.718 414.594 148.222 417.71Z" fill="#263238"/>
<path d="M139.03 370.328C140.52 371.85 141.478 373.814 141.758 375.926C140.659 374.159 139.744 372.283 139.03 370.328Z" fill="#263238"/>
<path d="M97.3106 356.521C72.8117 377.503 49.3211 412.991 50.0063 432.241C50.6398 451.258 57.1815 449.125 59.0561 448.931C70.4975 447.638 95.255 393.65 102.572 371.737C109.89 349.824 103.361 351.323 97.3106 356.521Z" fill="#EBEBEB"/>
<path d="M105.778 357.516L95.759 357.865L96.5218 357.206L105.765 356.883C105.783 357.093 105.787 357.305 105.778 357.516ZM91.2341 361.989L90.536 362.662L105.222 362.144L105.339 361.498L91.2341 361.989ZM86.4119 366.824L85.7655 367.484L104.059 366.85C104.136 366.631 104.188 366.411 104.253 366.191L86.4119 366.824ZM81.9646 371.621L81.3699 372.293L102.611 371.556C102.689 371.336 102.766 371.117 102.831 370.897L81.9646 371.621ZM77.8276 376.43L77.2717 377.089L100.969 376.262L101.202 375.616L77.8276 376.43ZM73.9492 381.226L73.445 381.886L99.1721 380.981C99.2625 380.761 99.3401 380.554 99.4177 380.334L73.9492 381.226ZM70.3551 386.01L69.8768 386.669L97.2845 385.713L97.556 385.053L70.3551 386.01ZM66.9938 390.78L66.5413 391.453L95.3065 390.444C95.41 390.224 95.5004 390.005 95.5909 389.785L66.9938 390.78ZM63.891 395.603C63.7488 395.822 63.6066 396.042 63.4773 396.262L93.2122 395.228C93.3156 395.008 93.4061 394.788 93.4966 394.568L63.891 395.603ZM60.9563 400.347L60.5814 401.019L91.1178 399.946C91.2212 399.727 91.3246 399.507 91.4151 399.287L60.9563 400.347ZM58.3707 405.105L58.0216 405.764L88.9717 404.678L89.282 404.032L58.3707 405.105ZM56.0048 409.824C55.9014 410.043 55.798 410.263 55.7075 410.483L86.7351 409.397C86.8515 409.177 86.9549 408.957 87.0583 408.738L56.0048 409.824ZM53.9492 414.555C53.8588 414.775 53.7682 414.995 53.6907 415.202L84.3693 414.129C84.4856 413.909 84.5891 413.689 84.7054 413.482L53.9492 414.555ZM52.2427 419.261C52.1621 419.477 52.093 419.697 52.0359 419.92L81.9388 418.873L82.2878 418.214L52.2427 419.261ZM50.9499 423.967C50.9499 424.187 50.8465 424.394 50.7948 424.613L79.4048 423.618L79.7798 422.959L50.9499 423.967ZM50.1613 428.647C50.1613 428.867 50.1613 429.087 50.1613 429.306L76.7804 428.376L77.1683 427.716L50.1613 428.647ZM50.0579 433.314V433.961L73.8845 433.159C74.0267 432.939 74.156 432.719 74.3111 432.5L50.0579 433.314ZM50.4586 437.955C50.4586 438.175 50.4586 438.382 50.5491 438.589L70.743 437.891L71.1954 437.231L50.4586 437.955ZM51.3507 442.584L51.5446 443.23L67.136 442.674L67.679 442.015L51.3507 442.584ZM53.5097 447.16C53.6915 447.386 53.8903 447.598 54.1044 447.794L62.2233 447.509C62.5336 447.298 62.8315 447.069 63.1153 446.824L53.5097 447.16Z" fill="#DBDBDB"/>
<path d="M73.6777 433.43C74.9706 430.974 76.1729 428.556 77.3493 426.087L80.9951 418.731C83.3997 413.818 85.8432 408.919 88.1702 403.967C90.4973 399.016 92.902 394.103 95.2032 389.138C96.3495 386.656 97.4699 384.161 98.5645 381.653C99.7022 379.158 100.724 376.624 101.771 374.09C100.18 379.34 98.2978 384.498 96.134 389.539C94.0267 394.607 91.6996 399.572 89.3726 404.536C87.0455 409.5 84.5116 414.374 81.9001 419.196C79.2886 424.019 76.6254 428.815 73.6777 433.43Z" fill="#263238"/>
<path d="M99.3533 380.567C99.7876 379.677 100.275 378.813 100.814 377.981C101.086 377.581 101.344 377.167 101.629 376.779C101.913 376.391 102.172 375.978 102.508 375.59C102.314 376.574 101.928 377.51 101.37 378.343C100.846 379.207 100.161 379.961 99.3533 380.567Z" fill="#263238"/>
<path d="M177.504 391.582C175.797 382.713 172.604 370.393 169.269 367.962C165.933 365.532 153.121 356.896 149.54 355.874C145.959 354.853 129.98 349.733 127.187 351.543C124.964 353.004 128.015 358.912 135.63 361.42C139.762 362.878 143.803 364.583 147.73 366.527C149.682 367.238 154.608 373.185 153.496 375.99C152.85 377.632 148.26 379.778 145.274 378.576C142.288 377.374 141.253 371.685 137.763 369.139C134.272 366.592 128.429 367.238 128.17 368.841C127.911 370.444 129.889 371.091 133.199 376.327C135.319 379.688 135.901 387.962 140.607 393.754C143.035 397.168 145.254 400.725 147.252 404.407L177.504 391.582Z" fill="#F7A9A0"/>
<path d="M134.518 366.876C133.432 366.78 132.396 366.377 131.531 365.713C131.258 365.481 131.044 365.188 130.907 364.858C130.77 364.527 130.714 364.169 130.743 363.812C130.741 363.548 130.833 363.292 131.001 363.088C131.001 363.088 131.001 362.972 130.937 363.088C130.858 363.218 130.772 363.343 130.678 363.463C130.618 363.569 130.57 363.682 130.536 363.799C130.462 364.037 130.431 364.287 130.445 364.536C130.496 365.083 130.728 365.597 131.105 365.997C131.556 366.419 132.099 366.731 132.692 366.908C133.284 367.085 133.909 367.123 134.518 367.018C134.518 367.018 134.569 366.889 134.518 366.876Z" fill="#263238"/>
<path d="M169.269 367.962C166.192 363.657 158.499 356.004 151.169 353.625C146.218 352.022 129.915 361.058 130.575 364.239C131.234 367.419 134.091 367.264 138.332 366.54C139.87 366.268 147.86 362.907 149.346 364.549C151.467 366.902 154.453 375.163 154.453 375.163L169.269 367.962Z" fill="#F7A9A0"/>
<path d="M130.911 362.972C132.798 359.429 137.233 357.361 141.68 355.68C141.758 355.68 141.796 355.758 141.68 355.784C140.542 356.21 133.354 359.998 130.911 363.023C130.937 363.049 130.885 362.998 130.911 362.972Z" fill="#263238"/>
<path d="M169.269 367.962C166.192 363.657 158.499 356.004 151.169 353.625C146.218 352.022 133.535 363.153 134.194 366.333C134.854 369.513 138.965 369.539 143.425 367.716C144.86 367.122 149.592 363.398 151.079 365.04C153.199 367.393 158.396 373.237 158.396 373.237L169.269 367.962Z" fill="#F7A9A0"/>
<path d="M155.332 369.604C154.841 368.932 154.673 368.686 154.169 368.014C153.664 367.342 153.147 366.721 152.604 366.062C152.166 365.472 151.628 364.965 151.014 364.562C150.388 364.245 149.675 364.141 148.984 364.265C147.44 364.676 146 365.407 144.757 366.411C143.322 367.342 140.297 368.906 137.918 368.777C137.262 368.776 136.614 368.635 136.017 368.363C135.565 368.191 135.165 367.906 134.854 367.536C133.729 365.842 134.854 363.786 136.147 362.364C138.595 359.677 141.507 357.452 144.744 355.797C145.507 355.37 146.282 354.969 147.058 354.504C147.92 353.989 148.88 353.659 149.876 353.534C151.531 353.431 154.311 354.956 155.177 355.422C155.242 355.422 155.28 355.357 155.177 355.318C154.13 354.737 151.518 352.823 148.868 353.095C147.905 353.291 146.986 353.659 146.153 354.181C145.261 354.62 144.369 355.099 143.49 355.603C141.774 356.559 140.135 357.648 138.59 358.861C137.057 359.993 135.743 361.395 134.712 362.998C134.283 363.715 134.057 364.535 134.057 365.37C134.057 366.205 134.283 367.025 134.712 367.742C135.087 368.19 135.555 368.551 136.085 368.799C136.614 369.047 137.191 369.176 137.776 369.177C138.476 369.225 139.18 369.182 139.87 369.048C141.402 368.632 142.901 368.105 144.356 367.471C145.765 366.824 147.006 365.777 148.467 365.26C148.806 365.113 149.171 365.037 149.54 365.037C149.909 365.037 150.275 365.113 150.613 365.26C151.244 365.628 151.816 366.09 152.307 366.631C153.343 367.557 154.295 368.574 155.151 369.669C155.332 370.005 155.578 369.888 155.332 369.604Z" fill="#263238"/>
<path d="M171.583 371.737C170.432 369.669 168.196 361.02 166.412 358.434C164.628 355.848 156.392 346.993 152.811 347.587C148.325 348.324 153.47 356.223 156.004 359.442C158.538 362.662 158.461 368.402 158.461 368.402L171.583 371.737Z" fill="#F7A9A0"/>
<path d="M152.372 354.064C153.261 355.108 154.098 356.195 154.88 357.322C155.691 358.336 156.422 359.413 157.065 360.541C157.627 361.697 157.994 362.937 158.15 364.213C158.241 364.833 158.293 365.506 158.332 366.088C158.37 366.669 158.332 367.484 158.409 368.169C158.409 368.234 158.293 368.259 158.293 368.169C158.144 366.914 157.911 365.67 157.595 364.446C157.318 363.173 156.884 361.939 156.302 360.774C155.125 358.473 153.471 356.443 152.268 354.142C152.178 354.064 152.307 353.987 152.372 354.064Z" fill="#263238"/>
<path d="M158.422 369.358C158.694 371.548 158.409 373.771 157.595 375.822C157.233 376.851 156.801 377.853 156.302 378.822C155.791 379.781 155.216 380.706 154.582 381.588C153.352 383.273 152.34 385.106 151.57 387.044C150.854 389.027 150.38 391.089 150.161 393.185C149.896 391.021 150.05 388.827 150.613 386.721C151.236 384.614 152.206 382.626 153.483 380.839C154.707 379.141 155.751 377.322 156.599 375.409C157.537 373.507 158.153 371.462 158.422 369.358Z" fill="#263238"/>
<path d="M172.565 443.282C163.71 442.467 157.31 427.975 146.14 402.48C144.188 398.007 166.011 369.061 169.32 373.107C173.496 378.188 185.364 407.005 186.825 414.93C189.695 430.509 182.921 444.225 172.565 443.282Z" fill="#F7A9A0"/>
<path d="M152.074 416.714L179.301 387.91C179.301 387.91 188.351 411.31 188.053 421.304C187.756 431.297 184.744 442.778 172.785 443.915C163.826 444.73 152.074 416.714 152.074 416.714Z" fill="#EBEBEB"/>
<path d="M180.866 392.151L175.1 392.358L175.733 391.685L180.646 391.517C180.71 391.724 180.788 391.931 180.866 392.151ZM182.262 396.12L171.169 396.508L170.536 397.18L182.469 396.766C182.391 396.546 182.326 396.326 182.262 396.12ZM183.774 400.774L166.632 401.381L166.011 402.041L183.968 401.407L183.774 400.774ZM185.158 405.389L162.081 406.191L161.447 406.863L185.326 405.945C185.261 405.764 185.209 405.544 185.145 405.337L185.158 405.389ZM186.386 410.005L157.53 411.013L156.897 411.672L186.541 410.638L186.386 410.005ZM187.394 414.62L152.979 415.822L152.346 416.494L187.511 415.266L187.394 414.62ZM188.028 419.261L153.742 420.451C153.833 420.657 153.936 420.877 154.052 421.097L188.054 419.908C188.041 419.649 188.028 419.429 188.015 419.209L188.028 419.261ZM155.992 425.04C156.095 425.247 156.199 425.454 156.315 425.661L187.86 424.562C187.86 424.355 187.86 424.135 187.86 423.915L155.992 425.04ZM158.461 429.604L158.823 430.237L187.162 429.242C187.162 429.035 187.252 428.815 187.291 428.595L158.461 429.604ZM161.253 434.167L161.667 434.788L185.739 433.948C185.83 433.741 185.908 433.521 185.998 433.301L161.253 434.167ZM164.576 438.705C164.757 438.929 164.938 439.136 165.119 439.326L182.999 438.705C183.18 438.485 183.348 438.278 183.516 438.046L164.576 438.705ZM169.618 443.191C170.072 443.444 170.553 443.644 171.053 443.786L174.802 443.657C175.646 443.487 176.473 443.24 177.271 442.92L169.618 443.191Z" fill="#DBDBDB"/>
<path d="M162.081 435.434C160.982 434.025 160.012 432.538 159.055 431.052C158.099 429.565 157.207 428.026 156.328 426.475C155.448 424.924 154.66 423.346 153.936 421.717C153.173 420.106 152.55 418.432 152.074 416.714C152.889 418.304 153.755 419.83 154.66 421.368L157.245 425.997C158.086 427.548 158.939 429.087 159.754 430.664C160.568 432.241 161.344 433.805 162.081 435.434Z" fill="#263238"/>
<path d="M158.396 421.265C159.689 419.701 161.163 418.227 162.559 416.74C163.955 415.253 165.39 413.767 166.825 412.306C169.708 409.384 172.591 406.475 175.526 403.618C176.328 402.829 177.129 402.041 177.944 401.278C178.758 400.515 179.792 399.74 180.659 398.899C180.659 398.835 180.827 398.899 180.762 399.003C180.064 399.74 179.469 400.567 178.797 401.317C178.125 402.067 177.375 402.842 176.651 403.592C175.229 405.066 173.798 406.535 172.359 408.001C169.489 410.922 166.593 413.831 163.632 416.663C161.951 418.266 160.31 419.92 158.538 421.42C158.518 421.439 158.491 421.449 158.463 421.448C158.435 421.446 158.409 421.434 158.39 421.414C158.371 421.393 158.361 421.366 158.362 421.338C158.363 421.31 158.376 421.284 158.396 421.265Z" fill="#263238"/>
<path d="M104.744 354C105.016 355.448 111.428 365.157 119.353 364.342C123.955 363.864 120.413 354.801 120.413 354.801L123.865 342.041L108.144 331.065C108.144 331.065 104.641 353.392 104.744 354Z" fill="#F7A9A0"/>
<path d="M106.877 339.404C108.035 342.661 109.852 345.645 112.214 348.17C114.576 350.695 117.433 352.705 120.607 354.077L123.865 342.041L108.157 331.065C108.157 331.065 107.575 334.84 106.877 339.404Z" fill="#263238"/>
<path d="M141.034 323.593C142.417 345.196 129.631 348.453 124.977 348.751C120.749 349.009 106.321 349.384 102.714 328.066C99.1075 306.747 108.726 299.262 118.358 298.137C127.989 297.012 139.663 302.003 141.034 323.593Z" fill="#F7A9A0"/>
<path d="M136.198 322.649C135.713 322.543 135.234 322.409 134.763 322.248C134.234 322.184 133.741 321.943 133.367 321.563C133.264 321.429 133.209 321.266 133.209 321.097C133.209 320.929 133.264 320.765 133.367 320.632C133.628 320.411 133.942 320.264 134.278 320.205C134.615 320.146 134.96 320.177 135.281 320.296C135.96 320.443 136.563 320.834 136.974 321.395C137.053 321.525 137.095 321.675 137.094 321.828C137.094 321.98 137.051 322.13 136.971 322.259C136.89 322.389 136.776 322.494 136.639 322.563C136.503 322.632 136.351 322.661 136.198 322.649Z" fill="#263238"/>
<path d="M121.37 322.17C121.864 322.123 122.356 322.049 122.843 321.951C123.376 321.946 123.893 321.769 124.317 321.446C124.421 321.311 124.477 321.145 124.477 320.975C124.477 320.804 124.421 320.638 124.317 320.503C124.089 320.251 123.796 320.066 123.47 319.969C123.144 319.871 122.798 319.863 122.469 319.947C121.771 319.995 121.118 320.31 120.646 320.826C120.543 320.953 120.48 321.107 120.465 321.27C120.449 321.432 120.482 321.596 120.56 321.739C120.637 321.883 120.755 322.001 120.9 322.077C121.044 322.154 121.207 322.187 121.37 322.17Z" fill="#263238"/>
<path d="M124.123 327.82C124.123 327.82 123.994 327.885 123.994 327.949C123.994 329.423 123.723 331.104 122.378 331.543V331.634C124.02 331.466 124.304 329.216 124.123 327.82Z" fill="#263238"/>
<path d="M122.856 326.23C120.504 325.958 120.129 330.703 122.313 330.962C124.498 331.22 124.847 326.463 122.856 326.23Z" fill="#263238"/>
<path d="M121.913 326.411C121.473 326.644 121.034 327.083 120.53 327.096C120.025 327.109 119.547 326.579 119.237 326.075C119.237 326.075 119.159 326.075 119.146 326.075C119.069 326.98 119.34 327.936 120.31 328.143C121.279 328.35 121.887 327.587 122.184 326.695C122.21 326.579 122.081 326.32 121.913 326.411Z" fill="#263238"/>
<path d="M133.018 327.859C133.018 327.859 133.122 327.936 133.122 328.001C132.941 329.462 132.992 331.168 134.285 331.776C134.285 331.776 134.285 331.867 134.285 331.854C132.656 331.492 132.617 329.216 133.018 327.859Z" fill="#263238"/>
<path d="M134.453 326.437C136.832 326.437 136.612 331.22 134.453 331.194C132.294 331.169 132.462 326.424 134.453 326.437Z" fill="#263238"/>
<path d="M135.436 326.799C135.798 327.07 136.147 327.536 136.599 327.587C137.052 327.639 137.517 327.148 137.892 326.682C137.892 326.682 137.97 326.682 137.957 326.682C137.957 327.587 137.595 328.518 136.664 328.66C135.733 328.803 135.371 327.975 135.138 327.057C135.151 326.941 135.294 326.695 135.436 326.799Z" fill="#263238"/>
<path d="M124.304 339.132C124.602 339.52 124.899 340.037 125.429 340.154C125.975 340.208 126.525 340.146 127.045 339.973C127.045 339.973 127.136 339.973 127.045 340.063C126.8 340.322 126.489 340.511 126.145 340.608C125.802 340.706 125.438 340.71 125.093 340.619C124.803 340.506 124.554 340.309 124.376 340.053C124.199 339.798 124.102 339.495 124.098 339.184C124.072 339.093 124.188 339.081 124.304 339.132Z" fill="#263238"/>
<path d="M130.769 334.22C130.823 335.288 130.823 336.358 130.769 337.426C130.769 337.529 130.51 337.555 130.161 337.555C129.26 337.656 128.349 337.507 127.526 337.127C126.703 336.746 126.001 336.148 125.494 335.396C125.429 335.293 125.571 335.189 125.662 335.267C126.923 336.254 128.469 336.808 130.07 336.844C130.161 336.56 129.67 333.056 129.838 333.056C130.636 333.183 131.414 333.413 132.152 333.741C131.958 329.113 131.027 324.562 130.859 319.947C130.859 319.792 131.092 319.753 131.131 319.947C132.285 324.802 132.952 329.761 133.121 334.75C133.225 335.344 131.143 334.426 130.769 334.22Z" fill="#263238"/>
<path d="M129.554 336.999C128.977 337.709 128.23 338.261 127.382 338.602C126.912 338.758 126.404 338.758 125.934 338.602C124.886 338.305 124.886 337.309 125.093 336.521C125.213 336.072 125.382 335.639 125.598 335.228C126.69 336.23 128.078 336.851 129.554 336.999Z" fill="#263238"/>
<path d="M127.382 338.602C126.912 338.758 126.404 338.758 125.934 338.602C124.886 338.305 124.886 337.309 125.093 336.521C125.656 336.553 126.19 336.777 126.606 337.156C127.023 337.535 127.297 338.046 127.382 338.602Z" fill="#FF9ABB"/>
<path d="M102.559 328.376C104.951 328.26 111.26 321.744 111.609 310.173C111.609 310.173 110.601 320.516 109.812 322.054C109.023 323.593 113.341 318.382 113.69 309.126C116.609 311.257 119.818 312.959 123.219 314.181C127.614 315.474 130.303 315.474 130.626 315.137C130.95 314.801 124.473 312.707 122.753 310.677C122.753 310.677 134.388 316.249 139.805 316.715C140.439 316.715 141.318 303.929 133.018 298.383C124.718 292.836 111.428 298.589 107.834 301.99C107.834 301.99 103.658 302.533 99.0428 308.66C94.4274 314.788 99.9736 328.544 102.559 328.376Z" fill="#263238"/>
<path d="M113.962 307.898C113.962 307.639 113.522 307.639 113.548 307.898C113.8 312.113 113.175 316.335 111.712 320.296C111.712 320.296 111.712 320.386 111.803 320.296C113.574 316.288 114.699 312.345 113.962 307.898Z" fill="#263238"/>
<path d="M128.946 315.797C122.676 314.982 117.311 312.953 113.135 308.04C113.115 308.025 113.091 308.016 113.066 308.016C113.041 308.016 113.017 308.023 112.996 308.038C112.976 308.052 112.961 308.073 112.953 308.096C112.946 308.12 112.946 308.146 112.954 308.169C116.354 313.56 122.805 315.823 128.92 316.068C129.049 316.03 129.075 315.81 128.946 315.797Z" fill="#263238"/>
<path d="M128.183 328.647L127.666 327.949C128.661 327.122 130.924 326.036 132.41 327.807L131.777 328.402C130.471 326.812 128.312 328.57 128.183 328.647Z" fill="#37474F"/>
<path d="M98.875 331.647L98.0347 331.362C98.1639 330.962 99.4051 327.484 101.318 326.915C103.232 326.346 115.061 325.752 115.539 325.726V326.618C112.126 326.786 102.909 327.329 101.525 327.755C100.142 328.182 99.1982 330.703 98.875 331.647Z" fill="#37474F"/>
<path d="M120.426 332.836C119.17 332.713 117.973 332.238 116.974 331.466C115.048 329.656 114.389 323.709 114.389 323.399V322.817L114.97 322.894C115.423 322.894 125.921 324.187 128.067 326.773C129.23 328.169 128.196 331.181 127.213 332.009C125.959 333.03 123.012 333.263 120.426 332.836ZM115.41 323.903C115.656 325.842 116.38 329.617 117.621 330.794C119.288 332.371 125.145 332.474 126.554 331.285C127.239 330.716 128.041 328.285 127.291 327.406C125.804 325.584 118.694 324.329 115.41 323.903Z" fill="#37474F"/>
<path d="M135.138 332.616C134.142 332.535 133.216 332.072 132.553 331.324C132.096 330.601 131.824 329.779 131.758 328.927C131.693 328.075 131.837 327.22 132.178 326.437C133.471 323.955 139.935 323.58 140.685 323.541H141.254L141.176 324.097C141.176 324.329 140.413 329.798 139.314 331.453C138.952 331.887 138.493 332.229 137.975 332.454C137.456 332.678 136.892 332.778 136.328 332.746C135.929 332.731 135.531 332.687 135.138 332.616ZM140.206 324.498C138.06 324.666 133.846 325.299 133.07 326.838C132.815 327.462 132.708 328.137 132.757 328.81C132.806 329.483 133.011 330.135 133.354 330.716C133.754 331.088 134.228 331.371 134.745 331.547C135.262 331.723 135.81 331.788 136.354 331.737C136.766 331.766 137.18 331.701 137.565 331.549C137.95 331.397 138.295 331.161 138.577 330.858C139.414 328.824 139.962 326.683 140.206 324.498Z" fill="#37474F"/>
<path d="M106.386 327.988C106.386 327.988 101.822 321.136 98.7195 322.817C95.6168 324.498 98.9393 334.297 102.507 335.745C102.953 335.959 103.437 336.081 103.931 336.103C104.425 336.125 104.918 336.047 105.381 335.873C105.844 335.699 106.267 335.433 106.624 335.091C106.981 334.749 107.265 334.338 107.459 333.883L106.386 327.988Z" fill="#F7A9A0"/>
<path d="M99.7407 325.558C99.7407 325.558 99.7407 325.622 99.7407 325.648C102.236 326.734 103.503 329.1 104.382 331.543C104.242 331.287 104.047 331.064 103.812 330.89C103.576 330.716 103.306 330.595 103.019 330.536C102.733 330.477 102.437 330.481 102.152 330.548C101.867 330.614 101.6 330.743 101.37 330.923C101.37 330.923 101.37 331.078 101.37 331.065C101.815 330.928 102.293 330.936 102.734 331.087C103.175 331.238 103.558 331.524 103.826 331.905C104.282 332.538 104.667 333.219 104.977 333.935C105.08 334.155 105.494 334.051 105.416 333.793C105.423 333.772 105.423 333.749 105.416 333.728C105.584 330.509 103.193 325.958 99.7407 325.558Z" fill="#263238"/>
<path d="M126.683 363.282L116.341 400.864C115.901 401.963 116.444 402.881 117.53 402.907L137.039 403.347C137.635 403.314 138.21 403.113 138.697 402.768C139.185 402.422 139.564 401.946 139.793 401.394L150.135 363.812C150.562 362.7 150.019 361.795 148.933 361.769L129.476 361.291C128.867 361.315 128.279 361.516 127.782 361.87C127.286 362.224 126.904 362.714 126.683 363.282Z" fill="#37474F"/>
<path d="M128.998 363.282L118.655 400.864C118.228 401.976 118.758 402.881 119.844 402.907L139.353 403.347C139.948 403.317 140.523 403.118 141.01 402.775C141.498 402.432 141.878 401.958 142.107 401.407L152.449 363.812C152.876 362.713 152.346 361.795 151.247 361.782L131.751 361.33C131.155 361.361 130.579 361.561 130.091 361.907C129.604 362.252 129.225 362.729 128.998 363.282Z" fill="#455A64"/>
<path d="M134.298 365.118C134.279 365.557 134.087 365.97 133.763 366.267C133.439 366.564 133.011 366.72 132.572 366.702C132.133 366.683 131.72 366.49 131.423 366.167C131.126 365.843 130.969 365.415 130.988 364.976C130.998 364.758 131.05 364.545 131.142 364.348C131.233 364.151 131.363 363.973 131.523 363.826C131.684 363.679 131.871 363.565 132.076 363.491C132.28 363.416 132.497 363.383 132.714 363.392C132.932 363.401 133.145 363.453 133.342 363.545C133.539 363.637 133.716 363.767 133.864 363.927C134.011 364.087 134.125 364.275 134.199 364.479C134.274 364.684 134.307 364.901 134.298 365.118Z" fill="#263238"/>
<path d="M56.4188 448.996C64.9643 449.797 75.2681 442.752 101.861 421.536C105.546 418.602 91.8032 387.044 87.7179 389.979C82.5467 393.676 63.3612 409.138 62.1072 410.444C51.4673 421.459 50.614 448.453 56.4188 448.996Z" fill="#F7A9A0"/>
<path d="M78.3191 400.102C78.3191 400.102 85.6752 388.802 91.3766 384.058C97.4062 379.282 104.504 376.039 112.062 374.607C120.245 373.043 141.085 374.917 141.603 381.071C142.055 386.592 120.84 383.592 120.84 383.592C120.84 383.592 142.973 383.075 142.314 389.824C141.654 396.572 117.272 391.724 117.272 391.724C117.272 391.724 140.025 391.724 138.241 398.55C136.884 403.721 114.505 400.554 114.505 400.554C114.505 400.554 134.065 400.67 132.902 406.061C131.609 412.008 110.782 410.379 110.782 410.379C105.533 423.566 97.3494 427.574 91.3895 429.836C89.9415 430.328 78.3191 400.102 78.3191 400.102Z" fill="#F7A9A0"/>
<path d="M113.238 383.23C115.824 383.075 118.409 382.907 121.072 382.985C123.736 383.062 126.244 383.23 128.829 383.541C132.216 383.893 135.551 384.63 138.771 385.738C132.915 384.187 123.606 383.773 120.995 383.696C118.383 383.618 115.824 383.411 113.238 383.334C113.173 383.334 113.173 383.243 113.238 383.23Z" fill="#263238"/>
<path d="M112.799 392.629C116.121 392.629 119.418 392.396 122.753 392.487C126.089 392.577 129.217 392.965 132.501 393.276C132.747 393.276 132.656 393.431 132.398 393.418C129.088 393.237 126.011 393.314 122.702 393.159C119.392 393.004 116.095 392.733 112.786 392.707C112.734 392.707 112.747 392.629 112.799 392.629Z" fill="#263238"/>
<path d="M110.963 400.619C116.063 400.42 121.17 400.741 126.205 401.575C126.451 401.575 126.308 401.756 126.05 401.743C120.995 401.33 117 400.968 110.976 400.8C110.885 400.774 110.859 400.632 110.963 400.619Z" fill="#263238"/>
<path d="M78.1381 395.745L90.6913 434.697C90.6913 434.697 62.4044 453.03 55.7852 448.789C49.166 444.549 52.398 421.64 59.2888 412.59C62.12 408.854 78.1381 395.745 78.1381 395.745Z" fill="#EBEBEB"/>
<path d="M79.6118 400.347L72.3074 400.606L73.1089 399.934L79.405 399.714L79.6118 400.347ZM80.9046 404.316L67.4205 404.794C67.162 405.014 66.9034 405.234 66.6578 405.467L81.0856 404.963L80.9046 404.316ZM82.3784 408.919L62.0941 409.63L61.4089 410.302L82.5853 409.565L82.3784 408.919ZM83.8652 413.534L58.0088 414.439C57.8795 414.646 57.7502 414.866 57.6339 415.085L84.0462 414.167L83.8652 413.534ZM85.339 418.136L55.7205 419.171C55.63 419.378 55.5525 419.597 55.4749 419.817L85.5458 418.77L85.339 418.136ZM86.8128 422.752L54.1433 423.889C54.1433 424.109 54.014 424.329 53.9623 424.549L87.0197 423.398L86.8128 422.752ZM88.2996 427.354L53.0444 428.647L52.928 429.293L88.4935 428.001L88.2996 427.354ZM89.7734 431.97L52.3721 433.262C52.3721 433.482 52.3721 433.702 52.3721 433.909L90.0319 432.616L89.7734 431.97ZM52.1523 437.942C52.1523 438.162 52.1523 438.369 52.1523 438.576L86.3215 437.386C86.7223 437.154 87.0843 436.921 87.4334 436.701L52.1523 437.942ZM52.5531 442.584L52.6695 443.23L77.5821 442.351L78.8749 441.666L52.5531 442.584ZM54.1821 447.173C54.3194 447.4 54.4797 447.612 54.6604 447.807L66.8646 447.38L68.597 446.682L54.1821 447.173Z" fill="#DBDBDB"/>
<path d="M78.5516 397.038L78.0733 395.745H78.1767C75.5911 398.098 72.8762 400.438 70.2647 402.817C67.6532 405.195 65.0934 407.561 62.5078 410.056C61.2439 411.267 60.0647 412.563 58.9784 413.935C57.94 415.332 57.0231 416.816 56.2376 418.369C54.703 421.555 53.6779 424.962 53.1995 428.466C53.3273 424.896 54.1438 421.384 55.6041 418.124C56.3247 416.473 57.2266 414.908 58.2932 413.456C59.388 412.035 60.5757 410.687 61.8484 409.423C64.4341 406.928 67.0197 404.562 69.7346 402.274C72.4495 399.985 75.2291 397.8 78.0992 395.706L78.1767 395.641V395.732L78.5516 397.038Z" fill="#263238"/>
<path d="M72.191 405.803C72.9408 407.703 73.4838 409.681 74.1561 411.633C74.8283 413.586 75.4489 415.512 75.9919 417.503C77.1683 421.381 78.319 425.363 79.4308 429.319C79.7281 430.392 80.0255 431.478 80.3099 432.564C80.5943 433.65 80.7753 434.93 81.0856 436.081C81.0796 436.095 81.0696 436.106 81.057 436.115C81.0444 436.123 81.0296 436.127 81.0145 436.127C80.9994 436.127 80.9846 436.123 80.972 436.115C80.9593 436.106 80.9494 436.095 80.9434 436.081C80.6331 435.124 80.1935 434.206 79.8703 433.249C79.5471 432.293 79.211 431.271 78.9007 430.263C78.2931 428.311 77.6984 426.385 77.1037 424.381C75.9272 420.502 74.7637 416.533 73.7165 412.564C73.1218 410.328 72.4237 408.091 71.9971 405.816C72.003 405.795 72.015 405.777 72.0316 405.764C72.0481 405.751 72.0683 405.743 72.0895 405.741C72.1107 405.74 72.1318 405.745 72.1499 405.756C72.1681 405.767 72.1824 405.783 72.191 405.803Z" fill="#263238"/>
<path d="M90.6912 434.697C90.8981 435.072 90.8722 434.762 90.8205 434.529C90.7688 434.297 90.2387 432.409 89.7733 431.246C89.7733 431.116 89.5277 430.909 89.6182 431.349C89.9182 432.483 90.2763 433.6 90.6912 434.697Z" fill="#263238"/>
<path d="M194.414 103.025C194.414 103.025 187.381 159.366 175.811 172.048C161.926 187.265 151.842 184.977 146.244 192.876C140.633 185.028 130.562 187.265 116.664 172.035C105.029 159.353 98.0605 103.012 98.0605 103.012C128.532 88.2219 146.283 71.648 146.283 71.648C146.787 72.1651 164.382 88.4676 194.414 103.025Z" fill="#00928F"/>
<path opacity="0.1" d="M194.414 103.025C194.414 103.025 187.381 159.366 175.811 172.048C161.926 187.265 151.842 184.977 146.244 192.876V71.648C146.787 72.1651 164.382 88.4676 194.414 103.025Z" fill="black"/>
<path d="M105.533 107.562C105.533 107.562 111.48 155.164 121.24 165.882C132.992 178.745 141.499 176.858 146.244 183.49C150.975 176.858 159.495 178.745 171.234 165.882C181.007 155.164 186.942 107.562 186.942 107.562C161.189 95.0609 146.282 81.0468 146.282 81.0468C146.282 81.0468 131.273 95.0609 105.533 107.562Z" fill="#00928F"/>
<path opacity="0.2" d="M105.533 107.562C105.533 107.562 111.48 155.164 121.253 165.882C132.992 178.745 141.512 176.858 146.244 183.49V81.0468C146.244 81.0468 131.286 95.0609 105.533 107.562Z" fill="white"/>
<path d="M158.435 125.507H134.013V147.666H158.435V125.507Z" fill="white"/>
<path d="M156.004 132.346H153.522V122.456C153.564 121.473 153.406 120.493 153.058 119.573C152.711 118.653 152.181 117.812 151.5 117.103C150.82 116.393 150.003 115.828 149.098 115.442C148.194 115.056 147.22 114.857 146.237 114.857C145.254 114.857 144.28 115.056 143.376 115.442C142.471 115.828 141.654 116.393 140.974 117.103C140.293 117.812 139.763 118.653 139.416 119.573C139.068 120.493 138.911 121.473 138.952 122.456V132.346H136.47V122.456C136.422 121.143 136.639 119.835 137.109 118.608C137.578 117.381 138.29 116.262 139.201 115.316C140.113 114.371 141.206 113.619 142.415 113.105C143.624 112.591 144.924 112.327 146.237 112.327C147.551 112.327 148.85 112.591 150.059 113.105C151.268 113.619 152.361 114.371 153.273 115.316C154.184 116.262 154.896 117.381 155.365 118.608C155.835 119.835 156.052 121.143 156.004 122.456V132.346Z" fill="white"/>
<path d="M147.265 136.858L148.286 141.719H143.955L144.977 136.858C144.664 136.667 144.406 136.399 144.227 136.08C144.049 135.761 143.955 135.401 143.955 135.035C143.95 134.655 144.045 134.281 144.231 133.949C144.416 133.617 144.685 133.34 145.01 133.145C145.336 132.949 145.708 132.843 146.087 132.836C146.467 132.829 146.842 132.922 147.175 133.105C147.508 133.289 147.786 133.556 147.984 133.881C148.181 134.205 148.289 134.576 148.298 134.956C148.307 135.335 148.217 135.711 148.035 136.045C147.854 136.378 147.588 136.659 147.265 136.858Z" fill="#37474F"/>
<path d="M51.1286 255.015C50.3133 255.016 49.5303 254.702 48.9501 254.139L34.5083 240.13C34.2248 239.855 33.9997 239.528 33.846 239.167C33.6924 238.806 33.6133 238.418 33.6133 238.027C33.6133 237.635 33.6924 237.248 33.846 236.887C33.9997 236.525 34.2248 236.198 34.5083 235.923L48.8917 221.971C49.491 221.392 50.2982 221.069 51.1384 221.072C51.9785 221.075 52.7837 221.403 53.3792 221.985C53.9752 222.572 54.31 223.367 54.31 224.196C54.31 225.025 53.9753 225.82 53.3792 226.407L42.6911 236.906C42.3581 237.234 42.1711 237.678 42.1711 238.141C42.1711 238.604 42.3581 239.048 42.6911 239.376L53.3212 249.818C53.7553 250.244 54.0511 250.786 54.1709 251.377C54.2908 251.968 54.2295 252.58 53.9946 253.137C53.7598 253.693 53.3621 254.169 52.8519 254.503C52.3417 254.838 51.7419 255.016 51.1286 255.015V255.015Z" fill="#00928F"/>
<path d="M73.2223 255.015C72.609 255.016 72.0093 254.838 71.4991 254.503C70.9889 254.169 70.5912 253.693 70.3564 253.137C70.1216 252.58 70.0603 251.968 70.1801 251.377C70.3 250.786 70.5957 250.244 71.0298 249.818L81.6591 239.376C81.9921 239.048 82.1791 238.604 82.1791 238.141C82.1791 237.678 81.9921 237.234 81.6591 236.906L70.9718 226.407C70.6762 226.116 70.4418 225.772 70.2818 225.392C70.1219 225.013 70.0395 224.606 70.0396 224.196C70.0396 223.785 70.1219 223.378 70.2819 222.999C70.4418 222.62 70.6763 222.275 70.9719 221.985C71.5673 221.403 72.3724 221.075 73.2125 221.072C74.0526 221.069 74.8598 221.392 75.459 221.971L89.8413 235.923C90.1248 236.198 90.3499 236.525 90.5035 236.887C90.6572 237.248 90.7363 237.635 90.7363 238.027C90.7363 238.418 90.6572 238.806 90.5035 239.167C90.3499 239.528 90.1248 239.855 89.8413 240.13L75.4006 254.139C74.8204 254.702 74.0375 255.016 73.2223 255.015Z" fill="#00928F"/>
<path d="M458.705 221.147C457.699 220.863 456.859 220.492 456.186 220.033C455.512 219.574 454.97 219.047 454.56 218.451C454.149 217.865 453.856 217.221 453.681 216.518C453.515 215.824 453.432 215.092 453.432 214.32V211.347C453.432 210.429 453.227 209.696 452.816 209.149C452.406 208.603 451.742 208.329 450.824 208.329V205.297C451.283 205.297 451.679 205.229 452.011 205.092C452.343 204.945 452.611 204.74 452.816 204.477C453.031 204.213 453.187 203.896 453.285 203.524C453.383 203.153 453.432 202.733 453.432 202.265V199.291C453.432 198.52 453.515 197.787 453.681 197.094C453.856 196.391 454.149 195.746 454.56 195.16C454.97 194.565 455.512 194.042 456.186 193.593C456.859 193.134 457.699 192.763 458.705 192.48L459.525 194.838C459.076 195.004 458.705 195.233 458.412 195.526C458.119 195.81 457.885 196.147 457.709 196.537C457.533 196.918 457.411 197.343 457.343 197.812C457.274 198.28 457.24 198.773 457.24 199.291V202.265C457.24 203.241 457.03 204.125 456.61 204.916C456.2 205.707 455.536 206.337 454.618 206.806C455.526 207.274 456.19 207.909 456.61 208.71C457.03 209.501 457.24 210.38 457.24 211.347V214.32C457.24 214.838 457.274 215.331 457.343 215.8C457.411 216.269 457.533 216.693 457.709 217.074C457.885 217.465 458.119 217.807 458.412 218.1C458.705 218.393 459.076 218.617 459.525 218.773L458.705 221.147Z" fill="#00928F"/>
<path d="M524.31 327.37C524.749 327.214 525.115 326.989 525.408 326.696C525.701 326.403 525.936 326.062 526.112 325.671C526.287 325.29 526.409 324.865 526.478 324.397C526.556 323.928 526.595 323.435 526.595 322.917V319.944C526.595 319.455 526.644 318.986 526.741 318.537C526.849 318.088 527.01 317.668 527.225 317.277C527.449 316.887 527.728 316.535 528.06 316.223C528.402 315.91 528.807 315.642 529.276 315.417C528.338 314.968 527.655 314.343 527.225 313.542C526.805 312.741 526.595 311.848 526.595 310.861V307.888C526.595 307.37 526.556 306.877 526.478 306.408C526.409 305.94 526.287 305.515 526.112 305.134C525.936 304.743 525.701 304.406 525.408 304.123C525.115 303.83 524.749 303.601 524.31 303.435L525.13 301.076C526.136 301.36 526.976 301.731 527.65 302.19C528.323 302.639 528.865 303.161 529.276 303.757C529.686 304.343 529.974 304.987 530.14 305.691C530.316 306.384 530.404 307.116 530.404 307.888V310.861C530.404 311.33 530.452 311.75 530.55 312.121C530.648 312.492 530.799 312.81 531.004 313.073C531.219 313.337 531.492 313.542 531.824 313.689C532.156 313.825 532.552 313.894 533.011 313.894V316.926C532.552 316.926 532.156 316.999 531.824 317.146C531.492 317.282 531.219 317.483 531.004 317.746C530.799 318.01 530.648 318.327 530.55 318.698C530.452 319.069 530.404 319.485 530.404 319.944V322.917C530.404 323.689 530.316 324.421 530.14 325.114C529.974 325.818 529.686 326.462 529.276 327.048C528.865 327.644 528.323 328.171 527.65 328.63C526.976 329.089 526.136 329.46 525.13 329.743L524.31 327.37Z" fill="#00928F"/>
</svg>
