<svg width="18" height="19" viewBox="0 0 18 19" fill="none" xmlns="http://www.w3.org/2000/svg">
<path d="M15.5911 10.6963C15.1496 11.1332 14.4 10.8205 14.4 10.1993C14.4 9.81307 14.0869 9.5 13.7007 9.5H9.1C8.7134 9.5 8.4 9.1866 8.4 8.8V7.825C8.4 7.4384 8.7134 7.125 9.1 7.125H13.7007C14.0869 7.125 14.4 6.81193 14.4 6.42574C14.4 5.80453 15.1496 5.49175 15.5911 5.92871L17.4972 7.81494C17.774 8.08889 17.774 8.53611 17.4972 8.81006L15.5911 10.6963ZM12.6 10.6875C12.9314 10.6875 13.2 10.9561 13.2 11.2875V14.7375C13.2 15.1241 12.8866 15.4375 12.5 15.4375H7.9C7.5134 15.4375 7.2 15.7509 7.2 16.1375V17.8726C7.2 18.3917 6.65482 18.7303 6.18957 18.5L0.389567 15.6303C0.150982 15.5122 0 15.269 0 15.0029V0.7C0 0.3134 0.313401 0 0.7 0H12.5C12.8866 0 13.2 0.313401 13.2 0.7V5.3375C13.2 5.66887 12.9314 5.9375 12.6 5.9375C12.2686 5.9375 12 5.66887 12 5.3375V1.8875C12 1.5009 11.6866 1.1875 11.3 1.1875H5.39318C4.65294 1.1875 4.41928 2.18662 5.08275 2.5149L6.81043 3.36975C7.04902 3.4878 7.2 3.73095 7.2 3.99715V13.55C7.2 13.9366 7.5134 14.25 7.9 14.25H11.3C11.6866 14.25 12 13.9366 12 13.55V11.2875C12 10.9561 12.2686 10.6875 12.6 10.6875Z" fill="#004948"/>
</svg>
