<svg width="43" height="28" viewBox="0 0 43 28" fill="none" xmlns="http://www.w3.org/2000/svg">
<path d="M3.97656 17H3.2793C2.54102 17 1.97852 16.8438 1.5918 16.5312C1.20898 16.2148 1.01758 15.75 1.01758 15.1367C1.01758 14.6445 1.12305 14.1797 1.33398 13.7422C1.52539 13.3398 1.76953 13.0371 2.06641 12.834C2.36328 12.627 2.70898 12.5234 3.10352 12.5234C4.37695 12.5234 5.0957 13.5801 5.25977 15.6934H5.75195C5.80664 15.6934 5.85156 15.709 5.88672 15.7402C5.92188 15.7715 5.94531 15.8223 5.95703 15.8926C5.97266 15.9629 5.98047 16.0234 5.98047 16.0742C5.98438 16.1211 5.98633 16.1914 5.98633 16.2852C5.98633 16.2969 5.98633 16.3047 5.98633 16.3086V16.3672C5.98633 16.375 5.98633 16.3867 5.98633 16.4023C5.98633 16.4648 5.98633 16.5137 5.98633 16.5488C5.98633 16.5801 5.98438 16.623 5.98047 16.6777C5.97656 16.7324 5.96875 16.7754 5.95703 16.8066C5.94531 16.8379 5.93164 16.8711 5.91602 16.9062C5.90039 16.9375 5.87891 16.9609 5.85156 16.9766C5.82422 16.9922 5.79102 17 5.75195 17L5.17188 16.9941C4.83984 18.5879 3.64062 19.582 1.57422 19.9766L1.47461 19.9941L1.43945 19.9004L1.07617 18.9746L1.02344 18.8457L1.16406 18.8164C1.94922 18.6719 2.57422 18.4473 3.03906 18.1426C3.50391 17.8379 3.81641 17.457 3.97656 17ZM4.04102 15.6875C3.94336 14.4766 3.60742 13.8691 3.0332 13.8652C2.7207 13.8613 2.49023 14.0703 2.3418 14.4922C2.27539 14.6836 2.24219 14.8691 2.24219 15.0488C2.24219 15.2637 2.31836 15.4238 2.4707 15.5293C2.62695 15.6348 2.87695 15.6875 3.2207 15.6875H4.04102ZM11.5117 10.0215L12.3613 9.17188L12.4082 9.125L12.4492 9.17188L13.3105 10.0273L13.3516 10.0742L13.3105 10.1152L12.4551 10.9707L12.4141 11.0117L12.3672 10.9707L11.5117 10.1094L11.4648 10.0684L11.5117 10.0215ZM15.0801 14.3984C15.0801 14.6211 15.0508 14.834 14.9922 15.0371C14.9336 15.2402 14.8457 15.4336 14.7285 15.6172C14.8105 15.6406 14.9297 15.6582 15.0859 15.6699C15.2461 15.6816 15.4414 15.6875 15.6719 15.6875H15.7773C15.8164 15.6875 15.8496 15.6953 15.877 15.7109C15.9082 15.7266 15.9316 15.752 15.9473 15.7871C15.9629 15.8184 15.9746 15.8477 15.9824 15.875C15.9941 15.9023 16.002 15.9434 16.0059 15.998C16.0098 16.0527 16.0117 16.0957 16.0117 16.127C16.0117 16.1543 16.0117 16.1973 16.0117 16.2559V16.3672C16.0117 16.375 16.0117 16.3887 16.0117 16.4082C16.0117 16.502 16.0098 16.5742 16.0059 16.625C16.0059 16.6719 15.998 16.7305 15.9824 16.8008C15.9707 16.8711 15.9473 16.9219 15.9121 16.9531C15.8809 16.9844 15.8359 17 15.7773 17H15.6367C14.7227 17 14.0449 16.8359 13.6035 16.5078C12.9707 16.8359 12.0137 17 10.7324 17H10.4336C9.07422 17 8.18164 16.7422 7.75586 16.2266C7.31055 16.7422 6.65039 17 5.77539 17H5.67578C5.52344 17 5.41016 16.9434 5.33594 16.8301C5.25781 16.7129 5.21875 16.5586 5.21875 16.3672V16.2559C5.21875 16.084 5.25781 15.9473 5.33594 15.8457C5.41406 15.7402 5.52734 15.6875 5.67578 15.6875H5.76953C6.1875 15.6875 6.50391 15.6309 6.71875 15.5176C6.93359 15.4004 7.0625 15.2305 7.10547 15.0078C7.14844 14.7852 7.1543 14.4492 7.12305 14L7.09375 13.5195L7.08203 13.4082L7.19336 13.3965L8.16016 13.2793L8.2832 13.2676L8.28906 13.3906L8.39453 14.75C8.40234 14.8555 8.41602 14.9512 8.43555 15.0371C8.45508 15.123 8.47656 15.1953 8.5 15.2539C8.52734 15.3125 8.55664 15.3613 8.58789 15.4004C8.62305 15.4395 8.6582 15.4688 8.69336 15.4883C10.0566 13.2266 11.4141 12.1074 12.7656 12.1309C13.0664 12.1348 13.3418 12.1797 13.5918 12.2656C13.8457 12.3516 14.0723 12.4766 14.2715 12.6406C14.5371 12.8633 14.7363 13.123 14.8691 13.4199C15.0059 13.7129 15.0762 14.0391 15.0801 14.3984ZM12.7773 13.4551C12.3789 13.4512 11.9531 13.6348 11.5 14.0059C11.0469 14.373 10.5723 14.9336 10.0762 15.6875L10.709 15.6816C12.752 15.6816 13.7754 15.2715 13.7793 14.4512C13.7793 14.3887 13.7754 14.3301 13.7676 14.2754C13.7598 14.2207 13.748 14.168 13.7324 14.1172C13.7168 14.0664 13.6973 14.0195 13.6738 13.9766C13.6543 13.9297 13.6289 13.8867 13.5977 13.8477C13.5703 13.8086 13.5371 13.7715 13.498 13.7363C13.459 13.7012 13.418 13.668 13.375 13.6367C13.207 13.5195 13.0078 13.459 12.7773 13.4551ZM20.7754 13.5488C20.541 13.3574 20.3105 13.2148 20.084 13.1211C19.8574 13.0234 19.6309 12.9746 19.4043 12.9746C19.3457 12.9746 19.2891 12.9766 19.2344 12.9805C19.1797 12.9805 19.125 12.9863 19.0703 12.998C19.0195 13.0059 18.9688 13.0156 18.918 13.0273C18.8711 13.0391 18.8242 13.0527 18.7773 13.0684C18.6836 13.1035 18.5977 13.1465 18.5195 13.1973C18.4414 13.2441 18.3691 13.2988 18.3027 13.3613C18.1777 13.4863 18.082 13.627 18.0156 13.7832C18 13.8184 17.9863 13.8574 17.9746 13.9004C17.9629 13.9395 17.9531 13.9805 17.9453 14.0234C17.9375 14.0664 17.9316 14.1113 17.9277 14.1582C17.9238 14.2012 17.9219 14.2461 17.9219 14.293C17.9219 14.5312 17.9902 14.7441 18.127 14.9316C18.2676 15.1191 18.4824 15.2832 18.7715 15.4238C18.8105 15.4434 18.8418 15.457 18.8652 15.4648L21.3965 14.8262L21.543 14.7852V14.9375V16.0156V16.0977L21.4609 16.127C19.5898 16.709 17.8672 17 16.293 17H15.7539C15.6016 17 15.4883 16.9434 15.4141 16.8301C15.3359 16.7129 15.2969 16.5586 15.2969 16.3672V16.2559C15.2969 16.1699 15.3066 16.0938 15.3262 16.0273C15.3457 15.957 15.375 15.8965 15.4141 15.8457C15.4492 15.7949 15.4961 15.7559 15.5547 15.7285C15.6133 15.7012 15.6797 15.6875 15.7539 15.6875H17.1426C17.1191 15.6562 17.0957 15.625 17.0723 15.5938C17.0527 15.5625 17.0312 15.5312 17.0078 15.5C16.8945 15.3242 16.8086 15.1309 16.75 14.9199C16.6914 14.709 16.6641 14.4805 16.668 14.2344C16.6719 13.5664 16.8535 13.0059 17.2129 12.5527C17.4082 12.3066 17.6504 12.1055 17.9395 11.9492C18.3184 11.7461 18.7598 11.6465 19.2637 11.6504C20.0996 11.6543 20.7871 11.9375 21.3262 12.5L21.3848 12.5586L21.3496 12.6289L20.957 13.5078L20.8926 13.6484L20.7754 13.5488Z" fill="#004948"/>
<path d="M34 13.5C34.6922 13.5 35.3689 13.2947 35.9445 12.9101C36.5201 12.5256 36.9687 11.9789 37.2336 11.3394C37.4985 10.6999 37.5678 9.99612 37.4327 9.31719C37.2977 8.63825 36.9644 8.01461 36.4749 7.52513C35.9854 7.03564 35.3618 6.7023 34.6828 6.56725C34.0039 6.4322 33.3001 6.50152 32.6606 6.76642C32.0211 7.03133 31.4744 7.47993 31.0899 8.05551C30.7053 8.63108 30.5 9.30777 30.5 10C30.5 10.9283 30.8687 11.8185 31.5251 12.4749C32.1815 13.1313 33.0717 13.5 34 13.5ZM34 7.5C34.4945 7.5 34.9778 7.64662 35.3889 7.92133C35.8 8.19603 36.1205 8.58648 36.3097 9.04329C36.4989 9.50011 36.5484 10.0028 36.452 10.4877C36.3555 10.9727 36.1174 11.4181 35.7678 11.7678C35.4181 12.1174 34.9727 12.3555 34.4877 12.452C34.0028 12.5484 33.5001 12.4989 33.0433 12.3097C32.5865 12.1205 32.196 11.8 31.9213 11.3889C31.6466 10.9778 31.5 10.4945 31.5 10C31.5 9.33696 31.7634 8.70108 32.2322 8.23223C32.7011 7.76339 33.337 7.5 34 7.5Z" fill="#004948"/>
<path d="M40.235 17.1849C39.4332 16.3374 38.4669 15.6624 37.3953 15.201C36.3237 14.7397 35.1692 14.5017 34.0025 14.5017C32.8358 14.5017 31.6813 14.7397 30.6097 15.201C29.5381 15.6624 28.5718 16.3374 27.77 17.1849C27.5962 17.3706 27.4996 17.6155 27.5 17.8699V20.4999C27.5 20.7651 27.6054 21.0195 27.7929 21.207C27.9804 21.3945 28.2348 21.4999 28.5 21.4999H39.5C39.7652 21.4999 40.0196 21.3945 40.2071 21.207C40.3946 21.0195 40.5 20.7651 40.5 20.4999V17.8699C40.5018 17.6162 40.407 17.3714 40.235 17.1849ZM39.5 20.4999H28.5V17.8649C29.2086 17.1187 30.0616 16.5246 31.0072 16.1185C31.9527 15.7125 32.971 15.5031 34 15.5031C35.029 15.5031 36.0473 15.7125 36.9928 16.1185C37.9384 16.5246 38.7914 17.1187 39.5 17.8649V20.4999Z" fill="#004948"/>
</svg>
