<svg width="580" height="540" viewBox="0 0 580 540" fill="none" xmlns="http://www.w3.org/2000/svg">
<path d="M560.495 285.695C563.401 245.481 554.422 203.495 542.392 166.126C524.594 110.488 489.842 53.4733 431.436 40.3055C397.758 32.7378 363.485 40.8504 334.602 59.8604C306.837 78.1439 285.204 101.77 251.047 106.341C216.512 110.973 181.076 109.111 146.367 109.111C57.1166 109.111 -15.3093 206.78 2.79356 308.52C20.8964 410.26 106.267 480.806 178.693 480.806C243.782 480.806 297.335 440.137 359.155 429.209C389.811 423.791 420.597 430.208 450.933 422.095C486.195 412.651 519.349 390.145 538.891 357.558C552.199 335.339 558.679 310.866 560.495 285.695Z" fill="#00928F"/>
<path opacity="0.7" d="M560.495 285.695C563.401 245.481 554.422 203.495 542.392 166.126C524.594 110.488 489.842 53.4733 431.436 40.3055C397.758 32.7378 363.485 40.8504 334.602 59.8604C306.837 78.1439 285.204 101.77 251.047 106.341C216.512 110.973 181.076 109.111 146.367 109.111C57.1166 109.111 -15.3093 206.78 2.79356 308.52C20.8964 410.26 106.267 480.806 178.693 480.806C243.782 480.806 297.335 440.137 359.155 429.209C389.811 423.791 420.597 430.208 450.933 422.095C486.195 412.651 519.349 390.145 538.891 357.558C552.199 335.339 558.679 310.866 560.495 285.695Z" fill="white"/>
<path d="M550.049 271.574C550.049 271.574 550.049 264.006 539.879 253.518C529.708 243.029 523.258 236.944 523.258 236.944C523.258 236.944 518.202 254.259 527.616 264.809C534.528 272.218 542.022 279.012 550.02 285.12L550.049 271.574Z" fill="#00928F"/>
<path d="M535.375 318.585C535.375 318.585 535.375 311.017 525.205 300.528C515.035 290.039 508.613 283.955 508.613 283.955C508.613 283.955 503.542 301.27 512.972 311.819C519.883 319.228 527.377 326.022 535.375 332.131V318.585Z" fill="#00928F"/>
<path d="M549.41 284.394C549.41 284.394 550.18 276.917 561.309 267.548C572.438 258.179 579.513 252.912 579.513 252.912C579.513 252.912 582.782 270.681 572.38 280.156C564.756 286.765 556.616 292.698 548.044 297.895L549.41 284.394Z" fill="#00928F"/>
<path d="M531.684 339.91C531.684 339.91 533.137 332.555 545.211 324.457C557.284 316.36 564.781 311.895 564.781 311.895C564.781 311.895 566.234 329.936 554.945 338.185C546.696 343.924 538.002 348.936 528.953 353.169L531.684 339.91Z" fill="#00928F"/>
<path d="M535.011 400.452C535.011 400.452 535.011 392.884 545.181 382.38C555.352 371.876 561.788 365.822 561.788 365.822C561.788 365.822 566.858 383.137 557.429 393.671C550.521 401.088 543.027 407.887 535.026 413.998L535.011 400.452Z" fill="#00928F"/>
<path d="M534.852 415.224C534.852 415.224 535.869 407.778 527.297 395.851C518.725 383.924 513.102 376.992 513.102 376.992C513.102 376.992 505.736 393.384 513.596 405.205C519.422 413.564 525.91 421.402 532.992 428.634L534.852 415.224Z" fill="#00928F"/>
<path d="M524.87 459.011C524.87 459.011 524.87 451.443 535.04 440.954C545.211 430.465 551.661 424.381 551.661 424.381C551.661 424.381 556.717 441.696 547.303 452.245C540.389 459.657 532.896 466.456 524.899 472.572L524.87 459.011Z" fill="#00928F"/>
<path d="M531.626 498.711C531.626 498.711 529.795 491.43 537.016 478.565C544.237 465.7 549.075 458.163 549.075 458.163C549.075 458.163 558.17 473.571 551.647 486.254C546.766 495.246 541.173 503.797 534.924 511.818L531.626 498.711Z" fill="#00928F"/>
<path d="M550.964 269.652C550.456 277.488 549.534 285.29 548.204 293.021C544.194 314.543 534.198 328.438 530.202 347.871C526.207 367.305 537.685 392.354 534.561 417.328C531.437 442.301 522.168 456.18 524.827 472.844C527.486 489.508 541.491 534.642 541.491 534.642" stroke="#263238" stroke-linecap="round" stroke-linejoin="round"/>
<path d="M549.322 289.403L560.219 280.686" stroke="#263238" stroke-linecap="round" stroke-linejoin="round"/>
<path d="M549.831 279.369L545.254 270.908" stroke="#263238" stroke-linecap="round" stroke-linejoin="round"/>
<path d="M530.813 346.979C530.813 346.979 539.937 339.85 549.322 332.721" stroke="#263238" stroke-linecap="round" stroke-linejoin="round"/>
<path d="M535.375 332.131C535.375 332.131 527.762 316.602 519.146 306.31" stroke="#263238" stroke-linecap="round" stroke-linejoin="round"/>
<path d="M535.375 411.168C540.579 401.147 547.157 391.97 554.901 383.924" stroke="#263238" stroke-linecap="round" stroke-linejoin="round"/>
<path d="M533.602 421.732C530.833 414.938 527.524 408.397 523.708 402.177C518.39 393.989 517.62 392.93 517.62 392.93" stroke="#263238" stroke-linecap="round" stroke-linejoin="round"/>
<path d="M524.87 472.845C527.187 466.879 529.936 461.106 533.094 455.575C536.253 450.435 539.815 445.575 543.743 441.045" stroke="#263238" stroke-linecap="round" stroke-linejoin="round"/>
<path d="M534.924 511.818C534.395 506.114 535.338 500.366 537.656 495.169C541.462 487.511 545.763 477.476 547.535 473.51" stroke="#263238" stroke-linecap="round" stroke-linejoin="round"/>
<path d="M467.496 372.149C467.496 372.149 466.712 367.426 471.957 359.662C477.202 351.898 480.674 347.402 480.674 347.402C480.674 347.402 485.643 357.694 480.848 365.353C477.287 370.785 473.297 375.899 468.92 380.64L467.496 372.149Z" fill="#00928F"/>
<path d="M481.604 399.968C481.604 399.968 480.819 395.246 486.064 387.481C491.309 379.717 494.781 375.221 494.781 375.221C494.781 375.221 499.75 385.513 494.956 393.187C491.392 398.613 487.402 403.721 483.027 408.459L481.604 399.968Z" fill="#00928F"/>
<path d="M469.225 380.11C469.225 380.11 467.976 375.569 460.014 370.893C452.052 366.216 447.083 363.764 447.083 363.764C447.083 363.764 446.88 375.282 454.348 380.034C459.815 383.313 465.535 386.113 471.448 388.404L469.225 380.11Z" fill="#00928F"/>
<path d="M486.137 412.923C486.137 412.923 484.422 408.474 476.054 404.75C467.685 401.027 462.455 399.09 462.455 399.09C462.455 399.09 463.414 410.562 471.375 414.467C477.145 417.13 483.117 419.287 489.231 420.915L486.137 412.923Z" fill="#00928F"/>
<path d="M490.35 451.261C490.35 451.261 489.58 446.539 482.127 441.075C474.674 435.611 469.981 432.569 469.981 432.569C469.981 432.569 468.615 443.996 475.604 449.536C480.709 453.409 486.118 456.826 491.774 459.752L490.35 451.261Z" fill="#00928F"/>
<path d="M492.006 460.509C492.006 460.509 490.553 455.969 494.723 447.493C498.893 439.017 501.653 434.068 501.653 434.068C501.653 434.068 507.973 443.512 504.283 451.821C501.503 457.72 498.251 463.366 494.563 468.697L492.006 460.509Z" fill="#00928F"/>
<path d="M504.705 498.575C504.705 498.575 505.228 493.822 512.361 487.98C519.495 482.138 523.984 478.762 523.984 478.762C523.984 478.762 525.975 490.099 519.306 496.047C514.422 500.211 509.212 503.942 503.731 507.202L504.705 498.575Z" fill="#00928F"/>
<path d="M502.801 486.829C502.801 486.829 502.017 482.107 494.578 476.643C487.139 471.179 482.461 468.137 482.461 468.137C482.461 468.137 481.095 479.564 488.084 485.119C493.193 488.986 498.601 492.403 504.254 495.335L502.801 486.829Z" fill="#00928F"/>
<path d="M502.801 512.499C502.801 512.499 503.179 507.716 497.309 500.467C491.44 493.217 487.633 489.039 487.633 489.039C487.633 489.039 483.521 499.725 488.941 506.944C492.913 512.029 497.287 516.757 502.017 521.081L502.801 512.499Z" fill="#00928F"/>
<path d="M466.726 371.029C467.863 375.887 469.255 380.677 470.896 385.377C475.647 398.424 483.361 406.007 487.894 417.737C492.427 429.466 487.894 446.494 492.369 461.796C496.844 477.098 504.254 484.756 504.254 495.502C504.254 506.248 500.244 536.141 500.244 536.141" stroke="#263238" stroke-linecap="round" stroke-linejoin="round"/>
<path d="M469.821 383.228L462.077 379.005" stroke="#263238" stroke-linecap="round" stroke-linejoin="round"/>
<path d="M468.455 376.992L470.431 371.18" stroke="#263238" stroke-linecap="round" stroke-linejoin="round"/>
<path d="M487.415 417.252C487.415 417.252 480.95 413.817 474.339 410.396" stroke="#263238" stroke-linecap="round" stroke-linejoin="round"/>
<path d="M483.013 408.458C484.919 402.222 487.426 396.203 490.495 390.493" stroke="#263238" stroke-linecap="round" stroke-linejoin="round"/>
<path d="M491.251 458.012C486.94 452.328 481.86 447.327 476.17 443.164" stroke="#263238" stroke-linecap="round" stroke-linejoin="round"/>
<path d="M493.459 464.429C494.493 459.862 495.888 455.392 497.629 451.064C500.113 445.328 500.535 444.571 500.535 444.571" stroke="#263238" stroke-linecap="round" stroke-linejoin="round"/>
<path d="M503.905 503.66C506.425 500.408 509.216 497.394 512.245 494.655C514.172 493.176 515.98 491.536 517.65 489.751" stroke="#263238" stroke-linecap="round" stroke-linejoin="round"/>
<path d="M504.254 495.502C502.178 492.014 499.852 488.695 497.295 485.573C494.776 482.71 492.036 480.067 489.101 477.673" stroke="#263238" stroke-linecap="round" stroke-linejoin="round"/>
<path d="M502.017 521.081C501.757 517.442 500.568 513.94 498.573 510.94C495.392 506.566 491.643 500.754 490.118 498.469" stroke="#263238" stroke-linecap="round" stroke-linejoin="round"/>
<path d="M54.8356 306.219L48.472 287.285L54.8356 295.321L49.8378 266.912L57.5671 287.285L60.2985 247.494L64.846 285.377L69.8439 277.81V287.285L75.7571 274.495L72.5753 296.744L78.0236 292.96L69.3935 305.265L54.8356 306.219Z" fill="#00928F"/>
<path d="M74.8416 301.482H51.2032L55.4602 351.201H70.5846L74.8416 301.482Z" fill="#263238" stroke="#263238" stroke-linecap="round" stroke-linejoin="round"/>
<path d="M119.184 350.641H38.6506V528.33H119.184V350.641Z" fill="white" stroke="#263238" stroke-linecap="round" stroke-linejoin="round"/>
<path d="M123.586 350.641H78.9098V528.33H123.586V350.641Z" fill="white" stroke="#263238" stroke-linecap="round" stroke-linejoin="round"/>
<path d="M118.559 350.641H78.9098V528.33H118.559V350.641Z" fill="#263238" stroke="#263238" stroke-linecap="round" stroke-linejoin="round"/>
<path d="M114.098 487.011H78.9098V523.396H114.098V487.011Z" fill="#00928F" stroke="#263238" stroke-linecap="round" stroke-linejoin="round"/>
<path d="M114.098 488.979H78.9098V493.64H114.098V488.979Z" fill="white" stroke="#263238" stroke-linecap="round" stroke-linejoin="round"/>
<path d="M114.098 515.768H78.9098V520.43H114.098V515.768Z" fill="white" stroke="#263238" stroke-linecap="round" stroke-linejoin="round"/>
<path d="M85.5786 487.768V533.779" stroke="#263238" stroke-linecap="round" stroke-linejoin="round"/>
<path d="M97.8553 487.768V533.779" stroke="#263238" stroke-linecap="round" stroke-linejoin="round"/>
<path d="M108.635 487.768V533.779" stroke="#263238" stroke-linecap="round" stroke-linejoin="round"/>
<path d="M114.098 357.24H78.9098V410.744H114.098V357.24Z" fill="#00928F" stroke="#263238" stroke-linecap="round" stroke-linejoin="round"/>
<path d="M114.098 359.48H78.9098V364.778H114.098V359.48Z" fill="white" stroke="#263238" stroke-linecap="round" stroke-linejoin="round"/>
<path d="M114.098 393.777H78.9098V399.074H114.098V393.777Z" fill="white" stroke="#263238" stroke-linecap="round" stroke-linejoin="round"/>
<path d="M85.5786 358.088V410.381" stroke="#263238" stroke-linecap="round" stroke-linejoin="round"/>
<path d="M97.8553 358.088V410.381" stroke="#263238" stroke-linecap="round" stroke-linejoin="round"/>
<path d="M108.635 358.088V410.381" stroke="#263238" stroke-linecap="round" stroke-linejoin="round"/>
<path d="M114.098 421.717H78.9098V475.221H114.098V421.717Z" fill="#00928F" stroke="#263238" stroke-linecap="round" stroke-linejoin="round"/>
<path d="M114.098 423.957H78.9098V429.255H114.098V423.957Z" fill="white" stroke="#263238" stroke-linecap="round" stroke-linejoin="round"/>
<path d="M114.098 458.254H78.9098V463.551H114.098V458.254Z" fill="white" stroke="#263238" stroke-linecap="round" stroke-linejoin="round"/>
<path d="M85.5786 422.58V474.857" stroke="#263238" stroke-linecap="round" stroke-linejoin="round"/>
<path d="M97.8553 422.58V474.857" stroke="#263238" stroke-linecap="round" stroke-linejoin="round"/>
<path d="M108.635 422.58V474.857" stroke="#263238" stroke-linecap="round" stroke-linejoin="round"/>
<path d="M119.169 410.002H78.9098V416.087H119.169V410.002Z" fill="white" stroke="#263238" stroke-linecap="round" stroke-linejoin="round"/>
<path d="M119.169 474.888H78.9098V480.972H119.169V474.888Z" fill="white" stroke="#263238" stroke-linecap="round" stroke-linejoin="round"/>
<path d="M119.169 350.641V528.315" stroke="#263238" stroke-linecap="round" stroke-linejoin="round"/>
<path d="M73.2291 350.641V528.316H78.9099V357.24H118.472V350.566L73.2291 350.641Z" fill="white" stroke="#263238" stroke-linecap="round" stroke-linejoin="round"/>
<path d="M78.9098 357.24V350.641" stroke="#263238" stroke-linecap="round" stroke-linejoin="round"/>
<path d="M118.864 269.016C114.636 260.525 112.863 254.441 112.863 253.033C112.863 250.248 118.675 248.583 118.675 248.583C127.741 243.589 170.383 250.808 189.575 254.138C200.319 256.089 211.188 257.202 222.09 257.468C222.09 257.468 224.749 255.258 227.902 252.473C231.055 249.688 246.019 231.375 251.889 229.77C257.759 228.166 263.076 231.995 263.076 231.995C263.076 231.995 272.68 238.049 271.067 239.215C269.454 240.38 246.019 261.418 240.15 265.308C234.28 269.198 222.032 267.533 211.368 269.758C202.186 271.665 164.992 274.026 156.464 274.753C150.059 276.335 143.337 275.752 137.271 273.088" fill="#EB9481"/>
<path d="M263.178 231.934C263.178 231.934 257.846 228.045 251.991 229.71C246.136 231.374 231.2 249.703 228.004 252.413C224.807 255.122 222.192 257.407 222.192 257.407C211.289 257.142 200.421 256.029 189.677 254.077C170.484 250.748 127.842 243.483 118.776 248.523C118.776 248.523 112.965 250.188 112.965 252.973C113.167 254.53 113.552 256.055 114.113 257.513L114.912 257.816C114.912 257.816 125.561 256.651 148.546 257.226C171.53 257.801 224.691 261.085 228.105 262.372C229.558 262.947 239.859 260.525 251.279 256.318C259.996 248.916 270.239 239.669 271.27 239.018C272.781 238.034 263.178 231.934 263.178 231.934Z" fill="#EB9481"/>
<path opacity="0.5" d="M263.178 231.934C263.178 231.934 257.846 228.045 251.991 229.71C246.136 231.374 231.2 249.703 228.004 252.413C224.807 255.122 222.192 257.407 222.192 257.407C211.289 257.142 200.421 256.029 189.677 254.077C170.484 250.748 127.842 243.483 118.776 248.523C118.776 248.523 112.965 250.188 112.965 252.973C113.167 254.53 113.552 256.055 114.113 257.513L114.912 257.816C114.912 257.816 125.561 256.651 148.546 257.226C171.53 257.801 224.691 261.085 228.105 262.372C229.558 262.947 239.859 260.525 251.279 256.318C259.996 248.916 270.239 239.669 271.27 239.018C272.781 238.034 263.178 231.934 263.178 231.934Z" fill="white"/>
<path d="M118.864 269.016C114.636 260.525 112.863 254.441 112.863 253.033C112.863 250.248 118.675 248.583 118.675 248.583C127.741 243.589 170.383 250.808 189.575 254.138C200.319 256.089 211.188 257.202 222.09 257.468C222.09 257.468 224.749 255.258 227.902 252.473C231.055 249.688 246.019 231.375 251.889 229.77C257.759 228.166 263.076 231.995 263.076 231.995C263.076 231.995 272.68 238.049 271.067 239.215C269.454 240.38 246.019 261.418 240.15 265.308C234.28 269.198 222.032 267.533 211.368 269.758C202.186 271.665 164.992 274.026 156.464 274.753C150.059 276.335 143.337 275.752 137.271 273.088" stroke="#263238" stroke-linecap="round" stroke-linejoin="round"/>
<path d="M329.4 318.388C330.364 316.481 331.811 314.885 333.583 313.773C335.355 312.66 337.385 312.074 339.454 312.076H436.361C436.361 312.076 443.364 312.076 441.271 325.94C439.179 339.804 410.441 424.457 403.497 450.051C396.552 475.645 395.085 529.587 395.085 529.587H278.854C278.854 529.587 288.066 400.588 329.4 318.388Z" fill="white"/>
<path opacity="0.16" d="M373.044 312.076H339.454C337.385 312.074 335.355 312.66 333.583 313.773C331.811 314.885 330.364 316.481 329.4 318.388C288.066 400.588 278.753 529.542 278.753 529.542H330.882L343.74 478.672L397.351 490.19C397.729 485.921 398.165 481.578 398.673 477.294L397.496 463.672C397.496 463.672 386.512 451.64 383.055 448.628C379.597 445.616 381.892 440.182 381.311 416.707C380.73 393.232 360.506 376.356 352.98 361.902C345.454 347.448 357.034 338.412 367.436 323.958C371.141 318.736 372.652 314.892 373.044 312.076Z" fill="black"/>
<path d="M329.4 318.388C330.364 316.481 331.811 314.885 333.583 313.773C335.355 312.66 337.385 312.074 339.454 312.076H436.361C436.361 312.076 443.364 312.076 441.271 325.94C439.179 339.804 410.441 424.457 403.497 450.051C396.552 475.644 395.085 529.587 395.085 529.587H278.854C278.854 529.587 288.066 400.588 329.4 318.388Z" stroke="#263238" stroke-linecap="round" stroke-linejoin="round"/>
<path d="M419.551 336.157C409.759 359.965 389.041 454.213 385.67 529.542H395.026C395.026 529.542 396.479 475.539 403.439 450.005C410.398 424.472 439.165 339.804 441.213 325.895C443.262 311.986 436.303 312.031 436.303 312.031C436.303 312.031 427.411 317.071 419.551 336.157Z" fill="#263238" stroke="#263238" stroke-linecap="round" stroke-linejoin="round"/>
<path d="M249.317 288.571C249.317 288.571 233.859 279.127 228.004 262.478C222.149 245.829 273.842 219.16 296.289 217.496C318.736 215.831 325.07 221.93 338.422 245.814C351.774 269.697 360.811 302.45 353.881 318.554C346.951 334.659 335.226 338.548 343.711 351.852C352.196 365.156 376.226 402.934 374.628 420.703C373.03 438.472 356.511 454.001 332.495 455.696C308.478 457.391 276.515 442.362 249.869 417.858C223.224 393.354 230.139 357.316 239.699 345.662C249.259 334.008 263.686 329.558 264.747 317.904C265.807 306.249 249.317 288.571 249.317 288.571Z" fill="#263238" stroke="#263238" stroke-linecap="round" stroke-linejoin="round"/>
<path d="M315.205 262.22C323.414 278.143 333.686 299.469 336.897 312.349C342.505 334.901 313.651 349.098 321.656 359.95" stroke="white" stroke-linecap="round" stroke-linejoin="round"/>
<path d="M304.018 241.364C304.018 241.364 307.215 247.04 311.631 255.394" stroke="white" stroke-linecap="round" stroke-linejoin="round"/>
<path d="M347.081 281.427C348.028 284.412 348.643 287.499 348.912 290.63" stroke="white" stroke-linecap="round" stroke-linejoin="round"/>
<path d="M309.568 233.085C309.568 233.085 334.819 252.519 344.902 275.782" stroke="white" stroke-linecap="round" stroke-linejoin="round"/>
<path d="M274.525 247.66C256.495 252.927 230.561 261.479 232.667 266.413" stroke="white" stroke-linecap="round" stroke-linejoin="round"/>
<path d="M291.189 243.029C291.189 243.029 287.339 244.028 281.6 245.632" stroke="white" stroke-linecap="round" stroke-linejoin="round"/>
<path d="M268.887 233.221C279.215 229.83 290.032 228.345 300.851 228.832" stroke="white" stroke-linecap="round" stroke-linejoin="round"/>
<path d="M261.536 236.354C263.169 235.468 264.858 234.699 266.592 234.053" stroke="white" stroke-linecap="round" stroke-linejoin="round"/>
<path d="M118.864 269.016C116.417 264.348 114.468 259.415 113.052 254.305C114.461 259.418 116.41 264.352 118.864 269.016ZM112.892 253.442C112.892 253.533 112.892 253.639 112.892 253.775C112.921 253.639 112.907 253.533 112.892 253.442ZM118.864 269.001C124.297 279.723 131.058 289.656 138.971 298.546C158.164 320.204 213.606 376.856 218.88 380.746C224.154 384.636 222.614 395.73 218.88 406.839C215.146 417.949 201.285 434.083 201.823 451.822C202.36 469.56 207.634 496.804 207.155 502.359C206.675 507.913 193.338 526.802 193.338 526.802H330.867C330.867 526.802 313.723 504.099 313.723 496.335C313.723 488.57 337.26 389.085 338.321 381.866C339.381 374.646 335.124 369.652 326.596 369.092C318.068 368.532 285.552 361.312 283.954 355.757C282.356 350.203 292.482 329.104 292.482 329.104L260.519 330.769C260.519 330.769 258.921 345.208 256.785 347.993C254.649 350.778 251.453 345.208 243.985 341.333C236.518 337.459 222.192 334.114 216.802 329.664C211.412 325.214 160.3 275.177 160.3 275.177" fill="#EB9481"/>
<path d="M224.967 333.947C227.626 338.791 230.285 343.165 230.285 343.165C230.285 343.165 239.249 348.417 241.487 348.417C243.724 348.417 257.178 355.984 257.178 355.984C257.178 355.984 268.394 353.063 264.442 343.134C263.195 340.593 261.621 338.24 259.764 336.142C259.095 340.546 258.02 346.313 256.756 347.963C254.621 350.732 251.424 345.178 243.956 341.303C239.118 338.791 231.287 336.49 224.967 333.947Z" fill="#00928F"/>
<path d="M197.595 311.471C181.134 295.594 160.3 275.237 160.3 275.237L148.183 273.421L146.73 274.268C146.73 274.268 180.931 305.795 188.21 309.307C191.154 310.717 194.354 311.455 197.595 311.471Z" fill="#EB9481"/>
<path d="M214.841 327.908L213.533 326.697C214.201 327.848 214.579 328.574 214.579 328.574L214.841 327.908Z" fill="#00928F"/>
<g opacity="0.5">
<path opacity="0.5" d="M224.967 333.947C227.626 338.791 230.285 343.165 230.285 343.165C230.285 343.165 239.249 348.417 241.487 348.417C243.724 348.417 257.178 355.984 257.178 355.984C257.178 355.984 268.394 353.063 264.442 343.134C263.195 340.593 261.621 338.24 259.764 336.142C259.095 340.546 258.02 346.313 256.756 347.963C254.621 350.732 251.424 345.178 243.956 341.303C239.118 338.791 231.287 336.49 224.967 333.947Z" fill="white"/>
<path opacity="0.5" d="M197.595 311.471C181.134 295.594 160.3 275.237 160.3 275.237L148.183 273.421L146.73 274.268C146.73 274.268 180.931 305.795 188.21 309.307C191.154 310.717 194.354 311.455 197.595 311.471Z" fill="white"/>
<path opacity="0.5" d="M214.841 327.908L213.533 326.697C214.201 327.848 214.579 328.574 214.579 328.574L214.841 327.908Z" fill="white"/>
</g>
<path d="M118.864 269.001C124.297 279.723 131.058 289.656 138.971 298.546C158.164 320.204 213.606 376.856 218.88 380.746C224.154 384.636 222.614 395.73 218.88 406.839C215.146 417.949 201.285 434.083 201.823 451.822C202.36 469.56 207.634 496.804 207.155 502.359C206.675 507.913 193.338 526.802 193.338 526.802H330.867C330.867 526.802 313.723 504.099 313.723 496.335C313.723 488.57 337.26 389.085 338.321 381.866C339.381 374.646 335.124 369.652 326.596 369.092C318.068 368.532 285.552 361.312 283.954 355.757C282.356 350.203 292.482 329.104 292.482 329.104L260.519 330.769C260.519 330.769 258.921 345.208 256.785 347.993C254.649 350.778 251.453 345.208 243.985 341.333C236.518 337.459 222.192 334.114 216.802 329.664C211.412 325.214 160.3 275.177 160.3 275.177M112.863 253.033C112.857 253.139 112.857 253.245 112.863 253.351C112.857 253.245 112.857 253.139 112.863 253.033V253.033ZM118.864 269.016C116.417 264.348 114.468 259.415 113.052 254.305C114.461 259.418 116.41 264.352 118.864 269.016V269.016ZM112.892 253.442C112.892 253.533 112.892 253.639 112.892 253.775C112.921 253.639 112.907 253.533 112.892 253.442V253.442ZM112.965 253.866C112.983 254.014 113.012 254.161 113.052 254.305C113.012 254.161 112.983 254.014 112.965 253.866Z" stroke="#263238" stroke-linecap="round" stroke-linejoin="round"/>
<path d="M160.299 275.237C160.299 275.237 143.272 275.57 133.77 267.412" stroke="#263238" stroke-linecap="round" stroke-linejoin="round"/>
<path d="M283.968 355.757C282.37 350.218 292.497 329.104 292.497 329.104L260.534 330.769C260.534 330.769 258.935 345.208 256.8 347.993C254.664 350.778 251.468 345.208 244 341.333C243.433 341.03 242.808 340.743 242.169 340.455L240.237 372.103C240.237 372.103 243.041 402.753 276.66 396.925C290.274 394.564 304.803 381.911 317.341 367.684C304.439 365.217 285.189 360.01 283.968 355.757Z" fill="#EB9481"/>
<path d="M283.068 333.296C283.068 333.296 281.135 344.587 279.581 357.074C278.026 369.561 276.878 378.854 276.878 378.854L283.968 355.757L291.959 331.283C291.959 331.283 284.23 331.283 283.068 333.296Z" fill="#00928F"/>
<path opacity="0.5" d="M283.068 333.296C283.068 333.296 281.135 344.587 279.581 357.074C278.026 369.561 276.878 378.854 276.878 378.854L283.968 355.757L291.959 331.283C291.959 331.283 284.23 331.283 283.068 333.296Z" fill="white"/>
<path d="M283.968 355.757C282.37 350.218 292.497 329.104 292.497 329.104L260.534 330.769C260.534 330.769 258.935 345.208 256.8 347.993C254.664 350.778 251.468 345.208 244 341.333C243.433 341.03 242.808 340.743 242.169 340.455L240.237 372.103C240.237 372.103 243.041 402.753 276.66 396.925C290.274 394.564 304.803 381.911 317.341 367.684C304.439 365.217 285.189 360.01 283.968 355.757Z" stroke="#263238" stroke-linecap="round" stroke-linejoin="round"/>
<path d="M256.785 347.993C254.649 350.763 251.453 345.208 243.985 341.333C239.278 338.866 231.781 336.626 225.577 334.205C223.819 329.861 221.495 324.2 219.998 320.779C217.339 314.725 213.068 318.555 213.068 318.555C210.839 315.914 209.039 312.913 207.736 309.67C205.077 303.616 200.806 304.115 194.951 303.011C189.095 301.906 176.819 290.236 176.819 290.236C176.819 290.236 171.08 285.696 168.712 283.44C165.951 289.101 159.34 299.06 145.044 305.281C167.84 330.088 214.085 377.219 218.938 380.761C224.27 384.636 222.671 395.745 218.938 406.854C215.204 417.964 201.343 434.098 201.881 451.837C202.418 469.575 207.692 496.819 207.213 502.374C206.733 507.323 196.098 522.837 193.788 526.167L199.207 526.802H227.422C227.263 511.909 227.277 451.125 237.055 426.909C248.257 399.075 256.785 347.993 256.785 347.993Z" fill="#00928F"/>
<path opacity="0.16" d="M243.985 341.333C239.278 338.866 231.781 336.626 225.577 334.204C223.819 329.86 221.495 324.2 219.998 320.779C217.34 314.725 213.068 318.554 213.068 318.554C210.84 315.914 209.039 312.913 207.736 309.67C205.077 303.616 200.806 304.115 194.951 303.01C189.096 301.905 176.819 290.236 176.819 290.236C176.819 290.236 171.08 285.695 168.712 283.44C167.53 285.844 166.124 288.12 164.513 290.236C174.044 298.636 184.563 307.536 188.239 309.307C195.503 312.803 197.203 309.882 202.767 313.393C208.332 316.905 214.536 328.528 214.536 328.528C214.536 328.528 217.906 319.175 220.71 325.607C223.514 332.04 230.241 343.119 230.241 343.119C230.241 343.119 239.205 348.371 241.443 348.371C243.201 348.371 251.816 353.033 255.478 355.046C256.291 350.611 256.742 347.947 256.742 347.947C254.65 350.762 251.453 345.208 243.985 341.333Z" fill="black"/>
<path d="M256.785 347.993C254.649 350.763 251.453 345.208 243.985 341.333C239.278 338.866 231.781 336.626 225.577 334.205C223.819 329.861 221.495 324.2 219.998 320.779C217.339 314.725 213.068 318.555 213.068 318.555C210.839 315.914 209.039 312.913 207.736 309.67C205.077 303.616 200.806 304.115 194.951 303.011C189.095 301.906 176.819 290.236 176.819 290.236C176.819 290.236 171.08 285.696 168.712 283.44C165.951 289.101 159.34 299.06 145.044 305.281C167.84 330.088 214.085 377.219 218.938 380.761C224.27 384.636 222.671 395.745 218.938 406.854C215.204 417.964 201.343 434.098 201.881 451.837C202.418 469.575 207.692 496.819 207.213 502.374C206.733 507.323 196.098 522.837 193.788 526.167L199.207 526.802H227.422C227.263 511.909 227.277 451.125 237.055 426.909C248.257 399.075 256.785 347.993 256.785 347.993Z" stroke="#263238" stroke-linecap="round" stroke-linejoin="round"/>
<path d="M257.163 346.056C257.163 346.056 250.538 343.937 246.455 347.66C242.373 351.383 236.285 370.484 232.697 391.204C230.485 403.267 232.011 415.749 237.055 426.848C237.055 426.848 245.438 403.948 247.981 392.794C250.523 381.639 257.163 346.056 257.163 346.056Z" fill="#00928F"/>
<path opacity="0.16" d="M244.45 349.431C244.45 349.431 249.245 348.22 251.221 348.916C252.885 349.659 254.44 350.643 255.841 351.837L257.163 346.055C255.18 345 252.93 344.614 250.727 344.95C247.429 345.647 244.45 349.431 244.45 349.431Z" fill="black"/>
<path d="M257.163 346.056C257.163 346.056 250.538 343.937 246.455 347.66C242.373 351.383 236.285 370.484 232.697 391.204C230.485 403.267 232.011 415.749 237.055 426.848C237.055 426.848 245.438 403.948 247.981 392.794C250.523 381.639 257.163 346.056 257.163 346.056Z" stroke="#263238" stroke-linecap="round" stroke-linejoin="round"/>
<path d="M212.545 347.872L221.073 383.97L201.881 338.427" stroke="#263238" stroke-linecap="round" stroke-linejoin="round"/>
<path d="M268.728 526.802H330.882C330.882 526.802 313.738 504.099 313.738 496.335C313.738 488.57 337.275 389.085 338.335 381.866C339.396 374.646 335.139 369.652 326.611 369.092C318.082 368.532 285.567 361.312 283.969 355.757C283.969 355.757 271.706 400.74 267.449 431.283C263.788 457.482 267.58 511.849 268.728 526.802Z" fill="#00928F"/>
<path opacity="0.16" d="M326.61 369.092C319.622 368.638 296.536 363.703 287.542 358.89L290.811 366.761C296.734 370.034 303.104 372.341 309.699 373.602C320.523 375.615 330.591 375.221 337.173 385.302L337.492 385.801C337.899 383.864 338.175 382.502 338.262 381.866C339.41 374.646 335.139 369.652 326.61 369.092Z" fill="black"/>
<path d="M268.728 526.802H330.882C330.882 526.802 313.738 504.099 313.738 496.335C313.738 488.57 337.275 389.085 338.335 381.866C339.396 374.646 335.139 369.652 326.611 369.092C318.082 368.532 285.567 361.312 283.969 355.757C283.969 355.757 271.706 400.74 267.449 431.283C263.788 457.482 267.58 511.849 268.728 526.802Z" stroke="#263238" stroke-linecap="round" stroke-linejoin="round"/>
<path d="M283.968 355.757C283.968 355.757 267.522 410.245 267.449 431.283C267.449 431.283 290.811 401.814 293.862 381.109C296.913 360.404 283.968 355.757 283.968 355.757Z" fill="#00928F"/>
<path opacity="0.16" d="M281.136 362.719C283.607 362.633 286.061 363.175 288.286 364.298C290.511 365.422 292.44 367.093 293.906 369.167C293.906 369.167 290.681 359.284 283.969 355.757L281.136 362.719Z" fill="black"/>
<path d="M283.968 355.757C283.968 355.757 267.522 410.245 267.449 431.283C267.449 431.283 290.811 401.814 293.862 381.109C296.913 360.404 283.968 355.757 283.968 355.757Z" stroke="#263238" stroke-linecap="round" stroke-linejoin="round"/>
<path d="M459.549 516.555C459.549 516.555 471.593 517.07 479.482 518.25C484.743 518.994 490.04 519.433 495.347 519.567C495.347 519.567 490.989 510.395 486.34 507.807C481.69 505.219 473.264 500.588 466.203 501.617C459.142 502.646 449.044 510.062 449.887 512.423C450.73 514.784 454.493 515.844 459.549 516.555Z" fill="white"/>
<path d="M459.549 516.555C459.549 516.555 471.593 517.07 479.482 518.25C484.743 518.994 490.04 519.433 495.347 519.567C495.347 519.567 490.989 510.395 486.34 507.807C481.69 505.219 473.264 500.588 466.203 501.617C459.142 502.646 449.044 510.062 449.887 512.423C450.73 514.784 454.493 515.844 459.549 516.555Z" fill="#EB9481"/>
<path opacity="0.5" d="M459.549 516.555C459.549 516.555 471.593 517.07 479.482 518.25C484.743 518.994 490.04 519.433 495.347 519.567C495.347 519.567 490.989 510.395 486.34 507.807C481.69 505.219 473.264 500.588 466.203 501.617C459.142 502.646 449.044 510.062 449.887 512.423C450.73 514.784 454.493 515.844 459.549 516.555Z" fill="white"/>
<path d="M459.549 516.555C459.549 516.555 471.593 517.07 479.482 518.25C484.743 518.994 490.04 519.433 495.347 519.567C495.347 519.567 490.989 510.395 486.34 507.807C481.69 505.219 473.264 500.588 466.203 501.617C459.142 502.646 449.044 510.062 449.887 512.423C450.73 514.784 454.493 515.844 459.549 516.555Z" stroke="#263238" stroke-linecap="round" stroke-linejoin="round"/>
<path d="M479.555 512.802C479.555 512.802 489.1 507.641 491.483 507.716C493.866 507.792 509.702 518.947 508.917 520.733C508.385 521.561 507.615 522.194 506.718 522.541C505.821 522.889 504.842 522.934 503.919 522.67C502.161 521.807 491.497 517.085 491.497 517.085L484.524 518.795L479.555 512.802Z" fill="white"/>
<path d="M479.555 512.802C479.555 512.802 489.1 507.641 491.483 507.716C493.866 507.792 509.702 518.947 508.917 520.733C508.133 522.519 504.384 523.972 503.919 522.67C503.454 521.368 491.497 517.085 491.497 517.085L484.524 518.795L479.555 512.802Z" fill="#EB9481"/>
<path opacity="0.5" d="M479.555 512.802C479.555 512.802 489.1 507.641 491.483 507.716C493.866 507.792 509.702 518.947 508.917 520.733C508.133 522.519 504.384 523.972 503.919 522.67C503.454 521.368 491.497 517.085 491.497 517.085L484.524 518.795L479.555 512.802Z" fill="white"/>
<path d="M479.555 512.802C479.555 512.802 489.1 507.641 491.483 507.716C493.866 507.792 509.702 518.947 508.917 520.733C508.385 521.561 507.615 522.194 506.718 522.541C505.821 522.889 504.842 522.934 503.919 522.67C502.161 521.807 491.497 517.085 491.497 517.085L484.524 518.795L479.555 512.802Z" stroke="#263238" stroke-linecap="round" stroke-linejoin="round"/>
<path d="M472.741 504.311C472.741 504.311 485.468 503.887 487.996 505.219C490.524 506.551 501.944 526.953 500.229 528.437C498.515 529.92 493.778 529.481 493.924 527.831C494.069 526.182 483.405 515.254 483.405 515.254L475.109 513.362L472.741 504.311Z" fill="white"/>
<path d="M472.741 504.311C472.741 504.311 485.468 503.887 487.996 505.219C490.524 506.551 501.944 526.953 500.229 528.437C498.515 529.92 493.779 529.481 493.924 527.831C494.069 526.182 483.405 515.254 483.405 515.254L475.109 513.362L472.741 504.311Z" fill="#EB9481"/>
<path opacity="0.5" d="M472.741 504.311C472.741 504.311 485.468 503.887 487.996 505.219C490.524 506.551 501.944 526.953 500.229 528.437C498.515 529.92 493.779 529.481 493.924 527.831C494.069 526.182 483.405 515.254 483.405 515.254L475.109 513.362L472.741 504.311Z" fill="white"/>
<path d="M472.741 504.311C472.741 504.311 485.468 503.887 487.996 505.219C490.524 506.551 501.944 526.953 500.229 528.437C498.515 529.92 493.778 529.481 493.924 527.831C494.069 526.182 483.405 515.254 483.405 515.254L475.109 513.362L472.741 504.311Z" stroke="#263238" stroke-linecap="round" stroke-linejoin="round"/>
<path d="M465.2 501.571C465.2 501.571 478.087 501.132 480.645 502.495C483.202 503.857 494.766 524.486 493.023 526C491.28 527.513 486.514 527.044 486.659 525.379C486.805 523.714 476.01 512.65 476.01 512.65L467.612 510.728L465.2 501.571Z" fill="white"/>
<path d="M465.2 501.571C465.2 501.571 478.087 501.132 480.645 502.495C483.202 503.857 494.766 524.486 493.023 526C491.28 527.513 486.514 527.044 486.659 525.379C486.805 523.714 476.01 512.65 476.01 512.65L467.612 510.728L465.2 501.571Z" fill="#EB9481"/>
<path opacity="0.5" d="M465.2 501.571C465.2 501.571 478.087 501.132 480.645 502.495C483.202 503.857 494.766 524.486 493.023 526C491.28 527.513 486.514 527.044 486.659 525.379C486.805 523.714 476.01 512.65 476.01 512.65L467.612 510.728L465.2 501.571Z" fill="white"/>
<path d="M465.2 501.571C465.2 501.571 478.087 501.132 480.645 502.495C483.202 503.857 494.766 524.486 493.023 526C491.28 527.513 486.514 527.044 486.659 525.379C486.805 523.714 476.01 512.65 476.01 512.65L467.612 510.728L465.2 501.571Z" stroke="#263238" stroke-linecap="round" stroke-linejoin="round"/>
<path d="M318.678 424.654C328.005 439.622 346.733 477.552 352.196 481.82C360.724 488.479 417.735 504.644 423.227 509.064C428.719 513.483 428.341 517.918 433.542 519.537C438.744 521.157 458.241 525.803 465.68 526.53C473.119 527.256 469.792 522.458 469.792 522.458L457.108 513.377L468.164 510.532C468.164 510.532 479.25 524.426 481.327 525.183C483.405 525.94 487.066 525.183 486.834 523.472C486.427 520.733 474.601 498.317 470.402 497.364C466.203 496.41 440.719 500.088 440.719 500.088C440.719 500.088 387.268 462.537 386.309 461.206C386.309 461.206 383.113 451.761 380.498 447.871C377.883 443.981 376.226 445.101 376.226 445.101C376.226 445.101 377.301 440.092 375.703 438.427L367.175 429.542L366.87 429.966C365.417 426.939 363.964 423.488 362.366 419.553C357.905 408.61 342.113 377.9 339.454 373.466C337.464 370.151 320.784 367.775 312.329 366.776" fill="#00928F"/>
<path opacity="0.16" d="M355.813 425.607C362.787 432.055 360.462 432.055 358.908 437.715C357.353 443.376 360.07 435.702 366.652 436.111C373.233 436.52 371.301 445.374 370.516 446.993C369.732 448.613 378.652 450.626 377.098 454.243C375.543 457.861 366.652 463.113 361.625 468.365C356.598 473.617 374.773 459.889 380.963 459.495C382.851 459.359 384.406 459.616 385.713 459.586C384.342 455.536 382.58 451.642 380.454 447.962C377.781 444.072 376.183 445.192 376.183 445.192C376.183 445.192 377.258 440.182 375.66 438.518L367.131 429.633L366.826 430.057C365.373 427.03 363.92 423.579 362.322 419.644C357.862 408.701 342.069 377.991 339.41 373.557C337.42 370.242 320.741 367.866 312.285 366.867L313.055 373.874L313.244 374.026C313.244 374.026 323.69 376.039 327.177 376.447C330.664 376.856 334.921 380.065 334.529 382.502C334.136 384.938 324.082 395.806 327.177 396.623C330.272 397.44 333.759 388.556 337.245 389.766C340.732 390.977 348.796 419.159 355.813 425.607Z" fill="black"/>
<path d="M318.678 424.654C328.005 439.623 346.733 477.552 352.196 481.82C360.724 488.479 417.735 504.644 423.227 509.064C428.719 513.483 428.341 517.918 433.542 519.537C438.744 521.157 458.241 525.803 465.68 526.53C473.119 527.256 469.792 522.458 469.792 522.458L457.108 513.377L468.164 510.532C468.164 510.532 479.25 524.426 481.327 525.183C483.405 525.94 487.066 525.183 486.834 523.472C486.427 520.733 474.601 498.317 470.402 497.364C466.203 496.41 440.719 500.088 440.719 500.088C440.719 500.088 387.268 462.537 386.309 461.206C386.309 461.206 383.113 451.761 380.498 447.871C377.883 443.981 376.226 445.101 376.226 445.101C376.226 445.101 377.301 440.092 375.703 438.427L367.175 429.542L366.87 429.966C365.417 426.939 363.964 423.488 362.366 419.553C357.905 408.61 342.113 377.9 339.454 373.466C337.464 370.151 320.784 367.775 312.329 366.776" stroke="#263238" stroke-linecap="round" stroke-linejoin="round"/>
<path d="M318.823 404.115C318.431 405.477 318.097 406.839 317.835 408.232" stroke="#263238" stroke-linecap="round" stroke-linejoin="round"/>
<path d="M332.945 379.065C328.38 384.486 324.529 390.518 321.496 397.001" stroke="#263238" stroke-linecap="round" stroke-linejoin="round"/>
<path d="M354.288 465.004C358.21 458.95 364.458 451.276 371.344 449.082" stroke="#263238" stroke-linecap="round" stroke-linejoin="round"/>
<path d="M349.944 472.451C349.944 472.451 350.641 471.028 351.89 468.879" stroke="#263238" stroke-linecap="round" stroke-linejoin="round"/>
<path d="M349.944 462.885C349.944 462.885 357.077 444.299 364.211 439.516C371.344 434.733 367.262 444.299 367.262 444.299" stroke="#263238" stroke-linecap="round" stroke-linejoin="round"/>
<path d="M423.227 509.079C428.733 513.513 428.341 517.933 433.542 519.552C438.743 521.172 458.241 525.818 465.68 526.545C473.118 527.271 469.791 522.473 469.791 522.473L457.108 513.392L468.164 510.547C468.164 510.547 479.25 524.441 481.327 525.198C483.405 525.955 487.357 526.227 486.834 523.487C485.817 518.19 474.6 498.332 470.402 497.379C466.203 496.425 440.719 500.103 440.719 500.103C440.719 500.103 392.033 465.292 386.701 461.523C366.027 463.597 356.191 474.873 352.05 481.638L352.195 481.759C360.724 488.479 417.735 504.644 423.227 509.079Z" fill="#EB9481"/>
<path d="M486.819 523.548C484.175 516.813 474.586 498.393 470.387 497.439C466.189 496.486 440.705 500.164 440.705 500.164C440.705 500.164 392.019 465.352 386.687 461.584C381.261 462.075 375.936 463.417 370.894 465.564C378.58 470.105 429.808 500.376 436.274 501.723C443.131 503.236 466.014 499.316 470.039 502.131C472.596 503.917 480.209 516.495 485.352 525.425C486.819 525.198 487.357 524.91 486.819 523.548Z" fill="#EB9481"/>
<path opacity="0.5" d="M486.819 523.548C482.693 513.907 474.586 498.393 470.387 497.439C466.189 496.486 440.705 500.164 440.705 500.164C440.705 500.164 392.019 465.352 386.687 461.584C381.261 462.075 375.936 463.417 370.894 465.564C378.58 470.105 429.808 500.376 436.274 501.723C443.131 503.236 466.014 499.316 470.039 502.131C472.596 503.917 480.209 516.495 485.352 525.425C486.819 525.198 487.401 524.895 486.819 523.548Z" fill="white"/>
<path d="M423.227 509.079C428.733 513.513 428.341 517.933 433.542 519.552C438.743 521.172 458.241 525.818 465.68 526.545C473.118 527.271 469.791 522.473 469.791 522.473L457.108 513.392L468.164 510.547C468.164 510.547 479.25 524.441 481.327 525.198C483.405 525.955 487.357 526.227 486.834 523.487C485.817 518.19 474.6 498.332 470.402 497.379C466.203 496.425 440.719 500.103 440.719 500.103C440.719 500.103 392.033 465.292 386.701 461.523C366.027 463.597 356.191 474.873 352.05 481.638L352.195 481.759C360.724 488.479 417.735 504.644 423.227 509.079Z" stroke="#263238" stroke-linecap="round" stroke-linejoin="round"/>
<path d="M294.821 244.784L251.061 263.81C250.53 271.822 248.626 279.67 245.438 286.982C240.266 298.379 243.288 319.947 248.257 331.586C253.225 343.225 275.12 338.669 283.126 337.216C288.555 336.14 293.873 334.523 299.006 332.388C301.343 333.326 303.871 333.63 306.351 333.27C308.832 332.91 311.184 331.898 313.186 330.33C313.186 330.33 289.765 261.842 294.821 244.784Z" fill="#EB9481"/>
<path d="M294.821 244.784L251.061 263.81C250.53 271.822 248.626 279.67 245.438 286.982C240.266 298.379 243.288 319.947 248.257 331.586C249.088 333.458 250.426 335.036 252.107 336.126V335.249C252.107 335.249 243.985 314.286 245.525 302.193C247.065 290.1 253.661 284.03 254.431 276.387C255.201 268.744 254.809 265.111 269.527 259.466C284.244 253.82 290.419 248.583 291.959 254.214C293.499 259.844 299.703 296.956 303.96 305.825C308.217 314.695 307.824 323.988 301.257 327.999C294.62 332.149 287.508 335.414 280.089 337.716L283.184 337.156C288.613 336.08 293.931 334.463 299.064 332.327C301.401 333.266 303.929 333.569 306.409 333.209C308.89 332.849 311.242 331.837 313.244 330.269C313.244 330.269 289.765 261.842 294.821 244.784Z" fill="#EB9481"/>
<path opacity="0.5" d="M294.821 244.784L251.061 263.81C250.53 271.822 248.626 279.67 245.438 286.982C240.266 298.379 243.288 319.947 248.257 331.586C249.088 333.458 250.426 335.036 252.107 336.126V335.249C252.107 335.249 243.985 314.286 245.525 302.193C247.065 290.1 253.661 284.03 254.431 276.387C255.201 268.744 254.809 265.111 269.527 259.466C284.244 253.82 290.419 248.583 291.959 254.214C293.499 259.844 299.703 296.956 303.96 305.825C308.217 314.695 307.824 323.988 301.257 327.999C294.62 332.149 287.508 335.414 280.089 337.716L283.184 337.156C288.613 336.08 293.931 334.463 299.064 332.327C301.401 333.266 303.929 333.569 306.409 333.209C308.89 332.849 311.242 331.837 313.244 330.269C313.244 330.269 289.765 261.842 294.821 244.784Z" fill="white"/>
<path d="M294.821 244.784L251.061 263.81C250.53 271.822 248.626 279.67 245.438 286.982C240.266 298.379 243.288 319.947 248.257 331.586C253.225 343.225 275.12 338.669 283.126 337.216C288.555 336.14 293.873 334.523 299.006 332.388C301.343 333.326 303.871 333.63 306.351 333.27C308.832 332.91 311.184 331.898 313.186 330.33C313.186 330.33 289.765 261.842 294.821 244.784Z" stroke="#263238" stroke-linecap="round" stroke-linejoin="round"/>
<path d="M272.709 274.616C272.827 277.297 272.508 279.979 271.764 282.547C270.602 285.574 259.633 297.471 259.967 298.757C260.301 300.044 261.289 304.176 263.236 304.569" stroke="#263238" stroke-linecap="round" stroke-linejoin="round"/>
<path d="M284.869 285.256C286.395 282.078 291.407 285.181 291.334 292.34" stroke="#263238" stroke-linecap="round" stroke-linejoin="round"/>
<path d="M260.025 275.903C260.025 275.903 264.297 273.95 268.118 281.155" stroke="#263238" stroke-linecap="round" stroke-linejoin="round"/>
<path d="M278.796 295.745C283.732 296.004 288.425 298.055 292.061 301.542" stroke="#263238" stroke-width="0.5" stroke-linecap="round" stroke-linejoin="round"/>
<path d="M254.867 286.286C257.419 286.641 259.912 287.359 262.277 288.42" stroke="#263238" stroke-width="0.5" stroke-linecap="round" stroke-linejoin="round"/>
<path d="M272.229 267.896C271.101 267.275 269.85 266.935 268.574 266.903C267.298 266.872 266.033 267.15 264.878 267.715C260.969 269.667 258.572 271.816 258.834 269.319C259.095 266.822 263.686 264.067 265.066 263.704C266.447 263.34 272.621 262.342 272.229 267.896Z" fill="#263238"/>
<path d="M283.184 262.251C287.257 265.684 290.493 270.071 292.628 275.055C295.533 282.623 297.829 274.359 295.533 269.41C293.238 264.46 286.598 259.193 283.184 262.251Z" fill="#263238"/>
<path d="M313.825 343.271C313.825 346.797 311.907 349.658 309.554 349.658C307.2 349.658 305.297 346.797 305.297 343.271C305.297 339.744 307.2 330.769 309.554 330.769C311.907 330.769 313.825 339.744 313.825 343.271Z" fill="#00928F" stroke="#263238" stroke-linecap="round" stroke-linejoin="round"/>
<path d="M285.247 283.879C285.08 284.342 284.949 284.818 284.855 285.302C284.433 287.542 284.012 292.219 284.855 292.416C285.697 292.613 287.761 288.238 288.124 285.998C288.206 285.559 288.254 285.114 288.269 284.666C287.277 284.343 286.268 284.08 285.247 283.879Z" fill="#263238"/>
<path d="M260.461 275.464C260.332 275.859 260.23 276.264 260.156 276.675C259.72 278.915 259.735 283.834 260.65 284.015C261.565 284.197 263.062 279.596 263.483 277.356C263.588 276.812 263.647 276.26 263.657 275.706C262.617 275.408 261.531 275.326 260.461 275.464Z" fill="#263238"/>
<path d="M284.869 285.332L286.322 282.517C288.625 282.985 290.712 284.242 292.25 286.089" stroke="#263238" stroke-width="0.75" stroke-linecap="round" stroke-linejoin="round"/>
<path d="M260.461 275.464L261.914 273.693C261.914 273.693 262.539 273.375 265.967 274.995" stroke="#263238" stroke-width="0.75" stroke-linecap="round" stroke-linejoin="round"/>
<path d="M254.955 316.511C254.955 316.511 257.395 311.834 260.664 311.834C263.933 311.834 266.374 319.478 266.374 319.478" stroke="#263238" stroke-linecap="round" stroke-linejoin="round"/>
<path d="M149.752 518.205C146.592 518.042 143.489 517.272 140.598 515.935C140.195 515.78 139.827 515.541 139.515 515.232C139.204 514.924 138.956 514.553 138.786 514.141C138.617 513.73 138.529 513.287 138.53 512.839C138.53 512.391 138.617 511.948 138.787 511.537C138.957 511.126 139.205 510.755 139.517 510.447C139.829 510.138 140.198 509.9 140.601 509.745C141.004 509.59 141.433 509.522 141.863 509.545C142.292 509.569 142.712 509.683 143.097 509.881C146.003 511.167 149.766 511.97 150.769 511.516C152.614 509.366 155.447 496.38 151.786 490.114C150.957 488.722 150.187 488.464 149.679 488.404C147.601 488.101 144.521 490.326 143.432 491.431C143.128 491.729 142.771 491.962 142.382 492.117C141.992 492.271 141.577 492.344 141.16 492.331C140.743 492.319 140.332 492.221 139.952 492.043C139.571 491.865 139.228 491.611 138.942 491.295C138.656 490.979 138.432 490.607 138.284 490.201C138.136 489.795 138.066 489.362 138.078 488.928C138.09 488.494 138.184 488.066 138.355 487.67C138.526 487.273 138.77 486.916 139.073 486.618C139.64 486.043 144.884 481.124 150.478 481.911C151.865 482.122 153.187 482.663 154.341 483.493C155.495 484.322 156.45 485.417 157.132 486.694C162.522 495.85 158.832 513.271 154.691 516.722C153.252 517.783 151.512 518.305 149.752 518.205Z" fill="white"/>
<path d="M154.009 489.115C153.628 488.175 153.031 487.347 152.271 486.703C151.511 486.059 150.611 485.619 149.65 485.422C146.018 484.817 142.603 488.616 142.226 489.039C141.878 489.475 141.664 490.009 141.61 490.573C141.555 491.136 141.663 491.704 141.921 492.203C142.492 492.083 143.02 491.8 143.446 491.385C144.536 490.326 147.616 488.101 149.693 488.358C150.202 488.358 150.972 488.676 151.8 490.069C155.461 496.274 152.628 509.321 150.783 511.47C149.781 511.924 146.032 511.122 143.112 509.836C142.753 509.678 142.368 509.591 141.979 509.578C142.005 509.993 142.131 510.394 142.344 510.746C142.557 511.097 142.851 511.388 143.199 511.591C145.036 512.613 147.063 513.212 149.141 513.347C150.327 513.406 151.489 512.983 152.381 512.166C155.113 509.548 157.524 496.153 154.009 489.115Z" fill="#00928F"/>
<path opacity="0.5" d="M154.009 489.115C153.628 488.175 153.031 487.347 152.271 486.703C151.511 486.059 150.611 485.619 149.65 485.422C146.018 484.817 142.603 488.616 142.226 489.039C141.878 489.475 141.664 490.009 141.61 490.573C141.555 491.136 141.663 491.704 141.921 492.203C142.492 492.083 143.02 491.8 143.446 491.385C144.536 490.326 147.616 488.101 149.693 488.358C150.202 488.358 150.972 488.676 151.8 490.069C155.461 496.274 152.628 509.321 150.783 511.47C149.781 511.924 146.032 511.122 143.112 509.836C142.753 509.678 142.368 509.591 141.979 509.578C142.005 509.993 142.131 510.394 142.344 510.746C142.557 511.097 142.851 511.388 143.199 511.591C145.036 512.613 147.063 513.212 149.141 513.347C150.327 513.406 151.489 512.983 152.381 512.166C155.113 509.548 157.524 496.153 154.009 489.115Z" fill="white"/>
<path d="M149.752 518.205C146.592 518.042 143.489 517.272 140.598 515.935C140.195 515.78 139.827 515.541 139.515 515.232C139.204 514.924 138.956 514.553 138.786 514.141C138.617 513.73 138.529 513.287 138.53 512.839C138.53 512.391 138.617 511.948 138.787 511.537C138.957 511.126 139.205 510.755 139.517 510.447C139.829 510.138 140.198 509.9 140.601 509.745C141.004 509.59 141.433 509.522 141.863 509.545C142.292 509.569 142.712 509.683 143.097 509.881C146.003 511.167 149.766 511.97 150.769 511.516C152.614 509.366 155.447 496.38 151.786 490.114C150.957 488.722 150.187 488.464 149.679 488.404C147.601 488.101 144.521 490.326 143.432 491.431C143.128 491.729 142.771 491.962 142.382 492.117C141.992 492.271 141.577 492.344 141.16 492.331C140.743 492.319 140.332 492.221 139.952 492.043C139.571 491.865 139.228 491.611 138.942 491.295C138.656 490.979 138.432 490.607 138.284 490.201C138.136 489.795 138.066 489.362 138.078 488.928C138.09 488.494 138.184 488.066 138.355 487.67C138.526 487.273 138.77 486.916 139.073 486.618C139.64 486.043 144.884 481.124 150.478 481.911C151.865 482.122 153.187 482.663 154.341 483.493C155.495 484.322 156.45 485.417 157.132 486.694C162.522 495.85 158.832 513.271 154.691 516.722C153.252 517.783 151.512 518.305 149.752 518.205V518.205Z" stroke="#263238" stroke-linecap="round" stroke-linejoin="round"/>
<path d="M144.202 479.156H109.26V527.468H144.202V479.156Z" fill="white"/>
<path d="M123.571 479.156H109.26V527.468H123.571V479.156Z" fill="#00928F"/>
<path opacity="0.5" d="M123.571 479.156H109.26V527.468H123.571V479.156Z" fill="white"/>
<path d="M144.202 479.156H109.26V527.468H144.202V479.156Z" stroke="#263238" stroke-linecap="round" stroke-linejoin="round"/>
<path d="M336.214 526.802H186.946L182.079 441.317C181.944 440.489 181.984 439.639 182.195 438.828C182.406 438.017 182.784 437.263 183.301 436.618C183.819 435.973 184.465 435.454 185.195 435.094C185.924 434.735 186.72 434.545 187.527 434.537H335.575C336.387 434.536 337.189 434.72 337.926 435.075C338.662 435.431 339.315 435.949 339.84 436.595C340.364 437.241 340.747 437.998 340.961 438.813C341.176 439.629 341.217 440.484 341.081 441.317L336.214 526.802Z" fill="#263238" stroke="#263238" stroke-linecap="round" stroke-linejoin="round"/>
<path d="M194.297 436.58H334.5C335.292 436.572 336.076 436.744 336.798 437.084C337.519 437.425 338.161 437.925 338.677 438.551C339.193 439.177 339.572 439.913 339.786 440.707C340.001 441.501 340.046 442.335 339.919 443.149" stroke="white" stroke-linecap="round" stroke-linejoin="round"/>
<path d="M183.168 441.802C183.285 440.371 183.915 439.039 184.933 438.072C185.951 437.104 187.282 436.571 188.66 436.58" stroke="white" stroke-linecap="round" stroke-linejoin="round"/>
<path d="M336.839 518.478H186.321V526.802H336.839V518.478Z" fill="white" stroke="#263238" stroke-linecap="round" stroke-linejoin="round"/>
<path d="M261.042 487.662C266.932 487.662 271.707 484.681 271.707 481.003C271.707 477.325 266.932 474.343 261.042 474.343C255.153 474.343 250.378 477.325 250.378 481.003C250.378 484.681 255.153 487.662 261.042 487.662Z" fill="white" stroke="#263238" stroke-linecap="round" stroke-linejoin="round"/>
<path d="M563.865 525.818H3.2583V540H563.865V525.818Z" fill="#263238"/>
<path d="M418.505 0H148.808C139.716 0 132.347 7.6776 132.347 17.1484V178.355C132.347 187.826 139.716 195.504 148.808 195.504H418.505C427.596 195.504 434.966 187.826 434.966 178.355V17.1484C434.966 7.6776 427.596 0 418.505 0Z" fill="#00928F"/>
<path d="M290.773 112.35C315.237 108.254 331.882 84.2738 327.95 58.7881C324.019 33.3024 300.999 15.9625 276.535 20.0583C252.071 24.1542 235.426 48.1347 239.357 73.6204C243.289 99.1061 266.309 116.446 290.773 112.35Z" fill="#263238"/>
<path d="M283.315 74.8445L268.365 94.8384C267.856 95.6707 267.157 96.3582 266.331 96.839C265.504 97.3199 264.575 97.579 263.628 97.593C262.33 97.6115 261.076 97.0947 260.141 96.1551C259.666 95.701 259.29 95.1456 259.04 94.5266C258.789 93.9076 258.669 93.2396 258.689 92.5681C258.735 91.0642 259.245 89.6157 260.141 88.4361L277.184 66.4747L261.202 44.4981C260.459 43.4667 260.052 42.2153 260.04 40.9261C260.036 40.1572 260.185 39.3959 260.478 38.69C260.77 37.984 261.2 37.3489 261.74 36.8244C262.247 36.2731 262.856 35.8345 263.53 35.5354C264.204 35.2362 264.929 35.0826 265.662 35.0839C266.601 35.0997 267.521 35.3601 268.338 35.8413C269.155 36.3224 269.844 37.009 270.341 37.8385L284.782 57.6507L299.311 38.1715C299.83 37.2627 300.557 36.5014 301.426 35.9549C302.295 35.4084 303.28 35.0937 304.294 35.0385C304.924 35.0368 305.546 35.1704 306.124 35.4308C306.701 35.6912 307.221 36.0729 307.65 36.552C308.108 37.0011 308.473 37.5428 308.723 38.144C308.973 38.7452 309.102 39.3932 309.103 40.0483C309.088 41.2206 308.7 42.3544 307.999 43.2721L290.899 66.066L307.418 88.7691C308.199 89.7839 308.633 91.0406 308.653 92.341C308.658 93.093 308.506 93.8371 308.207 94.5218C307.909 95.2064 307.471 95.8154 306.924 96.3065C305.858 97.3744 304.437 97.971 302.958 97.9714C302.015 97.9592 301.089 97.7006 300.267 97.2193C299.444 96.7381 298.751 96.0495 298.25 95.2168L283.315 74.8445Z" fill="white"/>
<path d="M369.136 161.646H198.118C194.65 161.646 191.324 160.211 188.872 157.656C186.42 155.102 185.042 151.637 185.042 148.024C185.042 144.411 186.42 140.947 188.872 138.392C191.324 135.837 194.65 134.402 198.118 134.402H369.136C372.604 134.402 375.93 135.837 378.382 138.392C380.835 140.947 382.212 144.411 382.212 148.024C382.212 151.637 380.835 155.102 378.382 157.656C375.93 160.211 372.604 161.646 369.136 161.646Z" fill="white"/>
<path d="M221.553 152.413C221.439 152.413 221.326 152.389 221.221 152.342C221.116 152.296 221.021 152.227 220.943 152.141C220.857 152.052 220.789 151.946 220.744 151.829C220.699 151.711 220.678 151.586 220.681 151.46C220.681 151.247 220.736 151.037 220.841 150.854L222.149 148.735H219.475C219.352 148.742 219.228 148.721 219.113 148.674C218.998 148.627 218.893 148.555 218.807 148.463C218.658 148.282 218.576 148.051 218.576 147.812C218.576 147.573 218.658 147.343 218.807 147.161C218.893 147.069 218.998 146.997 219.113 146.95C219.228 146.903 219.352 146.882 219.475 146.889L222.105 146.965L220.943 144.997C220.826 144.795 220.761 144.566 220.754 144.331C220.75 144.205 220.772 144.079 220.817 143.962C220.862 143.845 220.929 143.739 221.015 143.65C221.097 143.563 221.194 143.495 221.301 143.448C221.409 143.401 221.524 143.377 221.64 143.378C221.803 143.375 221.963 143.423 222.1 143.514C222.236 143.606 222.345 143.737 222.41 143.892L223.689 146.268L224.909 143.998C224.986 143.821 225.108 143.67 225.262 143.561C225.415 143.451 225.595 143.388 225.781 143.378C225.895 143.378 226.008 143.402 226.113 143.449C226.218 143.495 226.312 143.564 226.391 143.65C226.476 143.733 226.544 143.834 226.589 143.946C226.634 144.058 226.655 144.179 226.653 144.301C226.651 144.516 226.59 144.726 226.478 144.906L225.2 147.04L227.858 146.965C227.982 146.957 228.106 146.977 228.221 147.024C228.337 147.072 228.441 147.144 228.527 147.237C228.676 147.418 228.758 147.649 228.758 147.888C228.758 148.127 228.676 148.358 228.527 148.539C228.441 148.632 228.337 148.704 228.221 148.751C228.106 148.798 227.982 148.819 227.858 148.811H225.171L226.362 150.748C226.496 150.982 226.571 151.248 226.58 151.52C226.584 151.643 226.564 151.765 226.522 151.88C226.479 151.994 226.415 152.098 226.333 152.186C226.256 152.271 226.164 152.339 226.062 152.386C225.959 152.433 225.849 152.458 225.737 152.459C225.557 152.454 225.383 152.396 225.233 152.292C225.084 152.187 224.966 152.04 224.895 151.868L223.689 149.644L222.483 151.868C222.396 152.044 222.261 152.189 222.096 152.285C221.931 152.382 221.742 152.427 221.553 152.413Z" fill="black"/>
<path d="M234.891 152.413C234.776 152.413 234.664 152.389 234.559 152.342C234.454 152.295 234.359 152.227 234.28 152.141C234.194 152.052 234.127 151.946 234.082 151.828C234.037 151.711 234.015 151.586 234.019 151.46C234.019 151.247 234.074 151.037 234.179 150.854L235.486 148.735H232.813C232.689 148.742 232.566 148.721 232.451 148.674C232.335 148.627 232.231 148.555 232.145 148.463C231.995 148.282 231.913 148.051 231.913 147.812C231.913 147.573 231.995 147.342 232.145 147.161C232.231 147.069 232.335 146.997 232.451 146.95C232.566 146.903 232.689 146.882 232.813 146.889L235.443 146.965L234.208 144.921C234.091 144.72 234.026 144.49 234.019 144.255C234.015 144.129 234.037 144.004 234.082 143.887C234.127 143.769 234.194 143.663 234.28 143.574C234.362 143.488 234.459 143.419 234.566 143.372C234.674 143.325 234.789 143.301 234.905 143.302C235.068 143.299 235.228 143.347 235.365 143.438C235.501 143.53 235.61 143.661 235.675 143.816L236.954 146.193L238.174 143.922C238.251 143.746 238.373 143.594 238.527 143.485C238.68 143.376 238.86 143.312 239.046 143.302C239.16 143.302 239.273 143.326 239.378 143.373C239.483 143.42 239.577 143.488 239.656 143.574C239.741 143.657 239.808 143.758 239.854 143.87C239.899 143.983 239.92 144.103 239.918 144.225C239.916 144.44 239.855 144.65 239.743 144.83L238.465 146.965L241.123 146.889C241.247 146.881 241.371 146.902 241.486 146.949C241.602 146.996 241.706 147.068 241.792 147.161C241.941 147.342 242.023 147.573 242.023 147.812C242.023 148.051 241.941 148.282 241.792 148.463C241.706 148.556 241.602 148.628 241.486 148.675C241.371 148.723 241.247 148.743 241.123 148.735H238.436L239.627 150.673C239.761 150.907 239.836 151.172 239.845 151.445C239.849 151.567 239.829 151.689 239.787 151.804C239.744 151.918 239.68 152.023 239.598 152.111C239.521 152.195 239.429 152.263 239.327 152.31C239.224 152.357 239.114 152.382 239.002 152.383C238.822 152.38 238.646 152.323 238.497 152.218C238.347 152.113 238.23 151.966 238.16 151.793L236.954 149.568L235.748 151.793C235.676 151.97 235.558 152.123 235.406 152.233C235.254 152.343 235.075 152.405 234.891 152.413Z" fill="black"/>
<path d="M248.228 152.413C248.114 152.413 248.001 152.389 247.896 152.342C247.791 152.295 247.696 152.227 247.618 152.141C247.532 152.052 247.464 151.946 247.419 151.828C247.374 151.711 247.353 151.586 247.356 151.46C247.356 151.247 247.411 151.037 247.516 150.854L248.824 148.735H246.15C246.027 148.742 245.903 148.721 245.788 148.674C245.673 148.627 245.568 148.555 245.482 148.463C245.333 148.282 245.25 148.051 245.25 147.812C245.25 147.573 245.333 147.342 245.482 147.161C245.568 147.069 245.673 146.997 245.788 146.95C245.903 146.903 246.027 146.882 246.15 146.889L248.78 146.965L247.545 144.921C247.428 144.72 247.363 144.49 247.356 144.255C247.353 144.129 247.374 144.004 247.419 143.887C247.464 143.769 247.532 143.663 247.618 143.574C247.699 143.488 247.796 143.419 247.904 143.372C248.011 143.325 248.126 143.301 248.242 143.302C248.405 143.299 248.565 143.347 248.702 143.438C248.839 143.53 248.947 143.661 249.012 143.816L250.291 146.193L251.511 143.922C251.588 143.746 251.71 143.594 251.864 143.485C252.018 143.376 252.197 143.312 252.383 143.302C252.497 143.302 252.61 143.326 252.715 143.373C252.82 143.42 252.915 143.488 252.993 143.574C253.078 143.657 253.146 143.758 253.191 143.87C253.236 143.983 253.258 144.103 253.255 144.225C253.253 144.44 253.192 144.65 253.08 144.83L251.802 146.965L254.461 146.889C254.584 146.881 254.708 146.902 254.824 146.949C254.939 146.996 255.043 147.068 255.129 147.161C255.278 147.342 255.36 147.573 255.36 147.812C255.36 148.051 255.278 148.282 255.129 148.463C255.043 148.556 254.939 148.628 254.824 148.675C254.708 148.723 254.584 148.743 254.461 148.735H251.773L252.964 150.673C253.099 150.907 253.174 151.172 253.182 151.445C253.186 151.567 253.167 151.689 253.124 151.804C253.082 151.918 253.017 152.023 252.935 152.111C252.859 152.195 252.766 152.263 252.664 152.31C252.562 152.357 252.451 152.382 252.34 152.383C252.159 152.38 251.984 152.323 251.834 152.218C251.684 152.113 251.567 151.966 251.497 151.793L250.291 149.568L249.085 151.793C249.013 151.97 248.895 152.123 248.743 152.233C248.591 152.343 248.413 152.405 248.228 152.413Z" fill="black"/>
<path d="M261.623 152.413C261.509 152.413 261.396 152.389 261.291 152.342C261.187 152.295 261.092 152.227 261.013 152.141C260.927 152.052 260.86 151.946 260.815 151.828C260.77 151.711 260.748 151.586 260.752 151.46C260.751 151.247 260.807 151.037 260.911 150.854L262.219 148.735H259.546C259.422 148.742 259.299 148.721 259.183 148.674C259.068 148.627 258.964 148.555 258.877 148.463C258.728 148.282 258.646 148.051 258.646 147.812C258.646 147.573 258.728 147.342 258.877 147.161C258.964 147.069 259.068 146.997 259.183 146.95C259.299 146.903 259.422 146.882 259.546 146.889L262.175 146.965L260.941 144.921C260.824 144.72 260.759 144.49 260.752 144.255C260.748 144.129 260.77 144.004 260.815 143.887C260.86 143.769 260.927 143.663 261.013 143.574C261.095 143.488 261.192 143.419 261.299 143.372C261.406 143.325 261.522 143.301 261.638 143.302C261.801 143.299 261.96 143.347 262.097 143.438C262.234 143.53 262.342 143.661 262.408 143.816L263.686 146.193L264.907 143.922C264.984 143.746 265.106 143.594 265.259 143.485C265.413 143.376 265.593 143.312 265.779 143.302C265.893 143.302 266.006 143.326 266.111 143.373C266.215 143.42 266.31 143.488 266.389 143.574C266.474 143.657 266.541 143.758 266.586 143.87C266.631 143.983 266.653 144.103 266.65 144.225C266.648 144.44 266.588 144.65 266.476 144.83L265.197 146.965L267.856 146.889C267.98 146.881 268.104 146.902 268.219 146.949C268.334 146.996 268.439 147.068 268.525 147.161C268.674 147.342 268.756 147.573 268.756 147.812C268.756 148.051 268.674 148.282 268.525 148.463C268.439 148.556 268.334 148.628 268.219 148.675C268.104 148.723 267.98 148.743 267.856 148.735H265.168L266.36 150.673C266.494 150.907 266.569 151.172 266.578 151.445C266.582 151.567 266.562 151.689 266.52 151.804C266.477 151.918 266.413 152.023 266.331 152.111C266.254 152.195 266.162 152.263 266.06 152.31C265.957 152.357 265.847 152.382 265.735 152.383C265.555 152.378 265.38 152.32 265.231 152.216C265.082 152.111 264.964 151.964 264.892 151.793L263.686 149.568L262.481 151.793C262.409 151.97 262.29 152.123 262.139 152.233C261.987 152.343 261.808 152.405 261.623 152.413Z" fill="black"/>
<path d="M274.903 152.413C274.789 152.413 274.676 152.389 274.571 152.342C274.466 152.295 274.371 152.227 274.293 152.141C274.207 152.052 274.139 151.946 274.094 151.828C274.049 151.711 274.028 151.586 274.031 151.46C274.038 151.248 274.093 151.04 274.191 150.854L275.499 148.735H272.825C272.702 148.742 272.578 148.721 272.463 148.674C272.348 148.627 272.243 148.555 272.157 148.463C272.008 148.282 271.926 148.051 271.926 147.812C271.926 147.573 272.008 147.342 272.157 147.161C272.243 147.069 272.348 146.997 272.463 146.95C272.578 146.903 272.702 146.882 272.825 146.889L275.455 146.965L274.22 144.921C274.104 144.72 274.039 144.49 274.031 144.255C274.028 144.129 274.049 144.004 274.094 143.887C274.139 143.769 274.207 143.663 274.293 143.574C274.374 143.488 274.471 143.419 274.579 143.372C274.686 143.325 274.801 143.301 274.917 143.302C275.08 143.299 275.24 143.347 275.377 143.438C275.514 143.53 275.622 143.661 275.687 143.816L276.966 146.193L278.186 143.922C278.263 143.746 278.385 143.594 278.539 143.485C278.693 143.376 278.872 143.312 279.058 143.302C279.173 143.3 279.286 143.323 279.391 143.37C279.496 143.417 279.591 143.487 279.668 143.574C279.754 143.657 279.821 143.758 279.866 143.87C279.911 143.983 279.933 144.103 279.93 144.225C279.928 144.44 279.867 144.65 279.756 144.83L278.477 146.965L281.136 146.889C281.259 146.881 281.383 146.902 281.499 146.949C281.614 146.996 281.718 147.068 281.804 147.161C281.953 147.342 282.036 147.573 282.036 147.812C282.036 148.051 281.953 148.282 281.804 148.463C281.718 148.556 281.614 148.628 281.499 148.675C281.383 148.723 281.259 148.743 281.136 148.735H278.448L279.639 150.673C279.774 150.907 279.849 151.172 279.857 151.445C279.861 151.567 279.842 151.689 279.799 151.804C279.757 151.918 279.692 152.023 279.61 152.111C279.534 152.195 279.442 152.263 279.339 152.31C279.237 152.357 279.126 152.382 279.015 152.383C278.835 152.378 278.66 152.32 278.511 152.216C278.361 152.111 278.244 151.964 278.172 151.793L276.966 149.568L275.76 151.793C275.689 151.97 275.57 152.123 275.418 152.233C275.266 152.343 275.088 152.405 274.903 152.413Z" fill="black"/>
<path d="M288.24 152.413C288.126 152.413 288.013 152.389 287.908 152.342C287.803 152.295 287.709 152.227 287.63 152.141C287.544 152.052 287.476 151.946 287.432 151.828C287.387 151.711 287.365 151.586 287.368 151.46C287.375 151.248 287.43 151.04 287.528 150.854L288.836 148.735H286.177C286.051 148.743 285.925 148.723 285.807 148.676C285.69 148.629 285.583 148.556 285.494 148.463C285.345 148.282 285.263 148.051 285.263 147.812C285.263 147.573 285.345 147.342 285.494 147.161C285.583 147.068 285.69 146.995 285.807 146.948C285.925 146.901 286.051 146.881 286.177 146.889L288.792 146.965L287.557 144.921C287.441 144.72 287.376 144.49 287.368 144.255C287.365 144.129 287.387 144.004 287.432 143.887C287.476 143.769 287.544 143.663 287.63 143.574C287.711 143.488 287.809 143.419 287.916 143.372C288.023 143.325 288.138 143.301 288.255 143.302C288.417 143.299 288.577 143.347 288.714 143.438C288.851 143.53 288.959 143.661 289.025 143.816L290.303 146.193L291.524 143.922C291.601 143.746 291.722 143.594 291.876 143.485C292.03 143.376 292.209 143.312 292.395 143.302C292.51 143.3 292.623 143.323 292.728 143.37C292.834 143.417 292.928 143.487 293.006 143.574C293.091 143.657 293.158 143.758 293.203 143.87C293.248 143.983 293.27 144.103 293.267 144.225C293.265 144.44 293.205 144.65 293.093 144.83L291.814 146.965L294.473 146.889C294.597 146.881 294.72 146.902 294.836 146.949C294.951 146.996 295.055 147.068 295.141 147.161C295.291 147.342 295.373 147.573 295.373 147.812C295.373 148.051 295.291 148.282 295.141 148.463C295.055 148.556 294.951 148.628 294.836 148.675C294.72 148.723 294.597 148.743 294.473 148.735H291.785L292.977 150.673C293.111 150.907 293.186 151.172 293.195 151.445C293.199 151.567 293.179 151.689 293.136 151.804C293.094 151.918 293.03 152.023 292.948 152.111C292.871 152.195 292.779 152.263 292.676 152.31C292.574 152.357 292.464 152.382 292.352 152.383C292.172 152.378 291.997 152.32 291.848 152.216C291.699 152.111 291.581 151.964 291.509 151.793L290.303 149.568L289.097 151.793C289.026 151.97 288.907 152.123 288.755 152.233C288.604 152.343 288.425 152.405 288.24 152.413Z" fill="black"/>
<path d="M301.577 152.413C301.463 152.413 301.35 152.389 301.245 152.342C301.141 152.296 301.046 152.227 300.967 152.141C300.881 152.052 300.814 151.946 300.769 151.829C300.724 151.711 300.702 151.586 300.706 151.46C300.706 151.247 300.761 151.038 300.866 150.854L302.173 148.735H299.5C299.376 148.742 299.253 148.721 299.138 148.674C299.022 148.627 298.918 148.555 298.831 148.463C298.682 148.282 298.6 148.051 298.6 147.812C298.6 147.573 298.682 147.343 298.831 147.161C298.918 147.069 299.022 146.997 299.138 146.95C299.253 146.903 299.376 146.882 299.5 146.889L302.13 146.965L300.851 144.997C300.734 144.796 300.669 144.566 300.662 144.331C300.659 144.205 300.68 144.079 300.725 143.962C300.77 143.845 300.838 143.739 300.924 143.65C301.005 143.563 301.102 143.495 301.21 143.448C301.317 143.401 301.432 143.377 301.548 143.378C301.711 143.375 301.871 143.423 302.008 143.514C302.145 143.606 302.253 143.737 302.318 143.892L303.597 146.268L304.817 143.998C304.894 143.821 305.016 143.67 305.17 143.561C305.324 143.451 305.503 143.388 305.689 143.378C305.803 143.376 305.917 143.399 306.022 143.446C306.127 143.493 306.222 143.562 306.299 143.65C306.384 143.733 306.452 143.834 306.497 143.946C306.542 144.058 306.564 144.179 306.561 144.301C306.559 144.516 306.498 144.726 306.386 144.906L305.108 147.04L307.767 146.965C307.89 146.957 308.014 146.977 308.13 147.024C308.245 147.072 308.349 147.144 308.435 147.237C308.584 147.418 308.666 147.649 308.666 147.888C308.666 148.127 308.584 148.358 308.435 148.539C308.349 148.632 308.245 148.704 308.13 148.751C308.014 148.798 307.89 148.819 307.767 148.811H305.079L306.27 150.748C306.405 150.982 306.48 151.248 306.488 151.52C306.492 151.643 306.473 151.765 306.43 151.88C306.388 151.994 306.323 152.098 306.241 152.186C306.165 152.271 306.072 152.339 305.97 152.386C305.868 152.433 305.757 152.458 305.645 152.459C305.466 152.454 305.291 152.396 305.142 152.292C304.992 152.187 304.875 152.04 304.803 151.868L303.597 149.644L302.391 151.868C302.313 152.025 302.197 152.158 302.054 152.254C301.911 152.349 301.747 152.404 301.577 152.413Z" fill="black"/>
<path d="M314.915 152.413C314.801 152.413 314.688 152.389 314.583 152.342C314.478 152.295 314.383 152.227 314.305 152.141C314.219 152.052 314.151 151.946 314.106 151.828C314.061 151.711 314.04 151.586 314.043 151.46C314.05 151.248 314.105 151.04 314.203 150.854L315.511 148.735H312.852C312.728 148.745 312.604 148.726 312.488 148.678C312.372 148.631 312.268 148.558 312.183 148.463C312.025 148.286 311.937 148.054 311.937 147.812C311.937 147.57 312.025 147.338 312.183 147.161C312.268 147.066 312.372 146.993 312.488 146.946C312.604 146.899 312.728 146.879 312.852 146.889L315.467 146.964L314.232 144.921C314.116 144.72 314.05 144.49 314.043 144.255C314.039 144.131 314.059 144.008 314.102 143.893C314.145 143.777 314.21 143.672 314.292 143.583C314.375 143.494 314.474 143.423 314.583 143.375C314.693 143.326 314.811 143.302 314.929 143.302C315.092 143.299 315.252 143.347 315.389 143.438C315.526 143.53 315.634 143.661 315.699 143.816L316.978 146.193L318.198 143.922C318.275 143.746 318.397 143.594 318.551 143.485C318.705 143.375 318.884 143.312 319.07 143.302C319.185 143.298 319.299 143.32 319.404 143.367C319.51 143.414 319.604 143.485 319.68 143.574C319.765 143.657 319.833 143.758 319.878 143.87C319.923 143.983 319.945 144.103 319.942 144.225C319.94 144.44 319.879 144.65 319.767 144.83L318.489 146.964L321.148 146.889C321.271 146.881 321.395 146.902 321.511 146.949C321.626 146.996 321.73 147.068 321.816 147.161C321.965 147.342 322.048 147.573 322.048 147.812C322.048 148.051 321.965 148.282 321.816 148.463C321.73 148.556 321.626 148.628 321.511 148.675C321.395 148.722 321.271 148.743 321.148 148.735H318.46L319.651 150.673C319.786 150.906 319.861 151.172 319.869 151.445C319.873 151.564 319.854 151.683 319.814 151.794C319.774 151.906 319.713 152.009 319.635 152.096C319.556 152.183 319.462 152.253 319.358 152.302C319.254 152.352 319.141 152.379 319.027 152.383C318.847 152.378 318.672 152.32 318.523 152.216C318.373 152.111 318.256 151.964 318.184 151.793L316.978 149.568L315.772 151.793C315.701 151.97 315.582 152.123 315.43 152.233C315.278 152.343 315.1 152.405 314.915 152.413Z" fill="black"/>
<path d="M328.253 152.413C328.138 152.413 328.026 152.389 327.921 152.342C327.816 152.295 327.721 152.227 327.642 152.141C327.556 152.052 327.489 151.946 327.444 151.828C327.399 151.711 327.377 151.586 327.381 151.46C327.388 151.248 327.442 151.04 327.541 150.854L328.848 148.735H326.175C326.053 148.743 325.932 148.722 325.819 148.675C325.706 148.628 325.604 148.556 325.521 148.463C325.363 148.286 325.275 148.054 325.275 147.812C325.275 147.57 325.363 147.338 325.521 147.161C325.604 147.069 325.706 146.996 325.819 146.949C325.932 146.902 326.053 146.881 326.175 146.889L328.805 146.964L327.57 144.921C327.453 144.72 327.388 144.49 327.381 144.255C327.377 144.131 327.397 144.008 327.44 143.893C327.483 143.777 327.547 143.672 327.63 143.583C327.713 143.494 327.812 143.423 327.921 143.375C328.031 143.326 328.148 143.302 328.267 143.302C328.43 143.299 328.59 143.347 328.727 143.438C328.863 143.53 328.971 143.661 329.037 143.816L330.316 146.193L331.536 143.922C331.613 143.746 331.735 143.594 331.889 143.485C332.042 143.375 332.222 143.312 332.408 143.302C332.522 143.298 332.636 143.32 332.742 143.367C332.847 143.414 332.942 143.485 333.018 143.574C333.103 143.657 333.17 143.758 333.216 143.87C333.261 143.983 333.282 144.103 333.28 144.225C333.278 144.44 333.217 144.65 333.105 144.83L331.827 146.964L334.485 146.889C334.609 146.881 334.733 146.902 334.848 146.949C334.964 146.996 335.068 147.068 335.154 147.161C335.303 147.342 335.385 147.573 335.385 147.812C335.385 148.051 335.303 148.282 335.154 148.463C335.068 148.556 334.964 148.628 334.848 148.675C334.733 148.722 334.609 148.743 334.485 148.735H331.798L332.989 150.673C333.123 150.906 333.198 151.172 333.207 151.445C333.211 151.564 333.192 151.683 333.152 151.794C333.112 151.906 333.051 152.009 332.972 152.096C332.894 152.183 332.8 152.253 332.696 152.302C332.591 152.352 332.479 152.379 332.364 152.383C332.184 152.378 332.009 152.32 331.86 152.216C331.711 152.111 331.593 151.964 331.522 151.793L330.316 149.568L329.11 151.793C329.038 151.97 328.92 152.123 328.768 152.233C328.616 152.343 328.437 152.405 328.253 152.413Z" fill="black"/>
<path d="M341.532 152.413C341.418 152.413 341.305 152.389 341.2 152.342C341.095 152.295 341 152.227 340.921 152.141C340.836 152.052 340.768 151.946 340.723 151.828C340.678 151.711 340.657 151.586 340.66 151.46C340.667 151.248 340.722 151.04 340.82 150.854L342.127 148.735H339.454C339.333 148.743 339.211 148.722 339.098 148.675C338.985 148.628 338.883 148.556 338.8 148.463C338.642 148.286 338.554 148.054 338.554 147.812C338.554 147.57 338.642 147.338 338.8 147.161C338.883 147.069 338.985 146.996 339.098 146.949C339.211 146.902 339.333 146.881 339.454 146.889L342.084 146.964L340.849 144.921C340.732 144.72 340.667 144.49 340.66 144.255C340.657 144.129 340.678 144.004 340.723 143.886C340.768 143.769 340.836 143.663 340.921 143.574C341.003 143.488 341.1 143.419 341.207 143.372C341.315 143.325 341.43 143.301 341.546 143.302C341.709 143.299 341.869 143.347 342.006 143.438C342.143 143.53 342.251 143.661 342.316 143.816L343.595 146.193L344.815 143.922C344.892 143.746 345.014 143.594 345.168 143.485C345.321 143.375 345.501 143.312 345.687 143.302C345.802 143.298 345.916 143.32 346.021 143.367C346.126 143.414 346.221 143.485 346.297 143.574C346.382 143.657 346.45 143.758 346.495 143.87C346.54 143.983 346.562 144.103 346.559 144.225C346.557 144.44 346.496 144.65 346.384 144.83L345.106 146.964L347.765 146.889C347.888 146.881 348.012 146.902 348.127 146.949C348.243 146.996 348.347 147.068 348.433 147.161C348.582 147.342 348.664 147.573 348.664 147.812C348.664 148.051 348.582 148.282 348.433 148.463C348.347 148.556 348.243 148.628 348.127 148.675C348.012 148.722 347.888 148.743 347.765 148.735H345.077L346.268 150.673C346.403 150.906 346.478 151.172 346.486 151.445C346.49 151.567 346.47 151.689 346.428 151.804C346.386 151.918 346.321 152.023 346.239 152.11C346.163 152.195 346.07 152.263 345.968 152.31C345.866 152.357 345.755 152.382 345.643 152.383C345.463 152.378 345.289 152.32 345.139 152.216C344.99 152.111 344.873 151.964 344.801 151.793L343.595 149.568L342.389 151.793C342.317 151.97 342.199 152.123 342.047 152.233C341.895 152.343 341.716 152.405 341.532 152.413Z" fill="black"/>
<path d="M387.239 185.893H405.008" stroke="white" stroke-width="3" stroke-linecap="round" stroke-linejoin="round"/>
<path d="M140.788 49.5986V172.543C140.788 176.104 142.145 179.519 144.562 182.036C146.979 184.554 150.257 185.968 153.675 185.968H370.371" stroke="white" stroke-width="3" stroke-linecap="round" stroke-linejoin="round"/>
<path d="M140.788 16.9969V35.4318" stroke="white" stroke-width="3" stroke-linecap="round" stroke-linejoin="round"/>
</svg>
