<svg width="73" height="73" viewBox="0 0 73 73" fill="none" xmlns="http://www.w3.org/2000/svg">
<path fill-rule="evenodd" clip-rule="evenodd" d="M19.9107 55.6726C32.2655 53.8747 40.7722 54.0293 53.1433 55.7356C54.0392 55.8649 54.8579 56.3129 55.4481 56.9966C56.0383 57.6804 56.3602 58.5538 56.3543 59.4556C56.3543 60.3186 56.0565 61.1564 55.5186 61.8109C54.5811 62.952 53.6207 64.0741 52.6379 65.1767H57.4048C57.7044 64.8207 58.0058 64.4575 58.3109 64.0889C59.3815 62.7811 59.9656 61.1449 59.9642 59.4574C59.9642 55.8165 57.2965 52.679 53.6379 52.1756C40.9744 50.4298 32.1229 50.2626 19.3891 52.1163C15.6925 52.6539 13.0356 55.8399 13.0356 59.5059C13.0356 61.1331 13.5681 62.7423 14.5771 64.0458C14.8749 64.4305 15.1691 64.8081 15.4615 65.1785H20.1128C19.1985 64.0881 18.3067 62.9791 17.4379 61.8523C16.9216 61.1777 16.6431 60.3524 16.6455 59.5041C16.6455 57.5677 18.0426 55.9441 19.9107 55.6726ZM36.4999 38.2072C37.9221 38.2072 39.3303 37.9282 40.6443 37.386C41.9582 36.8439 43.152 36.0493 44.1577 35.0475C45.1633 34.0458 45.961 32.8565 46.5052 31.5477C47.0495 30.2389 47.3296 28.8361 47.3296 27.4194C47.3296 26.0027 47.0495 24.5999 46.5052 23.2911C45.961 21.9822 45.1633 20.793 44.1577 19.7913C43.152 18.7895 41.9582 17.9949 40.6443 17.4528C39.3303 16.9106 37.9221 16.6316 36.4999 16.6316C33.6277 16.6316 30.8732 17.7681 28.8422 19.7913C26.8112 21.8144 25.6703 24.5583 25.6703 27.4194C25.6703 30.2805 26.8112 33.0244 28.8422 35.0475C30.8732 37.0706 33.6277 38.2072 36.4999 38.2072ZM36.4999 41.8031C40.3295 41.8031 44.0023 40.2877 46.7102 37.5902C49.4182 34.8928 50.9395 31.2342 50.9395 27.4194C50.9395 23.6046 49.4182 19.946 46.7102 17.2485C44.0023 14.5511 40.3295 13.0356 36.4999 13.0356C32.6703 13.0356 28.9976 14.5511 26.2896 17.2485C23.5817 19.946 22.0604 23.6046 22.0604 27.4194C22.0604 31.2342 23.5817 34.8928 26.2896 37.5902C28.9976 40.2877 32.6703 41.8031 36.4999 41.8031Z" fill="#C5E3E3"/>
<path fill-rule="evenodd" clip-rule="evenodd" d="M36.5 69.35C54.6423 69.35 69.35 54.6423 69.35 36.5C69.35 18.3577 54.6423 3.65 36.5 3.65C18.3577 3.65 3.65 18.3577 3.65 36.5C3.65 54.6423 18.3577 69.35 36.5 69.35ZM36.5 73C56.659 73 73 56.659 73 36.5C73 16.3411 56.659 0 36.5 0C16.3411 0 0 16.3411 0 36.5C0 56.659 16.3411 73 36.5 73Z" fill="#C5E3E3"/>
</svg>
