<svg width="556" height="540" viewBox="0 0 556 540" fill="none" xmlns="http://www.w3.org/2000/svg">
<g clip-path="url(#clip0_412_521)">
<path d="M76.6218 436.731H29.8831V451.454H76.6218V436.731Z" fill="#EBEBEB"/>
<path d="M227.552 76.9944H180.814V91.717H227.552V76.9944Z" fill="#EBEBEB"/>
<path d="M50.554 470.018L27.3441 470.413L15.6063 470.571H3.81523H3.21704V469.966V455.243V454.664H3.8817L27.2511 454.756L38.9358 454.875L50.6205 455.019H50.9395V455.322L50.554 470.018ZM50.554 470.018L50.235 455.296L50.554 455.611L38.8693 455.756L27.1846 455.875L3.81523 455.98L4.47989 455.322V470.045L3.86841 469.453H15.4468L27.0783 469.61L50.554 470.018Z" fill="#EBEBEB"/>
<path d="M503.279 331.081C495.489 331.213 475.855 331.542 468.331 331.621H456.54H455.929V331.028V316.306V315.635H456.594L479.963 315.714C485.772 315.714 497.51 315.898 503.332 315.977H503.651V316.293L503.346 331.015L503.279 331.081ZM503.279 331.081L502.96 316.358L503.279 316.661C497.444 316.74 485.732 316.872 479.91 316.924L456.54 317.003L457.205 316.358L457.139 331.081L456.54 330.476H468.119C475.523 330.568 495.609 330.897 503.279 331.028V331.081Z" fill="#EBEBEB"/>
<path d="M477.198 349.632C469.422 349.777 449.788 350.106 442.25 350.185H430.473H429.861V349.58V334.87V334.199H430.539L453.908 334.278C459.718 334.278 471.455 334.462 477.265 334.541H477.597V334.936L477.278 349.645L477.198 349.632ZM477.198 349.632L476.839 334.936L477.145 335.239L465.46 335.383C458.056 335.489 438.076 335.568 430.419 335.581L431.084 334.936L431.018 349.645L430.419 349.053H441.998C449.402 349.146 469.488 349.474 477.145 349.593L477.198 349.632Z" fill="#EBEBEB"/>
<path d="M451.237 316.345H404.498V331.068H451.237V316.345Z" fill="#EBEBEB"/>
<path d="M553.727 455.296H506.988V470.018H553.727V455.296Z" fill="#EBEBEB"/>
<path d="M527.659 0.657837H480.92V15.3804H527.659V0.657837Z" fill="#EBEBEB"/>
<path d="M553.727 33.9449L530.517 34.3396L518.779 34.4975H506.988H506.39V33.8922L506.323 19.1696V18.5118H506.988L530.358 18.6039L542.042 18.7223L553.727 18.867H554.046V19.1696L553.727 33.9449ZM553.727 33.9449L553.408 19.1696L553.727 19.4854L542.042 19.6301L530.358 19.7354L506.988 19.8275L507.653 19.1696V33.8922L507.041 33.3002H518.62L530.251 33.4581L553.727 33.9449Z" fill="#EBEBEB"/>
<path d="M76.6219 15.3804L53.412 15.7751L41.6741 15.933H29.8831H29.2849V15.3278V0.605204V-0.0526428H29.9496L53.319 0.0394553L65.0037 0.157868L76.6883 0.302595H77.0074V0.605204L76.6219 15.3804ZM76.6219 15.3804L76.3028 0.657833L76.6219 0.973596L64.9372 1.11832L53.2525 1.22358L29.8831 1.31568L30.5478 0.657833V15.3804L29.9363 14.7884H41.5146L53.1461 14.9463L76.6219 15.3804Z" fill="#EBEBEB"/>
<path d="M22.7048 4.44702V238.193H176.214V4.44702H22.7048ZM170.551 232.588H28.3146V10.0519H170.551V232.588Z" fill="#EBEBEB"/>
<path d="M170.551 10.0519H28.3809V232.588H170.551V10.0519Z" fill="white"/>
<path d="M28.3677 124.122L170.538 124.122V118.518L28.3677 118.518V124.122Z" fill="#EBEBEB"/>
<path d="M12.2828 254.284L186.636 254.284V238.193L12.2828 238.193V254.284Z" fill="#DBDBDB"/>
<path d="M28.3677 10.0519H170.605V154.028H28.3677V10.0519ZM165.287 15.2357H33.6185V148.831H165.301L165.287 15.2357Z" fill="#DBDBDB"/>
<path d="M125.168 10.0519H122.337V148.831H125.168V10.0519Z" fill="#DBDBDB"/>
<path d="M76.5819 10.0519H73.7505V148.831H76.5819V10.0519Z" fill="#DBDBDB"/>
<path d="M381.341 4.44702V238.193H534.837V4.44702H381.341ZM529.174 232.588H387.004V10.0519H529.241L529.174 232.588Z" fill="#EBEBEB"/>
<path d="M529.174 10.0519H387.004V232.588H529.174V10.0519Z" fill="white"/>
<path d="M387.004 124.122L529.174 124.122V118.518L387.004 118.518V124.122Z" fill="#EBEBEB"/>
<path d="M370.919 254.284L545.272 254.284V238.193L370.919 238.193V254.284Z" fill="#DBDBDB"/>
<path d="M387.004 10.0519H529.241V154.028H387.004V10.0519ZM523.924 15.2357H392.241V148.831H523.924V15.2357Z" fill="#DBDBDB"/>
<path d="M483.805 10.0519H480.973V148.831H483.805V10.0519Z" fill="#DBDBDB"/>
<path d="M435.205 10.0519H432.374V148.831H435.205V10.0519Z" fill="#DBDBDB"/>
<path d="M194.24 307.78H0V319.516H194.24V307.78Z" fill="#EBEBEB"/>
<path d="M176.919 319.516H17.321V351.895H176.919V319.516Z" fill="#EBEBEB"/>
<path d="M176.919 325.91L17.321 329.042V319.516H176.919V325.91Z" fill="#C7C7C7"/>
<path d="M152.22 326.305H42.033V345.12H152.22V326.305Z" stroke="#DBDBDB" stroke-miterlimit="10"/>
<path d="M115.292 332.989H78.9614V338.423H115.292V332.989Z" fill="#DBDBDB"/>
<path d="M16.0315 538.145H10.7542L26.121 351.895H39.6003L16.0315 538.145Z" fill="#EBEBEB"/>
<path d="M39.6003 351.908L38.0184 364.368H25.0974L26.121 351.908H39.6003Z" fill="#C7C7C7"/>
<path d="M178.208 538.145H183.499L168.119 351.895H154.639L178.208 538.145Z" fill="#EBEBEB"/>
<path d="M154.639 351.908L156.221 364.368H169.142L168.119 351.908H154.639Z" fill="#C7C7C7"/>
<path d="M1.54199 538.145L70.8526 537.816L140.163 537.711L278.771 537.487L417.392 537.698L486.689 537.816L556 538.145L486.689 538.461L417.392 538.579L278.771 538.79L140.163 538.579L70.8526 538.461L1.54199 538.145Z" fill="#263238"/>
<path d="M391.112 34.4317H166.457C163.441 34.4506 160.458 35.0581 157.679 36.2193C154.9 37.3806 152.379 39.0728 150.262 41.1991C148.144 43.3255 146.471 45.8442 145.338 48.6113C144.205 51.3783 143.635 54.3393 143.659 57.3248V515.186C143.606 521.21 145.972 527.008 150.237 531.306C154.503 535.604 160.318 538.05 166.404 538.105H391.058C394.078 538.085 397.064 537.475 399.845 536.312C402.626 535.149 405.149 533.455 407.269 531.326C409.388 529.198 411.063 526.677 412.198 523.908C413.333 521.138 413.906 518.174 413.883 515.186V57.3248C413.925 51.3018 411.551 45.5082 407.282 41.216C403.013 36.9238 397.197 34.4838 391.112 34.4317ZM399.659 501.069C399.659 513.12 390.54 522.87 379.294 522.87H178.261C166.976 522.87 157.87 513.12 157.87 501.069V74.7051C157.87 50.1542 166.976 48.957 178.261 48.957H218.526C220.866 48.957 222.78 51.5883 222.78 54.8513V56.2591C222.78 63.9032 227.007 63.9032 232.245 63.9032H325.297C330.614 63.9032 334.722 63.9032 334.722 56.2327V54.8513C334.722 51.5883 336.61 48.957 339.002 48.957H379.267C390.513 48.957 399.633 52.2199 399.633 74.7051L399.659 501.069Z" fill="#263238"/>
<path d="M291.466 54.3776H266.063C265.647 54.3776 265.248 54.214 264.954 53.9229C264.659 53.6317 264.494 53.2369 264.494 52.8251C264.494 52.4133 264.659 52.0185 264.954 51.7273C265.248 51.4361 265.647 51.2726 266.063 51.2726H291.466C291.882 51.2726 292.281 51.4361 292.575 51.7273C292.869 52.0185 293.035 52.4133 293.035 52.8251C293.035 53.2369 292.869 53.6317 292.575 53.9229C292.281 54.214 291.882 54.3776 291.466 54.3776Z" fill="white"/>
<path d="M399.739 74.7051V501.069C399.739 513.12 390.62 522.87 379.374 522.87H178.261C166.989 522.87 157.87 513.12 157.87 501.069V74.7051C157.87 50.1543 166.989 48.957 178.261 48.957H218.526C220.866 48.957 222.78 51.5884 222.78 54.8513V56.2591C222.78 63.9033 227.007 63.9032 232.245 63.9032H325.297C330.535 63.9032 334.722 63.9032 334.722 56.2328V54.8513C334.722 51.5884 336.61 48.957 338.989 48.957H379.267C390.553 48.957 399.739 52.2199 399.739 74.7051Z" fill="white"/>
<path d="M182.342 103.164L175.191 96.5456L182.342 89.9145L183.446 91.0855L177.57 96.5456L183.446 101.993L182.342 103.164Z" fill="#C7C7C7"/>
<path d="M380.942 92.4143C380.942 92.6901 380.86 92.9598 380.705 93.1891C380.55 93.4185 380.33 93.5972 380.073 93.7028C379.815 93.8084 379.532 93.836 379.258 93.7822C378.985 93.7283 378.734 93.5955 378.537 93.4005C378.34 93.2054 378.206 92.9569 378.151 92.6864C378.097 92.4159 378.125 92.1355 378.232 91.8806C378.338 91.6258 378.519 91.408 378.75 91.2547C378.982 91.1015 379.255 91.0197 379.533 91.0197C379.719 91.0179 379.903 91.0528 380.075 91.1223C380.246 91.1917 380.402 91.2944 380.534 91.4242C380.665 91.5541 380.769 91.7085 380.839 91.8785C380.909 92.0485 380.944 92.2307 380.942 92.4143Z" fill="#C7C7C7"/>
<path d="M380.942 97.3613C380.942 97.6371 380.86 97.9068 380.705 98.1361C380.55 98.3655 380.33 98.5442 380.073 98.6498C379.815 98.7553 379.532 98.783 379.258 98.7292C378.985 98.6753 378.734 98.5425 378.537 98.3475C378.34 98.1524 378.206 97.9039 378.151 97.6334C378.097 97.3629 378.125 97.0824 378.232 96.8276C378.338 96.5728 378.519 96.355 378.75 96.2017C378.982 96.0485 379.255 95.9667 379.533 95.9667C379.719 95.9649 379.903 95.9998 380.075 96.0693C380.246 96.1387 380.402 96.2414 380.534 96.3712C380.665 96.5011 380.769 96.6555 380.839 96.8255C380.909 96.9955 380.944 97.1777 380.942 97.3613Z" fill="#C7C7C7"/>
<path d="M380.942 102.308C380.942 102.584 380.86 102.854 380.705 103.083C380.55 103.313 380.33 103.491 380.073 103.597C379.815 103.702 379.532 103.73 379.258 103.676C378.985 103.622 378.734 103.49 378.537 103.294C378.34 103.099 378.206 102.851 378.151 102.58C378.097 102.31 378.125 102.029 378.232 101.775C378.338 101.52 378.519 101.302 378.75 101.149C378.982 100.995 379.255 100.914 379.533 100.914C379.719 100.912 379.903 100.947 380.075 101.016C380.246 101.086 380.402 101.188 380.534 101.318C380.665 101.448 380.769 101.603 380.839 101.773C380.909 101.943 380.944 102.125 380.942 102.308Z" fill="#C7C7C7"/>
<path d="M211.574 58.5352L211.189 58.9168L210.963 59.1273C209.966 58.1471 208.619 57.5969 207.214 57.5969C205.809 57.5969 204.462 58.1471 203.465 59.1273L203.253 58.9036L202.867 58.5221L203.359 58.0879C203.716 57.8144 204.099 57.5764 204.502 57.3774C204.98 57.1387 205.491 56.9703 206.018 56.8774C206.257 56.8774 206.51 56.8774 206.762 56.7722H207.427H207.945C208.399 56.834 208.845 56.9443 209.275 57.1011C209.596 57.2215 209.907 57.3667 210.205 57.5353C210.52 57.7141 210.818 57.9211 211.096 58.1537L211.508 58.5221L211.574 58.5352Z" fill="#C7C7C7"/>
<path d="M204.702 60.3377L204.077 59.7325C204.911 58.913 206.039 58.4531 207.214 58.4531C208.389 58.4531 209.517 58.913 210.351 59.7325L209.727 60.3377C209.059 59.6805 208.156 59.3116 207.214 59.3116C206.273 59.3116 205.369 59.6805 204.702 60.3377Z" fill="#C7C7C7"/>
<path d="M209.115 60.9561L208.504 61.5613C208.336 61.3902 208.136 61.2542 207.914 61.1613C207.693 61.0683 207.455 61.0205 207.214 61.0205C206.974 61.0205 206.735 61.0683 206.514 61.1613C206.292 61.2542 206.092 61.3902 205.925 61.5613C205.725 61.3508 205.513 61.1534 205.313 60.9561C205.561 60.7055 205.857 60.5063 206.183 60.3704C206.509 60.2344 206.86 60.1644 207.214 60.1644C207.568 60.1644 207.919 60.2344 208.245 60.3704C208.572 60.5063 208.867 60.7055 209.115 60.9561Z" fill="#C7C7C7"/>
<path d="M207.772 62.1007C207.772 62.2473 207.714 62.3879 207.609 62.4915C207.504 62.5951 207.362 62.6534 207.214 62.6534C207.141 62.6534 207.069 62.639 207.002 62.6111C206.935 62.5831 206.875 62.5422 206.824 62.4907C206.773 62.4392 206.733 62.3782 206.707 62.3112C206.68 62.2443 206.667 62.1727 206.669 62.1007C206.669 61.9577 206.727 61.8205 206.829 61.7193C206.931 61.6182 207.07 61.5613 207.214 61.5613C207.287 61.5596 207.359 61.5722 207.427 61.5985C207.494 61.6249 207.556 61.6643 207.608 61.7146C207.66 61.7649 207.701 61.8249 207.73 61.8912C207.758 61.9576 207.772 62.0288 207.772 62.1007Z" fill="#C7C7C7"/>
<path d="M173.635 59.693C173.635 59.3776 173.73 59.0693 173.907 58.8072C174.085 58.5451 174.337 58.3411 174.631 58.221C174.926 58.1009 175.25 58.0701 175.562 58.1326C175.875 58.1951 176.161 58.3481 176.386 58.572C176.61 58.796 176.762 59.0809 176.823 59.3906C176.883 59.7002 176.85 60.0207 176.726 60.3114C176.602 60.6021 176.394 60.8498 176.128 61.0231C175.861 61.1964 175.549 61.2876 175.23 61.285C175.02 61.285 174.811 61.2437 174.617 61.1636C174.423 61.0834 174.246 60.9659 174.098 60.8179C173.949 60.6699 173.832 60.4943 173.753 60.3012C173.674 60.1082 173.634 59.9014 173.635 59.693Z" fill="#C7C7C7"/>
<path d="M178.673 59.693C178.671 59.3776 178.763 59.0685 178.938 58.805C179.113 58.5415 179.363 58.3354 179.657 58.2129C179.951 58.0903 180.275 58.0569 180.587 58.1169C180.9 58.1768 181.188 58.3274 181.414 58.5495C181.641 58.7716 181.795 59.0552 181.858 59.3644C181.922 59.6736 181.89 59.9943 181.769 60.286C181.648 60.5777 181.442 60.8271 181.177 61.0026C180.912 61.1781 180.601 61.2718 180.282 61.2718C179.858 61.2719 179.45 61.1059 179.149 60.8102C178.848 60.5145 178.677 60.113 178.673 59.693Z" fill="#C7C7C7"/>
<path d="M183.725 59.693C183.722 59.3776 183.814 59.0685 183.989 58.805C184.165 58.5415 184.415 58.3354 184.709 58.2129C185.002 58.0903 185.326 58.0569 185.639 58.1169C185.952 58.1768 186.24 58.3274 186.466 58.5495C186.692 58.7716 186.847 59.0552 186.91 59.3644C186.973 59.6736 186.942 59.9943 186.821 60.286C186.699 60.5777 186.493 60.8271 186.228 61.0026C185.964 61.1781 185.652 61.2718 185.333 61.2718C184.909 61.2719 184.502 61.1059 184.201 60.8102C183.899 60.5145 183.728 60.113 183.725 59.693Z" fill="#C7C7C7"/>
<path d="M188.776 59.693C188.774 59.377 188.866 59.0674 189.042 58.8036C189.218 58.5398 189.469 58.3338 189.763 58.2116C190.058 58.0895 190.382 58.0569 190.695 58.1179C191.009 58.1789 191.296 58.3308 191.522 58.5542C191.748 58.7776 191.901 59.0625 191.963 59.3725C192.025 59.6826 191.992 60.0038 191.868 60.2952C191.745 60.5866 191.537 60.8351 191.27 61.009C191.004 61.183 190.691 61.2744 190.372 61.2718C190.162 61.2718 189.955 61.231 189.761 61.1517C189.568 61.0723 189.392 60.956 189.244 60.8094C189.096 60.6628 188.978 60.4888 188.898 60.2972C188.818 60.1056 188.776 59.9004 188.776 59.693Z" fill="#C7C7C7"/>
<path d="M193.828 59.693C193.825 59.377 193.917 59.0674 194.093 58.8036C194.269 58.5398 194.52 58.3338 194.814 58.2116C195.109 58.0895 195.433 58.0569 195.747 58.1179C196.06 58.1789 196.348 58.3308 196.573 58.5542C196.799 58.7776 196.953 59.0625 197.014 59.3725C197.076 59.6826 197.043 60.0038 196.92 60.2952C196.796 60.5866 196.588 60.8351 196.321 61.009C196.055 61.183 195.742 61.2744 195.423 61.2718C195.213 61.2718 195.006 61.231 194.812 61.1517C194.619 61.0723 194.443 60.956 194.295 60.8094C194.147 60.6628 194.029 60.4888 193.949 60.2972C193.869 60.1056 193.828 59.9004 193.828 59.693Z" fill="#C7C7C7"/>
<path d="M381.541 63.1664H368.473V57.1669H381.541V63.1664ZM369.165 62.4954H380.863V57.8379H369.165V62.4954Z" fill="#C7C7C7"/>
<path d="M377.978 58.1931H369.563V62.1402H377.978V58.1931Z" fill="#C7C7C7"/>
<path d="M382.697 58.5615H381.541V61.7587H382.697V58.5615Z" fill="#C7C7C7"/>
<path d="M188.67 499.832H187.487V505.2H185.28V502.463H181.372V505.2H179.165V499.832H177.982L183.326 494.372L188.67 499.832Z" fill="#EBEBEB"/>
<path d="M380.065 494.359H367.184V496.174H380.065V494.359Z" fill="#EBEBEB"/>
<path d="M380.065 498.871H367.184V500.7H380.065V498.871Z" fill="#EBEBEB"/>
<path d="M380.065 503.384H367.184V505.213H380.065V503.384Z" fill="#EBEBEB"/>
<path d="M282.812 499.977L279.143 503.845L275.488 499.977L276.126 499.371L279.143 502.555L282.161 499.371L282.812 499.977Z" fill="#EBEBEB"/>
<path d="M279.143 507.844C277.829 507.844 276.544 507.459 275.451 506.736C274.358 506.013 273.506 504.986 273.003 503.783C272.499 502.581 272.368 501.259 272.624 499.983C272.881 498.707 273.514 497.534 274.443 496.614C275.373 495.694 276.557 495.068 277.846 494.814C279.136 494.56 280.472 494.69 281.687 495.188C282.901 495.686 283.939 496.529 284.67 497.611C285.4 498.693 285.79 499.965 285.79 501.266C285.79 503.011 285.09 504.684 283.843 505.918C282.597 507.151 280.906 507.844 279.143 507.844ZM279.143 495.543C277.998 495.54 276.879 495.874 275.926 496.502C274.973 497.13 274.229 498.023 273.79 499.07C273.351 500.116 273.235 501.268 273.458 502.379C273.681 503.491 274.232 504.512 275.041 505.313C275.851 506.114 276.882 506.66 278.005 506.88C279.128 507.1 280.292 506.986 281.349 506.551C282.406 506.116 283.309 505.381 283.943 504.437C284.578 503.494 284.915 502.386 284.912 501.253C284.912 499.738 284.305 498.286 283.223 497.215C282.141 496.144 280.673 495.543 279.143 495.543Z" fill="#EBEBEB"/>
<path d="M359.301 228.904H198.241V247.837H359.301V228.904Z" fill="#EBEBEB"/>
<path d="M359.301 274.283H198.241V293.215H359.301V274.283Z" fill="#EBEBEB"/>
<path d="M359.301 319.661H198.241V338.594H359.301V319.661Z" fill="#EBEBEB"/>
<path d="M350.554 236.706C350.554 237.086 350.44 237.458 350.227 237.774C350.014 238.09 349.711 238.336 349.356 238.481C349.001 238.626 348.611 238.665 348.235 238.59C347.858 238.516 347.512 238.333 347.241 238.065C346.97 237.796 346.785 237.454 346.71 237.081C346.635 236.709 346.673 236.322 346.82 235.971C346.967 235.62 347.216 235.32 347.535 235.109C347.854 234.898 348.23 234.786 348.613 234.786C348.869 234.784 349.122 234.832 349.358 234.928C349.594 235.024 349.809 235.165 349.99 235.344C350.17 235.523 350.313 235.735 350.41 235.969C350.507 236.203 350.556 236.454 350.554 236.706Z" fill="#A6A6A6"/>
<path d="M351.963 241.969H345.237C345.291 241.124 345.668 240.331 346.291 239.752C346.915 239.172 347.738 238.85 348.593 238.85C349.449 238.85 350.272 239.172 350.896 239.752C351.519 240.331 351.896 241.124 351.95 241.969H351.963Z" fill="#A6A6A6"/>
<path d="M345.237 281.848L344.094 280.94H353.067L351.923 281.848C351.538 282.15 351.152 282.453 350.78 282.769L349.517 283.821L348.574 284.611L347.63 283.821L346.367 282.769L345.237 281.848Z" fill="#A6A6A6"/>
<path d="M353.093 280.993V286.624H344.12V280.993L345.21 282.006L346.327 282.992L347.484 284.006H347.417C347.166 284.142 346.922 284.291 346.686 284.453C346.38 284.637 346.088 284.834 345.782 285.045L344.918 285.663C344.625 285.887 344.346 286.098 344.067 286.334C344.386 286.163 344.692 285.979 344.998 285.782C345.303 285.584 345.596 285.4 345.888 285.19C346.181 284.979 346.486 284.782 346.766 284.571C347.045 284.361 347.231 284.216 347.457 284.019L348.441 284.861L349.424 284.019C349.65 284.216 349.876 284.387 350.102 284.571L350.98 285.19C351.272 285.4 351.578 285.598 351.87 285.782C352.163 285.966 352.482 286.163 352.801 286.334C352.535 286.098 352.242 285.887 351.963 285.663L351.086 285.045C350.793 284.834 350.501 284.637 350.195 284.453C349.955 284.291 349.707 284.142 349.451 284.006H349.384L350.554 282.992L351.658 282.006L353.093 280.993Z" fill="#A6A6A6"/>
<path d="M348.6 326.95C346.872 327.067 345.262 327.857 344.12 329.147C344.649 329.827 345.329 330.377 346.107 330.756C346.885 331.135 347.74 331.332 348.607 331.332C349.474 331.332 350.329 331.135 351.107 330.756C351.885 330.377 352.564 329.827 353.093 329.147C351.948 327.856 350.332 327.065 348.6 326.95ZM348.6 330.7C348.287 330.7 347.981 330.608 347.721 330.436C347.461 330.264 347.258 330.019 347.139 329.733C347.019 329.447 346.988 329.132 347.049 328.828C347.11 328.525 347.26 328.246 347.482 328.027C347.703 327.808 347.985 327.659 348.292 327.598C348.598 327.538 348.916 327.569 349.206 327.687C349.495 327.806 349.742 328.007 349.915 328.264C350.089 328.521 350.182 328.824 350.182 329.134C350.184 329.34 350.144 329.544 350.065 329.735C349.986 329.926 349.87 330.099 349.723 330.245C349.575 330.391 349.4 330.506 349.208 330.584C349.015 330.662 348.808 330.701 348.6 330.7Z" fill="#A6A6A6"/>
<path d="M349.61 329.134C349.627 329.274 349.613 329.416 349.57 329.55C349.527 329.685 349.456 329.808 349.361 329.914C349.266 330.019 349.15 330.103 349.02 330.161C348.89 330.218 348.749 330.248 348.607 330.248C348.464 330.248 348.323 330.218 348.194 330.161C348.064 330.103 347.947 330.019 347.853 329.914C347.758 329.808 347.687 329.685 347.644 329.55C347.601 329.416 347.587 329.274 347.603 329.134C347.631 328.89 347.749 328.665 347.934 328.502C348.12 328.339 348.359 328.248 348.607 328.248C348.855 328.248 349.094 328.339 349.279 328.502C349.464 328.665 349.582 328.89 349.61 329.134Z" fill="#A6A6A6"/>
<path d="M317.954 368H241V390.972H317.954V368Z" fill="#00928F"/>
<path d="M313.041 146.555C321.498 146.555 328.354 139.769 328.354 131.398C328.354 123.027 321.498 116.242 313.041 116.242C304.583 116.242 297.727 123.027 297.727 131.398C297.727 139.769 304.583 146.555 313.041 146.555Z" fill="#455A64"/>
<path d="M242.215 198.183C248.147 198.183 252.956 193.423 252.956 187.552C252.956 181.681 248.147 176.921 242.215 176.921C236.283 176.921 231.474 181.681 231.474 187.552C231.474 193.423 236.283 198.183 242.215 198.183Z" fill="#EBEBEB"/>
<path d="M269.766 381.379C270.081 381.376 270.237 381.197 270.234 380.84C270.234 380.697 270.206 380.553 270.148 380.41C270.036 380.132 269.831 379.99 269.531 379.984C269.161 379.979 268.874 380.262 268.668 380.832C269.139 381.197 269.505 381.379 269.766 381.379ZM268.109 381.461C267.711 381.466 267.512 382.053 267.512 383.223C267.512 383.738 267.53 384.21 267.566 384.637H266.863C266.835 384.181 266.82 383.746 266.82 383.332C266.82 382.436 266.923 381.785 267.129 381.379C267.332 380.98 267.613 380.754 267.973 380.699C268.355 379.733 268.871 379.249 269.52 379.246C269.941 379.243 270.277 379.395 270.527 379.699C270.777 380.004 270.902 380.368 270.902 380.793C270.902 381.163 270.812 381.469 270.633 381.711C270.451 381.964 270.161 382.09 269.766 382.09C269.495 382.09 269.176 381.983 268.809 381.77C268.684 381.694 268.549 381.62 268.406 381.547C268.292 381.49 268.193 381.461 268.109 381.461ZM273.441 382H273.309C272.35 382 271.871 381.435 271.871 380.305V376.57H272.551V380.297C272.551 380.953 272.807 381.281 273.32 381.281H273.441V382ZM273.637 382H273.285C273.285 382 273.285 381.76 273.285 381.281H273.637C273.923 381.281 274.141 381.24 274.289 381.156C274.51 381.026 274.621 380.754 274.621 380.34C274.621 380.03 274.573 379.685 274.477 379.305L275.113 379.145C275.241 379.551 275.305 379.945 275.305 380.328C275.305 380.966 275.122 381.423 274.758 381.699C274.492 381.9 274.118 382 273.637 382ZM273.871 377.914L274.441 377.344L275.012 377.918L274.445 378.484L273.871 377.914ZM281.238 382C279.257 382 278.266 381.367 278.266 380.102C278.266 379.75 278.337 379.415 278.48 379.098L279.094 379.328C279.008 379.547 278.965 379.77 278.965 379.996C278.965 380.853 279.716 381.281 281.219 381.281C282.573 381.281 283.41 381.112 283.73 380.773C283.819 380.68 283.863 380.521 283.863 380.297C283.863 380.208 283.861 380.134 283.855 380.074L283.836 379.758L284.48 379.68L284.543 380.52C284.559 380.741 284.624 380.924 284.738 381.07C284.85 381.211 285.033 381.281 285.285 381.281H285.383C285.383 381.281 285.383 381.521 285.383 382H285.285C284.736 382 284.345 381.77 284.113 381.309C283.678 381.77 282.725 382 281.254 382H281.238ZM281.551 378.398L282.121 377.828L282.691 378.402L282.125 378.969L281.551 378.398ZM280.281 378.398L280.848 377.828L281.422 378.402L280.852 378.969L280.281 378.398ZM288 382H287.91C287.395 382 287.039 381.816 286.844 381.449C286.586 381.816 286.201 382 285.688 382H285.234V381.281H285.668C286.139 381.281 286.408 381.109 286.473 380.766C286.488 380.674 286.496 380.566 286.496 380.441C286.496 380.311 286.492 380.188 286.484 380.07L286.465 379.754L287.105 379.676L287.168 380.578C287.202 381.047 287.452 381.281 287.918 381.281H288V382ZM285.746 383.238L286.316 382.668L286.887 383.242L286.32 383.809L285.746 383.238ZM288.191 382H287.84C287.84 382 287.84 381.76 287.84 381.281H288.191C288.608 381.281 288.891 381.24 289.039 381.156C289.26 381.026 289.371 380.754 289.371 380.34C289.371 380.03 289.323 379.685 289.227 379.305L289.863 379.145C289.991 379.551 290.055 379.945 290.055 380.328C290.055 380.966 289.872 381.423 289.508 381.699C289.242 381.9 288.803 382 288.191 382ZM288.469 376.926L289.023 376.367L289.582 376.93L289.027 377.484L288.469 376.926ZM289.109 377.973L289.668 377.418L290.227 377.977L289.672 378.531L289.109 377.973ZM287.844 377.973L288.395 377.418L288.957 377.977L288.398 378.531L287.844 377.973Z" fill="white"/>
<path d="M300.598 193.604C296.902 195.874 292.863 197.544 288.635 198.551C278.504 200.991 267.816 199.56 258.704 194.545C249.592 189.53 242.725 181.299 239.473 171.494C236.221 161.689 236.823 151.032 241.159 141.647C245.496 132.262 253.247 124.841 262.868 120.863C272.488 116.885 283.271 116.643 293.063 120.185C302.856 123.727 310.94 130.793 315.702 139.974C320.463 149.154 321.553 159.774 318.754 169.714C315.955 179.655 309.472 188.185 300.598 193.604Z" fill="#00928F"/>
<path d="M291.413 154.015C291.413 156.483 290.674 158.896 289.289 160.949C287.904 163.002 285.935 164.602 283.631 165.548C281.328 166.494 278.793 166.743 276.346 166.263C273.9 165.783 271.652 164.597 269.887 162.853C268.121 161.11 266.918 158.887 266.428 156.467C265.938 154.047 266.184 151.537 267.135 149.255C268.086 146.973 269.699 145.021 271.77 143.646C273.841 142.271 276.277 141.534 278.771 141.529C280.43 141.524 282.074 141.843 283.609 142.468C285.143 143.094 286.538 144.013 287.712 145.173C288.887 146.333 289.819 147.711 290.454 149.229C291.089 150.746 291.415 152.373 291.413 154.015Z" fill="white"/>
<path d="M300.598 188.46V193.604C296.902 195.874 292.863 197.544 288.635 198.551C283.294 199.857 277.743 200.09 272.309 199.238C266.875 198.386 261.669 196.466 256.997 193.591V188.46C256.925 185.582 257.436 182.72 258.499 180.04C259.562 177.361 261.156 174.92 263.186 172.859C265.217 170.799 267.644 169.162 270.324 168.044C273.004 166.926 275.883 166.35 278.791 166.35C281.699 166.35 284.578 166.926 287.258 168.044C289.938 169.162 292.365 170.799 294.396 172.859C296.427 174.92 298.02 177.361 299.083 180.04C300.146 182.72 300.657 185.582 300.585 188.46H300.598Z" fill="white"/>
<path d="M347.145 270H347C346.596 270 346.297 269.902 346.102 269.707C346.089 271.257 345.374 272.031 343.957 272.031C342.449 272.031 341.697 271.306 341.699 269.855C341.699 269.319 341.807 268.786 342.023 268.258L342.645 268.512C342.47 268.954 342.383 269.401 342.383 269.852C342.383 270.844 342.909 271.34 343.961 271.34C344.953 271.34 345.451 270.802 345.453 269.727L345.461 264.566H346.133L346.129 268.457C346.129 269.007 346.426 269.281 347.02 269.281H347.145C347.145 269.281 347.145 269.521 347.145 270ZM348.25 271.238L348.82 270.668L349.391 271.242L348.824 271.809L348.25 271.238ZM346.98 271.238L347.547 270.668L348.121 271.242L347.551 271.809L346.98 271.238ZM349.949 270H349.859C349.344 270 348.988 269.816 348.793 269.449C348.535 269.816 348.085 270 347.441 270H346.988V269.281H347.422C348.023 269.281 348.357 269.109 348.422 268.766C348.438 268.674 348.445 268.566 348.445 268.441C348.445 268.311 348.441 268.188 348.434 268.07L348.414 267.754L349.055 267.676L349.117 268.578C349.151 269.047 349.401 269.281 349.867 269.281H349.949V270ZM352.34 269.387C352.717 269.389 352.902 269.208 352.895 268.844C352.892 268.693 352.862 268.549 352.805 268.414C352.68 268.133 352.469 267.991 352.172 267.988C351.82 267.983 351.548 268.253 351.355 268.797C351.691 269.188 352.02 269.384 352.34 269.387ZM352.383 270.086C351.904 270.086 351.448 269.871 351.016 269.441C350.695 269.814 350.331 270 349.922 270H349.793C349.793 270 349.793 269.76 349.793 269.281H349.902C350.142 269.281 350.352 269.159 350.531 268.914C350.625 268.784 350.723 268.605 350.824 268.379C351.163 267.626 351.609 267.249 352.164 267.246C352.586 267.246 352.919 267.401 353.164 267.711C353.339 267.935 353.461 268.214 353.531 268.547C353.635 269.036 353.841 269.281 354.148 269.281H354.254V270H354.145C353.842 270 353.598 269.854 353.41 269.562C353.186 269.911 352.844 270.086 352.383 270.086ZM354.445 270H354.094C354.094 270 354.094 269.76 354.094 269.281H354.445C354.862 269.281 355.145 269.24 355.293 269.156C355.514 269.026 355.625 268.754 355.625 268.34C355.625 268.03 355.577 267.685 355.48 267.305L356.117 267.145C356.245 267.551 356.309 267.945 356.309 268.328C356.309 268.966 356.126 269.423 355.762 269.699C355.496 269.9 355.057 270 354.445 270ZM355.359 271.238L355.93 270.668L356.5 271.242L355.934 271.809L355.359 271.238ZM354.09 271.238L354.656 270.668L355.23 271.242L354.66 271.809L354.09 271.238ZM357.426 264.57H358.102V269.996H357.426V264.57Z" fill="black"/>
<path d="M336.762 312.922C336.978 313.448 337.086 313.936 337.086 314.387C337.089 315.806 336.262 316.672 334.605 316.984L334.363 316.367C335.728 316.112 336.413 315.458 336.418 314.406C336.421 314.052 336.319 313.635 336.113 313.156L336.762 312.922ZM339.805 315C339.805 315 339.615 315 339.234 315C338.281 315 337.805 314.612 337.805 313.836C337.805 313.521 337.872 313.223 338.008 312.941C338.253 312.428 338.622 312.172 339.117 312.172C339.932 312.172 340.387 312.876 340.48 314.285H340.93C340.93 314.285 340.93 314.523 340.93 315L340.434 314.996C340.238 316.061 339.454 316.724 338.082 316.984L337.84 316.367C338.962 316.159 339.617 315.703 339.805 315ZM339.828 314.281C339.768 313.37 339.516 312.913 339.07 312.91C338.826 312.908 338.647 313.064 338.535 313.379C338.488 313.517 338.465 313.65 338.465 313.777C338.465 314.113 338.708 314.281 339.195 314.281H339.828ZM343.547 315H343.457C342.941 315 342.586 314.816 342.391 314.449C342.133 314.816 341.747 315 341.234 315H340.781V314.281H341.215C341.686 314.281 341.954 314.109 342.02 313.766C342.035 313.674 342.043 313.566 342.043 313.441C342.043 313.311 342.039 313.188 342.031 313.07L342.012 312.754L342.652 312.676L342.715 313.578C342.749 314.047 342.999 314.281 343.465 314.281H343.547V315ZM341.293 316.238L341.863 315.668L342.434 316.242L341.867 316.809L341.293 316.238ZM343.387 314.281H344.508H344.535L344.52 314.262C344.457 314.191 344.398 314.116 344.344 314.035C344.198 313.814 344.126 313.547 344.129 313.234C344.132 312.807 344.247 312.449 344.477 312.16C344.599 312.007 344.753 311.88 344.938 311.781C345.177 311.651 345.458 311.587 345.781 311.59C346.315 311.592 346.755 311.773 347.102 312.133L346.84 312.719C346.517 312.453 346.197 312.319 345.879 312.316C345.712 312.314 345.562 312.337 345.43 312.387C345.297 312.434 345.182 312.504 345.086 312.598C344.995 312.689 344.926 312.79 344.879 312.902C344.832 313.014 344.809 313.138 344.809 313.273C344.809 313.625 345.012 313.9 345.418 314.098C345.475 314.126 345.509 314.139 345.52 314.137L347.223 313.703V314.422C345.983 314.807 344.842 315 343.801 315H343.387C343.387 315 343.387 314.76 343.387 314.281ZM350.988 311.5L351.574 310.914L352.168 311.504L351.578 312.094L350.988 311.5ZM352.449 314.793C352.298 315.973 351.479 316.703 349.992 316.984L349.75 316.367C351.115 316.112 351.799 315.458 351.805 314.406C351.807 314.052 351.706 313.635 351.5 313.156L352.148 312.922L352.391 313.68C352.521 314.081 352.766 314.281 353.125 314.281H353.281C353.281 314.281 353.281 314.521 353.281 315H353.168C352.79 315 352.551 314.931 352.449 314.793ZM355.66 314.387C356.025 314.387 356.207 314.208 356.207 313.852C356.207 313.682 356.181 313.536 356.129 313.414C356.004 313.13 355.796 312.988 355.504 312.988C355.145 312.988 354.87 313.258 354.68 313.797C355.021 314.19 355.348 314.387 355.66 314.387ZM354.34 314.441C354.02 314.814 353.655 315 353.246 315H353.117C353.117 315 353.117 314.76 353.117 314.281H353.227C353.438 314.281 353.646 314.159 353.852 313.914C353.94 313.805 354.039 313.628 354.148 313.383C354.49 312.628 354.936 312.249 355.488 312.246C355.918 312.246 356.257 312.401 356.504 312.711C356.751 313.018 356.875 313.379 356.875 313.793C356.875 314.197 356.788 314.501 356.613 314.707C356.397 314.96 356.098 315.086 355.715 315.086C355.21 315.086 354.751 314.871 354.34 314.441ZM358.91 312.922C359.126 313.448 359.234 313.936 359.234 314.387C359.237 315.806 358.41 316.672 356.754 316.984L356.512 316.367C357.876 316.112 358.561 315.458 358.566 314.406C358.569 314.052 358.467 313.635 358.262 313.156L358.91 312.922Z" fill="black"/>
<path d="M433.256 114.492C433.256 114.492 442.561 178.553 441.936 184.644C441.312 190.736 433.721 249.784 433.721 249.784C433.721 249.784 416.679 246.153 411.761 243.206C408.225 241.114 395.703 230.431 395.703 230.431C395.703 230.431 416.972 189.249 418.727 180.895C420.481 172.54 421.638 132.03 423.672 123.873C424.349 121.429 425.583 119.172 427.279 117.275C428.975 115.377 431.088 113.889 433.455 112.926" fill="#00928F"/>
<path d="M413.237 203.367C414.414 205.697 416.229 207.652 418.474 209.011C419.631 209.787 421.864 211.445 422.568 209.3C422.753 208.462 422.65 207.587 422.276 206.814C421.712 205.331 420.893 203.956 419.857 202.748C418.607 201.235 416.533 199.249 414.353 199.617C412.173 199.985 412.585 201.867 413.237 203.367Z" fill="#263238"/>
<path d="M426.862 213.655C427.058 216.461 428.158 219.131 429.999 221.273C430.917 222.221 431.98 222.523 432.804 221.865C433.628 221.208 434.067 219.787 434.133 218.655C434.424 215.939 433.916 213.198 432.671 210.761C431.887 209.248 430.504 207.143 428.471 207.603C425.918 208.261 426.61 211.8 426.862 213.655Z" fill="#263238"/>
<path d="M416.467 212.577C415.31 213.471 416.467 216.918 417.544 218.55C418.873 220.629 421.173 222.997 423.074 222.102C424.031 221.642 424.164 219.076 422.063 215.853C420.096 212.892 417.424 211.866 416.467 212.577Z" fill="#263238"/>
<path d="M410.644 231.575C411.096 232.457 412.08 234.009 413.236 234.062C414.393 234.115 414.566 232.957 414.566 232.115C414.523 230.8 414.277 229.5 413.835 228.26C413.29 226.576 412.279 225.115 410.644 225.023C407.414 224.852 410.059 230.444 410.644 231.575Z" fill="#263238"/>
<path d="M512.909 413.088C512.909 413.088 541.888 463.874 541.901 463.874C546.554 474.097 550.449 483.149 552.03 488.017C552.036 488.043 552.036 488.07 552.03 488.096C552.523 489.196 552.755 490.393 552.708 491.596C552.708 491.596 552.708 491.661 552.708 491.688C550.568 495.122 469.068 534.329 465.758 534.75C462.448 535.171 460.986 525.869 462.926 521.843C464.867 517.817 489.3 488.951 489.3 488.951L460.839 438.034L512.909 413.088Z" fill="#EB9481"/>
<path d="M467.061 534.421C470.357 534 550.568 495.095 552.695 491.661V491.569C552.742 490.367 552.51 489.17 552.017 488.07C552.022 488.059 552.025 488.048 552.025 488.037C552.025 488.025 552.022 488.014 552.017 488.004C550.435 483.136 546.54 474.071 541.901 463.848C541.901 463.848 537.009 454.98 535.068 451.901L483.225 478.426L489.26 488.951C489.26 488.951 466.143 517.475 464.203 521.501C462.262 525.527 463.737 534.921 467.061 534.421Z" fill="#EBEBEB"/>
<path d="M465.558 533.329C468.895 532.83 550.103 491.425 552.177 487.899C552.988 486.583 547.577 474.518 540.625 460.124C540.625 459.98 540.479 459.822 540.399 459.677L487.718 485.807L488.197 486.675C488.197 486.675 464.269 516.291 462.395 520.396C460.52 524.501 462.235 533.843 465.558 533.329Z" fill="#00928F"/>
<path d="M464.867 529.751C478.373 522.436 533.593 494.227 547.511 487.991C547.617 487.991 547.657 487.991 547.511 488.07C534.218 495.609 478.838 523.396 464.934 529.961C464.654 530.106 464.575 529.896 464.867 529.751Z" fill="white"/>
<path d="M483.877 489.083C488.742 485.346 495.761 482.794 501.849 484.504C502.088 484.57 501.982 484.899 501.782 484.925C495.781 485.907 489.903 487.522 484.249 489.741C484.163 489.772 484.068 489.772 483.981 489.741C483.895 489.71 483.823 489.649 483.778 489.569C483.733 489.49 483.718 489.397 483.736 489.308C483.755 489.219 483.804 489.139 483.877 489.083Z" fill="#263238"/>
<path d="M481.191 493.385C486.057 489.635 493.075 487.096 499.164 488.806C499.403 488.872 499.31 489.201 499.164 489.227C493.163 490.213 487.286 491.827 481.63 494.043C481.542 494.1 481.434 494.121 481.331 494.1C481.227 494.079 481.136 494.018 481.078 493.931C481.02 493.844 480.999 493.737 481.021 493.635C481.042 493.532 481.103 493.443 481.191 493.385Z" fill="#263238"/>
<path d="M478.506 497.687C483.385 493.938 490.39 491.398 496.492 493.109C496.718 493.109 496.625 493.503 496.425 493.53C490.42 494.514 484.538 496.128 478.878 498.345C478.792 498.377 478.697 498.377 478.611 498.346C478.525 498.314 478.452 498.253 478.408 498.174C478.363 498.094 478.348 498.002 478.366 497.913C478.384 497.823 478.434 497.743 478.506 497.687Z" fill="#263238"/>
<path d="M531.679 475.518C536.052 469.597 545.344 476.307 540.984 482.241C536.624 488.175 527.305 481.438 531.679 475.518Z" fill="white"/>
<path opacity="0.1" d="M484.594 491.122L478.758 527.211C474.461 529.47 470.051 531.512 465.545 533.329C462.222 533.843 460.52 524.488 462.368 520.396C463.817 517.291 477.948 499.542 484.594 491.122Z" fill="black"/>
<path d="M462.82 531.08C461.664 532.395 464.495 537.053 465.745 536.895C466.994 536.737 555.327 491.214 556.657 490.122C557.986 489.03 554.663 483.952 552.762 484.57C550.861 485.188 462.82 531.08 462.82 531.08Z" fill="#263238"/>
<path d="M535.201 447.165L476.791 478.031C476.791 478.031 403.067 374.091 401.605 346.725C399.558 308.991 432.113 189.197 432.113 189.197L484.036 188.855C484.036 188.855 462.926 312.043 464.655 333.055C465.545 344.054 535.201 447.165 535.201 447.165Z" fill="#37474F"/>
<path d="M471.7 466.084C474.704 463.94 502.394 448.059 523.477 437.915C523.61 437.915 523.703 438.047 523.583 438.126C517.189 442.31 475.861 464.716 471.859 466.308C471.727 466.361 471.567 466.176 471.7 466.084Z" fill="#263238"/>
<path d="M457.436 306.741C459.842 288.716 462.501 270.704 465.532 252.797C468.563 234.891 471.766 216.774 475.581 198.854C476.042 196.67 476.516 194.477 477.004 192.275C477.018 192.206 477.059 192.144 477.119 192.105C477.179 192.065 477.252 192.051 477.323 192.065C477.393 192.079 477.455 192.12 477.495 192.179C477.535 192.238 477.55 192.311 477.536 192.381C474.345 210.116 471.048 227.839 468.111 245.614C465.173 263.389 462.421 281.137 459.949 299.057C459.337 303.478 458.752 307.899 458.167 312.319C457.453 316.877 457.009 321.472 456.838 326.081C456.754 330.483 457.507 334.862 459.058 338.988C460.707 343.022 462.708 346.904 465.04 350.593C474.438 366.315 516.498 435.047 517.588 437.047C517.668 437.179 517.481 437.31 517.402 437.179C507.299 421.68 475.98 372.157 466.462 356.171C462.155 348.961 457.237 341.699 455.828 333.252C454.392 324.555 456.266 315.411 457.436 306.741Z" fill="#263238"/>
<path d="M472.391 447.165C472.391 447.165 472.976 505.792 472.976 505.831C472.67 517.041 472.192 526.883 471.461 531.935C471.467 531.961 471.467 531.988 471.461 532.014C471.423 533.218 471.105 534.398 470.53 535.461H470.464C467.034 537.632 376.414 537.763 373.251 536.777C370.087 535.79 372.852 526.725 376.375 523.949C379.897 521.172 414.566 505.752 414.566 505.752V447.165H472.391Z" fill="#EB9481"/>
<path d="M472.856 493.793C472.856 493.793 472.976 505.792 472.976 505.831C472.67 517.041 472.192 526.883 471.461 531.935C471.467 531.961 471.467 531.988 471.461 532.014C471.295 533.196 470.983 534.354 470.53 535.461H470.464C467.034 537.632 376.414 537.763 373.251 536.777C370.087 535.79 372.852 526.725 376.375 523.949C379.897 521.172 414.566 505.753 414.566 505.753V493.53L472.856 493.793Z" fill="#EBEBEB"/>
<path d="M373.198 536.671C376.401 537.671 467.738 536.092 471.168 533.843C472.497 533 473.029 519.817 473.229 503.871V503.345L414.287 503.713V504.713C414.287 504.713 379.605 520.791 376.082 523.659C372.559 526.527 369.981 535.671 373.198 536.671Z" fill="#00928F"/>
<path d="M374.168 533.145C389.548 532.5 451.68 531.343 466.941 531.829C467.074 531.829 467.074 531.922 466.941 531.935C451.707 532.895 389.575 533.553 374.168 533.356C373.836 533.395 373.836 533.158 374.168 533.145Z" fill="white"/>
<path d="M409.381 505.003C415.417 503.766 422.847 504.568 427.553 508.752C427.739 508.923 427.553 509.173 427.301 509.108C421.478 507.366 415.484 506.241 409.421 505.752C409.332 505.741 409.249 505.699 409.187 505.634C409.126 505.568 409.09 505.483 409.085 505.394C409.08 505.305 409.107 505.217 409.161 505.145C409.216 505.073 409.294 505.023 409.381 505.003Z" fill="#263238"/>
<path d="M405.061 507.687C411.096 506.45 418.527 507.252 423.22 511.436C423.406 511.607 423.22 511.857 422.98 511.792C417.153 510.05 411.155 508.926 405.088 508.437C404.999 508.423 404.917 508.38 404.857 508.313C404.797 508.247 404.762 508.162 404.759 508.073C404.756 507.983 404.785 507.896 404.84 507.825C404.895 507.755 404.973 507.706 405.061 507.687Z" fill="#263238"/>
<path d="M400.728 510.371C406.763 509.147 414.194 509.936 418.899 514.12C419.086 514.291 418.899 514.541 418.647 514.489C412.826 512.736 406.832 511.607 400.768 511.121C400.678 511.109 400.595 511.067 400.534 511.002C400.472 510.936 400.436 510.851 400.431 510.762C400.426 510.673 400.453 510.585 400.508 510.513C400.562 510.442 400.64 510.391 400.728 510.371Z" fill="#263238"/>
<path d="M371.735 533.448C370.113 534.106 370.565 539.526 371.735 539.947C372.905 540.368 472.497 538.197 474.186 537.79C475.874 537.382 475.143 531.382 473.175 531.106C471.208 530.83 371.735 533.448 371.735 533.448Z" fill="#263238"/>
<path d="M458.327 513.752C464.894 510.371 470.224 520.449 463.644 523.856C457.064 527.264 451.747 517.16 458.327 513.752Z" fill="white"/>
<path d="M432.751 189.078C433.096 190.144 451.747 240.746 453.515 241.561C455.495 242.469 412.306 314.306 409.727 347.672C408.092 369.026 411.309 489.767 411.309 489.767H474.478C474.478 489.767 471.434 381.169 469.998 346.751C469.44 333.41 513.374 266.98 513.866 225.602C514.039 212.563 504.561 188.762 504.561 188.762L432.751 189.078Z" fill="#37474F"/>
<path d="M469.679 345.935C469.679 345.383 470.118 345.199 470.158 345.764C471.58 364.394 471.913 382.906 472.817 401.563C473.721 420.219 473.202 424.653 474.04 443.244C474.518 453.769 474.04 464.295 474.305 474.821C474.297 474.847 474.28 474.87 474.257 474.886C474.234 474.902 474.207 474.911 474.179 474.911C474.151 474.911 474.124 474.902 474.101 474.886C474.079 474.87 474.062 474.847 474.053 474.821C472.086 456.322 469.693 356.474 469.679 345.935Z" fill="#263238"/>
<path d="M409.767 348.461C409.871 343.865 410.315 339.283 411.096 334.752C411.971 330.347 413.28 326.037 415.004 321.884C418.487 313.174 422.621 304.675 426.569 296.163C430.518 287.65 434.638 278.94 438.852 270.414C441.219 265.625 443.598 260.841 445.991 256.06C448.423 251.232 451.042 246.482 453.581 241.706C453.674 241.522 453.98 241.706 453.887 241.851C449.832 250.455 445.845 259.086 441.79 267.691C437.736 276.296 433.814 284.94 429.826 293.571C425.838 302.202 421.997 310.569 418.301 319.161C416.464 323.251 414.958 327.479 413.795 331.805C412.721 336.287 412.071 340.859 411.854 345.462C411.242 356.132 410.95 366.855 409.887 377.499C409.887 377.63 409.647 377.617 409.647 377.499C409.328 367.828 409.474 358.105 409.767 348.461Z" fill="#263238"/>
<path d="M415.922 477.518C419.591 477.044 447.586 476.084 470.995 477.07C471.027 477.07 471.057 477.083 471.08 477.105C471.102 477.127 471.115 477.157 471.115 477.189C471.115 477.22 471.102 477.25 471.08 477.273C471.057 477.295 471.027 477.307 470.995 477.307C463.365 477.978 420.242 478.268 415.948 477.781C415.802 477.768 415.749 477.531 415.922 477.518Z" fill="#263238"/>
<path d="M444.821 238.798C451.591 240.488 458.2 242.756 464.575 245.574C464.63 245.593 464.674 245.633 464.699 245.685C464.724 245.737 464.727 245.796 464.708 245.85C464.688 245.905 464.648 245.949 464.596 245.973C464.543 245.998 464.483 246.001 464.429 245.982C457.782 243.93 451.056 242.035 444.555 239.588C444.465 239.542 444.394 239.465 444.356 239.372C444.318 239.279 444.314 239.176 444.347 239.08C444.379 238.985 444.444 238.904 444.531 238.852C444.618 238.801 444.721 238.782 444.821 238.798Z" fill="#263238"/>
<path d="M438.44 195.933C438.44 195.723 438.826 195.63 438.839 195.933C439.57 203.406 440.727 209.919 442.083 216.826C442.721 220.037 447.201 237.667 452.717 235.785C453.648 235.47 454.047 234.47 454.047 233.062C453.833 231.212 453.386 229.395 452.717 227.654C451.707 223.97 450.803 220.26 450.059 216.51C448.678 209.53 448.023 202.427 448.105 195.315C448.105 195.266 448.124 195.219 448.159 195.184C448.194 195.15 448.241 195.13 448.291 195.13C448.34 195.13 448.387 195.15 448.422 195.184C448.457 195.219 448.477 195.266 448.477 195.315C449.319 205.102 450.905 214.814 453.222 224.365C454.419 228.944 457.516 235.706 452.664 236.93C447.812 238.154 443.279 226.76 442.335 223.602C439.831 214.585 438.522 205.284 438.44 195.933Z" fill="#263238"/>
<path d="M452.691 236.259C453.325 237.414 453.88 238.609 454.352 239.838C454.818 240.773 455.102 241.786 455.19 242.824C455.19 243.022 454.937 243.074 454.804 242.956C454.126 242.092 453.58 241.135 453.182 240.114C452.637 239.009 452.066 237.917 451.547 236.798C451.498 236.652 451.505 236.493 451.566 236.352C451.626 236.21 451.738 236.095 451.878 236.029C452.019 235.962 452.179 235.949 452.328 235.992C452.478 236.034 452.607 236.129 452.691 236.259Z" fill="#263238"/>
<path d="M463.205 364.302C462.886 355.421 461.876 346.093 464.827 337.515C466.438 333.32 468.366 329.252 470.596 325.345C472.777 321.178 474.926 316.977 477.044 312.74C485.485 295.873 493.434 278.73 500.533 261.257C503.962 252.85 507.02 244.219 508.243 235.193C509.366 225.709 508.767 216.103 506.475 206.827C505.943 204.511 505.371 202.209 504.733 199.92C504.733 199.762 504.946 199.656 504.999 199.827C507.988 208.58 509.65 217.722 509.931 226.957C509.863 235.803 508.253 244.572 505.172 252.876C502.141 261.612 498.353 270.086 494.617 278.545C490.762 287.247 486.774 295.886 482.653 304.465C478.519 312.99 474.106 321.371 469.746 329.792C467.499 333.789 465.864 338.095 464.894 342.567C464.223 347.198 464.049 351.886 464.375 356.553C465.12 376.222 466.835 441.665 467.034 461.282C467.034 463.769 467.1 466.255 467.127 468.755C467.127 468.966 466.795 469.005 466.781 468.755C465.532 449.204 463.923 383.906 463.205 364.302Z" fill="#263238"/>
<path d="M477.376 201.814C477.376 201.683 477.602 201.709 477.615 201.814C478.36 207.235 478.785 212.84 481.431 217.747C483.85 222.26 488.077 225.168 492.677 227.194C495.357 228.332 498.094 229.333 500.878 230.194C501.078 230.194 501.038 230.562 500.812 230.509C495.588 229.444 490.284 228.233 485.737 225.326C480.872 222.221 478.373 217.247 477.576 211.682C477.158 208.409 477.091 205.101 477.376 201.814Z" fill="#263238"/>
<path d="M507.857 193.038C507.738 193.288 424.642 215.695 423.712 215.103C423.619 215.103 420.189 213.208 419.444 206.853C419.232 205.103 421.598 197.643 421.664 192.025C421.851 172.54 421.079 136.358 426.437 116.926C427.872 111.663 439.238 105.716 445.472 109.518C473.561 126.609 508.017 192.71 507.857 193.038Z" fill="#EBEBEB"/>
<path d="M441.298 107.992C441.298 107.992 444.382 149.476 445.499 154.291C446.27 157.66 455.682 191.525 460.52 215.997C462.594 226.523 461.624 242.982 461.624 242.982C461.624 242.982 490.563 233.68 499.429 227.707C504.561 224.247 516.006 209.287 516.006 209.287C516.006 209.287 497.688 169.067 487.253 153.962C476.818 138.858 456.984 112.715 447.692 108.9C443.505 107.163 441.298 107.992 441.298 107.992Z" fill="#00928F"/>
<path d="M493.102 177.803C492.417 178.156 491.832 178.674 491.4 179.308C490.968 179.942 490.703 180.673 490.629 181.434C489.922 183.529 489.708 185.757 490.005 187.947C490.177 189.131 490.709 190.881 492.264 190.578C493.82 190.276 494.684 187.644 495.096 186.302C495.508 184.96 496.718 176.277 493.102 177.803ZM480.779 187.881C479.078 189.276 479.264 192.144 479.623 194.052C479.869 195.616 480.391 197.126 481.165 198.512C481.522 199.296 482.129 199.943 482.893 200.354C485.006 201.209 485.166 198.459 485.325 197.078C485.737 194.505 485.41 191.87 484.382 189.473C483.69 188.039 482.348 186.592 480.779 187.881ZM486.748 171.856C485.418 171.698 484.714 172.685 484.342 173.987C483.858 175.499 483.682 177.091 483.823 178.671C483.93 179.632 484.142 181.303 485.219 181.697C486.296 182.092 487.16 181 487.545 180.145C488.237 178.579 489.619 172.224 486.748 171.856ZM466.595 238.89C465.572 240.956 463.485 239.246 461.81 237.233C461.81 234.851 461.876 231.97 461.81 228.865L462.262 229.233C463.923 230.681 465.236 232.48 466.103 234.496C466.549 235.13 466.828 235.864 466.913 236.631C466.999 237.399 466.89 238.175 466.595 238.89ZM476.153 237.969L473.109 239.061C471.352 237.582 470.018 235.672 469.241 233.522C468.975 232.628 468.855 231.22 469.972 230.891C471.088 230.562 472.311 231.628 473.029 232.273C474.164 233.381 475.068 234.7 475.688 236.154C476.002 236.708 476.162 237.334 476.153 237.969ZM468.323 166.922C469.586 166.856 470.769 168.632 471.328 169.553C472.219 171.09 472.78 172.792 472.976 174.553C473.109 175.566 473.481 177.711 472.524 178.5C471.368 179.434 470.251 178.369 469.427 176.908C467.79 174.823 466.922 172.246 466.968 169.606C466.981 168.685 467.087 167.001 468.323 166.922ZM477.788 203.761C476.113 204.985 476.831 207.393 477.482 208.958C478.547 211.463 480.314 213.613 482.574 215.155C483.518 215.787 484.94 216.55 485.95 216.182C486.96 215.813 487.439 214.997 487.279 213.682C486.818 210.908 485.472 208.354 483.438 206.393C482.215 205.051 479.955 202.222 477.788 203.814V203.761ZM488.316 204.209C489.433 207.906 491.493 209.472 492.464 209.037C494.378 208.182 494.046 204.946 493.328 202.564C492.77 200.696 490.869 197.591 489.42 197.88C488.237 198.17 487.253 200.854 488.316 204.261V204.209ZM449.873 139.74C449.395 141.251 448.653 142.667 447.679 143.924C446.869 145.12 445.808 146.129 444.569 146.884C444.343 144.713 444.103 142.2 443.877 139.542C444.531 138.913 445.223 138.324 445.951 137.779C447.068 136.924 449.195 135.148 450.032 137.253C450.264 138.094 450.207 138.987 449.873 139.792V139.74ZM456.08 138.503C458.128 138.858 459.39 136.687 460.068 135.135C461.164 132.654 461.515 129.913 461.079 127.241C460.893 126.136 460.467 124.609 459.51 124.109C458.553 123.609 457.609 123.873 456.745 124.859C455.045 127.11 454.114 129.838 454.086 132.648C453.927 134.53 453.422 138.108 456.08 138.556V138.503ZM449.141 130.609C447.36 133.701 444.741 134.872 443.744 134.188C443.563 134.057 443.428 133.873 443.359 133.661C443.359 133.148 443.266 132.622 443.213 132.096C443.383 130.714 443.811 129.375 444.476 128.149C445.725 125.991 447.865 123.517 449.793 124.307C450.79 124.807 451.069 127.359 449.141 130.701V130.609ZM505.212 203.117C504.215 204.432 504.68 206.103 505.637 207.603C506.293 208.751 507.133 209.786 508.123 210.669C508.761 211.221 509.798 211.787 510.476 210.932C511.154 210.077 510.636 208.301 510.25 207.366C509.758 206.274 507.193 200.656 505.212 203.209V203.117ZM479.157 158.936C478.656 159.369 478.301 159.946 478.141 160.586C477.982 161.226 478.026 161.9 478.267 162.514C478.462 163.575 478.83 164.597 479.357 165.541C479.702 166.146 480.354 166.856 481.111 166.383C481.869 165.909 481.949 164.37 481.896 163.554C481.843 162.58 481.377 157.581 479.157 159.028V158.936Z" fill="#263238"/>
<path d="M432.419 129.28C437.111 128.175 441.059 115.965 441.299 109.413C441.299 108.966 439.544 106.782 436.792 102.479C435.117 99.8479 433.336 96.8876 431.9 94.0721L416.188 107.229C419.007 110.251 421.441 113.605 423.432 117.215C423.626 117.603 423.781 118.008 423.898 118.426C423.921 118.497 423.947 118.567 423.978 118.636C424.775 121.07 427.886 130.346 432.419 129.28Z" fill="#EB9481"/>
<path d="M425.985 121.254C425.666 121.425 425.347 121.57 425.041 121.715C424.536 120.399 424.164 119.32 423.964 118.689C423.946 118.617 423.924 118.547 423.898 118.478C423.779 118.058 423.624 117.648 423.432 117.255C421.438 113.65 419.005 110.301 416.188 107.282L431.9 94.1247C432.206 94.7168 432.512 95.3088 432.844 95.914C434.665 102.335 436.739 115.597 425.985 121.254Z" fill="#263238"/>
<path d="M424.323 75.0077C429.481 80.2704 435.476 100.006 433.057 106.374C429.547 115.518 419.152 121.478 410.126 116.255C401.392 111.189 394.041 85.2701 397.178 79.0731C401.804 69.9291 416.706 67.2056 424.323 75.0077Z" fill="#EB9481"/>
<path d="M412.226 95.6246C412.226 95.6246 412.346 95.6246 412.373 95.7035C412.811 97.0192 413.542 98.4665 414.898 98.4665C414.898 98.4665 414.965 98.4665 414.898 98.5454C413.383 98.8743 412.439 96.9534 412.226 95.6246Z" fill="#263238"/>
<path d="M412.891 93.8352C414.951 92.9011 416.693 97.0587 414.779 97.9139C412.864 98.7691 411.163 94.6246 412.891 93.8352Z" fill="#263238"/>
<path d="M404.835 98.7428C404.835 98.7428 404.769 98.848 404.835 98.9006C405.407 100.216 405.859 101.716 404.835 102.624C404.835 102.624 404.835 102.716 404.835 102.624C406.165 101.9 405.526 99.8611 404.835 98.7428Z" fill="#263238"/>
<path d="M403.054 97.8744C400.9 98.5717 402.469 102.795 404.463 102.137C406.457 101.479 404.835 97.2955 403.054 97.8744Z" fill="#263238"/>
<path d="M413.489 90.4802C412.872 90.5616 412.251 90.6099 411.628 90.6249C410.986 90.7727 410.312 90.7032 409.714 90.4276C409.538 90.3064 409.408 90.1303 409.346 89.9275C409.283 89.7248 409.291 89.507 409.368 89.3092C409.579 88.9471 409.884 88.6467 410.25 88.4387C410.617 88.2307 411.033 88.1225 411.455 88.1251C412.316 88.0001 413.193 88.1971 413.914 88.6777C414.072 88.796 414.192 88.957 414.259 89.1412C414.326 89.3254 414.338 89.525 414.293 89.7157C414.248 89.9064 414.148 90.0801 414.006 90.2158C413.863 90.3515 413.683 90.4433 413.489 90.4802Z" fill="#263238"/>
<path d="M399.983 95.0457C400.501 94.7071 400.999 94.338 401.472 93.9405C402.044 93.5063 402.535 93.23 402.801 92.5195C402.844 92.3154 402.818 92.1029 402.727 91.915C402.636 91.727 402.484 91.5742 402.296 91.4801C401.896 91.343 401.466 91.3159 401.052 91.4016C400.637 91.4873 400.254 91.6827 399.943 91.9669C399.218 92.4384 398.696 93.161 398.481 93.9931C398.45 94.1805 398.473 94.3728 398.547 94.5481C398.621 94.7233 398.743 94.8744 398.9 94.9842C399.056 95.0939 399.241 95.1579 399.433 95.1688C399.624 95.1796 399.815 95.137 399.983 95.0457Z" fill="#263238"/>
<path d="M415.736 103.085C415.616 103.728 415.365 104.34 414.997 104.883C414.629 105.426 414.152 105.889 413.595 106.242C413.115 106.557 412.591 106.8 412.04 106.966L411.721 107.045L411.415 107.124C411.34 107.138 411.261 107.128 411.192 107.095C411.122 107.062 411.066 107.007 411.03 106.94V106.795V106.69C410.591 105.716 410.059 104.163 410.059 104.163C409.767 104.492 408.251 106.084 408.065 105.558C406.319 101.049 405.04 96.3766 404.25 91.6117C404.259 91.5854 404.276 91.5625 404.299 91.5462C404.321 91.53 404.349 91.5212 404.377 91.5212C404.405 91.5212 404.432 91.53 404.455 91.5462C404.477 91.5625 404.494 91.5854 404.503 91.6117C406.138 95.7693 407.029 100.19 408.61 104.387C409.147 103.813 409.76 103.313 410.432 102.9C410.591 102.9 411.402 105.913 411.641 106.334C412.494 106.08 413.286 105.66 413.971 105.097C414.656 104.534 415.22 103.841 415.629 103.058C415.629 102.9 415.775 102.953 415.736 103.085Z" fill="#263238"/>
<path d="M431.661 94.0589C427.832 94.7562 424.682 85.5727 424.682 85.5727C424.682 85.5727 419.538 85.3622 415.31 77.468C415.31 77.468 414.925 86.6779 399.053 89.875C397.693 87.3531 397.167 84.4721 397.551 81.6388C396.908 84.7335 396.526 87.8756 396.407 91.0328C396.407 91.0328 388.578 79.6652 397.936 71.7053C401.658 68.5476 408.331 66.7714 419.91 68.4029C419.91 68.4029 419.91 61.8244 421.239 62.2849C422.568 62.7454 422.263 68.8634 422.263 68.8634C422.263 68.8634 426.184 66.1004 427.221 66.7714C428.258 67.4424 424.27 69.7975 424.27 69.7975C426.45 69.853 428.538 70.6798 430.155 72.1281C431.772 73.5764 432.811 75.5502 433.083 77.6917C434.413 85.1254 433.562 93.7168 431.661 94.0589Z" fill="#263238"/>
<path d="M423.047 70.1396C424.952 69.4467 427.046 69.4653 428.938 70.192C430.83 70.9186 432.389 72.3034 433.323 74.0867C434.261 76.2385 434.688 78.5744 434.572 80.9151C434.486 83.3581 434.088 85.7806 433.389 88.1251C433.389 88.2567 433.15 88.1251 433.19 88.0462C433.749 85.8998 433.973 83.6813 433.854 81.4677C433.848 79.3183 433.503 77.183 432.831 75.1392C432.113 73.2817 430.714 71.7606 428.912 70.88C427.111 69.9994 425.04 69.8243 423.113 70.3896C422.994 70.4027 422.927 70.1922 423.047 70.1396Z" fill="#263238"/>
<path d="M405.965 66.7846C408.758 66.5188 411.573 66.6161 414.34 67.074C416.99 67.388 419.566 68.1489 421.957 69.3239C422.077 69.3239 421.957 69.5738 421.877 69.5212C416.986 68.0717 411.87 67.5057 406.776 67.8503C402.07 68.0345 396.992 69.6923 394.812 74.2182C394.812 74.2972 394.666 74.2182 394.693 74.2182C396.461 69.5475 401.339 67.2977 405.965 66.7846Z" fill="#263238"/>
<path d="M428.058 92.3748C428.058 92.3748 429.388 84.4807 432.764 84.6254C436.141 84.7701 437.257 94.8746 434.652 97.5718C434.34 97.9398 433.957 98.242 433.526 98.4606C433.094 98.6791 432.622 98.8094 432.139 98.8438C431.655 98.8781 431.169 98.8159 430.71 98.6606C430.251 98.5054 429.829 98.2604 429.467 97.9402L428.058 92.3748Z" fill="#EB9481"/>
<path d="M432.99 87.5857C432.99 87.5857 433.083 87.5857 433.057 87.6646C431.262 89.6382 431.089 92.2432 431.315 94.7562C431.336 94.4732 431.419 94.1982 431.558 93.95C431.697 93.7019 431.889 93.4866 432.12 93.3189C432.352 93.1513 432.617 93.0353 432.898 92.9791C433.179 92.9229 433.469 92.9277 433.748 92.9932C433.828 92.9932 433.814 93.1248 433.748 93.1379C433.295 93.2039 432.874 93.4059 432.541 93.7165C432.208 94.0271 431.98 94.4314 431.887 94.8746C431.745 95.6204 431.682 96.3789 431.701 97.1376C431.701 97.3876 431.275 97.4534 431.249 97.1376C429.8 94.2694 430.092 89.2698 432.99 87.5857Z" fill="#263238"/>
<path d="M458.194 128.109C464.934 151.476 469.214 195.486 465.798 203.485C462.767 210.564 439.996 227.01 426.902 235.799C422.635 238.667 401.977 206.353 406.696 203.538C413.13 199.722 436.194 184.631 436.752 183C437.311 181.368 439.411 148.292 442.96 129.333C446.15 112.15 455.655 119.268 458.194 128.109Z" fill="#EB9481"/>
<path d="M363.121 241.64C366.352 244.903 373.756 236.377 373.756 236.377C373.343 238.3 373.62 240.306 374.54 242.048C376.321 245.035 381.825 243.587 381.825 243.587C381.826 245.67 382.455 247.704 383.633 249.429C385.627 252.061 391.396 251.442 391.396 251.442C392.458 253.355 394.18 254.827 396.248 255.587C401.858 257.402 408.385 251.166 413.197 248.087C418.829 244.23 423.851 239.565 428.098 234.246L408.823 203.011C408.823 203.011 381.386 209.774 376.773 214.734C372.825 218.905 358.203 236.667 363.121 241.64Z" fill="#EB9481"/>
<path d="M373.769 236.259C376.813 230.852 381.173 226.154 385.414 221.681C385.507 221.589 385.667 221.681 385.573 221.826C381.293 226.233 378.103 231.878 374.008 236.443C373.981 236.462 373.947 236.471 373.914 236.47C373.88 236.469 373.848 236.457 373.821 236.437C373.795 236.416 373.775 236.388 373.766 236.356C373.757 236.324 373.758 236.29 373.769 236.259Z" fill="#263238"/>
<path d="M381.665 243.114C382.47 241.947 383.432 240.893 384.523 239.982C385.613 238.943 386.73 237.917 387.847 236.917C390.107 234.899 392.411 232.948 394.759 231.062C394.866 230.983 395.012 231.062 394.905 231.207C392.672 233.22 390.465 235.259 388.259 237.351C387.182 238.404 386.105 239.456 385.042 240.522C384.105 241.592 383.053 242.558 381.905 243.403C381.867 243.411 381.827 243.409 381.79 243.396C381.753 243.383 381.721 243.36 381.696 243.331C381.671 243.301 381.655 243.265 381.65 243.226C381.645 243.188 381.65 243.149 381.665 243.114Z" fill="#263238"/>
<path d="M391.542 251.324C392.296 250.302 393.217 249.413 394.267 248.692L397.391 246.061C399.465 244.245 401.525 242.43 403.532 240.561C403.552 240.54 403.579 240.528 403.608 240.527C403.636 240.525 403.664 240.536 403.685 240.555C403.707 240.574 403.719 240.601 403.72 240.629C403.722 240.657 403.711 240.685 403.692 240.706C401.658 242.627 399.704 244.574 397.617 246.482C396.62 247.416 395.61 248.337 394.586 249.258C393.743 250.189 392.739 250.965 391.622 251.547C391.622 251.547 391.542 251.376 391.542 251.324Z" fill="#263238"/>
<path d="M470.211 182.052L433.562 182.5C433.562 182.5 438.268 142.516 443.332 125.109C447.586 110.479 456.439 111.821 461.305 130.714C465.904 148.581 470.211 182.052 470.211 182.052Z" fill="#00928F"/>
<path d="M469.547 177.053L469.427 176.856C467.79 174.77 466.922 172.194 466.968 169.553C466.968 168.725 467.074 167.225 468.071 166.922C468.643 170.948 469.174 174.421 469.547 177.053ZM441.033 143.7C442.082 141.314 443.786 139.268 445.951 137.793C447.068 136.937 449.195 135.161 450.032 137.266C450.255 138.095 450.199 138.972 449.873 139.766C449.395 141.277 448.653 142.694 447.679 143.95C446.523 145.529 444.569 147.634 442.362 147.384C440.155 147.134 440.474 145.226 441.033 143.726V143.7ZM454.073 132.648C454.101 129.838 455.032 127.11 456.732 124.859C457.596 123.873 458.646 123.544 459.497 124.109C460.348 124.675 460.826 126.136 461.065 127.241C461.502 129.913 461.151 132.654 460.055 135.135C459.351 136.687 458.088 138.858 456.067 138.503C453.422 138.108 453.927 134.53 454.02 132.675L454.073 132.648ZM443.744 134.253C442.535 133.411 443.505 129.912 444.476 128.227C445.725 126.07 447.865 123.596 449.793 124.386C450.777 124.78 451.056 127.333 449.128 130.675C447.374 133.793 444.715 134.951 443.744 134.28V134.253ZM441.578 171.382C441.378 172.343 440.833 174.093 439.717 174.448C438.6 174.803 438.135 173.724 437.935 172.895C437.62 171.604 437.521 170.271 437.643 168.948C437.723 167.172 438.321 165.514 439.876 165.001C442.96 164.08 441.857 170.159 441.578 171.409V171.382Z" fill="#263238"/>
<path d="M438.454 174.948C440.78 174.629 443.124 174.453 445.472 174.421C447.892 174.29 450.311 174.25 452.73 174.198C455.15 174.145 464.774 174.303 467.18 174.343C467.286 174.343 467.273 174.527 467.18 174.54C464.761 174.671 455.15 175.211 452.784 175.25C450.417 175.29 448.051 175.356 445.685 175.316C443.281 175.372 440.875 175.288 438.48 175.066C438.48 175.066 438.387 174.961 438.454 174.948Z" fill="#263238"/>
<path d="M462.833 137.253C466.103 152.081 469.241 167.054 470.37 182.21C469.041 182.21 467.805 182.21 466.515 182.105L470.198 181.908C467.778 168.172 464.88 151.713 462.833 137.253Z" fill="#263238"/>
<path d="M464.482 139.253C465.126 141.507 465.126 143.893 464.482 146.147C464.223 143.856 464.223 141.544 464.482 139.253Z" fill="#263238"/>
<path d="M78.3232 455.572C78.3232 455.572 101.055 450.467 113.51 439.113C125.966 427.758 132.932 407.391 132.932 407.391C124.294 409.017 115.776 411.215 107.435 413.97C104.316 417.149 101.715 420.788 99.7252 424.758C99.5321 422.192 99.5321 419.615 99.7252 417.048C96.8109 418.29 94.086 419.929 91.6297 421.917C81.2344 430.982 78.3232 455.572 78.3232 455.572Z" fill="#00928F"/>
<path d="M118.735 417.285C121.832 415.167 124.982 413.115 128.04 410.983C128.08 410.959 128.109 410.919 128.121 410.874C128.132 410.828 128.124 410.78 128.1 410.74C128.075 410.7 128.035 410.671 127.989 410.66C127.943 410.649 127.894 410.656 127.854 410.681C122.005 414.141 116.222 417.838 110.573 421.719C108.618 423.035 106.718 424.469 104.817 425.903L105.215 425.245C105.893 424.114 106.624 423.009 107.342 421.89C108.765 419.636 110.379 417.505 112.168 415.522C112.234 415.443 112.168 415.338 112.048 415.417C110.28 417.43 108.512 419.43 106.904 421.574C106.133 422.601 105.415 423.653 104.737 424.732C104.391 425.285 104.046 425.85 103.713 426.429L103.381 427.008C100.443 429.298 97.5718 431.679 94.8467 434.192C93.1585 435.745 91.5367 437.363 89.9681 439.021C90.8455 436.297 91.6032 433.547 92.6267 430.863C92.6267 430.771 92.5071 430.732 92.4805 430.863C91.4835 433.679 90.4068 436.508 89.6358 439.389C87.8634 441.257 86.2062 443.191 84.6641 445.191L84.7439 444.823C85.0098 443.77 85.2756 442.705 85.5548 441.652C86.1131 439.626 86.7113 437.6 87.4158 435.6C88.7201 431.457 90.7889 427.589 93.5174 424.193C93.5839 424.114 93.5174 424.009 93.3978 424.087C89.1414 429.341 86.1664 435.496 84.704 442.073C84.4515 443.033 84.2255 443.994 83.9995 444.954C83.8931 445.467 83.7469 445.994 83.6672 446.52C82.9759 447.428 82.3378 448.362 81.6599 449.309C77.7833 455.172 74.5566 461.432 72.0356 467.979C69.2029 475.34 66.7711 482.846 64.751 490.464C64.751 490.609 64.9371 490.662 64.9903 490.464C69.4302 477.307 73.9764 463.953 81.5801 452.177C83.1884 449.697 84.9232 447.3 86.7778 444.994C90.5942 444.768 94.363 444.038 97.9839 442.823C101.888 441.536 105.613 439.768 109.07 437.56C111.033 436.239 112.928 434.821 114.747 433.31C114.762 433.296 114.772 433.277 114.773 433.256C114.775 433.235 114.767 433.214 114.753 433.199C114.739 433.183 114.719 433.173 114.698 433.172C114.677 433.171 114.656 433.178 114.64 433.192C111.472 435.728 107.971 437.826 104.232 439.428C100.555 441.099 96.7093 442.378 92.7597 443.244C91.0847 443.599 89.3832 443.875 87.6817 444.099C89.7666 441.535 91.9852 439.08 94.3283 436.744C95.0993 435.994 95.8836 435.271 96.6812 434.534C99.3277 432.694 102.14 431.1 105.082 429.771C108.805 427.982 112.473 426.1 116.156 424.245C118.243 423.193 120.303 422.127 122.403 421.114C122.483 421.114 122.403 420.943 122.324 420.982C118.588 422.772 114.786 424.43 111.011 426.14C107.462 427.758 103.873 429.377 100.47 431.258L100.044 431.521C103.115 428.89 106.305 426.337 109.576 423.903C112.571 421.605 115.624 419.399 118.735 417.285Z" fill="#263238"/>
<path d="M117.445 428.89C115.597 429.692 113.71 430.403 111.875 431.245C110.041 432.087 108.22 433.139 106.425 434.179C106.345 434.179 106.425 434.337 106.505 434.297C108.313 433.442 110.147 432.639 111.942 431.745C113.736 430.85 115.597 429.85 117.485 429.034C117.578 428.995 117.538 428.85 117.445 428.89Z" fill="#263238"/>
<path d="M4.47974 342.199C8.67861 347.561 11.0563 354.101 11.2725 360.882C11.2725 362.895 11.02 365.71 10.7807 369.012C16.4553 372.269 21.4826 376.523 25.6159 381.564C21.0819 378.952 15.8721 377.717 10.6345 378.012C10.7463 380.272 11.0352 382.519 11.4985 384.735C14.8039 384.738 18.0771 385.377 21.1361 386.616C18.1501 386.588 15.1903 387.17 12.4423 388.327C16.4968 401.089 28.5404 414.193 61.7999 419.759C65.3306 404.113 63.2485 387.738 55.911 373.446C45.9411 354.04 4.47974 342.199 4.47974 342.199Z" fill="#00928F"/>
<path d="M73.3117 474.4C72.7401 468.953 71.9824 463.506 71.1583 458.098C69.4968 447.253 67.2784 436.499 64.5117 425.877C63.2133 420.891 61.6108 415.988 59.7128 411.194C59.8096 410.32 59.854 409.441 59.8458 408.562C59.8458 407.51 59.8458 406.457 59.8458 405.405C59.8458 403.299 59.7128 401.194 59.54 399.089C59.2039 394.927 58.5191 390.799 57.4929 386.748C56.8814 384.406 56.1636 382.09 55.4856 379.775C55.4794 379.761 55.4692 379.749 55.4562 379.74C55.4432 379.732 55.428 379.727 55.4125 379.727C55.397 379.727 55.3818 379.732 55.3688 379.74C55.3558 379.749 55.3456 379.761 55.3394 379.775C56.4402 383.824 57.2575 387.943 57.7853 392.103C58.381 396.199 58.7582 400.322 58.9152 404.457C58.9152 405.589 58.9152 406.72 58.9152 407.852C58.9152 408.325 58.9152 408.812 58.9152 409.299C57.2846 405.367 55.4157 401.536 53.3188 397.826C49.9309 391.945 46.1145 386.317 41.9 380.985C41.8806 380.367 41.7869 379.753 41.6208 379.157L41.1423 376.946C40.7967 375.446 40.4111 373.946 39.9991 372.46C39.1749 369.473 38.0849 366.592 37.141 363.645C37.141 363.552 36.9682 363.645 36.9948 363.645C37.8722 366.552 38.4571 369.578 39.135 372.552C39.4673 374.012 39.7864 375.486 40.1187 376.959C40.2782 377.683 40.4377 378.42 40.584 379.157V379.328C39.2546 377.643 37.9253 375.986 36.4631 374.354C30.1089 366.986 23.1699 360.184 16.1378 353.435C15.2738 352.606 14.3964 351.803 13.4792 350.974C13.4127 350.909 13.3064 350.974 13.3728 351.093C20.0194 358.013 26.666 365 32.9138 372.328C34.4026 374.065 35.8516 375.828 37.2873 377.591L35.0274 376.104C33.0866 374.854 31.1325 373.631 29.112 372.512C27.0914 371.394 25.124 370.302 22.9838 369.289C20.8436 368.276 18.5705 367.394 16.51 366.197C16.4303 366.197 16.3505 366.302 16.4436 366.342C18.5435 367.303 20.5695 368.416 22.5053 369.67C24.5391 370.854 26.4932 372.052 28.5404 373.302C30.5875 374.552 32.4618 375.736 34.4026 376.986C36.0244 378.025 37.6196 379.157 39.2945 380.117C43.1476 385.019 46.6989 390.146 49.9291 395.471C51.9452 398.823 53.7865 402.274 55.4457 405.812L54.2493 405.299L51.2052 403.984L45.3163 401.444C41.5942 399.839 37.8057 398.366 34.1368 396.603C32.073 395.644 30.0787 394.545 28.1681 393.313C28.0884 393.313 28.0219 393.392 28.1681 393.458C34.9875 398.103 42.6311 401.352 50.1816 404.694L53.4518 406.115C54.3424 406.51 55.2463 406.957 56.1104 407.299C58.3404 412.247 60.2193 417.342 61.7334 422.548C64.707 433.033 67.1209 443.665 68.9649 454.401C70.8791 465.15 72.1685 475.978 73.1655 486.846C73.2852 488.162 73.4048 489.556 73.5643 490.911C73.5822 491.012 73.6353 491.103 73.7143 491.169C73.7933 491.234 73.8932 491.27 73.9963 491.27C74.0995 491.27 74.1993 491.234 74.2784 491.169C74.3574 491.103 74.4105 491.012 74.4284 490.911C74.4683 485.372 73.8966 479.847 73.3117 474.4Z" fill="#263238"/>
<path d="M53.0796 383.459C52.4681 380.104 51.5642 376.88 50.6602 373.552C50.6602 373.46 50.4874 373.552 50.514 373.552C51.3515 376.762 51.9497 380.038 52.5612 383.314C53.1726 386.59 53.731 389.972 54.2095 393.327H54.3026C54.0798 390.017 53.6715 386.723 53.0796 383.459Z" fill="#263238"/>
<path d="M38.7496 392.524C36.4353 391.019 34.0191 389.674 31.5181 388.498C30.2951 387.88 29.0721 387.288 27.8492 386.695C26.6262 386.103 25.1905 385.59 24.0074 384.959C23.988 384.948 23.9653 384.946 23.9441 384.952C23.9229 384.958 23.905 384.972 23.8944 384.992C23.8839 385.011 23.8814 385.033 23.8877 385.054C23.8939 385.075 23.9083 385.093 23.9277 385.103C25.1507 385.696 26.3072 386.419 27.5035 387.077C28.6999 387.735 29.9495 388.393 31.1857 389.077C33.6184 390.393 36.0112 391.8 38.5635 392.853C38.5853 392.865 38.6093 392.873 38.6341 392.876C38.659 392.879 38.6841 392.877 38.7082 392.87C38.7323 392.863 38.7548 392.852 38.7744 392.836C38.7941 392.821 38.8105 392.802 38.8227 392.781C38.8349 392.759 38.8427 392.735 38.8456 392.711C38.8486 392.686 38.8466 392.661 38.8398 392.637C38.833 392.613 38.8215 392.591 38.8061 392.572C38.7906 392.552 38.7714 392.536 38.7496 392.524Z" fill="#263238"/>
<path opacity="0.1" d="M78.7354 416.601C78.7354 416.601 99.7651 411.628 109.429 397.668C118.641 384.327 121.632 361.592 121.858 359.592C121.486 361.421 117.139 381.301 102.823 390.55C91.8557 397.642 81.2611 403.471 78.7354 416.601Z" fill="#263238"/>
<path d="M98.1435 380.63C94.4064 384.036 91.7196 388.42 90.3936 393.274C90.3936 393.274 90.3936 393.34 90.3936 393.274C91.9344 388.532 94.6063 384.226 98.1834 380.722C98.3163 380.683 98.2099 380.564 98.1435 380.63Z" fill="#263238"/>
<path d="M78.7354 416.601C78.7354 416.601 99.7652 411.628 109.429 397.668C118.642 384.327 121.632 361.592 121.858 359.592C121.864 359.544 121.864 359.495 121.858 359.447C121.858 359.447 111.782 373.644 101.174 377.262C90.5663 380.88 75.6913 393.405 78.7354 416.601Z" fill="#00928F"/>
<path d="M118.163 367.276C116.275 371.101 114.102 374.782 111.663 378.288C109.206 381.607 106.294 384.57 103.009 387.09C100.151 389.34 97.1332 391.379 94.2353 393.577C94.2378 393.541 94.2378 393.506 94.2353 393.471C94.7759 392.682 95.3475 391.906 95.9501 391.142C97.1598 389.616 98.4758 388.182 99.8051 386.761C102.464 383.959 105.122 381.209 107.422 378.17C108.73 376.494 109.861 374.691 110.799 372.789C110.799 372.696 110.692 372.657 110.652 372.789C107.236 379.828 100.43 384.327 95.5646 390.274C94.8688 391.115 94.2209 391.993 93.6238 392.906C93.136 393.561 92.7298 394.272 92.4141 395.024C89.749 397.131 87.3401 399.537 85.2358 402.194C85.4201 400.83 85.7 399.481 86.0733 398.155C86.5682 396.307 87.3198 394.536 88.3065 392.892C88.3065 392.813 88.2268 392.734 88.1736 392.813C87.154 394.467 86.3332 396.234 85.7277 398.076C85.2874 399.54 85.0285 401.051 84.9567 402.576C83.9207 403.971 82.975 405.43 82.1252 406.944C82.205 406.497 82.298 406.062 82.3778 405.628C82.8032 403.549 83.2684 401.484 83.8002 399.431C84.7887 395.263 86.5025 391.296 88.8649 387.709C88.8733 387.7 88.8797 387.69 88.8836 387.678C88.8875 387.667 88.8887 387.655 88.8872 387.643C88.8857 387.631 88.8815 387.62 88.8749 387.61C88.8683 387.6 88.8594 387.592 88.8491 387.585C88.8387 387.579 88.8271 387.576 88.8151 387.574C88.8031 387.573 88.791 387.575 88.7797 387.579C88.7684 387.584 88.7582 387.59 88.75 387.599C88.7417 387.608 88.7355 387.618 88.7319 387.63C86.3143 391.165 84.4291 395.03 83.1355 399.102C82.4576 401.142 81.9258 403.221 81.4473 405.312C81.2213 406.339 81.0086 407.365 80.8092 408.404C80.7161 408.931 80.5965 409.47 80.5035 410.023C78.4225 414.56 76.7974 419.288 75.6514 424.14C73.5886 432.807 72.0923 441.596 71.1717 450.454C70.1048 459.712 69.6386 469.029 69.7759 478.347C69.7759 479.518 69.8689 480.689 69.9221 481.846C69.9221 482.149 70.4007 482.202 70.4139 481.846C70.6266 477.228 70.7463 472.637 71.0254 467.979C71.3046 463.321 71.7034 458.769 72.1952 454.151C73.158 445.105 74.6224 436.119 76.582 427.232C78.2835 419.627 80.5035 411.97 84.7041 405.299C86.7915 401.979 89.3475 398.971 92.2945 396.366C95.2456 393.734 98.4625 391.445 101.6 389.024C104.746 386.657 107.606 383.937 110.121 380.92C112.679 377.556 114.905 373.956 116.767 370.17C117.259 369.223 117.778 368.289 118.283 367.355C118.336 367.276 118.203 367.197 118.163 367.276Z" fill="#263238"/>
<path d="M114.534 370.328C113.149 373.132 111.582 375.844 109.841 378.446C109.841 378.446 109.841 378.564 109.934 378.512C111.738 375.934 113.325 373.215 114.68 370.381C114.72 370.289 114.574 370.249 114.534 370.328Z" fill="#263238"/>
<path d="M1.54193 407.391C1.54193 407.391 1.2096 436.981 19.0889 445.546C36.9682 454.112 46.5393 446.967 58.6893 449.836C58.2107 449.125 49.5436 436.797 35.7585 433.403C21.5614 429.863 5.84892 419.719 1.54193 407.391Z" fill="#00928F"/>
<path opacity="0.1" d="M1.54193 407.391C1.54193 407.391 1.2096 436.981 19.0889 445.546C36.9682 454.112 46.5393 446.967 58.6893 449.836C52.2722 446.81 45.4126 444.808 38.364 443.902C27.0781 442.52 5.54317 435.245 1.54193 407.391Z" fill="black"/>
<path d="M59.8591 450.336C57.7467 448.418 55.3646 446.814 52.7871 445.573C52.4016 445.389 52.0161 445.244 51.6173 445.073C51.4322 444.837 51.2324 444.613 51.0191 444.402C50.4874 443.849 49.9291 443.31 49.3442 442.81C48.2071 441.837 46.9886 440.961 45.7019 440.192C42.7508 438.468 39.5073 437.271 36.4764 435.666C36.3834 435.666 36.3036 435.758 36.3967 435.797C37.8988 436.573 39.3478 437.415 40.7967 438.257C42.2457 439.099 43.668 439.863 45.0372 440.744C46.28 441.534 47.4619 442.413 48.5732 443.376C48.8922 443.652 49.198 443.941 49.5037 444.244C47.5327 443.597 45.5212 443.079 43.4819 442.691C40.2118 442.047 36.8353 441.573 33.6317 440.889C32.0329 440.529 30.4534 440.09 28.8993 439.573C27.4105 438.389 25.9349 437.218 24.5259 435.929C22.821 434.433 21.2672 432.776 19.8866 430.982C19.8866 430.903 19.6872 430.982 19.7536 431.061C21.9204 433.961 24.374 436.641 27.0782 439.06C26.3072 438.771 25.5494 438.468 24.7917 438.126C18.656 435.396 13.389 431.06 9.55777 425.587C9.55777 425.508 9.37167 425.587 9.42484 425.666C12.6819 430.361 16.8756 434.346 21.7476 437.376C24.1946 438.882 26.8083 440.105 29.5374 441.02C32.7072 441.993 35.9406 442.749 39.2148 443.283C42.417 443.788 45.5797 444.513 48.6796 445.454C51.5425 446.411 54.2344 447.809 56.6555 449.599C61.1796 453.112 64.8197 457.616 67.29 462.756C70.4901 469.579 72.4863 476.895 73.1921 484.386C73.1921 484.701 73.7239 484.701 73.6973 484.386C72.8997 471.913 69.5498 458.966 59.8591 450.336Z" fill="#263238"/>
<path d="M39.1218 440.692C38.2066 439.315 36.9653 438.182 35.5061 437.389C33.8079 436.523 32.3202 435.302 31.1459 433.81C31.0795 433.731 30.9465 433.81 31.013 433.889C32.0801 435.249 33.3859 436.408 34.868 437.31C36.491 438.164 37.9205 439.337 39.0686 440.757C39.0554 440.823 39.1617 440.757 39.1218 440.692Z" fill="#263238"/>
<path d="M48.5999 472.163L49.4107 488.438L51.9098 538.145H89.3966L91.8957 488.438L92.7066 472.163H48.5999Z" fill="#455A64"/>
<path d="M48.5999 472.163L49.4107 488.438H91.8957L92.7066 472.163H48.5999Z" fill="#263238"/>
<path d="M45.9809 480.899H95.3384V465.374H45.9809V480.899Z" fill="#455A64"/>
<path d="M73.8411 212.162C73.0028 212.164 72.1976 211.843 71.6011 211.271L56.7516 197.014C56.4601 196.734 56.2286 196.401 56.0706 196.033C55.9126 195.666 55.8313 195.272 55.8313 194.873C55.8313 194.475 55.9126 194.081 56.0706 193.713C56.2286 193.345 56.4601 193.012 56.7516 192.732L71.5411 178.533C72.1572 177.945 72.9873 177.616 73.8511 177.619C74.715 177.621 75.5429 177.955 76.1552 178.547C76.7681 179.145 77.1123 179.954 77.1123 180.798C77.1123 181.641 76.7681 182.45 76.1553 183.048L65.1654 193.732C64.823 194.066 64.6307 194.518 64.6307 194.989C64.6307 195.461 64.823 195.913 65.1654 196.247L76.0956 206.873C76.542 207.306 76.8461 207.859 76.9693 208.46C77.0926 209.061 77.0295 209.684 76.788 210.251C76.5466 210.817 76.1376 211.301 75.613 211.641C75.0884 211.982 74.4717 212.163 73.8411 212.162V212.162Z" fill="#00928F"/>
<path d="M96.5584 212.162C95.9279 212.163 95.3112 211.982 94.7866 211.641C94.2621 211.301 93.8531 210.817 93.6117 210.251C93.3703 209.684 93.3072 209.061 93.4305 208.46C93.5537 207.859 93.8577 207.306 94.3041 206.873L105.233 196.247C105.576 195.913 105.768 195.461 105.768 194.99C105.768 194.518 105.576 194.066 105.233 193.732L94.2445 183.048C93.9405 182.752 93.6995 182.401 93.535 182.015C93.3705 181.629 93.2859 181.215 93.2859 180.798C93.2859 180.38 93.3706 179.966 93.535 179.58C93.6995 179.194 93.9406 178.843 94.2445 178.547C94.8568 177.955 95.6846 177.621 96.5484 177.619C97.4122 177.616 98.2422 177.945 98.8583 178.533L113.647 192.732C113.938 193.012 114.17 193.345 114.328 193.713C114.486 194.081 114.567 194.475 114.567 194.873C114.567 195.272 114.486 195.666 114.328 196.033C114.17 196.401 113.938 196.734 113.647 197.014L98.7983 211.271C98.2017 211.843 97.3967 212.164 96.5584 212.162Z" fill="#00928F"/>
<path d="M516.639 368.086C517.078 367.93 517.445 367.706 517.738 367.413C518.031 367.12 518.265 366.778 518.441 366.387C518.617 366.006 518.739 365.582 518.807 365.113C518.885 364.644 518.924 364.151 518.924 363.633V360.66C518.924 360.171 518.973 359.703 519.071 359.253C519.178 358.804 519.339 358.384 519.554 357.994C519.779 357.603 520.057 357.252 520.389 356.939C520.731 356.627 521.136 356.358 521.605 356.133C520.667 355.684 519.984 355.059 519.554 354.258C519.134 353.458 518.924 352.564 518.924 351.578V348.604C518.924 348.086 518.885 347.593 518.807 347.125C518.739 346.656 518.617 346.231 518.441 345.85C518.265 345.46 518.031 345.123 517.738 344.839C517.445 344.546 517.078 344.317 516.639 344.151L517.459 341.793C518.465 342.076 519.305 342.447 519.979 342.906C520.653 343.355 521.195 343.878 521.605 344.473C522.015 345.059 522.303 345.704 522.469 346.407C522.645 347.1 522.733 347.833 522.733 348.604V351.578C522.733 352.046 522.782 352.466 522.879 352.837C522.977 353.209 523.128 353.526 523.333 353.79C523.548 354.053 523.822 354.258 524.154 354.405C524.486 354.542 524.881 354.61 525.34 354.61V357.642C524.881 357.642 524.486 357.715 524.154 357.862C523.822 357.999 523.548 358.199 523.333 358.462C523.128 358.726 522.977 359.044 522.879 359.415C522.782 359.786 522.733 360.201 522.733 360.66V363.633C522.733 364.405 522.645 365.137 522.469 365.831C522.303 366.534 522.015 367.178 521.605 367.764C521.195 368.36 520.653 368.887 519.979 369.346C519.305 369.805 518.465 370.176 517.459 370.46L516.639 368.086Z" fill="#00928F"/>
<path d="M496.809 199.419C495.803 199.136 494.963 198.765 494.29 198.306C493.616 197.847 493.074 197.32 492.664 196.724C492.254 196.138 491.961 195.494 491.785 194.791C491.619 194.097 491.536 193.365 491.536 192.593V189.62C491.536 188.702 491.331 187.969 490.921 187.422C490.51 186.875 489.846 186.602 488.928 186.602V183.57C489.387 183.57 489.783 183.501 490.115 183.365C490.447 183.218 490.715 183.013 490.921 182.749C491.135 182.486 491.292 182.168 491.389 181.797C491.487 181.426 491.536 181.006 491.536 180.538V177.564C491.536 176.792 491.619 176.06 491.785 175.367C491.961 174.664 492.254 174.019 492.664 173.433C493.074 172.837 493.616 172.315 494.29 171.866C494.963 171.407 495.803 171.036 496.809 170.752L497.629 173.111C497.18 173.277 496.809 173.506 496.516 173.799C496.223 174.083 495.989 174.419 495.813 174.81C495.637 175.191 495.515 175.616 495.447 176.084C495.379 176.553 495.344 177.046 495.344 177.564V180.538C495.344 181.514 495.134 182.398 494.714 183.189C494.304 183.98 493.64 184.61 492.722 185.079C493.63 185.547 494.295 186.182 494.714 186.983C495.134 187.774 495.344 188.653 495.344 189.62V192.593C495.344 193.111 495.379 193.604 495.447 194.073C495.515 194.541 495.637 194.966 495.813 195.347C495.989 195.738 496.223 196.08 496.516 196.373C496.809 196.666 497.18 196.89 497.629 197.046L496.809 199.419Z" fill="#00928F"/>
<path d="M252.297 101.137C253.242 101.129 253.711 100.59 253.703 99.5195C253.703 99.0898 253.617 98.6602 253.445 98.2305C253.109 97.3945 252.492 96.9688 251.594 96.9531C250.484 96.9375 249.621 97.7852 249.004 99.4961C250.418 100.59 251.516 101.137 252.297 101.137ZM247.328 101.383C246.133 101.398 245.535 103.16 245.535 106.668C245.535 108.215 245.59 109.629 245.699 110.91H243.59C243.504 109.543 243.461 108.238 243.461 106.996C243.461 104.309 243.77 102.355 244.387 101.137C244.996 99.9414 245.84 99.2617 246.918 99.0977C248.066 96.1992 249.613 94.7461 251.559 94.7383C252.824 94.7305 253.832 95.1836 254.582 96.0977C255.332 97.0117 255.707 98.1055 255.707 99.3789C255.707 100.488 255.438 101.406 254.898 102.133C254.352 102.891 253.484 103.27 252.297 103.27C251.484 103.27 250.527 102.949 249.426 102.309C249.051 102.082 248.648 101.859 248.219 101.641C247.875 101.469 247.578 101.383 247.328 101.383ZM263.324 103H262.926C260.051 103 258.613 101.305 258.613 97.9141V86.7109H260.652V97.8906C260.652 99.8594 261.422 100.844 262.961 100.844H263.324V103ZM263.91 103H262.855C262.855 103 262.855 102.281 262.855 100.844H263.91C264.77 100.844 265.422 100.719 265.867 100.469C266.531 100.078 266.863 99.2617 266.863 98.0195C266.863 97.0898 266.719 96.0547 266.43 94.9141L268.34 94.4336C268.723 95.6523 268.914 96.8359 268.914 97.9844C268.914 99.8984 268.367 101.27 267.273 102.098C266.477 102.699 265.355 103 263.91 103ZM264.613 90.7422L266.324 89.0312L268.035 90.7539L266.336 92.4531L264.613 90.7422ZM286.715 103C280.77 103 277.797 101.102 277.797 97.3047C277.797 96.25 278.012 95.2461 278.441 94.293L280.281 94.9844C280.023 95.6406 279.895 96.3086 279.895 96.9883C279.895 99.5586 282.148 100.844 286.656 100.844C290.719 100.844 293.23 100.336 294.191 99.3203C294.457 99.0391 294.59 98.5625 294.59 97.8906C294.59 97.625 294.582 97.4023 294.566 97.2227L294.508 96.2734L296.441 96.0391L296.629 98.5586C296.676 99.2227 296.871 99.7734 297.215 100.211C297.551 100.633 298.098 100.844 298.855 100.844H299.148C299.148 100.844 299.148 101.562 299.148 103H298.855C297.207 103 296.035 102.309 295.34 100.926C294.035 102.309 291.176 103 286.762 103H286.715ZM287.652 92.1953L289.363 90.4844L291.074 92.207L289.375 93.9062L287.652 92.1953ZM283.844 92.1953L285.543 90.4844L287.266 92.207L285.555 93.9062L283.844 92.1953ZM307 103H306.73C305.184 103 304.117 102.449 303.531 101.348C302.758 102.449 301.602 103 300.062 103H298.703V100.844H300.004C301.418 100.844 302.223 100.328 302.418 99.2969C302.465 99.0234 302.488 98.6992 302.488 98.3242C302.488 97.9336 302.477 97.5625 302.453 97.2109L302.395 96.2617L304.316 96.0273L304.504 98.7344C304.605 100.141 305.355 100.844 306.754 100.844H307V103ZM300.238 106.715L301.949 105.004L303.66 106.727L301.961 108.426L300.238 106.715ZM307.574 103H306.52C306.52 103 306.52 102.281 306.52 100.844H307.574C308.824 100.844 309.672 100.719 310.117 100.469C310.781 100.078 311.113 99.2617 311.113 98.0195C311.113 97.0898 310.969 96.0547 310.68 94.9141L312.59 94.4336C312.973 95.6523 313.164 96.8359 313.164 97.9844C313.164 99.8984 312.617 101.27 311.523 102.098C310.727 102.699 309.41 103 307.574 103ZM308.406 87.7773L310.07 86.1016L311.746 87.7891L310.082 89.4531L308.406 87.7773ZM310.328 90.918L312.004 89.2539L313.68 90.9297L312.016 92.5938L310.328 90.918ZM306.531 90.918L308.184 89.2539L309.871 90.9297L308.195 92.5938L306.531 90.918Z" fill="black"/>
<path d="M327.691 224.672C327.691 225.729 328.281 226.26 329.461 226.266C329.94 226.266 330.335 226.191 330.645 226.043C331.134 225.806 331.379 225.51 331.379 225.156C331.379 225.008 331.277 224.934 331.074 224.934L330.629 224.93C329.996 224.927 329.68 224.626 329.68 224.027C329.68 223.566 329.857 223.151 330.211 222.781C330.594 222.383 331.159 222.165 331.906 222.129L331.988 222.125V222.879L331.902 222.883C331.421 222.906 331.046 223.022 330.777 223.23C330.52 223.428 330.388 223.661 330.383 223.93C330.38 224.125 330.465 224.223 330.637 224.223H331.102C331.719 224.22 332.027 224.479 332.027 225C332.027 225.768 331.646 226.328 330.883 226.68C330.49 226.859 330.009 226.949 329.441 226.949C327.819 226.949 327.008 226.194 327.008 224.684C327.008 224.126 327.15 223.512 327.434 222.84L328.055 223.094C327.812 223.674 327.691 224.201 327.691 224.672ZM335.055 224.793C334.904 225.973 334.085 226.703 332.598 226.984L332.355 226.367C333.72 226.112 334.405 225.458 334.41 224.406C334.413 224.052 334.311 223.635 334.105 223.156L334.754 222.922L334.996 223.68C335.126 224.081 335.371 224.281 335.73 224.281H335.887C335.887 224.281 335.887 224.521 335.887 225H335.773C335.396 225 335.156 224.931 335.055 224.793ZM336.074 225H335.723C335.723 225 335.723 224.76 335.723 224.281H336.074C336.361 224.281 336.578 224.24 336.727 224.156C336.948 224.026 337.059 223.754 337.059 223.34C337.059 223.03 337.01 222.685 336.914 222.305L337.551 222.145C337.678 222.551 337.742 222.945 337.742 223.328C337.742 223.966 337.56 224.423 337.195 224.699C336.93 224.9 336.556 225 336.074 225ZM336.086 226.238L336.656 225.668L337.227 226.242L336.66 226.809L336.086 226.238ZM340.48 222.922C340.697 223.448 340.805 223.936 340.805 224.387C340.807 225.806 339.98 226.672 338.324 226.984L338.082 226.367C339.447 226.112 340.132 225.458 340.137 224.406C340.139 224.052 340.038 223.635 339.832 223.156L340.48 222.922ZM343.316 225H343.184C342.225 225 341.746 224.435 341.746 223.305V219.57H342.426V223.297C342.426 223.953 342.682 224.281 343.195 224.281H343.316V225ZM344.098 221.059C344.777 221.629 345.275 222.083 345.59 222.422C345.928 222.789 346.094 223.193 346.086 223.633C346.07 224.544 345.299 225 343.773 225H343.16C343.16 225 343.16 224.76 343.16 224.281H343.77C344.845 224.281 345.384 224.033 345.387 223.535C345.387 223.28 345.251 223.026 344.98 222.773C344.582 222.401 344.227 222.092 343.914 221.848C343.617 221.616 343.469 221.372 343.469 221.117C343.469 220.779 343.651 220.54 344.016 220.402L346.723 219.375V220.082L344.098 221.059ZM352.469 224.379C352.784 224.376 352.94 224.197 352.938 223.84C352.938 223.697 352.909 223.553 352.852 223.41C352.74 223.132 352.534 222.99 352.234 222.984C351.865 222.979 351.577 223.262 351.371 223.832C351.842 224.197 352.208 224.379 352.469 224.379ZM350.812 224.461C350.414 224.466 350.215 225.053 350.215 226.223C350.215 226.738 350.233 227.21 350.27 227.637H349.566C349.538 227.181 349.523 226.746 349.523 226.332C349.523 225.436 349.626 224.785 349.832 224.379C350.035 223.98 350.316 223.754 350.676 223.699C351.059 222.733 351.574 222.249 352.223 222.246C352.645 222.243 352.98 222.395 353.23 222.699C353.48 223.004 353.605 223.368 353.605 223.793C353.605 224.163 353.516 224.469 353.336 224.711C353.154 224.964 352.865 225.09 352.469 225.09C352.198 225.09 351.879 224.983 351.512 224.77C351.387 224.694 351.253 224.62 351.109 224.547C350.995 224.49 350.896 224.461 350.812 224.461ZM356.145 225H356.012C355.053 225 354.574 224.435 354.574 223.305V219.57H355.254V223.297C355.254 223.953 355.51 224.281 356.023 224.281H356.145V225ZM356.34 225H355.988C355.988 225 355.988 224.76 355.988 224.281H356.34C356.626 224.281 356.844 224.24 356.992 224.156C357.214 224.026 357.324 223.754 357.324 223.34C357.324 223.03 357.276 222.685 357.18 222.305L357.816 222.145C357.944 222.551 358.008 222.945 358.008 223.328C358.008 223.966 357.826 224.423 357.461 224.699C357.195 224.9 356.822 225 356.34 225ZM356.574 220.914L357.145 220.344L357.715 220.918L357.148 221.484L356.574 220.914Z" fill="black"/>
</g>
<defs>
<clipPath id="clip0_412_521">
<rect width="556" height="540" fill="white"/>
</clipPath>
</defs>
</svg>
