<svg width="95" height="84" viewBox="0 0 95 84" fill="none" xmlns="http://www.w3.org/2000/svg">
<path d="M56.04 80.516C56.04 80.516 59.2182 74.0648 81.7189 75.9162L85.2744 70.8081H65.6997C63.1381 70.8081 60.6814 71.8309 58.8699 73.6514C57.0584 75.4719 56.0405 77.9412 56.04 80.516Z" fill="#004948"/>
<path d="M71.9278 55.1557C71.9198 53.9952 72.3707 52.8789 73.1813 52.0525C73.9919 51.226 75.0959 50.757 76.2504 50.7486L83.1774 50.6196H83.2456C85.7124 50.6207 88.112 49.8117 90.0792 48.3157C92.0464 46.8197 93.4735 44.7186 94.1433 42.3322C94.813 39.9458 94.6888 37.4048 93.7894 35.0959C92.8901 32.7871 91.2649 30.8368 89.1612 29.5419C87.5373 28.7477 85.8082 28.1923 84.027 27.8928C81.1409 27.4002 78.1808 27.58 75.3747 28.4184C72.5685 29.2568 69.9913 30.7313 67.8414 32.7285C65.5763 32.9213 64.3193 32.7285 64.3193 32.7285C57.1339 29.373 61.6991 24.3254 61.6991 24.3254L68.2614 22.1171L68.328 22.0964C70.681 21.3544 72.7284 19.8602 74.159 17.8411C75.5895 15.822 76.3248 13.3886 76.253 10.9109C76.1813 8.43313 75.3064 6.04678 73.7614 4.11478C72.2164 2.18278 70.0859 0.810867 67.694 0.207724C64.8356 -0.21516 61.9191 0.017425 59.1629 0.888062C56.5182 1.71987 54.0854 3.12066 52.0338 4.99305C49.9821 6.86545 48.3607 9.16452 47.2824 11.7304C45.9887 8.66335 43.9246 5.98657 41.2924 3.96223C38.6602 1.93788 35.5501 0.635366 32.2666 0.182232C30.4782 -0.0690057 28.6632 -0.0604209 26.8772 0.207724C24.4862 0.811909 22.3568 2.18425 20.8126 4.11615C19.2685 6.04806 18.3941 8.43388 18.3224 10.911C18.2506 13.3881 18.9854 15.821 20.4151 17.8399C21.8448 19.8589 23.8911 21.3534 26.2432 22.0964L26.3081 22.1171L32.8785 24.3254C32.8785 24.3254 37.4357 29.373 30.2503 32.7364C30.2503 32.7364 28.9933 32.9276 26.7298 32.7364C24.5802 30.7387 22.003 29.2636 19.1969 28.4247C16.3908 27.5857 13.4305 27.4054 10.5442 27.8976C8.76048 28.1947 7.02867 28.7485 5.40204 29.5419C3.29986 30.8374 1.67613 32.7876 0.777792 35.0958C-0.120543 37.404 -0.244326 39.944 0.425268 42.3294C1.09486 44.7149 2.5212 46.8152 4.48734 48.311C6.45349 49.8069 8.85186 50.6164 11.3177 50.6164H11.3859L18.3128 50.7454C19.4756 50.7454 20.5908 51.2098 21.4131 52.0362C22.2353 52.8627 22.6972 53.9837 22.6972 55.1525C22.6972 56.3213 22.2353 57.4423 21.4131 58.2687C20.5908 59.0952 19.4756 59.5595 18.3128 59.5595H1.66909L3.75193 63.2608L4.97406 65.4372H30.7893C32.4067 65.4366 34.0084 65.7565 35.5027 66.3786C36.997 67.0007 38.3546 67.9128 39.498 69.0628C40.6413 70.2127 41.5479 71.5779 42.1658 73.0804C42.7837 74.5828 43.101 76.1929 43.0993 77.8187V83.3347H51.464V77.8187C51.4637 76.1941 51.7819 74.5855 52.4003 73.0845C53.0187 71.5836 53.9252 70.2198 55.0681 69.0711C56.2109 67.9223 57.5677 67.0112 59.0609 66.3896C60.5542 65.768 62.1546 65.4482 63.7708 65.4484H89.5971L90.8208 63.2719L92.9021 59.5707H76.2584C75.6853 59.5676 75.1186 59.4508 74.5905 59.227C74.0625 59.0033 73.5836 58.677 73.1813 58.2668C72.7789 57.8567 72.4611 57.3707 72.246 56.8368C72.0309 56.3029 71.9228 55.7317 71.9278 55.1557ZM72.1719 36.8886C74.9655 34.5058 78.5118 33.2005 82.1756 33.2065C82.3848 33.2065 82.5925 33.2065 82.7986 33.2192C83.4838 33.2459 84.1664 33.3194 84.8418 33.4391C86.2622 33.8381 87.4908 34.7409 88.2999 35.9805C89.109 37.22 89.4439 38.7122 89.2425 40.1808C89.0412 41.6494 88.3172 42.995 87.2047 43.9683C86.0922 44.9417 84.6666 45.4769 83.1917 45.4748L82.7811 45.4589L76.7989 45.2422H76.7577C76.5722 45.2295 76.3899 45.2215 76.2013 45.2215C75.4034 45.2199 74.6102 45.3441 73.8506 45.5895C72.3274 46.0788 70.9919 47.0295 70.0271 48.3113C69.0623 49.5931 68.5154 51.1434 68.4612 52.7498C68.4627 52.7715 68.4627 52.7934 68.4612 52.8151C68.4431 52.9562 68.3786 53.0871 68.278 53.187C68.1773 53.287 68.0463 53.3502 67.9058 53.3667C67.7653 53.3832 67.6234 53.352 67.5025 53.278C67.3817 53.204 67.289 53.0916 67.239 52.9585C67.2311 52.933 67.2232 52.9075 67.2169 52.8789C67.2169 52.8789 67.2169 52.8789 67.2169 52.8661C66.4499 50.004 66.51 46.9815 67.3901 44.1524C68.2701 41.3234 69.9337 38.8049 72.1862 36.8917L72.1719 36.8886ZM53.6689 12.3343C55.6226 9.21683 58.6173 6.9009 62.1159 5.80178C62.3141 5.73805 62.5154 5.68069 62.7135 5.62652C63.374 5.44479 64.0461 5.30851 64.725 5.21864C66.1988 5.1715 67.6397 5.66258 68.781 6.601C69.9223 7.53942 70.6868 8.86164 70.933 10.323C71.1791 11.7843 70.8903 13.2858 70.12 14.5496C69.3497 15.8133 68.15 16.7538 66.7429 17.197L66.345 17.3054L60.5736 18.8987L60.534 18.9082C60.3533 18.9528 60.1758 19.0006 59.9966 19.0564C59.2348 19.2954 58.5148 19.6529 57.8631 20.1159C56.5547 21.041 55.563 22.3501 55.0238 23.8639C54.4846 25.3777 54.4244 27.022 54.8514 28.5716C54.8514 28.5939 54.864 28.613 54.8688 28.6369C54.8934 28.7769 54.8707 28.9212 54.8044 29.0468C54.738 29.1723 54.6317 29.272 54.5025 29.3299C54.3733 29.3878 54.2286 29.4006 54.0913 29.3662C53.954 29.3319 53.8321 29.2524 53.7449 29.1404C53.7307 29.1197 53.7148 29.0973 53.699 29.0718C53.6831 29.0464 53.699 29.0719 53.699 29.0607C52.1171 26.5613 51.2752 23.6612 51.2715 20.6989C51.2679 17.7366 52.1027 14.8344 53.6784 12.3311L53.6689 12.3343ZM34.0293 18.9194L33.9896 18.9098L28.2182 17.3165L27.8219 17.2082C26.4109 16.7683 25.2067 15.8285 24.4329 14.5635C23.6591 13.2985 23.3684 11.7942 23.6148 10.33C23.8612 8.86582 24.6278 7.54127 25.7724 6.60237C26.917 5.66348 28.3617 5.17406 29.8382 5.22501C30.5171 5.31488 31.1892 5.45116 31.8497 5.63289C32.0494 5.68707 32.2492 5.74442 32.4473 5.80815C34.7184 6.52713 36.7944 7.76172 38.5148 9.41637C40.2351 11.071 41.5536 13.1014 42.3683 15.3503C43.1829 17.5991 43.4718 20.0063 43.2127 22.3854C42.9535 24.7645 42.1533 27.0518 40.8738 29.0703C40.8738 29.0703 40.8738 29.0703 40.8738 29.0814C40.8738 29.0926 40.8437 29.1292 40.8278 29.1499C40.7507 29.2588 40.6409 29.3401 40.5146 29.3819C40.3883 29.4237 40.252 29.424 40.1256 29.3825C39.9767 29.3347 39.8507 29.2332 39.7717 29.0976C39.6928 28.9621 39.6664 28.802 39.6976 28.648C39.6976 28.6241 39.7087 28.605 39.7151 28.5827C40.142 27.0332 40.0818 25.3888 39.5426 23.8751C39.0034 22.3613 38.0117 21.0522 36.7033 20.1271C36.0518 19.6637 35.3318 19.3062 34.5698 19.0676C34.3875 19.0086 34.21 18.9608 34.0293 18.9162V18.9194ZM20.7143 45.5895C19.9547 45.3441 19.1614 45.2199 18.3635 45.2215C18.1749 45.2215 17.9926 45.2295 17.8072 45.2422H17.766L11.7837 45.4589L11.3732 45.4732C9.89941 45.4735 8.47538 44.9374 7.36437 43.9641C6.25337 42.9908 5.53053 41.6461 5.3295 40.1785C5.12846 38.711 5.46284 37.22 6.2708 35.981C7.07876 34.7421 8.30566 33.8392 9.72465 33.4391C10.4001 33.3205 11.0827 33.2481 11.7679 33.2224C11.9739 33.2144 12.1832 33.2096 12.3908 33.2096C14.7718 33.2111 17.1205 33.7634 19.2551 34.8236C21.3897 35.8838 23.2529 37.4236 24.7005 39.3237C26.1481 41.2238 27.1413 43.4333 27.6031 45.7811C28.065 48.1289 27.9831 50.552 27.3638 52.8629C27.3638 52.8629 27.3638 52.8709 27.3638 52.8757C27.3559 52.9044 27.348 52.9298 27.3401 52.9553C27.2974 53.08 27.2174 53.1884 27.1109 53.2654C27.0044 53.3425 26.8768 53.3844 26.7456 53.3855C26.5879 53.3863 26.4355 53.328 26.3183 53.2219C26.2011 53.1159 26.1274 52.9697 26.1116 52.8119C26.11 52.7902 26.11 52.7684 26.1116 52.7466C26.0569 51.139 25.5087 49.5877 24.542 48.3057C23.5754 47.0237 22.2378 46.0738 20.7127 45.5864L20.7143 45.5895ZM63.1732 59.5659C59.4746 59.5659 55.8861 60.8314 52.9982 63.1541C50.1104 65.4769 48.0951 68.7185 47.284 72.3457C46.4727 68.7187 44.4573 65.4772 41.5695 63.1545C38.6817 60.8318 35.0933 59.5662 31.3948 59.5659H28.1025C30.5362 56.7846 32.1197 53.3564 32.6629 49.6928C33.2061 46.0292 32.686 42.2858 31.1649 38.912C33.2256 38.6587 35.9599 37.7139 39.5835 35.6872C43.0232 33.6004 45.7181 30.4734 47.2824 26.7536C48.8461 30.4732 51.5405 33.6003 54.9797 35.6872C58.6033 37.7139 61.3361 38.6587 63.3983 38.912C61.8771 42.2849 61.3563 46.0272 61.8984 49.6901C62.4404 53.3531 64.0224 56.781 66.4544 59.5627L63.1732 59.5659Z" fill="#004948"/>
<path d="M28.8634 70.8081H9.28882L12.8474 75.9176C35.345 74.0662 38.5263 80.5172 38.5263 80.5172C38.5263 79.2419 38.2764 77.9791 37.7907 76.8009C37.3051 75.6228 36.5932 74.5523 35.6959 73.6507C34.7986 72.7491 33.7334 72.034 32.561 71.5463C31.3887 71.0585 30.1322 70.8077 28.8634 70.8081Z" fill="#004948"/>
</svg>
