<svg width="50" height="50" viewBox="0 0 50 50" fill="none" xmlns="http://www.w3.org/2000/svg">
<path d="M25 0C11.1928 0 0 11.1928 0 25C0 38.8072 11.1928 50 25 50C38.8072 50 50 38.8072 50 25C50 11.1928 38.8072 0 25 0Z" fill="#00685B"/>
<path d="M37.1645 14.3802L32.6991 36.8938C32.6991 36.8938 32.0747 38.4551 30.3573 37.7057L20.053 29.8057L16.3061 27.9947L9.99864 25.8713C9.99864 25.8713 9.03067 25.5279 8.93692 24.7785C8.84317 24.0291 10.0299 23.6232 10.0299 23.6232L35.1034 13.7872C35.1034 13.7872 37.1643 12.8817 37.1643 14.3806" fill="#FEFEFE"/>
<path d="M19.2615 36.6413C19.2615 36.6413 18.9607 36.6132 18.5857 35.4265C18.2113 34.2399 16.3064 27.9949 16.3064 27.9949L31.4505 18.3775C31.4505 18.3775 32.325 17.8467 32.2937 18.3775C32.2937 18.3775 32.4498 18.4713 31.9812 18.9084C31.513 19.3457 20.0847 29.6187 20.0847 29.6187" fill="#D2F1E5"/>
<path d="M24.0042 32.8349L19.9287 36.5509C19.9287 36.5509 19.6099 36.7927 19.2615 36.6412L20.0419 29.7388" fill="#B5CFE4"/>
</svg>
