<svg width="53" height="51" viewBox="0 0 53 51" fill="none" xmlns="http://www.w3.org/2000/svg">
<ellipse cx="26.4733" cy="25.5" rx="26.4733" ry="25.5" fill="#FFD8A6"/>
<path d="M31.3528 11.5089L41.788 28.8706C43.2876 31.3642 42.551 34.6449 40.142 36.1973C39.3334 36.7203 38.3909 36.999 37.4277 37H16.5558C13.72 37 11.4199 34.62 11.4199 31.6815C11.4199 30.6875 11.6893 29.7153 12.1954 28.8706L22.6322 11.5089C24.1302 9.01534 27.2977 8.25155 29.7068 9.80401C30.3733 10.2333 30.937 10.8167 31.3528 11.5089ZM27.8957 12.814C27.7051 12.6915 27.4915 12.6089 27.268 12.5712C27.0445 12.5334 26.8157 12.5413 26.5953 12.5944C26.375 12.6475 26.1677 12.7446 25.9859 12.8799C25.8042 13.0153 25.6518 13.186 25.538 13.3818L15.1028 30.7466C14.9333 31.0296 14.844 31.3533 14.8443 31.6831C14.8443 32.6631 15.6105 33.4564 16.5573 33.4564H37.4261C37.7469 33.4564 38.0599 33.3631 38.3309 33.1889C38.7197 32.9308 38.9939 32.5329 39.0963 32.0779C39.1987 31.623 39.1214 31.1461 38.8806 30.7466L28.4454 13.3818C28.3085 13.1532 28.121 12.9589 27.8973 12.814H27.8957ZM26.9925 30.7777C26.5795 30.7777 26.1834 30.6138 25.8913 30.3221C25.5993 30.0304 25.4352 29.6347 25.4352 29.2222C25.4352 28.8096 25.5993 28.4139 25.8913 28.1222C26.1834 27.8305 26.5795 27.6666 26.9925 27.6666C27.4055 27.6666 27.8016 27.8305 28.0936 28.1222C28.3857 28.4139 28.5497 28.8096 28.5497 29.2222C28.5497 29.6347 28.3857 30.0304 28.0936 30.3221C27.8016 30.6138 27.4055 30.7777 26.9925 30.7777ZM26.9925 16.7776C27.4055 16.7776 27.8016 16.9415 28.0936 17.2332C28.3857 17.525 28.5497 17.9206 28.5497 18.3332V24.5555C28.5497 24.968 28.3857 25.3637 28.0936 25.6554C27.8016 25.9471 27.4055 26.111 26.9925 26.111C26.5795 26.111 26.1834 25.9471 25.8913 25.6554C25.5993 25.3637 25.4352 24.968 25.4352 24.5555V18.3332C25.4352 17.9206 25.5993 17.525 25.8913 17.2332C26.1834 16.9415 26.5795 16.7776 26.9925 16.7776Z" fill="#FB8C00"/>
</svg>
