<svg width="184" height="60" viewBox="0 0 184 60" fill="none" xmlns="http://www.w3.org/2000/svg">
<path d="M29.043 13.5995C28.7837 14.1504 28.7675 14.9119 28.8809 24.9897C28.962 33.2042 28.9458 36.0234 28.7999 36.7525C27.7792 41.7266 21.914 43.6061 18.3495 40.1064C17.912 39.6527 17.3449 38.875 17.0695 38.2755L16.5672 37.2224L16.4862 33.3176C16.4052 29.4291 16.4052 29.4129 15.9677 28.7648C15.4493 27.9871 14.6716 27.582 13.6508 27.582C12.7273 27.582 12.0954 27.8899 11.5121 28.6676L11.0585 29.2509L11.0099 32.7505C10.9775 34.9054 11.0261 36.7201 11.1395 37.4654C11.6903 40.9489 13.9587 44.1893 17.0209 45.8906L18.1875 46.5387H22.6593H27.1473L28.0546 46.0526C30.9386 44.5458 33.0773 41.8724 33.9685 38.6482C34.4545 36.8659 34.5031 35.0189 34.3411 24.0985C34.2115 15.1873 34.1629 13.9883 33.9198 13.5185L33.6444 13H31.4895H29.3184L29.043 13.5995Z" fill="url(#paint0_linear_1673_593)"/>
<path d="M39.4123 13.5995C39.1368 14.1666 39.1206 14.7661 39.2341 22.3973C39.3475 30.385 39.3475 30.5957 39.7039 31.3086C39.9632 31.827 40.2548 32.1349 40.7733 32.3941C41.4862 32.7668 41.5186 32.7668 48.3235 32.7668C55.1447 32.7668 55.1609 32.7668 55.8576 32.3941C58.0287 31.2437 57.6398 28.0843 55.2419 27.42C54.8854 27.3228 52.5847 27.258 49.6683 27.258H44.6942L44.6456 20.6475C44.597 14.7012 44.5646 14.0045 44.3054 13.5185L44.0137 13H41.8588H39.6877L39.4123 13.5995Z" fill="url(#paint1_linear_1673_593)"/>
<path d="M142.183 16.5807C141.908 16.7265 141.892 17.1478 141.892 21.5548C141.892 25.1031 141.94 26.4317 142.086 26.5775C142.669 27.1608 142.993 26.8853 147.692 22.1867C150.203 19.6591 152.261 17.488 152.261 17.3584C152.261 17.2288 152.148 16.9533 152.002 16.7589C151.759 16.4025 151.726 16.4025 147.109 16.4025C144.257 16.4025 142.345 16.4835 142.183 16.5807Z" fill="url(#paint2_linear_1673_593)"/>
<path d="M167.086 16.6617C166.324 16.9047 165.498 17.6987 154.48 28.6838C145.423 37.7408 142.604 40.641 142.296 41.2567C141.535 42.7635 141.843 44.9022 142.977 46.085L143.414 46.5387H146.266H149.101L160.799 34.8244C171.882 23.7259 172.497 23.0778 172.757 22.2515C173.307 20.534 172.854 18.8328 171.493 17.5852C170.31 16.4835 168.755 16.1756 167.086 16.6617Z" fill="url(#paint3_linear_1673_593)"/>
<path d="M124.912 19.3189C124.15 19.7888 123.745 20.5503 123.745 21.5062C123.745 22.9806 124.75 24.0175 126.175 24.0175C127.131 24.0175 127.958 23.5639 128.395 22.7862C129.4 21.0525 128.185 18.9948 126.175 18.9948C125.738 18.9948 125.236 19.1245 124.912 19.3189Z" fill="url(#paint4_linear_1673_593)"/>
<path d="M85.4273 23.6125C85.1681 23.7583 84.8116 24.0014 84.6334 24.1472C83.9205 24.8115 83.8881 25.0545 83.8881 30.2068C83.8881 32.9126 83.8233 35.5374 83.7261 36.072C83.24 39.037 80.9069 41.3702 77.9581 41.84C75.8194 42.1803 73.3566 41.2892 71.9308 39.6689C70.4402 37.9677 70.1162 36.7039 70.1162 32.5075C70.1162 29.5587 70.1 29.3805 69.7435 28.862C68.5607 27.1122 66.3086 27.1284 65.1259 28.8782C64.7532 29.4453 64.737 29.4615 64.8018 33.5769C64.8666 37.352 64.899 37.8057 65.2393 38.7616C66.3734 42.0183 68.4635 44.481 71.3475 45.9878L72.4007 46.5387H76.9697C82.0896 46.5387 81.96 46.5549 83.8719 45.2587C86.4642 43.4927 88.3599 40.6735 88.9918 37.6599C89.1214 37.0604 89.2348 35.7156 89.2348 34.6624V32.7668H95.3917C100.204 32.7668 101.678 32.7182 102.083 32.5399C102.796 32.2483 103.59 31.3086 103.72 30.5957C103.979 29.2671 103.072 27.7927 101.792 27.4362C101.37 27.3228 99.0048 27.258 95.1973 27.258H89.2348V26.3507C89.2348 25.2489 88.8946 24.4712 88.1493 23.9041C87.4364 23.3695 86.1402 23.2236 85.4273 23.6125Z" fill="url(#paint5_linear_1673_593)"/>
<path d="M113.327 27.501C112.501 27.7927 111.982 28.2949 111.674 29.105C111.448 29.6883 111.431 30.8063 111.464 37.6274C111.512 45.1129 111.529 45.5179 111.837 46.0202L112.144 46.5387H114.234H116.308L116.616 45.842C116.908 45.1939 116.94 44.7078 116.94 37.3358C116.94 31.0979 116.892 29.4129 116.713 28.9916C116.438 28.3111 115.644 27.6468 114.866 27.42C114.121 27.2256 114.089 27.2256 113.327 27.501Z" fill="url(#paint6_linear_1673_593)"/>
<path d="M125.511 27.42C124.847 27.6144 124.264 28.0519 123.907 28.6352C123.599 29.1374 123.583 29.4129 123.583 37.3196C123.583 45.1939 123.599 45.5017 123.907 46.0202L124.231 46.5549L126.305 46.5063L128.363 46.4577L128.638 45.8906C128.897 45.3721 128.93 44.6106 128.93 37.3358C128.93 28.6676 128.962 28.9106 128.006 28.0519C127.277 27.3714 126.402 27.1446 125.511 27.42Z" fill="url(#paint7_linear_1673_593)"/>
<path d="M75.6567 27.9061C74.0203 28.9106 74.1013 31.422 75.8025 32.2807C77.52 33.1718 79.5129 31.9404 79.5129 29.9962C79.5129 28.5866 78.4597 27.582 77.0015 27.582C76.483 27.582 75.997 27.6955 75.6567 27.9061Z" fill="url(#paint8_linear_1673_593)"/>
<path d="M44.4348 36.4447C43.0414 36.7201 42.3771 38.8588 43.333 39.9282C43.9487 40.6411 44.451 40.7059 48.6798 40.7059C52.2605 40.7059 52.7627 40.6735 53.2488 40.4142C54.9338 39.5069 54.626 37.0118 52.7951 36.4933C52.2443 36.3475 45.1477 36.2989 44.4348 36.4447Z" fill="url(#paint9_linear_1673_593)"/>
<path d="M93.7708 37.514C92.7501 38.0325 92.345 39.4907 92.9607 40.4952C93.5602 41.4998 93.787 41.5322 98.6477 41.4836L103.038 41.435L103.589 40.8355C104.043 40.317 104.14 40.1064 104.14 39.4745C104.14 38.6158 103.8 37.9515 103.168 37.5626C102.779 37.3358 102.115 37.3034 98.4371 37.3034C95.3586 37.3034 94.0624 37.3682 93.7708 37.514Z" fill="url(#paint10_linear_1673_593)"/>
<path d="M167.119 41.921L162.599 46.5387H167.8H173V42.2289C173 39.5717 172.936 37.8057 172.838 37.6112C172.725 37.4006 172.498 37.3034 172.142 37.3034C171.672 37.3034 171.153 37.7894 167.119 41.921Z" fill="url(#paint11_linear_1673_593)"/>
<path d="M47.4326 42.2937C47.1248 42.4395 46.7035 42.8283 46.4929 43.1362C45.9582 43.9139 46.0392 45.5017 46.6225 46.1336C46.979 46.5225 47.0924 46.5387 48.664 46.5387H50.3328L50.7055 46.004C51.2078 45.2911 51.224 43.8491 50.7379 43.1848C49.8954 42.0506 48.5992 41.6942 47.4326 42.2937Z" fill="url(#paint12_linear_1673_593)"/>
<rect x="1.5" y="1.5" width="181" height="57" rx="6.5" stroke="url(#paint13_linear_1673_593)" stroke-width="3"/>
<defs>
<linearGradient id="paint0_linear_1673_593" x1="14.331" y1="46.5387" x2="37.0185" y2="42.3779" gradientUnits="userSpaceOnUse">
<stop stop-color="#00ADAA"/>
<stop offset="1" stop-color="#00928F"/>
</linearGradient>
<linearGradient id="paint1_linear_1673_593" x1="41.7441" y1="32.7668" x2="58.8872" y2="28.6413" gradientUnits="userSpaceOnUse">
<stop stop-color="#00ADAA"/>
<stop offset="1" stop-color="#00928F"/>
</linearGradient>
<linearGradient id="paint2_linear_1673_593" x1="143.366" y1="26.8003" x2="153.081" y2="24.2564" gradientUnits="userSpaceOnUse">
<stop stop-color="#00ADAA"/>
<stop offset="1" stop-color="#00928F"/>
</linearGradient>
<linearGradient id="paint3_linear_1673_593" x1="146.301" y1="46.5387" x2="175.307" y2="38.6675" gradientUnits="userSpaceOnUse">
<stop stop-color="#00ADAA"/>
<stop offset="1" stop-color="#00928F"/>
</linearGradient>
<linearGradient id="paint4_linear_1673_593" x1="124.457" y1="24.0175" x2="129.151" y2="22.7884" gradientUnits="userSpaceOnUse">
<stop stop-color="#00ADAA"/>
<stop offset="1" stop-color="#00928F"/>
</linearGradient>
<linearGradient id="paint5_linear_1673_593" x1="70.3171" y1="46.5387" x2="102.964" y2="32.0976" gradientUnits="userSpaceOnUse">
<stop stop-color="#00ADAA"/>
<stop offset="1" stop-color="#00928F"/>
</linearGradient>
<linearGradient id="paint6_linear_1673_593" x1="112.232" y1="46.5387" x2="117.696" y2="46.1296" gradientUnits="userSpaceOnUse">
<stop stop-color="#00ADAA"/>
<stop offset="1" stop-color="#00928F"/>
</linearGradient>
<linearGradient id="paint7_linear_1673_593" x1="124.343" y1="46.5549" x2="129.668" y2="46.1665" gradientUnits="userSpaceOnUse">
<stop stop-color="#00ADAA"/>
<stop offset="1" stop-color="#00928F"/>
</linearGradient>
<linearGradient id="paint8_linear_1673_593" x1="75.1927" y1="32.5759" x2="79.9042" y2="31.3283" gradientUnits="userSpaceOnUse">
<stop stop-color="#00ADAA"/>
<stop offset="1" stop-color="#00928F"/>
</linearGradient>
<linearGradient id="paint9_linear_1673_593" x1="44.5151" y1="40.7059" x2="52.2767" y2="35.3302" gradientUnits="userSpaceOnUse">
<stop stop-color="#00ADAA"/>
<stop offset="1" stop-color="#00928F"/>
</linearGradient>
<linearGradient id="paint10_linear_1673_593" x1="94.301" y1="41.497" x2="101.877" y2="36.0563" gradientUnits="userSpaceOnUse">
<stop stop-color="#00ADAA"/>
<stop offset="1" stop-color="#00928F"/>
</linearGradient>
<linearGradient id="paint11_linear_1673_593" x1="164.078" y1="46.5387" x2="173.654" y2="43.7066" gradientUnits="userSpaceOnUse">
<stop stop-color="#00ADAA"/>
<stop offset="1" stop-color="#00928F"/>
</linearGradient>
<linearGradient id="paint12_linear_1673_593" x1="46.8398" y1="46.5387" x2="51.4248" y2="45.2218" gradientUnits="userSpaceOnUse">
<stop stop-color="#00ADAA"/>
<stop offset="1" stop-color="#00928F"/>
</linearGradient>
<linearGradient id="paint13_linear_1673_593" x1="26.1651" y1="-1.36244e-06" x2="137.912" y2="89.9829" gradientUnits="userSpaceOnUse">
<stop stop-color="#00ADAA"/>
<stop offset="1" stop-color="#00928F"/>
</linearGradient>
</defs>
</svg>
