<svg width="22" height="22" viewBox="0 0 22 22" fill="none" xmlns="http://www.w3.org/2000/svg">
<path d="M15.6754 3.83274L18.1671 6.32333L15.6754 3.83274ZM17.2777 1.63862L10.5401 8.37628C10.1919 8.72392 9.9545 9.16685 9.85771 9.64922L9.23535 12.7645L12.3507 12.141C12.833 12.0445 13.2754 11.808 13.6236 11.4598L20.3613 4.72216C20.5637 4.51969 20.7243 4.27932 20.8339 4.01479C20.9435 3.75025 20.9999 3.46672 20.9999 3.18039C20.9999 2.89406 20.9435 2.61053 20.8339 2.34599C20.7243 2.08145 20.5637 1.84109 20.3613 1.63862C20.1588 1.43615 19.9184 1.27555 19.6539 1.16597C19.3893 1.0564 19.1058 1 18.8195 1C18.5332 1 18.2496 1.0564 17.9851 1.16597C17.7205 1.27555 17.4802 1.43615 17.2777 1.63862V1.63862Z" stroke="#004948" stroke-width="2" stroke-linecap="round" stroke-linejoin="round"/>
<path d="M18.6471 15.1173V18.6467C18.6471 19.2707 18.3992 19.8692 17.9579 20.3105C17.5167 20.7517 16.9182 20.9996 16.2941 20.9996H3.35294C2.7289 20.9996 2.13042 20.7517 1.68916 20.3105C1.2479 19.8692 1 19.2707 1 18.6467V5.70548C1 5.08144 1.2479 4.48296 1.68916 4.0417C2.13042 3.60044 2.7289 3.35254 3.35294 3.35254H6.88236" stroke="#004948" stroke-width="2" stroke-linecap="round" stroke-linejoin="round"/>
</svg>
