<svg width="19" height="17" viewBox="0 0 19 17" fill="none" xmlns="http://www.w3.org/2000/svg">
<path d="M7.5 8.83203C9.706 8.83203 11.5 7.03803 11.5 4.83203C11.5 2.62603 9.706 0.832031 7.5 0.832031C5.294 0.832031 3.5 2.62603 3.5 4.83203C3.5 7.03803 5.294 8.83203 7.5 8.83203ZM9 9.83203H6C2.691 9.83203 0 12.523 0 15.832V16.832H15V15.832C15 12.523 12.309 9.83203 9 9.83203Z" fill="#004948"/>
<path d="M14.6036 7.88C15.2126 6.84209 15.4757 5.63731 15.3546 4.44C15.1756 2.656 14.1796 1.079 12.5516 0L11.4466 1.666C12.5656 2.408 13.2466 3.465 13.3646 4.64C13.419 5.1861 13.351 5.73746 13.1656 6.25398C12.9801 6.77051 12.6819 7.23921 12.2926 7.626L11.1006 8.818L12.7186 9.293C16.9506 10.533 16.9996 14.789 16.9996 14.832H18.9996C18.9996 13.043 18.0436 9.547 14.6036 7.88Z" fill="#004948"/>
</svg>
