<svg width="20" height="18" viewBox="0 0 20 18" fill="none" xmlns="http://www.w3.org/2000/svg">
<path d="M6.17708 9C5.05208 9.03348 4.13194 9.46205 3.41667 10.2857H2.02083C1.45139 10.2857 0.972222 10.1501 0.583333 9.87891C0.194444 9.6077 0 9.21094 0 8.68862C0 6.32478 0.430556 5.14286 1.29167 5.14286C1.33333 5.14286 1.48438 5.21317 1.74479 5.35379C2.00521 5.49442 2.34375 5.63672 2.76042 5.78069C3.17708 5.92466 3.59028 5.99665 4 5.99665C4.46528 5.99665 4.92708 5.91964 5.38542 5.76562C5.35069 6.01339 5.33333 6.23438 5.33333 6.42857C5.33333 7.35938 5.61458 8.21652 6.17708 9ZM17.3333 15.3984C17.3333 16.202 17.0799 16.8365 16.5729 17.3019C16.066 17.7673 15.3924 18 14.5521 18H5.44792C4.60764 18 3.93403 17.7673 3.42708 17.3019C2.92014 16.8365 2.66667 16.202 2.66667 15.3984C2.66667 15.0435 2.67882 14.697 2.70312 14.3588C2.72743 14.0206 2.77604 13.6557 2.84896 13.264C2.92188 12.8722 3.01389 12.5089 3.125 12.1741C3.23611 11.8393 3.38542 11.5128 3.57292 11.1948C3.76042 10.8767 3.97569 10.6055 4.21875 10.3811C4.46181 10.1568 4.75868 9.97768 5.10938 9.84375C5.46007 9.70982 5.84722 9.64286 6.27083 9.64286C6.34028 9.64286 6.48958 9.71484 6.71875 9.85882C6.94792 10.0028 7.20139 10.1635 7.47917 10.341C7.75694 10.5184 8.12847 10.6791 8.59375 10.8231C9.05903 10.9671 9.52778 11.0391 10 11.0391C10.4722 11.0391 10.941 10.9671 11.4062 10.8231C11.8715 10.6791 12.2431 10.5184 12.5208 10.341C12.7986 10.1635 13.0521 10.0028 13.2812 9.85882C13.5104 9.71484 13.6597 9.64286 13.7292 9.64286C14.1528 9.64286 14.5399 9.70982 14.8906 9.84375C15.2413 9.97768 15.5382 10.1568 15.7812 10.3811C16.0243 10.6055 16.2396 10.8767 16.4271 11.1948C16.6146 11.5128 16.7639 11.8393 16.875 12.1741C16.9861 12.5089 17.0781 12.8722 17.151 13.264C17.224 13.6557 17.2726 14.0206 17.2969 14.3588C17.3212 14.697 17.3333 15.0435 17.3333 15.3984ZM6.66667 2.57143C6.66667 3.28125 6.40625 3.88728 5.88542 4.38951C5.36458 4.89174 4.73611 5.14286 4 5.14286C3.26389 5.14286 2.63542 4.89174 2.11458 4.38951C1.59375 3.88728 1.33333 3.28125 1.33333 2.57143C1.33333 1.86161 1.59375 1.25558 2.11458 0.753348C2.63542 0.251116 3.26389 0 4 0C4.73611 0 5.36458 0.251116 5.88542 0.753348C6.40625 1.25558 6.66667 1.86161 6.66667 2.57143ZM14 6.42857C14 7.4933 13.6094 8.40234 12.8281 9.15569C12.0469 9.90904 11.1042 10.2857 10 10.2857C8.89583 10.2857 7.95312 9.90904 7.17188 9.15569C6.39062 8.40234 6 7.4933 6 6.42857C6 5.36384 6.39062 4.4548 7.17188 3.70145C7.95312 2.9481 8.89583 2.57143 10 2.57143C11.1042 2.57143 12.0469 2.9481 12.8281 3.70145C13.6094 4.4548 14 5.36384 14 6.42857ZM20 8.68862C20 9.21094 19.8056 9.6077 19.4167 9.87891C19.0278 10.1501 18.5486 10.2857 17.9792 10.2857H16.5833C15.8681 9.46205 14.9479 9.03348 13.8229 9C14.3854 8.21652 14.6667 7.35938 14.6667 6.42857C14.6667 6.23438 14.6493 6.01339 14.6146 5.76562C15.0729 5.91964 15.5347 5.99665 16 5.99665C16.4097 5.99665 16.8229 5.92466 17.2396 5.78069C17.6562 5.63672 17.9948 5.49442 18.2552 5.35379C18.5156 5.21317 18.6667 5.14286 18.7083 5.14286C19.5694 5.14286 20 6.32478 20 8.68862ZM18.6667 2.57143C18.6667 3.28125 18.4062 3.88728 17.8854 4.38951C17.3646 4.89174 16.7361 5.14286 16 5.14286C15.2639 5.14286 14.6354 4.89174 14.1146 4.38951C13.5938 3.88728 13.3333 3.28125 13.3333 2.57143C13.3333 1.86161 13.5938 1.25558 14.1146 0.753348C14.6354 0.251116 15.2639 0 16 0C16.7361 0 17.3646 0.251116 17.8854 0.753348C18.4062 1.25558 18.6667 1.86161 18.6667 2.57143Z" fill="#004948"/>
</svg>
