<svg width="21" height="15" viewBox="0 0 21 15" fill="none" xmlns="http://www.w3.org/2000/svg">
<path d="M2.25 0C1.01625 0 0 1.01625 0 2.25V12.75C0 13.9838 1.01625 15 2.25 15H18.75C19.9837 15 21 13.9838 21 12.75V2.25C21 1.01625 19.9837 0 18.75 0H2.25ZM2.25 1.5H18.75C19.1745 1.5 19.5 1.8255 19.5 2.25V12.75C19.5 13.1745 19.1745 13.5 18.75 13.5H2.25C1.8255 13.5 1.5 13.1745 1.5 12.75V2.25C1.5 1.8255 1.8255 1.5 2.25 1.5ZM6.75 3C5.1 3 3.75 4.35 3.75 6C3.75 6.83475 4.10775 7.58775 4.66425 8.133C4.15374 8.4775 3.73522 8.9416 3.44515 9.48488C3.15508 10.0282 3.00226 10.6341 3 11.25H4.5C4.5 9.999 5.499 9 6.75 9C8.001 9 9 9.999 9 11.25H10.5C10.4977 10.6341 10.3449 10.0282 10.0549 9.48488C9.76478 8.9416 9.34626 8.4775 8.83575 8.133C9.39225 7.58775 9.75 6.8355 9.75 6C9.75 4.35 8.4 3 6.75 3ZM12 3.75V5.25H18V3.75H12ZM6.75 4.5C7.58775 4.5 8.25 5.16225 8.25 6C8.25 6.83775 7.58775 7.5 6.75 7.5C5.91225 7.5 5.25 6.83775 5.25 6C5.25 5.16225 5.91225 4.5 6.75 4.5ZM12 6.75V8.25H18V6.75H12ZM12 9.75V11.25H15.75V9.75H12Z" fill="#004948"/>
</svg>
