<svg width="22" height="21" viewBox="0 0 22 21" fill="none" xmlns="http://www.w3.org/2000/svg">
<path d="M14.3333 5.21747C14.9227 5.21747 15.4879 5.43996 15.9047 5.836C16.3214 6.23204 16.5556 6.76918 16.5556 7.32926L14.3333 5.21747ZM21 7.32926C21.0003 8.31882 20.7567 9.29468 20.2887 10.1786C19.8206 11.0626 19.1412 11.8301 18.3048 12.4196C17.4685 13.0091 16.4984 13.4042 15.4725 13.5733C14.4465 13.7424 13.3931 13.6807 12.3967 13.3933L9.88889 15.7764H7.66667V17.8882H5.44444V20H2.11111C1.81643 20 1.53381 19.8888 1.32544 19.6907C1.11706 19.4927 1 19.2241 1 18.9441V16.2136C1.00006 15.9335 1.11717 15.665 1.32556 15.467L7.95222 9.16969C7.67494 8.29859 7.59841 7.38094 7.72783 6.47921C7.85725 5.57748 8.18958 4.71283 8.70221 3.94411C9.21484 3.1754 9.89574 2.52066 10.6985 2.02447C11.5014 1.52827 12.4072 1.20227 13.3545 1.06866C14.3018 0.935037 15.2683 0.996937 16.1882 1.25014C17.108 1.50335 17.9597 1.94191 18.6852 2.53599C19.4106 3.13007 19.9929 3.86571 20.3924 4.69284C20.7918 5.51997 20.9991 6.41918 21 7.32926V7.32926Z" stroke="#004948" stroke-width="2" stroke-linecap="round" stroke-linejoin="round"/>
</svg>
