<svg width="16" height="20" viewBox="0 0 16 20" fill="none" xmlns="http://www.w3.org/2000/svg">
<path d="M11.7826 9.78149L11.7729 9.80669C11.7759 9.79909 11.7783 9.79129 11.7813 9.78369L11.7826 9.78149Z" fill="#004948"/>
<path d="M8.0004 0C4.7048 0 2 2.696 2 5.9844C2 7.2588 2.408 8.4464 3.096 9.4192L3.0714 9.3808L6.9126 16.0204L6.932 16.0458C7.0868 16.2478 7.24 16.4106 7.4254 16.5332C7.6108 16.6558 7.8482 16.7332 8.0814 16.7098C8.5474 16.663 8.8182 16.341 9.0684 16.0018L9.084 15.9808L13.3188 8.774L13.3222 8.768C13.4236 8.585 13.497 8.4004 13.5598 8.2216C13.8502 7.51147 13.9997 6.75162 14 5.9844C14 2.696 11.296 0 8.0004 0ZM8.0004 1C10.7512 1 13 3.2436 13 5.9844C13.0002 6.62458 12.8752 7.25861 12.632 7.8508L12.627 7.8632L12.6226 7.8762C12.57 8.0276 12.5128 8.165 12.4468 8.2842L8.255 15.4174C8.0696 15.6616 7.94 15.7194 7.9816 15.715C8.003 15.713 8.0228 15.7298 7.977 15.6994C7.9332 15.6704 7.8438 15.5854 7.7378 15.4502L3.926 8.86L3.9126 8.8414C3.338 8.0294 3 7.046 3 5.9844C3 3.2438 5.2496 1 8.0004 1ZM8.0004 2.57C6.108 2.57 4.5774 4.0952 4.5774 5.9844C4.5774 7.8736 6.1082 9.3988 8.0004 9.3988C9.8926 9.3988 11.4226 7.8734 11.4226 5.9844C11.4226 4.0952 9.8926 2.57 8.0004 2.57ZM8.0004 3.57C9.3638 3.57 10.4226 4.627 10.4226 5.9844C10.4226 7.3418 9.364 8.3988 8.0004 8.3988C6.6368 8.3988 5.5774 7.3416 5.5774 5.9844C5.5774 4.627 6.637 3.57 8.0004 3.57Z" fill="#004948"/>
<path d="M4.8012 13.8113C1.976 14.2105 0 15.1655 0 16.5713C0 18.4649 3.3016 19.9999 8 19.9999C12.6984 19.9999 16 18.4649 16 16.5713C16 15.1655 14.0242 14.2105 11.1992 13.8113L10.8078 14.4777C12.937 14.7731 14.4 15.3939 14.4 16.1143C14.4 17.1243 11.5346 17.9429 8 17.9429C4.4654 17.9429 1.6 17.1243 1.6 16.1143C1.5998 15.3963 3.0532 14.7761 5.189 14.4795C5.06 14.2567 4.9302 14.0343 4.801 13.8113H4.8012Z" fill="#004948"/>
</svg>
