<svg width="15" height="14" viewBox="0 0 15 14" fill="none" xmlns="http://www.w3.org/2000/svg">
<path d="M12.75 0H2.25C1.2875 0 0.5 0.7875 0.5 1.75V12.25C0.5 13.2125 1.2875 14 2.25 14H12.75C13.7125 14 14.5 13.2125 14.5 12.25V1.75C14.5 0.7875 13.7125 0 12.75 0ZM7.50875 11.375C6.9925 11.375 6.59 10.9637 6.59 10.4563C6.59 9.94 7.00125 9.54625 7.50875 9.54625C8.025 9.54625 8.41875 9.94 8.41875 10.4563C8.41 10.9637 8.025 11.375 7.50875 11.375ZM9.69625 5.97625C9.145 6.79 8.62 7.035 8.33125 7.56C8.2175 7.77 8.17375 7.91 8.17375 8.5925H6.84375C6.84375 8.23375 6.79125 7.6475 7.07125 7.14875C7.43 6.51 8.10375 6.13375 8.4975 5.57375C8.9175 4.97875 8.68125 3.87625 7.5 3.87625C6.73 3.87625 6.345 4.4625 6.1875 4.9525L4.98875 4.45375C5.32125 3.465 6.205 2.625 7.49125 2.625C8.5675 2.625 9.31125 3.115 9.6875 3.7275C10.0113 4.26125 10.195 5.24125 9.69625 5.97625Z" fill="#004948"/>
</svg>
