<svg width="20" height="18" viewBox="0 0 20 18" fill="none" xmlns="http://www.w3.org/2000/svg">
<path d="M3.8125 1.375V16.5H16.1875V1.375H3.8125ZM3.125 0H16.875C17.0573 0 17.2322 0.0724328 17.3611 0.201364C17.4901 0.330295 17.5625 0.505164 17.5625 0.6875V17.1875C17.5625 17.3698 17.4901 17.5447 17.3611 17.6736C17.2322 17.8026 17.0573 17.875 16.875 17.875H3.125C2.94266 17.875 2.7678 17.8026 2.63886 17.6736C2.50993 17.5447 2.4375 17.3698 2.4375 17.1875V0.6875C2.4375 0.505164 2.50993 0.330295 2.63886 0.201364C2.7678 0.0724328 2.94266 0 3.125 0Z" fill="#004948"/>
<path d="M0.375 16.5H19.625V17.875H0.375V16.5ZM5.875 2.75H8.625V4.8125H5.875V2.75Z" fill="#004948"/>
<path d="M7.25 16.5H12.75V15.125C12.75 14.3957 12.4603 13.6962 11.9445 13.1805C11.4288 12.6647 10.7293 12.375 10 12.375C9.27065 12.375 8.57118 12.6647 8.05546 13.1805C7.53973 13.6962 7.25 14.3957 7.25 15.125V16.5ZM10 11C11.094 11 12.1432 11.4346 12.9168 12.2082C13.6904 12.9818 14.125 14.031 14.125 15.125V17.875H5.875V15.125C5.875 14.031 6.3096 12.9818 7.08318 12.2082C7.85677 11.4346 8.90598 11 10 11ZM5.875 6.875H8.625V8.9375H5.875V6.875ZM11.375 2.75H14.125V4.8125H11.375V2.75ZM11.375 6.875H14.125V8.9375H11.375V6.875Z" fill="#004948"/>
</svg>
