<svg width="20" height="18" viewBox="0 0 20 18" fill="none" xmlns="http://www.w3.org/2000/svg">
<path d="M20 8.1V9.9C19.2255 9.9 19.0909 10.215 19.0909 11.0826V15.1308C19.0909 17.3934 17.7636 17.9712 15.4545 18V16.2C16.7309 16.1712 17.2727 16.3386 17.2727 14.976V11.1087C17.2367 10.6256 17.3288 10.1416 17.54 9.7047C17.74 9.3637 18.0643 9.11151 18.4464 9C18.0643 8.88849 17.74 8.6363 17.54 8.2953C17.3288 7.85835 17.2367 7.37436 17.2727 6.8913V3.0231C17.2727 1.6614 16.7309 1.8288 15.4545 1.8V0C17.7636 0.0288 19.0909 0.6066 19.0909 2.8692V6.9174C19.0909 7.7841 19.2255 8.1 20 8.1ZM0 8.1V9.9C0.774545 9.9 0.909091 10.215 0.909091 11.0826V15.1308C0.909091 17.3934 2.23636 17.9712 4.54545 18V16.2C3.26909 16.1712 2.72727 16.3386 2.72727 14.976V11.1087C2.76329 10.6256 2.67115 10.1416 2.46 9.7047C2.25981 9.36351 1.9351 9.11131 1.55273 9C1.9351 8.88869 2.25981 8.63648 2.46 8.2953C2.67115 7.85835 2.76329 7.37436 2.72727 6.8913V3.0231C2.72727 1.6614 3.26909 1.8288 4.54545 1.8V0C2.23636 0.0288 0.909091 0.6066 0.909091 2.8692V6.9174C0.909091 7.7841 0.774545 8.1 0 8.1ZM15.4545 6.3H4.54545V11.7H15.4545V6.3ZM6.36364 8.1H13.6364V9.9H6.36364V8.1Z" fill="#004948"/>
</svg>
